<?xml version="1.0" encoding="UTF-8" standalone="no"?>
<!DOCTYPE svg PUBLIC "-//W3C//DTD SVG 1.1//EN"
 "http://www.w3.org/Graphics/SVG/1.1/DTD/svg11.dtd">
<!-- Generated by graphviz version 2.43.0 (0)
 -->
<!-- Title: G Pages: 1 -->
<svg width="1480pt" height="687pt"
 viewBox="0.00 0.00 1480.00 687.34" xmlns="http://www.w3.org/2000/svg" xmlns:xlink="http://www.w3.org/1999/xlink">
<g id="graph0" class="graph" transform="scale(1 1) rotate(0) translate(4 683.34)">
<title>G</title>
<text text-anchor="middle" x="736" y="-667.34" font-family="Times,serif" font-size="10.00">ClosingTheLoop imports (internal)</text>
<!-- HeytingLean.ClosingTheLoop.BundleDemoMain -->
<g id="node1" class="node">
<title>HeytingLean.ClosingTheLoop.BundleDemoMain</title>
<path fill="#0f1721" stroke="#43a047" d="M262.5,-39.34C262.5,-39.34 47.5,-39.34 47.5,-39.34 41.5,-39.34 35.5,-33.34 35.5,-27.34 35.5,-27.34 35.5,-15.34 35.5,-15.34 35.5,-9.34 41.5,-3.34 47.5,-3.34 47.5,-3.34 262.5,-3.34 262.5,-3.34 268.5,-3.34 274.5,-9.34 274.5,-15.34 274.5,-15.34 274.5,-27.34 274.5,-27.34 274.5,-33.34 268.5,-39.34 262.5,-39.34"/>
<text text-anchor="middle" x="155" y="-19.14" font-family="Times,serif" font-size="9.00" fill="#e6eef7">HeytingLean.ClosingTheLoop.BundleDemoMain</text>
</g>
<!-- HeytingLean.ClosingTheLoop.Cat.Admissible -->
<g id="node2" class="node">
<title>HeytingLean.ClosingTheLoop.Cat.Admissible</title>
<path fill="#0f1721" stroke="#43a047" d="M911.5,-552.34C911.5,-552.34 710.5,-552.34 710.5,-552.34 704.5,-552.34 698.5,-546.34 698.5,-540.34 698.5,-540.34 698.5,-528.34 698.5,-528.34 698.5,-522.34 704.5,-516.34 710.5,-516.34 710.5,-516.34 911.5,-516.34 911.5,-516.34 917.5,-516.34 923.5,-522.34 923.5,-528.34 923.5,-528.34 923.5,-540.34 923.5,-540.34 923.5,-546.34 917.5,-552.34 911.5,-552.34"/>
<text text-anchor="middle" x="811" y="-532.14" font-family="Times,serif" font-size="9.00" fill="#e6eef7">HeytingLean.ClosingTheLoop.Cat.Admissible</text>
</g>
<!-- HeytingLean.ClosingTheLoop.Cat.Selector -->
<g id="node7" class="node">
<title>HeytingLean.ClosingTheLoop.Cat.Selector</title>
<path fill="#0f1721" stroke="#43a047" d="M1201,-444.34C1201,-444.34 1012,-444.34 1012,-444.34 1006,-444.34 1000,-438.34 1000,-432.34 1000,-432.34 1000,-420.34 1000,-420.34 1000,-414.34 1006,-408.34 1012,-408.34 1012,-408.34 1201,-408.34 1201,-408.34 1207,-408.34 1213,-414.34 1213,-420.34 1213,-420.34 1213,-432.34 1213,-432.34 1213,-438.34 1207,-444.34 1201,-444.34"/>
<text text-anchor="middle" x="1106.5" y="-424.14" font-family="Times,serif" font-size="9.00" fill="#e6eef7">HeytingLean.ClosingTheLoop.Cat.Selector</text>
</g>
<!-- HeytingLean.ClosingTheLoop.Cat.Admissible&#45;&gt;HeytingLean.ClosingTheLoop.Cat.Selector -->
<g id="edge1" class="edge">
<title>HeytingLean.ClosingTheLoop.Cat.Admissible&#45;&gt;HeytingLean.ClosingTheLoop.Cat.Selector</title>
<path fill="none" stroke="#90a4ae" d="M910.95,-516.3C921.2,-513.64 931.37,-510.65 941,-507.34 985.43,-492.02 1033.32,-467.44 1065.9,-449.36"/>
<polygon fill="#90a4ae" stroke="#90a4ae" points="1067.66,-452.39 1074.67,-444.45 1064.24,-446.28 1067.66,-452.39"/>
</g>
<!-- HeytingLean.ClosingTheLoop.Cat.ClosureOperator -->
<g id="node3" class="node">
<title>HeytingLean.ClosingTheLoop.Cat.ClosureOperator</title>
<path fill="#0f1721" stroke="#43a047" d="M609.5,-444.34C609.5,-444.34 381.5,-444.34 381.5,-444.34 375.5,-444.34 369.5,-438.34 369.5,-432.34 369.5,-432.34 369.5,-420.34 369.5,-420.34 369.5,-414.34 375.5,-408.34 381.5,-408.34 381.5,-408.34 609.5,-408.34 609.5,-408.34 615.5,-408.34 621.5,-414.34 621.5,-420.34 621.5,-420.34 621.5,-432.34 621.5,-432.34 621.5,-438.34 615.5,-444.34 609.5,-444.34"/>
<text text-anchor="middle" x="495.5" y="-424.14" font-family="Times,serif" font-size="9.00" fill="#e6eef7">HeytingLean.ClosingTheLoop.Cat.ClosureOperator</text>
</g>
<!-- HeytingLean.ClosingTheLoop.Cat.InverseEvaluation -->
<g id="node6" class="node">
<title>HeytingLean.ClosingTheLoop.Cat.InverseEvaluation</title>
<path fill="#0f1721" stroke="#43a047" d="M928.5,-444.34C928.5,-444.34 693.5,-444.34 693.5,-444.34 687.5,-444.34 681.5,-438.34 681.5,-432.34 681.5,-432.34 681.5,-420.34 681.5,-420.34 681.5,-414.34 687.5,-408.34 693.5,-408.34 693.5,-408.34 928.5,-408.34 928.5,-408.34 934.5,-408.34 940.5,-414.34 940.5,-420.34 940.5,-420.34 940.5,-432.34 940.5,-432.34 940.5,-438.34 934.5,-444.34 928.5,-444.34"/>
<text text-anchor="middle" x="811" y="-424.14" font-family="Times,serif" font-size="9.00" fill="#e6eef7">HeytingLean.ClosingTheLoop.Cat.InverseEvaluation</text>
</g>
<!-- HeytingLean.ClosingTheLoop.Cat.ClosureOperator&#45;&gt;HeytingLean.ClosingTheLoop.Cat.InverseEvaluation -->
<g id="edge2" class="edge">
<title>HeytingLean.ClosingTheLoop.Cat.ClosureOperator&#45;&gt;HeytingLean.ClosingTheLoop.Cat.InverseEvaluation</title>
<path fill="none" stroke="#90a4ae" d="M621.76,-426.34C638,-426.34 654.71,-426.34 671.16,-426.34"/>
<polygon fill="#90a4ae" stroke="#90a4ae" points="671.36,-429.84 681.36,-426.34 671.36,-422.84 671.36,-429.84"/>
</g>
<!-- HeytingLean.ClosingTheLoop.Cat.Concreteness -->
<g id="node4" class="node">
<title>HeytingLean.ClosingTheLoop.Cat.Concreteness</title>
<path fill="#0f1721" stroke="#43a047" d="M261.5,-444.34C261.5,-444.34 48.5,-444.34 48.5,-444.34 42.5,-444.34 36.5,-438.34 36.5,-432.34 36.5,-432.34 36.5,-420.34 36.5,-420.34 36.5,-414.34 42.5,-408.34 48.5,-408.34 48.5,-408.34 261.5,-408.34 261.5,-408.34 267.5,-408.34 273.5,-414.34 273.5,-420.34 273.5,-420.34 273.5,-432.34 273.5,-432.34 273.5,-438.34 267.5,-444.34 261.5,-444.34"/>
<text text-anchor="middle" x="155" y="-424.14" font-family="Times,serif" font-size="9.00" fill="#e6eef7">HeytingLean.ClosingTheLoop.Cat.Concreteness</text>
</g>
<!-- HeytingLean.ClosingTheLoop.Cat.Concreteness&#45;&gt;HeytingLean.ClosingTheLoop.Cat.ClosureOperator -->
<g id="edge3" class="edge">
<title>HeytingLean.ClosingTheLoop.Cat.Concreteness&#45;&gt;HeytingLean.ClosingTheLoop.Cat.ClosureOperator</title>
<path fill="none" stroke="#90a4ae" d="M273.92,-426.34C301.36,-426.34 330.79,-426.34 358.93,-426.34"/>
<polygon fill="#90a4ae" stroke="#90a4ae" points="359.23,-429.84 369.23,-426.34 359.23,-422.84 359.23,-429.84"/>
</g>
<!-- HeytingLean.ClosingTheLoop.Cat.EvalImage -->
<g id="node5" class="node">
<title>HeytingLean.ClosingTheLoop.Cat.EvalImage</title>
<path fill="#0f1721" stroke="#43a047" d="M911,-498.34C911,-498.34 711,-498.34 711,-498.34 705,-498.34 699,-492.34 699,-486.34 699,-486.34 699,-474.34 699,-474.34 699,-468.34 705,-462.34 711,-462.34 711,-462.34 911,-462.34 911,-462.34 917,-462.34 923,-468.34 923,-474.34 923,-474.34 923,-486.34 923,-486.34 923,-492.34 917,-498.34 911,-498.34"/>
<text text-anchor="middle" x="811" y="-478.14" font-family="Times,serif" font-size="9.00" fill="#e6eef7">HeytingLean.ClosingTheLoop.Cat.EvalImage</text>
</g>
<!-- HeytingLean.ClosingTheLoop.Cat.EvalImage&#45;&gt;HeytingLean.ClosingTheLoop.Cat.Selector -->
<g id="edge4" class="edge">
<title>HeytingLean.ClosingTheLoop.Cat.EvalImage&#45;&gt;HeytingLean.ClosingTheLoop.Cat.Selector</title>
<path fill="none" stroke="#90a4ae" d="M910.14,-462.28C938.16,-457.12 968.86,-451.48 997.44,-446.22"/>
<polygon fill="#90a4ae" stroke="#90a4ae" points="998.25,-449.63 1007.45,-444.38 996.98,-442.74 998.25,-449.63"/>
</g>
<!-- HeytingLean.ClosingTheLoop.Cat.InverseEvaluation&#45;&gt;HeytingLean.ClosingTheLoop.Cat.Selector -->
<g id="edge5" class="edge">
<title>HeytingLean.ClosingTheLoop.Cat.InverseEvaluation&#45;&gt;HeytingLean.ClosingTheLoop.Cat.Selector</title>
<path fill="none" stroke="#90a4ae" d="M940.73,-426.34C956.91,-426.34 973.37,-426.34 989.34,-426.34"/>
<polygon fill="#90a4ae" stroke="#90a4ae" points="989.75,-429.84 999.75,-426.34 989.75,-422.84 989.75,-429.84"/>
</g>
<!-- HeytingLean.ClosingTheLoop.Cat.YonedaView -->
<g id="node8" class="node">
<title>HeytingLean.ClosingTheLoop.Cat.YonedaView</title>
<path fill="#0f1721" stroke="#43a047" d="M914,-390.34C914,-390.34 708,-390.34 708,-390.34 702,-390.34 696,-384.34 696,-378.34 696,-378.34 696,-366.34 696,-366.34 696,-360.34 702,-354.34 708,-354.34 708,-354.34 914,-354.34 914,-354.34 920,-354.34 926,-360.34 926,-366.34 926,-366.34 926,-378.34 926,-378.34 926,-384.34 920,-390.34 914,-390.34"/>
<text text-anchor="middle" x="811" y="-370.14" font-family="Times,serif" font-size="9.00" fill="#e6eef7">HeytingLean.ClosingTheLoop.Cat.YonedaView</text>
</g>
<!-- HeytingLean.ClosingTheLoop.Cat.YonedaView&#45;&gt;HeytingLean.ClosingTheLoop.Cat.Selector -->
<g id="edge6" class="edge">
<title>HeytingLean.ClosingTheLoop.Cat.YonedaView&#45;&gt;HeytingLean.ClosingTheLoop.Cat.Selector</title>
<path fill="none" stroke="#90a4ae" d="M910.14,-390.39C938.16,-395.55 968.86,-401.2 997.44,-406.46"/>
<polygon fill="#90a4ae" stroke="#90a4ae" points="996.98,-409.93 1007.45,-408.3 998.25,-403.05 996.98,-409.93"/>
</g>
<!-- HeytingLean.ClosingTheLoop.Cat.YonedaViewNat -->
<g id="node9" class="node">
<title>HeytingLean.ClosingTheLoop.Cat.YonedaViewNat</title>
<path fill="#0f1721" stroke="#43a047" d="M922.5,-336.34C922.5,-336.34 699.5,-336.34 699.5,-336.34 693.5,-336.34 687.5,-330.34 687.5,-324.34 687.5,-324.34 687.5,-312.34 687.5,-312.34 687.5,-306.34 693.5,-300.34 699.5,-300.34 699.5,-300.34 922.5,-300.34 922.5,-300.34 928.5,-300.34 934.5,-306.34 934.5,-312.34 934.5,-312.34 934.5,-324.34 934.5,-324.34 934.5,-330.34 928.5,-336.34 922.5,-336.34"/>
<text text-anchor="middle" x="811" y="-316.14" font-family="Times,serif" font-size="9.00" fill="#e6eef7">HeytingLean.ClosingTheLoop.Cat.YonedaViewNat</text>
</g>
<!-- HeytingLean.ClosingTheLoop.Cat.YonedaViewNat&#45;&gt;HeytingLean.ClosingTheLoop.Cat.Selector -->
<g id="edge7" class="edge">
<title>HeytingLean.ClosingTheLoop.Cat.YonedaViewNat&#45;&gt;HeytingLean.ClosingTheLoop.Cat.Selector</title>
<path fill="none" stroke="#90a4ae" d="M910.95,-336.38C921.2,-339.04 931.37,-342.02 941,-345.34 985.43,-360.65 1033.32,-385.24 1065.9,-403.31"/>
<polygon fill="#90a4ae" stroke="#90a4ae" points="1064.24,-406.39 1074.67,-408.22 1067.66,-400.28 1064.24,-406.39"/>
</g>
<!-- HeytingLean.ClosingTheLoop.FA.Diagram -->
<g id="node10" class="node">
<title>HeytingLean.ClosingTheLoop.FA.Diagram</title>
<path fill="#0f1721" stroke="#43a047" d="M248.5,-498.34C248.5,-498.34 61.5,-498.34 61.5,-498.34 55.5,-498.34 49.5,-492.34 49.5,-486.34 49.5,-486.34 49.5,-474.34 49.5,-474.34 49.5,-468.34 55.5,-462.34 61.5,-462.34 61.5,-462.34 248.5,-462.34 248.5,-462.34 254.5,-462.34 260.5,-468.34 260.5,-474.34 260.5,-474.34 260.5,-486.34 260.5,-486.34 260.5,-492.34 254.5,-498.34 248.5,-498.34"/>
<text text-anchor="middle" x="155" y="-478.14" font-family="Times,serif" font-size="9.00" fill="#e6eef7">HeytingLean.ClosingTheLoop.FA.Diagram</text>
</g>
<!-- HeytingLean.ClosingTheLoop.FA.Temporal -->
<g id="node11" class="node">
<title>HeytingLean.ClosingTheLoop.FA.Temporal</title>
<path fill="#0f1721" stroke="#43a047" d="M250,-552.34C250,-552.34 60,-552.34 60,-552.34 54,-552.34 48,-546.34 48,-540.34 48,-540.34 48,-528.34 48,-528.34 48,-522.34 54,-516.34 60,-516.34 60,-516.34 250,-516.34 250,-516.34 256,-516.34 262,-522.34 262,-528.34 262,-528.34 262,-540.34 262,-540.34 262,-546.34 256,-552.34 250,-552.34"/>
<text text-anchor="middle" x="155" y="-532.14" font-family="Times,serif" font-size="9.00" fill="#e6eef7">HeytingLean.ClosingTheLoop.FA.Temporal</text>
</g>
<!-- HeytingLean.ClosingTheLoop.MR.Basic -->
<g id="node12" class="node">
<title>HeytingLean.ClosingTheLoop.MR.Basic</title>
<path fill="#0f1721" stroke="#43a047" d="M1460,-282.34C1460,-282.34 1284,-282.34 1284,-282.34 1278,-282.34 1272,-276.34 1272,-270.34 1272,-270.34 1272,-258.34 1272,-258.34 1272,-252.34 1278,-246.34 1284,-246.34 1284,-246.34 1460,-246.34 1460,-246.34 1466,-246.34 1472,-252.34 1472,-258.34 1472,-258.34 1472,-270.34 1472,-270.34 1472,-276.34 1466,-282.34 1460,-282.34"/>
<text text-anchor="middle" x="1372" y="-262.14" font-family="Times,serif" font-size="9.00" fill="#e6eef7">HeytingLean.ClosingTheLoop.MR.Basic</text>
</g>
<!-- HeytingLean.ClosingTheLoop.MR.ClosureOperator -->
<g id="node13" class="node">
<title>HeytingLean.ClosingTheLoop.MR.ClosureOperator</title>
<path fill="#0f1721" stroke="#43a047" d="M925,-282.34C925,-282.34 697,-282.34 697,-282.34 691,-282.34 685,-276.34 685,-270.34 685,-270.34 685,-258.34 685,-258.34 685,-252.34 691,-246.34 697,-246.34 697,-246.34 925,-246.34 925,-246.34 931,-246.34 937,-252.34 937,-258.34 937,-258.34 937,-270.34 937,-270.34 937,-276.34 931,-282.34 925,-282.34"/>
<text text-anchor="middle" x="811" y="-262.14" font-family="Times,serif" font-size="9.00" fill="#e6eef7">HeytingLean.ClosingTheLoop.MR.ClosureOperator</text>
</g>
<!-- HeytingLean.ClosingTheLoop.MR.InverseEvaluation -->
<g id="node14" class="node">
<title>HeytingLean.ClosingTheLoop.MR.InverseEvaluation</title>
<path fill="#0f1721" stroke="#43a047" d="M1224,-282.34C1224,-282.34 989,-282.34 989,-282.34 983,-282.34 977,-276.34 977,-270.34 977,-270.34 977,-258.34 977,-258.34 977,-252.34 983,-246.34 989,-246.34 989,-246.34 1224,-246.34 1224,-246.34 1230,-246.34 1236,-252.34 1236,-258.34 1236,-258.34 1236,-270.34 1236,-270.34 1236,-276.34 1230,-282.34 1224,-282.34"/>
<text text-anchor="middle" x="1106.5" y="-262.14" font-family="Times,serif" font-size="9.00" fill="#e6eef7">HeytingLean.ClosingTheLoop.MR.InverseEvaluation</text>
</g>
<!-- HeytingLean.ClosingTheLoop.MR.ClosureOperator&#45;&gt;HeytingLean.ClosingTheLoop.MR.InverseEvaluation -->
<g id="edge8" class="edge">
<title>HeytingLean.ClosingTheLoop.MR.ClosureOperator&#45;&gt;HeytingLean.ClosingTheLoop.MR.InverseEvaluation</title>
<path fill="none" stroke="#90a4ae" d="M937.32,-264.34C947.04,-264.34 956.88,-264.34 966.67,-264.34"/>
<polygon fill="#90a4ae" stroke="#90a4ae" points="966.85,-267.84 976.85,-264.34 966.85,-260.84 966.85,-267.84"/>
</g>
<!-- HeytingLean.ClosingTheLoop.MR.InverseEvaluation&#45;&gt;HeytingLean.ClosingTheLoop.MR.Basic -->
<g id="edge9" class="edge">
<title>HeytingLean.ClosingTheLoop.MR.InverseEvaluation&#45;&gt;HeytingLean.ClosingTheLoop.MR.Basic</title>
<path fill="none" stroke="#90a4ae" d="M1236.16,-264.34C1244.71,-264.34 1253.27,-264.34 1261.7,-264.34"/>
<polygon fill="#90a4ae" stroke="#90a4ae" points="1261.92,-267.84 1271.92,-264.34 1261.92,-260.84 1261.92,-267.84"/>
</g>
<!-- HeytingLean.ClosingTheLoop.MR.PaperMapping -->
<g id="node15" class="node">
<title>HeytingLean.ClosingTheLoop.MR.PaperMapping</title>
<path fill="#0f1721" stroke="#43a047" d="M605,-336.34C605,-336.34 386,-336.34 386,-336.34 380,-336.34 374,-330.34 374,-324.34 374,-324.34 374,-312.34 374,-312.34 374,-306.34 380,-300.34 386,-300.34 386,-300.34 605,-300.34 605,-300.34 611,-300.34 617,-306.34 617,-312.34 617,-312.34 617,-324.34 617,-324.34 617,-330.34 611,-336.34 605,-336.34"/>
<text text-anchor="middle" x="495.5" y="-316.14" font-family="Times,serif" font-size="9.00" fill="#e6eef7">HeytingLean.ClosingTheLoop.MR.PaperMapping</text>
</g>
<!-- HeytingLean.ClosingTheLoop.MR.PaperMapping&#45;&gt;HeytingLean.ClosingTheLoop.MR.ClosureOperator -->
<g id="edge10" class="edge">
<title>HeytingLean.ClosingTheLoop.MR.PaperMapping&#45;&gt;HeytingLean.ClosingTheLoop.MR.ClosureOperator</title>
<path fill="none" stroke="#90a4ae" d="M601.33,-300.28C631.52,-295.08 664.62,-289.38 695.37,-284.08"/>
<polygon fill="#90a4ae" stroke="#90a4ae" points="696.01,-287.52 705.27,-282.38 694.82,-280.62 696.01,-287.52"/>
</g>
<!-- HeytingLean.ClosingTheLoop.Main -->
<g id="node16" class="node">
<title>HeytingLean.ClosingTheLoop.Main</title>
<path fill="#0f1721" stroke="#43a047" d="M232.5,-390.34C232.5,-390.34 77.5,-390.34 77.5,-390.34 71.5,-390.34 65.5,-384.34 65.5,-378.34 65.5,-378.34 65.5,-366.34 65.5,-366.34 65.5,-360.34 71.5,-354.34 77.5,-354.34 77.5,-354.34 232.5,-354.34 232.5,-354.34 238.5,-354.34 244.5,-360.34 244.5,-366.34 244.5,-366.34 244.5,-378.34 244.5,-378.34 244.5,-384.34 238.5,-390.34 232.5,-390.34"/>
<text text-anchor="middle" x="155" y="-370.14" font-family="Times,serif" font-size="9.00" fill="#e6eef7">HeytingLean.ClosingTheLoop.Main</text>
</g>
<!-- HeytingLean.ClosingTheLoop.Main&#45;&gt;HeytingLean.ClosingTheLoop.Cat.ClosureOperator -->
<g id="edge11" class="edge">
<title>HeytingLean.ClosingTheLoop.Main&#45;&gt;HeytingLean.ClosingTheLoop.Cat.ClosureOperator</title>
<path fill="none" stroke="#90a4ae" d="M244.94,-386.52C283.65,-392.7 329.67,-400.04 371.58,-406.73"/>
<polygon fill="#90a4ae" stroke="#90a4ae" points="371.15,-410.2 381.57,-408.32 372.25,-403.29 371.15,-410.2"/>
</g>
<!-- HeytingLean.ClosingTheLoop.Main&#45;&gt;HeytingLean.ClosingTheLoop.MR.PaperMapping -->
<g id="edge12" class="edge">
<title>HeytingLean.ClosingTheLoop.Main&#45;&gt;HeytingLean.ClosingTheLoop.MR.PaperMapping</title>
<path fill="none" stroke="#90a4ae" d="M244.94,-358.15C283.65,-351.97 329.67,-344.63 371.58,-337.95"/>
<polygon fill="#90a4ae" stroke="#90a4ae" points="372.25,-341.38 381.57,-336.35 371.15,-334.47 372.25,-341.38"/>
</g>
<!-- HeytingLean.ClosingTheLoop.Semantics.NucleusFixedPoints -->
<g id="node22" class="node">
<title>HeytingLean.ClosingTheLoop.Semantics.NucleusFixedPoints</title>
<path fill="#0f1721" stroke="#43a047" d="M633,-390.34C633,-390.34 358,-390.34 358,-390.34 352,-390.34 346,-384.34 346,-378.34 346,-378.34 346,-366.34 346,-366.34 346,-360.34 352,-354.34 358,-354.34 358,-354.34 633,-354.34 633,-354.34 639,-354.34 645,-360.34 645,-366.34 645,-366.34 645,-378.34 645,-378.34 645,-384.34 639,-390.34 633,-390.34"/>
<text text-anchor="middle" x="495.5" y="-370.14" font-family="Times,serif" font-size="9.00" fill="#e6eef7">HeytingLean.ClosingTheLoop.Semantics.NucleusFixedPoints</text>
</g>
<!-- HeytingLean.ClosingTheLoop.Main&#45;&gt;HeytingLean.ClosingTheLoop.Semantics.NucleusFixedPoints -->
<g id="edge13" class="edge">
<title>HeytingLean.ClosingTheLoop.Main&#45;&gt;HeytingLean.ClosingTheLoop.Semantics.NucleusFixedPoints</title>
<path fill="none" stroke="#90a4ae" d="M244.94,-372.34C272.86,-372.34 304.59,-372.34 335.83,-372.34"/>
<polygon fill="#90a4ae" stroke="#90a4ae" points="335.95,-375.84 345.95,-372.34 335.95,-368.84 335.95,-375.84"/>
</g>
<!-- HeytingLean.ClosingTheLoop.Semantics.FunctorialTime -->
<g id="node17" class="node">
<title>HeytingLean.ClosingTheLoop.Semantics.FunctorialTime</title>
<path fill="#0f1721" stroke="#43a047" d="M622,-174.34C622,-174.34 369,-174.34 369,-174.34 363,-174.34 357,-168.34 357,-162.34 357,-162.34 357,-150.34 357,-150.34 357,-144.34 363,-138.34 369,-138.34 369,-138.34 622,-138.34 622,-138.34 628,-138.34 634,-144.34 634,-150.34 634,-150.34 634,-162.34 634,-162.34 634,-168.34 628,-174.34 622,-174.34"/>
<text text-anchor="middle" x="495.5" y="-154.14" font-family="Times,serif" font-size="9.00" fill="#e6eef7">HeytingLean.ClosingTheLoop.Semantics.FunctorialTime</text>
</g>
<!-- HeytingLean.ClosingTheLoop.Semantics.KernelLaws -->
<g id="node18" class="node">
<title>HeytingLean.ClosingTheLoop.Semantics.KernelLaws</title>
<path fill="#0f1721" stroke="#43a047" d="M929,-66.34C929,-66.34 693,-66.34 693,-66.34 687,-66.34 681,-60.34 681,-54.34 681,-54.34 681,-42.34 681,-42.34 681,-36.34 687,-30.34 693,-30.34 693,-30.34 929,-30.34 929,-30.34 935,-30.34 941,-36.34 941,-42.34 941,-42.34 941,-54.34 941,-54.34 941,-60.34 935,-66.34 929,-66.34"/>
<text text-anchor="middle" x="811" y="-46.14" font-family="Times,serif" font-size="9.00" fill="#e6eef7">HeytingLean.ClosingTheLoop.Semantics.KernelLaws</text>
</g>
<!-- HeytingLean.ClosingTheLoop.Semantics.FunctorialTime&#45;&gt;HeytingLean.ClosingTheLoop.Semantics.KernelLaws -->
<g id="edge14" class="edge">
<title>HeytingLean.ClosingTheLoop.Semantics.FunctorialTime&#45;&gt;HeytingLean.ClosingTheLoop.Semantics.KernelLaws</title>
<path fill="none" stroke="#90a4ae" d="M613.2,-138.3C624.05,-135.67 634.8,-132.7 645,-129.34 690.02,-114.51 738.35,-89.62 770.98,-71.34"/>
<polygon fill="#90a4ae" stroke="#90a4ae" points="772.78,-74.34 779.76,-66.37 769.33,-68.25 772.78,-74.34"/>
</g>
<!-- HeytingLean.ClosingTheLoop.Semantics.LambdaIRBridge -->
<g id="node19" class="node">
<title>HeytingLean.ClosingTheLoop.Semantics.LambdaIRBridge</title>
<path fill="#0f1721" stroke="#43a047" d="M626,-120.34C626,-120.34 365,-120.34 365,-120.34 359,-120.34 353,-114.34 353,-108.34 353,-108.34 353,-96.34 353,-96.34 353,-90.34 359,-84.34 365,-84.34 365,-84.34 626,-84.34 626,-84.34 632,-84.34 638,-90.34 638,-96.34 638,-96.34 638,-108.34 638,-108.34 638,-114.34 632,-120.34 626,-120.34"/>
<text text-anchor="middle" x="495.5" y="-100.14" font-family="Times,serif" font-size="9.00" fill="#e6eef7">HeytingLean.ClosingTheLoop.Semantics.LambdaIRBridge</text>
</g>
<!-- HeytingLean.ClosingTheLoop.Semantics.Mealy -->
<g id="node20" class="node">
<title>HeytingLean.ClosingTheLoop.Semantics.Mealy</title>
<path fill="#0f1721" stroke="#43a047" d="M600.5,-228.34C600.5,-228.34 390.5,-228.34 390.5,-228.34 384.5,-228.34 378.5,-222.34 378.5,-216.34 378.5,-216.34 378.5,-204.34 378.5,-204.34 378.5,-198.34 384.5,-192.34 390.5,-192.34 390.5,-192.34 600.5,-192.34 600.5,-192.34 606.5,-192.34 612.5,-198.34 612.5,-204.34 612.5,-204.34 612.5,-216.34 612.5,-216.34 612.5,-222.34 606.5,-228.34 600.5,-228.34"/>
<text text-anchor="middle" x="495.5" y="-208.14" font-family="Times,serif" font-size="9.00" fill="#e6eef7">HeytingLean.ClosingTheLoop.Semantics.Mealy</text>
</g>
<!-- HeytingLean.ClosingTheLoop.Semantics.Mealy&#45;&gt;HeytingLean.ClosingTheLoop.MR.ClosureOperator -->
<g id="edge15" class="edge">
<title>HeytingLean.ClosingTheLoop.Semantics.Mealy&#45;&gt;HeytingLean.ClosingTheLoop.MR.ClosureOperator</title>
<path fill="none" stroke="#90a4ae" d="M601.33,-228.39C631.52,-233.59 664.62,-239.29 695.37,-244.59"/>
<polygon fill="#90a4ae" stroke="#90a4ae" points="694.82,-248.05 705.27,-246.3 696.01,-241.15 694.82,-248.05"/>
</g>
<!-- HeytingLean.ClosingTheLoop.Semantics.NucleusBridge -->
<g id="node21" class="node">
<title>HeytingLean.ClosingTheLoop.Semantics.NucleusBridge</title>
<path fill="#0f1721" stroke="#43a047" d="M281,-606.34C281,-606.34 29,-606.34 29,-606.34 23,-606.34 17,-600.34 17,-594.34 17,-594.34 17,-582.34 17,-582.34 17,-576.34 23,-570.34 29,-570.34 29,-570.34 281,-570.34 281,-570.34 287,-570.34 293,-576.34 293,-582.34 293,-582.34 293,-594.34 293,-594.34 293,-600.34 287,-606.34 281,-606.34"/>
<text text-anchor="middle" x="155" y="-586.14" font-family="Times,serif" font-size="9.00" fill="#e6eef7">HeytingLean.ClosingTheLoop.Semantics.NucleusBridge</text>
</g>
<!-- HeytingLean.ClosingTheLoop.Semantics.PreorderTime -->
<g id="node23" class="node">
<title>HeytingLean.ClosingTheLoop.Semantics.PreorderTime</title>
<path fill="#0f1721" stroke="#43a047" d="M278,-660.34C278,-660.34 32,-660.34 32,-660.34 26,-660.34 20,-654.34 20,-648.34 20,-648.34 20,-636.34 20,-636.34 20,-630.34 26,-624.34 32,-624.34 32,-624.34 278,-624.34 278,-624.34 284,-624.34 290,-630.34 290,-636.34 290,-636.34 290,-648.34 290,-648.34 290,-654.34 284,-660.34 278,-660.34"/>
<text text-anchor="middle" x="155" y="-640.14" font-family="Times,serif" font-size="9.00" fill="#e6eef7">HeytingLean.ClosingTheLoop.Semantics.PreorderTime</text>
</g>
<!-- HeytingLean.ClosingTheLoop.Semantics.ProcessBridge -->
<g id="node24" class="node">
<title>HeytingLean.ClosingTheLoop.Semantics.ProcessBridge</title>
<path fill="#0f1721" stroke="#43a047" d="M620,-66.34C620,-66.34 371,-66.34 371,-66.34 365,-66.34 359,-60.34 359,-54.34 359,-54.34 359,-42.34 359,-42.34 359,-36.34 365,-30.34 371,-30.34 371,-30.34 620,-30.34 620,-30.34 626,-30.34 632,-36.34 632,-42.34 632,-42.34 632,-54.34 632,-54.34 632,-60.34 626,-66.34 620,-66.34"/>
<text text-anchor="middle" x="495.5" y="-46.14" font-family="Times,serif" font-size="9.00" fill="#e6eef7">HeytingLean.ClosingTheLoop.Semantics.ProcessBridge</text>
</g>
<!-- HeytingLean.ClosingTheLoop.Semantics.ProcessBridge&#45;&gt;HeytingLean.ClosingTheLoop.Semantics.KernelLaws -->
<g id="edge16" class="edge">
<title>HeytingLean.ClosingTheLoop.Semantics.ProcessBridge&#45;&gt;HeytingLean.ClosingTheLoop.Semantics.KernelLaws</title>
<path fill="none" stroke="#90a4ae" d="M632.18,-48.34C644.85,-48.34 657.7,-48.34 670.4,-48.34"/>
<polygon fill="#90a4ae" stroke="#90a4ae" points="670.55,-51.84 680.55,-48.34 670.55,-44.84 670.55,-51.84"/>
</g>
<!-- HeytingLean.ClosingTheLoop.Semantics.RelationalRealizability -->
<g id="node25" class="node">
<title>HeytingLean.ClosingTheLoop.Semantics.RelationalRealizability</title>
<path fill="#0f1721" stroke="#43a047" d="M298,-93.34C298,-93.34 12,-93.34 12,-93.34 6,-93.34 0,-87.34 0,-81.34 0,-81.34 0,-69.34 0,-69.34 0,-63.34 6,-57.34 12,-57.34 12,-57.34 298,-57.34 298,-57.34 304,-57.34 310,-63.34 310,-69.34 310,-69.34 310,-81.34 310,-81.34 310,-87.34 304,-93.34 298,-93.34"/>
<text text-anchor="middle" x="155" y="-73.14" font-family="Times,serif" font-size="9.00" fill="#e6eef7">HeytingLean.ClosingTheLoop.Semantics.RelationalRealizability</text>
</g>
<!-- HeytingLean.ClosingTheLoop.Semantics.RelationalRealizability&#45;&gt;HeytingLean.ClosingTheLoop.Semantics.KernelLaws -->
<g id="edge17" class="edge">
<title>HeytingLean.ClosingTheLoop.Semantics.RelationalRealizability&#45;&gt;HeytingLean.ClosingTheLoop.Semantics.KernelLaws</title>
<path fill="none" stroke="#90a4ae" d="M285.48,-57.3C293.91,-54.7 302.15,-51.73 310,-48.34 328.35,-40.39 327.03,-27.66 346,-21.34 472.07,20.69 512.55,-10.57 645,-21.34 665.01,-22.96 686.26,-25.68 706.61,-28.79"/>
<polygon fill="#90a4ae" stroke="#90a4ae" points="706.1,-32.25 716.52,-30.34 707.18,-25.33 706.1,-32.25"/>
</g>
<!-- HeytingLean.ClosingTheLoop.Semantics.RelationalRealizability&#45;&gt;HeytingLean.ClosingTheLoop.Semantics.LambdaIRBridge -->
<g id="edge18" class="edge">
<title>HeytingLean.ClosingTheLoop.Semantics.RelationalRealizability&#45;&gt;HeytingLean.ClosingTheLoop.Semantics.LambdaIRBridge</title>
<path fill="none" stroke="#90a4ae" d="M310.39,-87.65C321.09,-88.51 331.88,-89.37 342.57,-90.22"/>
<polygon fill="#90a4ae" stroke="#90a4ae" points="342.54,-93.73 352.78,-91.03 343.09,-86.75 342.54,-93.73"/>
</g>
<!-- HeytingLean.ClosingTheLoop.Semantics.RelationalRealizability&#45;&gt;HeytingLean.ClosingTheLoop.Semantics.Mealy -->
<g id="edge19" class="edge">
<title>HeytingLean.ClosingTheLoop.Semantics.RelationalRealizability&#45;&gt;HeytingLean.ClosingTheLoop.Semantics.Mealy</title>
<path fill="none" stroke="#90a4ae" d="M181.38,-93.5C216.59,-117.8 283.05,-160.48 346,-183.34 353.27,-185.98 360.85,-188.37 368.55,-190.53"/>
<polygon fill="#90a4ae" stroke="#90a4ae" points="367.8,-193.96 378.37,-193.15 369.61,-187.19 367.8,-193.96"/>
</g>
<!-- HeytingLean.ClosingTheLoop.Semantics.RelationalRealizability&#45;&gt;HeytingLean.ClosingTheLoop.Semantics.ProcessBridge -->
<g id="edge20" class="edge">
<title>HeytingLean.ClosingTheLoop.Semantics.RelationalRealizability&#45;&gt;HeytingLean.ClosingTheLoop.Semantics.ProcessBridge</title>
<path fill="none" stroke="#90a4ae" d="M310.39,-63.02C323.19,-62 336.1,-60.97 348.83,-59.96"/>
<polygon fill="#90a4ae" stroke="#90a4ae" points="349.3,-63.43 358.99,-59.15 348.74,-56.45 349.3,-63.43"/>
</g>
<!-- HeytingLean.ClosingTheLoop.Tests.ClosureIdempotent -->
<g id="node26" class="node">
<title>HeytingLean.ClosingTheLoop.Tests.ClosureIdempotent</title>
<path fill="#0f1721" stroke="#43a047" d="M619,-282.34C619,-282.34 372,-282.34 372,-282.34 366,-282.34 360,-276.34 360,-270.34 360,-270.34 360,-258.34 360,-258.34 360,-252.34 366,-246.34 372,-246.34 372,-246.34 619,-246.34 619,-246.34 625,-246.34 631,-252.34 631,-258.34 631,-258.34 631,-270.34 631,-270.34 631,-276.34 625,-282.34 619,-282.34"/>
<text text-anchor="middle" x="495.5" y="-262.14" font-family="Times,serif" font-size="9.00" fill="#e6eef7">HeytingLean.ClosingTheLoop.Tests.ClosureIdempotent</text>
</g>
<!-- HeytingLean.ClosingTheLoop.Tests.ClosureIdempotent&#45;&gt;HeytingLean.ClosingTheLoop.MR.ClosureOperator -->
<g id="edge21" class="edge">
<title>HeytingLean.ClosingTheLoop.Tests.ClosureIdempotent&#45;&gt;HeytingLean.ClosingTheLoop.MR.ClosureOperator</title>
<path fill="none" stroke="#90a4ae" d="M631.27,-264.34C645.56,-264.34 660.1,-264.34 674.4,-264.34"/>
<polygon fill="#90a4ae" stroke="#90a4ae" points="674.76,-267.84 684.76,-264.34 674.76,-260.84 674.76,-267.84"/>
</g>
<!-- HeytingLean.ClosingTheLoop.Tests.Test_AssumptionMismatch -->
<g id="node27" class="node">
<title>HeytingLean.ClosingTheLoop.Tests.Test_AssumptionMismatch</title>
<path fill="#0f1721" stroke="#43a047" d="M295.5,-336.34C295.5,-336.34 14.5,-336.34 14.5,-336.34 8.5,-336.34 2.5,-330.34 2.5,-324.34 2.5,-324.34 2.5,-312.34 2.5,-312.34 2.5,-306.34 8.5,-300.34 14.5,-300.34 14.5,-300.34 295.5,-300.34 295.5,-300.34 301.5,-300.34 307.5,-306.34 307.5,-312.34 307.5,-312.34 307.5,-324.34 307.5,-324.34 307.5,-330.34 301.5,-336.34 295.5,-336.34"/>
<text text-anchor="middle" x="155" y="-316.14" font-family="Times,serif" font-size="9.00" fill="#e6eef7">HeytingLean.ClosingTheLoop.Tests.Test_AssumptionMismatch</text>
</g>
<!-- HeytingLean.ClosingTheLoop.Tests.Test_AssumptionMismatch&#45;&gt;HeytingLean.ClosingTheLoop.MR.PaperMapping -->
<g id="edge22" class="edge">
<title>HeytingLean.ClosingTheLoop.Tests.Test_AssumptionMismatch&#45;&gt;HeytingLean.ClosingTheLoop.MR.PaperMapping</title>
<path fill="none" stroke="#90a4ae" d="M307.92,-318.34C326.53,-318.34 345.43,-318.34 363.69,-318.34"/>
<polygon fill="#90a4ae" stroke="#90a4ae" points="363.77,-321.84 373.77,-318.34 363.77,-314.84 363.77,-321.84"/>
</g>
</g>
</svg>
