<?xml version="1.0" encoding="UTF-8" standalone="no"?>
<!DOCTYPE svg PUBLIC "-//W3C//DTD SVG 1.1//EN"
 "http://www.w3.org/Graphics/SVG/1.1/DTD/svg11.dtd">
<!-- Generated by graphviz version 2.43.0 (0)
 -->
<!-- Title: G Pages: 1 -->
<svg width="1803pt" height="1308pt"
 viewBox="0.00 0.00 1803.00 1308.34" xmlns="http://www.w3.org/2000/svg" xmlns:xlink="http://www.w3.org/1999/xlink">
<g id="graph0" class="graph" transform="scale(1 1) rotate(0) translate(4 1304.34)">
<title>G</title>
<text text-anchor="middle" x="897.5" y="-1288.34" font-family="Times,serif" font-size="10.00">ClosingTheLoop + Noneism imports</text>
<!-- HeytingLean.ClosingTheLoop.BundleDemoMain -->
<g id="node1" class="node">
<title>HeytingLean.ClosingTheLoop.BundleDemoMain</title>
<path fill="#0f1721" stroke="#43a047" d="M262.5,-39.34C262.5,-39.34 47.5,-39.34 47.5,-39.34 41.5,-39.34 35.5,-33.34 35.5,-27.34 35.5,-27.34 35.5,-15.34 35.5,-15.34 35.5,-9.34 41.5,-3.34 47.5,-3.34 47.5,-3.34 262.5,-3.34 262.5,-3.34 268.5,-3.34 274.5,-9.34 274.5,-15.34 274.5,-15.34 274.5,-27.34 274.5,-27.34 274.5,-33.34 268.5,-39.34 262.5,-39.34"/>
<text text-anchor="middle" x="155" y="-19.14" font-family="Times,serif" font-size="9.00" fill="#e6eef7">HeytingLean.ClosingTheLoop.BundleDemoMain</text>
</g>
<!-- HeytingLean.ClosingTheLoop.Cat.Admissible -->
<g id="node2" class="node">
<title>HeytingLean.ClosingTheLoop.Cat.Admissible</title>
<path fill="#0f1721" stroke="#43a047" d="M911.5,-552.34C911.5,-552.34 710.5,-552.34 710.5,-552.34 704.5,-552.34 698.5,-546.34 698.5,-540.34 698.5,-540.34 698.5,-528.34 698.5,-528.34 698.5,-522.34 704.5,-516.34 710.5,-516.34 710.5,-516.34 911.5,-516.34 911.5,-516.34 917.5,-516.34 923.5,-522.34 923.5,-528.34 923.5,-528.34 923.5,-540.34 923.5,-540.34 923.5,-546.34 917.5,-552.34 911.5,-552.34"/>
<text text-anchor="middle" x="811" y="-532.14" font-family="Times,serif" font-size="9.00" fill="#e6eef7">HeytingLean.ClosingTheLoop.Cat.Admissible</text>
</g>
<!-- HeytingLean.ClosingTheLoop.Cat.Selector -->
<g id="node7" class="node">
<title>HeytingLean.ClosingTheLoop.Cat.Selector</title>
<path fill="#0f1721" stroke="#43a047" d="M1203.5,-444.34C1203.5,-444.34 1014.5,-444.34 1014.5,-444.34 1008.5,-444.34 1002.5,-438.34 1002.5,-432.34 1002.5,-432.34 1002.5,-420.34 1002.5,-420.34 1002.5,-414.34 1008.5,-408.34 1014.5,-408.34 1014.5,-408.34 1203.5,-408.34 1203.5,-408.34 1209.5,-408.34 1215.5,-414.34 1215.5,-420.34 1215.5,-420.34 1215.5,-432.34 1215.5,-432.34 1215.5,-438.34 1209.5,-444.34 1203.5,-444.34"/>
<text text-anchor="middle" x="1109" y="-424.14" font-family="Times,serif" font-size="9.00" fill="#e6eef7">HeytingLean.ClosingTheLoop.Cat.Selector</text>
</g>
<!-- HeytingLean.ClosingTheLoop.Cat.Admissible&#45;&gt;HeytingLean.ClosingTheLoop.Cat.Selector -->
<g id="edge1" class="edge">
<title>HeytingLean.ClosingTheLoop.Cat.Admissible&#45;&gt;HeytingLean.ClosingTheLoop.Cat.Selector</title>
<path fill="none" stroke="#90a4ae" d="M910.58,-516.33C920.95,-513.65 931.26,-510.66 941,-507.34 986.02,-491.97 1034.65,-467.39 1067.75,-449.33"/>
<polygon fill="#90a4ae" stroke="#90a4ae" points="1069.59,-452.32 1076.67,-444.43 1066.22,-446.19 1069.59,-452.32"/>
</g>
<!-- HeytingLean.ClosingTheLoop.Cat.ClosureOperator -->
<g id="node3" class="node">
<title>HeytingLean.ClosingTheLoop.Cat.ClosureOperator</title>
<path fill="#0f1721" stroke="#43a047" d="M609.5,-444.34C609.5,-444.34 381.5,-444.34 381.5,-444.34 375.5,-444.34 369.5,-438.34 369.5,-432.34 369.5,-432.34 369.5,-420.34 369.5,-420.34 369.5,-414.34 375.5,-408.34 381.5,-408.34 381.5,-408.34 609.5,-408.34 609.5,-408.34 615.5,-408.34 621.5,-414.34 621.5,-420.34 621.5,-420.34 621.5,-432.34 621.5,-432.34 621.5,-438.34 615.5,-444.34 609.5,-444.34"/>
<text text-anchor="middle" x="495.5" y="-424.14" font-family="Times,serif" font-size="9.00" fill="#e6eef7">HeytingLean.ClosingTheLoop.Cat.ClosureOperator</text>
</g>
<!-- HeytingLean.ClosingTheLoop.Cat.InverseEvaluation -->
<g id="node6" class="node">
<title>HeytingLean.ClosingTheLoop.Cat.InverseEvaluation</title>
<path fill="#0f1721" stroke="#43a047" d="M928.5,-444.34C928.5,-444.34 693.5,-444.34 693.5,-444.34 687.5,-444.34 681.5,-438.34 681.5,-432.34 681.5,-432.34 681.5,-420.34 681.5,-420.34 681.5,-414.34 687.5,-408.34 693.5,-408.34 693.5,-408.34 928.5,-408.34 928.5,-408.34 934.5,-408.34 940.5,-414.34 940.5,-420.34 940.5,-420.34 940.5,-432.34 940.5,-432.34 940.5,-438.34 934.5,-444.34 928.5,-444.34"/>
<text text-anchor="middle" x="811" y="-424.14" font-family="Times,serif" font-size="9.00" fill="#e6eef7">HeytingLean.ClosingTheLoop.Cat.InverseEvaluation</text>
</g>
<!-- HeytingLean.ClosingTheLoop.Cat.ClosureOperator&#45;&gt;HeytingLean.ClosingTheLoop.Cat.InverseEvaluation -->
<g id="edge2" class="edge">
<title>HeytingLean.ClosingTheLoop.Cat.ClosureOperator&#45;&gt;HeytingLean.ClosingTheLoop.Cat.InverseEvaluation</title>
<path fill="none" stroke="#90a4ae" d="M621.76,-426.34C638,-426.34 654.71,-426.34 671.16,-426.34"/>
<polygon fill="#90a4ae" stroke="#90a4ae" points="671.36,-429.84 681.36,-426.34 671.36,-422.84 671.36,-429.84"/>
</g>
<!-- HeytingLean.ClosingTheLoop.Cat.Concreteness -->
<g id="node4" class="node">
<title>HeytingLean.ClosingTheLoop.Cat.Concreteness</title>
<path fill="#0f1721" stroke="#43a047" d="M261.5,-444.34C261.5,-444.34 48.5,-444.34 48.5,-444.34 42.5,-444.34 36.5,-438.34 36.5,-432.34 36.5,-432.34 36.5,-420.34 36.5,-420.34 36.5,-414.34 42.5,-408.34 48.5,-408.34 48.5,-408.34 261.5,-408.34 261.5,-408.34 267.5,-408.34 273.5,-414.34 273.5,-420.34 273.5,-420.34 273.5,-432.34 273.5,-432.34 273.5,-438.34 267.5,-444.34 261.5,-444.34"/>
<text text-anchor="middle" x="155" y="-424.14" font-family="Times,serif" font-size="9.00" fill="#e6eef7">HeytingLean.ClosingTheLoop.Cat.Concreteness</text>
</g>
<!-- HeytingLean.ClosingTheLoop.Cat.Concreteness&#45;&gt;HeytingLean.ClosingTheLoop.Cat.ClosureOperator -->
<g id="edge3" class="edge">
<title>HeytingLean.ClosingTheLoop.Cat.Concreteness&#45;&gt;HeytingLean.ClosingTheLoop.Cat.ClosureOperator</title>
<path fill="none" stroke="#90a4ae" d="M273.92,-426.34C301.36,-426.34 330.79,-426.34 358.93,-426.34"/>
<polygon fill="#90a4ae" stroke="#90a4ae" points="359.23,-429.84 369.23,-426.34 359.23,-422.84 359.23,-429.84"/>
</g>
<!-- HeytingLean.ClosingTheLoop.Cat.EvalImage -->
<g id="node5" class="node">
<title>HeytingLean.ClosingTheLoop.Cat.EvalImage</title>
<path fill="#0f1721" stroke="#43a047" d="M911,-498.34C911,-498.34 711,-498.34 711,-498.34 705,-498.34 699,-492.34 699,-486.34 699,-486.34 699,-474.34 699,-474.34 699,-468.34 705,-462.34 711,-462.34 711,-462.34 911,-462.34 911,-462.34 917,-462.34 923,-468.34 923,-474.34 923,-474.34 923,-486.34 923,-486.34 923,-492.34 917,-498.34 911,-498.34"/>
<text text-anchor="middle" x="811" y="-478.14" font-family="Times,serif" font-size="9.00" fill="#e6eef7">HeytingLean.ClosingTheLoop.Cat.EvalImage</text>
</g>
<!-- HeytingLean.ClosingTheLoop.Cat.EvalImage&#45;&gt;HeytingLean.ClosingTheLoop.Cat.Selector -->
<g id="edge4" class="edge">
<title>HeytingLean.ClosingTheLoop.Cat.EvalImage&#45;&gt;HeytingLean.ClosingTheLoop.Cat.Selector</title>
<path fill="none" stroke="#90a4ae" d="M910.98,-462.28C939.24,-457.12 970.19,-451.48 999.02,-446.22"/>
<polygon fill="#90a4ae" stroke="#90a4ae" points="999.91,-449.61 1009.12,-444.38 998.65,-442.73 999.91,-449.61"/>
</g>
<!-- HeytingLean.ClosingTheLoop.Cat.InverseEvaluation&#45;&gt;HeytingLean.ClosingTheLoop.Cat.Selector -->
<g id="edge5" class="edge">
<title>HeytingLean.ClosingTheLoop.Cat.InverseEvaluation&#45;&gt;HeytingLean.ClosingTheLoop.Cat.Selector</title>
<path fill="none" stroke="#90a4ae" d="M940.54,-426.34C957.59,-426.34 975,-426.34 991.83,-426.34"/>
<polygon fill="#90a4ae" stroke="#90a4ae" points="992.22,-429.84 1002.22,-426.34 992.22,-422.84 992.22,-429.84"/>
</g>
<!-- HeytingLean.ClosingTheLoop.Cat.YonedaView -->
<g id="node8" class="node">
<title>HeytingLean.ClosingTheLoop.Cat.YonedaView</title>
<path fill="#0f1721" stroke="#43a047" d="M914,-390.34C914,-390.34 708,-390.34 708,-390.34 702,-390.34 696,-384.34 696,-378.34 696,-378.34 696,-366.34 696,-366.34 696,-360.34 702,-354.34 708,-354.34 708,-354.34 914,-354.34 914,-354.34 920,-354.34 926,-360.34 926,-366.34 926,-366.34 926,-378.34 926,-378.34 926,-384.34 920,-390.34 914,-390.34"/>
<text text-anchor="middle" x="811" y="-370.14" font-family="Times,serif" font-size="9.00" fill="#e6eef7">HeytingLean.ClosingTheLoop.Cat.YonedaView</text>
</g>
<!-- HeytingLean.ClosingTheLoop.Cat.YonedaView&#45;&gt;HeytingLean.ClosingTheLoop.Cat.Selector -->
<g id="edge6" class="edge">
<title>HeytingLean.ClosingTheLoop.Cat.YonedaView&#45;&gt;HeytingLean.ClosingTheLoop.Cat.Selector</title>
<path fill="none" stroke="#90a4ae" d="M910.98,-390.39C939.24,-395.55 970.19,-401.2 999.02,-406.46"/>
<polygon fill="#90a4ae" stroke="#90a4ae" points="998.65,-409.95 1009.12,-408.3 999.91,-403.06 998.65,-409.95"/>
</g>
<!-- HeytingLean.ClosingTheLoop.Cat.YonedaViewNat -->
<g id="node9" class="node">
<title>HeytingLean.ClosingTheLoop.Cat.YonedaViewNat</title>
<path fill="#0f1721" stroke="#43a047" d="M922.5,-336.34C922.5,-336.34 699.5,-336.34 699.5,-336.34 693.5,-336.34 687.5,-330.34 687.5,-324.34 687.5,-324.34 687.5,-312.34 687.5,-312.34 687.5,-306.34 693.5,-300.34 699.5,-300.34 699.5,-300.34 922.5,-300.34 922.5,-300.34 928.5,-300.34 934.5,-306.34 934.5,-312.34 934.5,-312.34 934.5,-324.34 934.5,-324.34 934.5,-330.34 928.5,-336.34 922.5,-336.34"/>
<text text-anchor="middle" x="811" y="-316.14" font-family="Times,serif" font-size="9.00" fill="#e6eef7">HeytingLean.ClosingTheLoop.Cat.YonedaViewNat</text>
</g>
<!-- HeytingLean.ClosingTheLoop.Cat.YonedaViewNat&#45;&gt;HeytingLean.ClosingTheLoop.Cat.Selector -->
<g id="edge7" class="edge">
<title>HeytingLean.ClosingTheLoop.Cat.YonedaViewNat&#45;&gt;HeytingLean.ClosingTheLoop.Cat.Selector</title>
<path fill="none" stroke="#90a4ae" d="M910.58,-336.35C920.95,-339.02 931.26,-342.01 941,-345.34 986.02,-360.7 1034.65,-385.28 1067.75,-403.34"/>
<polygon fill="#90a4ae" stroke="#90a4ae" points="1066.22,-406.49 1076.67,-408.25 1069.59,-400.36 1066.22,-406.49"/>
</g>
<!-- HeytingLean.ClosingTheLoop.FA.Diagram -->
<g id="node10" class="node">
<title>HeytingLean.ClosingTheLoop.FA.Diagram</title>
<path fill="#0f1721" stroke="#43a047" d="M248.5,-498.34C248.5,-498.34 61.5,-498.34 61.5,-498.34 55.5,-498.34 49.5,-492.34 49.5,-486.34 49.5,-486.34 49.5,-474.34 49.5,-474.34 49.5,-468.34 55.5,-462.34 61.5,-462.34 61.5,-462.34 248.5,-462.34 248.5,-462.34 254.5,-462.34 260.5,-468.34 260.5,-474.34 260.5,-474.34 260.5,-486.34 260.5,-486.34 260.5,-492.34 254.5,-498.34 248.5,-498.34"/>
<text text-anchor="middle" x="155" y="-478.14" font-family="Times,serif" font-size="9.00" fill="#e6eef7">HeytingLean.ClosingTheLoop.FA.Diagram</text>
</g>
<!-- HeytingLean.ClosingTheLoop.FA.Temporal -->
<g id="node11" class="node">
<title>HeytingLean.ClosingTheLoop.FA.Temporal</title>
<path fill="#0f1721" stroke="#43a047" d="M250,-552.34C250,-552.34 60,-552.34 60,-552.34 54,-552.34 48,-546.34 48,-540.34 48,-540.34 48,-528.34 48,-528.34 48,-522.34 54,-516.34 60,-516.34 60,-516.34 250,-516.34 250,-516.34 256,-516.34 262,-522.34 262,-528.34 262,-528.34 262,-540.34 262,-540.34 262,-546.34 256,-552.34 250,-552.34"/>
<text text-anchor="middle" x="155" y="-532.14" font-family="Times,serif" font-size="9.00" fill="#e6eef7">HeytingLean.ClosingTheLoop.FA.Temporal</text>
</g>
<!-- HeytingLean.ClosingTheLoop.MR.Basic -->
<g id="node12" class="node">
<title>HeytingLean.ClosingTheLoop.MR.Basic</title>
<path fill="#0f1721" stroke="#43a047" d="M1492.5,-282.34C1492.5,-282.34 1316.5,-282.34 1316.5,-282.34 1310.5,-282.34 1304.5,-276.34 1304.5,-270.34 1304.5,-270.34 1304.5,-258.34 1304.5,-258.34 1304.5,-252.34 1310.5,-246.34 1316.5,-246.34 1316.5,-246.34 1492.5,-246.34 1492.5,-246.34 1498.5,-246.34 1504.5,-252.34 1504.5,-258.34 1504.5,-258.34 1504.5,-270.34 1504.5,-270.34 1504.5,-276.34 1498.5,-282.34 1492.5,-282.34"/>
<text text-anchor="middle" x="1404.5" y="-262.14" font-family="Times,serif" font-size="9.00" fill="#e6eef7">HeytingLean.ClosingTheLoop.MR.Basic</text>
</g>
<!-- HeytingLean.ClosingTheLoop.MR.ClosureOperator -->
<g id="node13" class="node">
<title>HeytingLean.ClosingTheLoop.MR.ClosureOperator</title>
<path fill="#0f1721" stroke="#43a047" d="M925,-282.34C925,-282.34 697,-282.34 697,-282.34 691,-282.34 685,-276.34 685,-270.34 685,-270.34 685,-258.34 685,-258.34 685,-252.34 691,-246.34 697,-246.34 697,-246.34 925,-246.34 925,-246.34 931,-246.34 937,-252.34 937,-258.34 937,-258.34 937,-270.34 937,-270.34 937,-276.34 931,-282.34 925,-282.34"/>
<text text-anchor="middle" x="811" y="-262.14" font-family="Times,serif" font-size="9.00" fill="#e6eef7">HeytingLean.ClosingTheLoop.MR.ClosureOperator</text>
</g>
<!-- HeytingLean.ClosingTheLoop.MR.InverseEvaluation -->
<g id="node14" class="node">
<title>HeytingLean.ClosingTheLoop.MR.InverseEvaluation</title>
<path fill="#0f1721" stroke="#43a047" d="M1226.5,-282.34C1226.5,-282.34 991.5,-282.34 991.5,-282.34 985.5,-282.34 979.5,-276.34 979.5,-270.34 979.5,-270.34 979.5,-258.34 979.5,-258.34 979.5,-252.34 985.5,-246.34 991.5,-246.34 991.5,-246.34 1226.5,-246.34 1226.5,-246.34 1232.5,-246.34 1238.5,-252.34 1238.5,-258.34 1238.5,-258.34 1238.5,-270.34 1238.5,-270.34 1238.5,-276.34 1232.5,-282.34 1226.5,-282.34"/>
<text text-anchor="middle" x="1109" y="-262.14" font-family="Times,serif" font-size="9.00" fill="#e6eef7">HeytingLean.ClosingTheLoop.MR.InverseEvaluation</text>
</g>
<!-- HeytingLean.ClosingTheLoop.MR.ClosureOperator&#45;&gt;HeytingLean.ClosingTheLoop.MR.InverseEvaluation -->
<g id="edge8" class="edge">
<title>HeytingLean.ClosingTheLoop.MR.ClosureOperator&#45;&gt;HeytingLean.ClosingTheLoop.MR.InverseEvaluation</title>
<path fill="none" stroke="#90a4ae" d="M937.1,-264.34C947.62,-264.34 958.3,-264.34 968.92,-264.34"/>
<polygon fill="#90a4ae" stroke="#90a4ae" points="969.08,-267.84 979.08,-264.34 969.08,-260.84 969.08,-267.84"/>
</g>
<!-- HeytingLean.ClosingTheLoop.MR.InverseEvaluation&#45;&gt;HeytingLean.ClosingTheLoop.MR.Basic -->
<g id="edge9" class="edge">
<title>HeytingLean.ClosingTheLoop.MR.InverseEvaluation&#45;&gt;HeytingLean.ClosingTheLoop.MR.Basic</title>
<path fill="none" stroke="#90a4ae" d="M1238.73,-264.34C1257.23,-264.34 1276.12,-264.34 1294.19,-264.34"/>
<polygon fill="#90a4ae" stroke="#90a4ae" points="1294.43,-267.84 1304.43,-264.34 1294.43,-260.84 1294.43,-267.84"/>
</g>
<!-- HeytingLean.ClosingTheLoop.MR.PaperMapping -->
<g id="node15" class="node">
<title>HeytingLean.ClosingTheLoop.MR.PaperMapping</title>
<path fill="#0f1721" stroke="#43a047" d="M605,-336.34C605,-336.34 386,-336.34 386,-336.34 380,-336.34 374,-330.34 374,-324.34 374,-324.34 374,-312.34 374,-312.34 374,-306.34 380,-300.34 386,-300.34 386,-300.34 605,-300.34 605,-300.34 611,-300.34 617,-306.34 617,-312.34 617,-312.34 617,-324.34 617,-324.34 617,-330.34 611,-336.34 605,-336.34"/>
<text text-anchor="middle" x="495.5" y="-316.14" font-family="Times,serif" font-size="9.00" fill="#e6eef7">HeytingLean.ClosingTheLoop.MR.PaperMapping</text>
</g>
<!-- HeytingLean.ClosingTheLoop.MR.PaperMapping&#45;&gt;HeytingLean.ClosingTheLoop.MR.ClosureOperator -->
<g id="edge10" class="edge">
<title>HeytingLean.ClosingTheLoop.MR.PaperMapping&#45;&gt;HeytingLean.ClosingTheLoop.MR.ClosureOperator</title>
<path fill="none" stroke="#90a4ae" d="M601.33,-300.28C631.52,-295.08 664.62,-289.38 695.37,-284.08"/>
<polygon fill="#90a4ae" stroke="#90a4ae" points="696.01,-287.52 705.27,-282.38 694.82,-280.62 696.01,-287.52"/>
</g>
<!-- HeytingLean.ClosingTheLoop.Main -->
<g id="node16" class="node">
<title>HeytingLean.ClosingTheLoop.Main</title>
<path fill="#0f1721" stroke="#43a047" d="M232.5,-390.34C232.5,-390.34 77.5,-390.34 77.5,-390.34 71.5,-390.34 65.5,-384.34 65.5,-378.34 65.5,-378.34 65.5,-366.34 65.5,-366.34 65.5,-360.34 71.5,-354.34 77.5,-354.34 77.5,-354.34 232.5,-354.34 232.5,-354.34 238.5,-354.34 244.5,-360.34 244.5,-366.34 244.5,-366.34 244.5,-378.34 244.5,-378.34 244.5,-384.34 238.5,-390.34 232.5,-390.34"/>
<text text-anchor="middle" x="155" y="-370.14" font-family="Times,serif" font-size="9.00" fill="#e6eef7">HeytingLean.ClosingTheLoop.Main</text>
</g>
<!-- HeytingLean.ClosingTheLoop.Main&#45;&gt;HeytingLean.ClosingTheLoop.Cat.ClosureOperator -->
<g id="edge11" class="edge">
<title>HeytingLean.ClosingTheLoop.Main&#45;&gt;HeytingLean.ClosingTheLoop.Cat.ClosureOperator</title>
<path fill="none" stroke="#90a4ae" d="M244.94,-386.52C283.65,-392.7 329.67,-400.04 371.58,-406.73"/>
<polygon fill="#90a4ae" stroke="#90a4ae" points="371.15,-410.2 381.57,-408.32 372.25,-403.29 371.15,-410.2"/>
</g>
<!-- HeytingLean.ClosingTheLoop.Main&#45;&gt;HeytingLean.ClosingTheLoop.MR.PaperMapping -->
<g id="edge12" class="edge">
<title>HeytingLean.ClosingTheLoop.Main&#45;&gt;HeytingLean.ClosingTheLoop.MR.PaperMapping</title>
<path fill="none" stroke="#90a4ae" d="M244.94,-358.15C283.65,-351.97 329.67,-344.63 371.58,-337.95"/>
<polygon fill="#90a4ae" stroke="#90a4ae" points="372.25,-341.38 381.57,-336.35 371.15,-334.47 372.25,-341.38"/>
</g>
<!-- HeytingLean.ClosingTheLoop.Semantics.NucleusFixedPoints -->
<g id="node22" class="node">
<title>HeytingLean.ClosingTheLoop.Semantics.NucleusFixedPoints</title>
<path fill="#0f1721" stroke="#43a047" d="M633,-390.34C633,-390.34 358,-390.34 358,-390.34 352,-390.34 346,-384.34 346,-378.34 346,-378.34 346,-366.34 346,-366.34 346,-360.34 352,-354.34 358,-354.34 358,-354.34 633,-354.34 633,-354.34 639,-354.34 645,-360.34 645,-366.34 645,-366.34 645,-378.34 645,-378.34 645,-384.34 639,-390.34 633,-390.34"/>
<text text-anchor="middle" x="495.5" y="-370.14" font-family="Times,serif" font-size="9.00" fill="#e6eef7">HeytingLean.ClosingTheLoop.Semantics.NucleusFixedPoints</text>
</g>
<!-- HeytingLean.ClosingTheLoop.Main&#45;&gt;HeytingLean.ClosingTheLoop.Semantics.NucleusFixedPoints -->
<g id="edge13" class="edge">
<title>HeytingLean.ClosingTheLoop.Main&#45;&gt;HeytingLean.ClosingTheLoop.Semantics.NucleusFixedPoints</title>
<path fill="none" stroke="#90a4ae" d="M244.94,-372.34C272.86,-372.34 304.59,-372.34 335.83,-372.34"/>
<polygon fill="#90a4ae" stroke="#90a4ae" points="335.95,-375.84 345.95,-372.34 335.95,-368.84 335.95,-375.84"/>
</g>
<!-- HeytingLean.ClosingTheLoop.Semantics.FunctorialTime -->
<g id="node17" class="node">
<title>HeytingLean.ClosingTheLoop.Semantics.FunctorialTime</title>
<path fill="#0f1721" stroke="#43a047" d="M622,-174.34C622,-174.34 369,-174.34 369,-174.34 363,-174.34 357,-168.34 357,-162.34 357,-162.34 357,-150.34 357,-150.34 357,-144.34 363,-138.34 369,-138.34 369,-138.34 622,-138.34 622,-138.34 628,-138.34 634,-144.34 634,-150.34 634,-150.34 634,-162.34 634,-162.34 634,-168.34 628,-174.34 622,-174.34"/>
<text text-anchor="middle" x="495.5" y="-154.14" font-family="Times,serif" font-size="9.00" fill="#e6eef7">HeytingLean.ClosingTheLoop.Semantics.FunctorialTime</text>
</g>
<!-- HeytingLean.ClosingTheLoop.Semantics.KernelLaws -->
<g id="node18" class="node">
<title>HeytingLean.ClosingTheLoop.Semantics.KernelLaws</title>
<path fill="#0f1721" stroke="#43a047" d="M929,-66.34C929,-66.34 693,-66.34 693,-66.34 687,-66.34 681,-60.34 681,-54.34 681,-54.34 681,-42.34 681,-42.34 681,-36.34 687,-30.34 693,-30.34 693,-30.34 929,-30.34 929,-30.34 935,-30.34 941,-36.34 941,-42.34 941,-42.34 941,-54.34 941,-54.34 941,-60.34 935,-66.34 929,-66.34"/>
<text text-anchor="middle" x="811" y="-46.14" font-family="Times,serif" font-size="9.00" fill="#e6eef7">HeytingLean.ClosingTheLoop.Semantics.KernelLaws</text>
</g>
<!-- HeytingLean.ClosingTheLoop.Semantics.FunctorialTime&#45;&gt;HeytingLean.ClosingTheLoop.Semantics.KernelLaws -->
<g id="edge14" class="edge">
<title>HeytingLean.ClosingTheLoop.Semantics.FunctorialTime&#45;&gt;HeytingLean.ClosingTheLoop.Semantics.KernelLaws</title>
<path fill="none" stroke="#90a4ae" d="M613.2,-138.3C624.05,-135.67 634.8,-132.7 645,-129.34 690.02,-114.51 738.35,-89.62 770.98,-71.34"/>
<polygon fill="#90a4ae" stroke="#90a4ae" points="772.78,-74.34 779.76,-66.37 769.33,-68.25 772.78,-74.34"/>
</g>
<!-- HeytingLean.ClosingTheLoop.Semantics.LambdaIRBridge -->
<g id="node19" class="node">
<title>HeytingLean.ClosingTheLoop.Semantics.LambdaIRBridge</title>
<path fill="#0f1721" stroke="#43a047" d="M626,-120.34C626,-120.34 365,-120.34 365,-120.34 359,-120.34 353,-114.34 353,-108.34 353,-108.34 353,-96.34 353,-96.34 353,-90.34 359,-84.34 365,-84.34 365,-84.34 626,-84.34 626,-84.34 632,-84.34 638,-90.34 638,-96.34 638,-96.34 638,-108.34 638,-108.34 638,-114.34 632,-120.34 626,-120.34"/>
<text text-anchor="middle" x="495.5" y="-100.14" font-family="Times,serif" font-size="9.00" fill="#e6eef7">HeytingLean.ClosingTheLoop.Semantics.LambdaIRBridge</text>
</g>
<!-- HeytingLean.ClosingTheLoop.Semantics.Mealy -->
<g id="node20" class="node">
<title>HeytingLean.ClosingTheLoop.Semantics.Mealy</title>
<path fill="#0f1721" stroke="#43a047" d="M600.5,-228.34C600.5,-228.34 390.5,-228.34 390.5,-228.34 384.5,-228.34 378.5,-222.34 378.5,-216.34 378.5,-216.34 378.5,-204.34 378.5,-204.34 378.5,-198.34 384.5,-192.34 390.5,-192.34 390.5,-192.34 600.5,-192.34 600.5,-192.34 606.5,-192.34 612.5,-198.34 612.5,-204.34 612.5,-204.34 612.5,-216.34 612.5,-216.34 612.5,-222.34 606.5,-228.34 600.5,-228.34"/>
<text text-anchor="middle" x="495.5" y="-208.14" font-family="Times,serif" font-size="9.00" fill="#e6eef7">HeytingLean.ClosingTheLoop.Semantics.Mealy</text>
</g>
<!-- HeytingLean.ClosingTheLoop.Semantics.Mealy&#45;&gt;HeytingLean.ClosingTheLoop.MR.ClosureOperator -->
<g id="edge15" class="edge">
<title>HeytingLean.ClosingTheLoop.Semantics.Mealy&#45;&gt;HeytingLean.ClosingTheLoop.MR.ClosureOperator</title>
<path fill="none" stroke="#90a4ae" d="M601.33,-228.39C631.52,-233.59 664.62,-239.29 695.37,-244.59"/>
<polygon fill="#90a4ae" stroke="#90a4ae" points="694.82,-248.05 705.27,-246.3 696.01,-241.15 694.82,-248.05"/>
</g>
<!-- HeytingLean.ClosingTheLoop.Semantics.NucleusBridge -->
<g id="node21" class="node">
<title>HeytingLean.ClosingTheLoop.Semantics.NucleusBridge</title>
<path fill="#0f1721" stroke="#43a047" d="M281,-606.34C281,-606.34 29,-606.34 29,-606.34 23,-606.34 17,-600.34 17,-594.34 17,-594.34 17,-582.34 17,-582.34 17,-576.34 23,-570.34 29,-570.34 29,-570.34 281,-570.34 281,-570.34 287,-570.34 293,-576.34 293,-582.34 293,-582.34 293,-594.34 293,-594.34 293,-600.34 287,-606.34 281,-606.34"/>
<text text-anchor="middle" x="155" y="-586.14" font-family="Times,serif" font-size="9.00" fill="#e6eef7">HeytingLean.ClosingTheLoop.Semantics.NucleusBridge</text>
</g>
<!-- HeytingLean.ClosingTheLoop.Semantics.PreorderTime -->
<g id="node23" class="node">
<title>HeytingLean.ClosingTheLoop.Semantics.PreorderTime</title>
<path fill="#0f1721" stroke="#43a047" d="M278,-660.34C278,-660.34 32,-660.34 32,-660.34 26,-660.34 20,-654.34 20,-648.34 20,-648.34 20,-636.34 20,-636.34 20,-630.34 26,-624.34 32,-624.34 32,-624.34 278,-624.34 278,-624.34 284,-624.34 290,-630.34 290,-636.34 290,-636.34 290,-648.34 290,-648.34 290,-654.34 284,-660.34 278,-660.34"/>
<text text-anchor="middle" x="155" y="-640.14" font-family="Times,serif" font-size="9.00" fill="#e6eef7">HeytingLean.ClosingTheLoop.Semantics.PreorderTime</text>
</g>
<!-- HeytingLean.ClosingTheLoop.Semantics.ProcessBridge -->
<g id="node24" class="node">
<title>HeytingLean.ClosingTheLoop.Semantics.ProcessBridge</title>
<path fill="#0f1721" stroke="#43a047" d="M620,-66.34C620,-66.34 371,-66.34 371,-66.34 365,-66.34 359,-60.34 359,-54.34 359,-54.34 359,-42.34 359,-42.34 359,-36.34 365,-30.34 371,-30.34 371,-30.34 620,-30.34 620,-30.34 626,-30.34 632,-36.34 632,-42.34 632,-42.34 632,-54.34 632,-54.34 632,-60.34 626,-66.34 620,-66.34"/>
<text text-anchor="middle" x="495.5" y="-46.14" font-family="Times,serif" font-size="9.00" fill="#e6eef7">HeytingLean.ClosingTheLoop.Semantics.ProcessBridge</text>
</g>
<!-- HeytingLean.ClosingTheLoop.Semantics.ProcessBridge&#45;&gt;HeytingLean.ClosingTheLoop.Semantics.KernelLaws -->
<g id="edge16" class="edge">
<title>HeytingLean.ClosingTheLoop.Semantics.ProcessBridge&#45;&gt;HeytingLean.ClosingTheLoop.Semantics.KernelLaws</title>
<path fill="none" stroke="#90a4ae" d="M632.18,-48.34C644.85,-48.34 657.7,-48.34 670.4,-48.34"/>
<polygon fill="#90a4ae" stroke="#90a4ae" points="670.55,-51.84 680.55,-48.34 670.55,-44.84 670.55,-51.84"/>
</g>
<!-- HeytingLean.ClosingTheLoop.Semantics.RelationalRealizability -->
<g id="node25" class="node">
<title>HeytingLean.ClosingTheLoop.Semantics.RelationalRealizability</title>
<path fill="#0f1721" stroke="#43a047" d="M298,-93.34C298,-93.34 12,-93.34 12,-93.34 6,-93.34 0,-87.34 0,-81.34 0,-81.34 0,-69.34 0,-69.34 0,-63.34 6,-57.34 12,-57.34 12,-57.34 298,-57.34 298,-57.34 304,-57.34 310,-63.34 310,-69.34 310,-69.34 310,-81.34 310,-81.34 310,-87.34 304,-93.34 298,-93.34"/>
<text text-anchor="middle" x="155" y="-73.14" font-family="Times,serif" font-size="9.00" fill="#e6eef7">HeytingLean.ClosingTheLoop.Semantics.RelationalRealizability</text>
</g>
<!-- HeytingLean.ClosingTheLoop.Semantics.RelationalRealizability&#45;&gt;HeytingLean.ClosingTheLoop.Semantics.KernelLaws -->
<g id="edge17" class="edge">
<title>HeytingLean.ClosingTheLoop.Semantics.RelationalRealizability&#45;&gt;HeytingLean.ClosingTheLoop.Semantics.KernelLaws</title>
<path fill="none" stroke="#90a4ae" d="M285.48,-57.3C293.91,-54.7 302.15,-51.73 310,-48.34 328.35,-40.39 327.03,-27.66 346,-21.34 472.07,20.69 512.55,-10.57 645,-21.34 665.01,-22.96 686.26,-25.68 706.61,-28.79"/>
<polygon fill="#90a4ae" stroke="#90a4ae" points="706.1,-32.25 716.52,-30.34 707.18,-25.33 706.1,-32.25"/>
</g>
<!-- HeytingLean.ClosingTheLoop.Semantics.RelationalRealizability&#45;&gt;HeytingLean.ClosingTheLoop.Semantics.LambdaIRBridge -->
<g id="edge18" class="edge">
<title>HeytingLean.ClosingTheLoop.Semantics.RelationalRealizability&#45;&gt;HeytingLean.ClosingTheLoop.Semantics.LambdaIRBridge</title>
<path fill="none" stroke="#90a4ae" d="M310.39,-87.65C321.09,-88.51 331.88,-89.37 342.57,-90.22"/>
<polygon fill="#90a4ae" stroke="#90a4ae" points="342.54,-93.73 352.78,-91.03 343.09,-86.75 342.54,-93.73"/>
</g>
<!-- HeytingLean.ClosingTheLoop.Semantics.RelationalRealizability&#45;&gt;HeytingLean.ClosingTheLoop.Semantics.Mealy -->
<g id="edge19" class="edge">
<title>HeytingLean.ClosingTheLoop.Semantics.RelationalRealizability&#45;&gt;HeytingLean.ClosingTheLoop.Semantics.Mealy</title>
<path fill="none" stroke="#90a4ae" d="M181.38,-93.5C216.59,-117.8 283.05,-160.48 346,-183.34 353.27,-185.98 360.85,-188.37 368.55,-190.53"/>
<polygon fill="#90a4ae" stroke="#90a4ae" points="367.8,-193.96 378.37,-193.15 369.61,-187.19 367.8,-193.96"/>
</g>
<!-- HeytingLean.ClosingTheLoop.Semantics.RelationalRealizability&#45;&gt;HeytingLean.ClosingTheLoop.Semantics.ProcessBridge -->
<g id="edge20" class="edge">
<title>HeytingLean.ClosingTheLoop.Semantics.RelationalRealizability&#45;&gt;HeytingLean.ClosingTheLoop.Semantics.ProcessBridge</title>
<path fill="none" stroke="#90a4ae" d="M310.39,-63.02C323.19,-62 336.1,-60.97 348.83,-59.96"/>
<polygon fill="#90a4ae" stroke="#90a4ae" points="349.3,-63.43 358.99,-59.15 348.74,-56.45 349.3,-63.43"/>
</g>
<!-- HeytingLean.ClosingTheLoop.Tests.ClosureIdempotent -->
<g id="node26" class="node">
<title>HeytingLean.ClosingTheLoop.Tests.ClosureIdempotent</title>
<path fill="#0f1721" stroke="#43a047" d="M619,-282.34C619,-282.34 372,-282.34 372,-282.34 366,-282.34 360,-276.34 360,-270.34 360,-270.34 360,-258.34 360,-258.34 360,-252.34 366,-246.34 372,-246.34 372,-246.34 619,-246.34 619,-246.34 625,-246.34 631,-252.34 631,-258.34 631,-258.34 631,-270.34 631,-270.34 631,-276.34 625,-282.34 619,-282.34"/>
<text text-anchor="middle" x="495.5" y="-262.14" font-family="Times,serif" font-size="9.00" fill="#e6eef7">HeytingLean.ClosingTheLoop.Tests.ClosureIdempotent</text>
</g>
<!-- HeytingLean.ClosingTheLoop.Tests.ClosureIdempotent&#45;&gt;HeytingLean.ClosingTheLoop.MR.ClosureOperator -->
<g id="edge21" class="edge">
<title>HeytingLean.ClosingTheLoop.Tests.ClosureIdempotent&#45;&gt;HeytingLean.ClosingTheLoop.MR.ClosureOperator</title>
<path fill="none" stroke="#90a4ae" d="M631.27,-264.34C645.56,-264.34 660.1,-264.34 674.4,-264.34"/>
<polygon fill="#90a4ae" stroke="#90a4ae" points="674.76,-267.84 684.76,-264.34 674.76,-260.84 674.76,-267.84"/>
</g>
<!-- HeytingLean.ClosingTheLoop.Tests.Test_AssumptionMismatch -->
<g id="node27" class="node">
<title>HeytingLean.ClosingTheLoop.Tests.Test_AssumptionMismatch</title>
<path fill="#0f1721" stroke="#43a047" d="M295.5,-336.34C295.5,-336.34 14.5,-336.34 14.5,-336.34 8.5,-336.34 2.5,-330.34 2.5,-324.34 2.5,-324.34 2.5,-312.34 2.5,-312.34 2.5,-306.34 8.5,-300.34 14.5,-300.34 14.5,-300.34 295.5,-300.34 295.5,-300.34 301.5,-300.34 307.5,-306.34 307.5,-312.34 307.5,-312.34 307.5,-324.34 307.5,-324.34 307.5,-330.34 301.5,-336.34 295.5,-336.34"/>
<text text-anchor="middle" x="155" y="-316.14" font-family="Times,serif" font-size="9.00" fill="#e6eef7">HeytingLean.ClosingTheLoop.Tests.Test_AssumptionMismatch</text>
</g>
<!-- HeytingLean.ClosingTheLoop.Tests.Test_AssumptionMismatch&#45;&gt;HeytingLean.ClosingTheLoop.MR.PaperMapping -->
<g id="edge22" class="edge">
<title>HeytingLean.ClosingTheLoop.Tests.Test_AssumptionMismatch&#45;&gt;HeytingLean.ClosingTheLoop.MR.PaperMapping</title>
<path fill="none" stroke="#90a4ae" d="M307.92,-318.34C326.53,-318.34 345.43,-318.34 363.69,-318.34"/>
<polygon fill="#90a4ae" stroke="#90a4ae" points="363.77,-321.84 373.77,-318.34 363.77,-314.84 363.77,-321.84"/>
</g>
<!-- HeytingLean.Noneism.Bridge.BetaConstruction -->
<g id="node28" class="node">
<title>HeytingLean.Noneism.Bridge.BetaConstruction</title>
<path fill="#0f1721" stroke="#8e24aa" d="M918,-905.34C918,-905.34 704,-905.34 704,-905.34 698,-905.34 692,-899.34 692,-893.34 692,-893.34 692,-881.34 692,-881.34 692,-875.34 698,-869.34 704,-869.34 704,-869.34 918,-869.34 918,-869.34 924,-869.34 930,-875.34 930,-881.34 930,-881.34 930,-893.34 930,-893.34 930,-899.34 924,-905.34 918,-905.34"/>
<text text-anchor="middle" x="811" y="-885.14" font-family="Times,serif" font-size="9.00" fill="#e6eef7">HeytingLean.Noneism.Bridge.BetaConstruction</text>
</g>
<!-- HeytingLean.Noneism.Bridge.BetaEigen -->
<g id="node29" class="node">
<title>HeytingLean.Noneism.Bridge.BetaEigen</title>
<path fill="#0f1721" stroke="#8e24aa" d="M1199.5,-904.34C1199.5,-904.34 1018.5,-904.34 1018.5,-904.34 1012.5,-904.34 1006.5,-898.34 1006.5,-892.34 1006.5,-892.34 1006.5,-880.34 1006.5,-880.34 1006.5,-874.34 1012.5,-868.34 1018.5,-868.34 1018.5,-868.34 1199.5,-868.34 1199.5,-868.34 1205.5,-868.34 1211.5,-874.34 1211.5,-880.34 1211.5,-880.34 1211.5,-892.34 1211.5,-892.34 1211.5,-898.34 1205.5,-904.34 1199.5,-904.34"/>
<text text-anchor="middle" x="1109" y="-884.14" font-family="Times,serif" font-size="9.00" fill="#e6eef7">HeytingLean.Noneism.Bridge.BetaEigen</text>
</g>
<!-- HeytingLean.Noneism.Bridge.BetaConstruction&#45;&gt;HeytingLean.Noneism.Bridge.BetaEigen -->
<g id="edge23" class="edge">
<title>HeytingLean.Noneism.Bridge.BetaConstruction&#45;&gt;HeytingLean.Noneism.Bridge.BetaEigen</title>
<path fill="none" stroke="#90a4ae" d="M930.26,-886.94C951.95,-886.86 974.52,-886.79 996.02,-886.72"/>
<polygon fill="#90a4ae" stroke="#90a4ae" points="996.16,-890.21 1006.14,-886.68 996.13,-883.21 996.16,-890.21"/>
</g>
<!-- HeytingLean.Noneism.Bridge.SelectorDynamics -->
<g id="node33" class="node">
<title>HeytingLean.Noneism.Bridge.SelectorDynamics</title>
<path fill="#0f1721" stroke="#8e24aa" d="M1512.5,-899.34C1512.5,-899.34 1296.5,-899.34 1296.5,-899.34 1290.5,-899.34 1284.5,-893.34 1284.5,-887.34 1284.5,-887.34 1284.5,-875.34 1284.5,-875.34 1284.5,-869.34 1290.5,-863.34 1296.5,-863.34 1296.5,-863.34 1512.5,-863.34 1512.5,-863.34 1518.5,-863.34 1524.5,-869.34 1524.5,-875.34 1524.5,-875.34 1524.5,-887.34 1524.5,-887.34 1524.5,-893.34 1518.5,-899.34 1512.5,-899.34"/>
<text text-anchor="middle" x="1404.5" y="-879.14" font-family="Times,serif" font-size="9.00" fill="#e6eef7">HeytingLean.Noneism.Bridge.SelectorDynamics</text>
</g>
<!-- HeytingLean.Noneism.Bridge.BetaEigen&#45;&gt;HeytingLean.Noneism.Bridge.SelectorDynamics -->
<g id="edge24" class="edge">
<title>HeytingLean.Noneism.Bridge.BetaEigen&#45;&gt;HeytingLean.Noneism.Bridge.SelectorDynamics</title>
<path fill="none" stroke="#90a4ae" d="M1211.83,-884.6C1231.96,-884.26 1253.34,-883.89 1274.24,-883.54"/>
<polygon fill="#90a4ae" stroke="#90a4ae" points="1274.52,-887.03 1284.46,-883.36 1274.4,-880.04 1274.52,-887.03"/>
</g>
<!-- HeytingLean.Noneism.Eigen.Attribute -->
<g id="node49" class="node">
<title>HeytingLean.Noneism.Eigen.Attribute</title>
<path fill="#0f1721" stroke="#8e24aa" d="M1489.5,-953.34C1489.5,-953.34 1319.5,-953.34 1319.5,-953.34 1313.5,-953.34 1307.5,-947.34 1307.5,-941.34 1307.5,-941.34 1307.5,-929.34 1307.5,-929.34 1307.5,-923.34 1313.5,-917.34 1319.5,-917.34 1319.5,-917.34 1489.5,-917.34 1489.5,-917.34 1495.5,-917.34 1501.5,-923.34 1501.5,-929.34 1501.5,-929.34 1501.5,-941.34 1501.5,-941.34 1501.5,-947.34 1495.5,-953.34 1489.5,-953.34"/>
<text text-anchor="middle" x="1404.5" y="-933.14" font-family="Times,serif" font-size="9.00" fill="#e6eef7">HeytingLean.Noneism.Eigen.Attribute</text>
</g>
<!-- HeytingLean.Noneism.Bridge.BetaEigen&#45;&gt;HeytingLean.Noneism.Eigen.Attribute -->
<g id="edge25" class="edge">
<title>HeytingLean.Noneism.Bridge.BetaEigen&#45;&gt;HeytingLean.Noneism.Eigen.Attribute</title>
<path fill="none" stroke="#90a4ae" d="M1211.83,-903.34C1239.4,-907.94 1269.32,-912.94 1297.14,-917.58"/>
<polygon fill="#90a4ae" stroke="#90a4ae" points="1296.84,-921.08 1307.28,-919.27 1297.99,-914.17 1296.84,-921.08"/>
</g>
<!-- HeytingLean.Noneism.Eigen.Basic -->
<g id="node50" class="node">
<title>HeytingLean.Noneism.Eigen.Basic</title>
<path fill="#0f1721" stroke="#8e24aa" d="M1481,-845.34C1481,-845.34 1328,-845.34 1328,-845.34 1322,-845.34 1316,-839.34 1316,-833.34 1316,-833.34 1316,-821.34 1316,-821.34 1316,-815.34 1322,-809.34 1328,-809.34 1328,-809.34 1481,-809.34 1481,-809.34 1487,-809.34 1493,-815.34 1493,-821.34 1493,-821.34 1493,-833.34 1493,-833.34 1493,-839.34 1487,-845.34 1481,-845.34"/>
<text text-anchor="middle" x="1404.5" y="-825.14" font-family="Times,serif" font-size="9.00" fill="#e6eef7">HeytingLean.Noneism.Eigen.Basic</text>
</g>
<!-- HeytingLean.Noneism.Bridge.BetaEigen&#45;&gt;HeytingLean.Noneism.Eigen.Basic -->
<g id="edge26" class="edge">
<title>HeytingLean.Noneism.Bridge.BetaEigen&#45;&gt;HeytingLean.Noneism.Eigen.Basic</title>
<path fill="none" stroke="#90a4ae" d="M1199.65,-868.31C1233.26,-861.56 1271.59,-853.85 1305.88,-846.96"/>
<polygon fill="#90a4ae" stroke="#90a4ae" points="1306.79,-850.35 1315.91,-844.95 1305.41,-843.48 1306.79,-850.35"/>
</g>
<!-- HeytingLean.Noneism.Bridge.EvaluationMap -->
<g id="node30" class="node">
<title>HeytingLean.Noneism.Bridge.EvaluationMap</title>
<path fill="#0f1721" stroke="#8e24aa" d="M1783,-953.34C1783,-953.34 1580,-953.34 1580,-953.34 1574,-953.34 1568,-947.34 1568,-941.34 1568,-941.34 1568,-929.34 1568,-929.34 1568,-923.34 1574,-917.34 1580,-917.34 1580,-917.34 1783,-917.34 1783,-917.34 1789,-917.34 1795,-923.34 1795,-929.34 1795,-929.34 1795,-941.34 1795,-941.34 1795,-947.34 1789,-953.34 1783,-953.34"/>
<text text-anchor="middle" x="1681.5" y="-933.14" font-family="Times,serif" font-size="9.00" fill="#e6eef7">HeytingLean.Noneism.Bridge.EvaluationMap</text>
</g>
<!-- HeytingLean.Noneism.Bridge.MRClosure -->
<g id="node31" class="node">
<title>HeytingLean.Noneism.Bridge.MRClosure</title>
<path fill="#0f1721" stroke="#8e24aa" d="M247,-903.34C247,-903.34 63,-903.34 63,-903.34 57,-903.34 51,-897.34 51,-891.34 51,-891.34 51,-879.34 51,-879.34 51,-873.34 57,-867.34 63,-867.34 63,-867.34 247,-867.34 247,-867.34 253,-867.34 259,-873.34 259,-879.34 259,-879.34 259,-891.34 259,-891.34 259,-897.34 253,-903.34 247,-903.34"/>
<text text-anchor="middle" x="155" y="-883.14" font-family="Times,serif" font-size="9.00" fill="#e6eef7">HeytingLean.Noneism.Bridge.MRClosure</text>
</g>
<!-- HeytingLean.Noneism.Bridge.NoncomputableAudit -->
<g id="node32" class="node">
<title>HeytingLean.Noneism.Bridge.NoncomputableAudit</title>
<path fill="#0f1721" stroke="#8e24aa" d="M611.5,-928.34C611.5,-928.34 379.5,-928.34 379.5,-928.34 373.5,-928.34 367.5,-922.34 367.5,-916.34 367.5,-916.34 367.5,-904.34 367.5,-904.34 367.5,-898.34 373.5,-892.34 379.5,-892.34 379.5,-892.34 611.5,-892.34 611.5,-892.34 617.5,-892.34 623.5,-898.34 623.5,-904.34 623.5,-904.34 623.5,-916.34 623.5,-916.34 623.5,-922.34 617.5,-928.34 611.5,-928.34"/>
<text text-anchor="middle" x="495.5" y="-908.14" font-family="Times,serif" font-size="9.00" fill="#e6eef7">HeytingLean.Noneism.Bridge.NoncomputableAudit</text>
</g>
<!-- HeytingLean.Noneism.Bridge.NoncomputableAudit&#45;&gt;HeytingLean.Noneism.Bridge.BetaConstruction -->
<g id="edge27" class="edge">
<title>HeytingLean.Noneism.Bridge.NoncomputableAudit&#45;&gt;HeytingLean.Noneism.Bridge.BetaConstruction</title>
<path fill="none" stroke="#90a4ae" d="M623.56,-901.02C642.78,-899.6 662.63,-898.15 681.87,-896.74"/>
<polygon fill="#90a4ae" stroke="#90a4ae" points="682.16,-900.23 691.87,-896 681.65,-893.24 682.16,-900.23"/>
</g>
<!-- HeytingLean.Noneism.Bridge.NoncomputableAudit&#45;&gt;HeytingLean.Noneism.Eigen.Attribute -->
<g id="edge28" class="edge">
<title>HeytingLean.Noneism.Bridge.NoncomputableAudit&#45;&gt;HeytingLean.Noneism.Eigen.Attribute</title>
<path fill="none" stroke="#90a4ae" d="M623.57,-913.84C803.57,-918.8 1129.53,-927.79 1297.35,-932.41"/>
<polygon fill="#90a4ae" stroke="#90a4ae" points="1297.34,-935.91 1307.43,-932.69 1297.53,-928.91 1297.34,-935.91"/>
</g>
<!-- HeytingLean.Noneism.Bridge.SelectorDynamics&#45;&gt;HeytingLean.Noneism.Bridge.EvaluationMap -->
<g id="edge29" class="edge">
<title>HeytingLean.Noneism.Bridge.SelectorDynamics&#45;&gt;HeytingLean.Noneism.Bridge.EvaluationMap</title>
<path fill="none" stroke="#90a4ae" d="M1497.45,-899.39C1523.48,-904.5 1551.97,-910.1 1578.55,-915.32"/>
<polygon fill="#90a4ae" stroke="#90a4ae" points="1578.15,-918.81 1588.63,-917.3 1579.5,-911.94 1578.15,-918.81"/>
</g>
<!-- HeytingLean.Noneism.Bridge.SemanticClosureLink -->
<g id="node34" class="node">
<title>HeytingLean.Noneism.Bridge.SemanticClosureLink</title>
<path fill="#0f1721" stroke="#8e24aa" d="M1520,-1007.34C1520,-1007.34 1289,-1007.34 1289,-1007.34 1283,-1007.34 1277,-1001.34 1277,-995.34 1277,-995.34 1277,-983.34 1277,-983.34 1277,-977.34 1283,-971.34 1289,-971.34 1289,-971.34 1520,-971.34 1520,-971.34 1526,-971.34 1532,-977.34 1532,-983.34 1532,-983.34 1532,-995.34 1532,-995.34 1532,-1001.34 1526,-1007.34 1520,-1007.34"/>
<text text-anchor="middle" x="1404.5" y="-987.14" font-family="Times,serif" font-size="9.00" fill="#e6eef7">HeytingLean.Noneism.Bridge.SemanticClosureLink</text>
</g>
<!-- HeytingLean.Noneism.Bridge.SemanticClosureLink&#45;&gt;HeytingLean.Noneism.Bridge.EvaluationMap -->
<g id="edge30" class="edge">
<title>HeytingLean.Noneism.Bridge.SemanticClosureLink&#45;&gt;HeytingLean.Noneism.Bridge.EvaluationMap</title>
<path fill="none" stroke="#90a4ae" d="M1497.45,-971.28C1523.48,-966.17 1551.97,-960.58 1578.55,-955.36"/>
<polygon fill="#90a4ae" stroke="#90a4ae" points="1579.5,-958.74 1588.63,-953.38 1578.15,-951.87 1579.5,-958.74"/>
</g>
<!-- HeytingLean.Noneism.Cat.Basic -->
<g id="node35" class="node">
<title>HeytingLean.Noneism.Cat.Basic</title>
<path fill="#0f1721" stroke="#8e24aa" d="M226,-957.34C226,-957.34 84,-957.34 84,-957.34 78,-957.34 72,-951.34 72,-945.34 72,-945.34 72,-933.34 72,-933.34 72,-927.34 78,-921.34 84,-921.34 84,-921.34 226,-921.34 226,-921.34 232,-921.34 238,-927.34 238,-933.34 238,-933.34 238,-945.34 238,-945.34 238,-951.34 232,-957.34 226,-957.34"/>
<text text-anchor="middle" x="155" y="-937.14" font-family="Times,serif" font-size="9.00" fill="#e6eef7">HeytingLean.Noneism.Cat.Basic</text>
</g>
<!-- HeytingLean.Noneism.Cat.Coalgebra -->
<g id="node36" class="node">
<title>HeytingLean.Noneism.Cat.Coalgebra</title>
<path fill="#0f1721" stroke="#8e24aa" d="M237,-1011.34C237,-1011.34 73,-1011.34 73,-1011.34 67,-1011.34 61,-1005.34 61,-999.34 61,-999.34 61,-987.34 61,-987.34 61,-981.34 67,-975.34 73,-975.34 73,-975.34 237,-975.34 237,-975.34 243,-975.34 249,-981.34 249,-987.34 249,-987.34 249,-999.34 249,-999.34 249,-1005.34 243,-1011.34 237,-1011.34"/>
<text text-anchor="middle" x="155" y="-991.14" font-family="Times,serif" font-size="9.00" fill="#e6eef7">HeytingLean.Noneism.Cat.Coalgebra</text>
</g>
<!-- HeytingLean.Noneism.Cat.FixedPoint -->
<g id="node37" class="node">
<title>HeytingLean.Noneism.Cat.FixedPoint</title>
<path fill="#0f1721" stroke="#8e24aa" d="M238.5,-1065.34C238.5,-1065.34 71.5,-1065.34 71.5,-1065.34 65.5,-1065.34 59.5,-1059.34 59.5,-1053.34 59.5,-1053.34 59.5,-1041.34 59.5,-1041.34 59.5,-1035.34 65.5,-1029.34 71.5,-1029.34 71.5,-1029.34 238.5,-1029.34 238.5,-1029.34 244.5,-1029.34 250.5,-1035.34 250.5,-1041.34 250.5,-1041.34 250.5,-1053.34 250.5,-1053.34 250.5,-1059.34 244.5,-1065.34 238.5,-1065.34"/>
<text text-anchor="middle" x="155" y="-1045.14" font-family="Times,serif" font-size="9.00" fill="#e6eef7">HeytingLean.Noneism.Cat.FixedPoint</text>
</g>
<!-- HeytingLean.Noneism.Cat.Lawvere -->
<g id="node38" class="node">
<title>HeytingLean.Noneism.Cat.Lawvere</title>
<path fill="#0f1721" stroke="#8e24aa" d="M233,-1119.34C233,-1119.34 77,-1119.34 77,-1119.34 71,-1119.34 65,-1113.34 65,-1107.34 65,-1107.34 65,-1095.34 65,-1095.34 65,-1089.34 71,-1083.34 77,-1083.34 77,-1083.34 233,-1083.34 233,-1083.34 239,-1083.34 245,-1089.34 245,-1095.34 245,-1095.34 245,-1107.34 245,-1107.34 245,-1113.34 239,-1119.34 233,-1119.34"/>
<text text-anchor="middle" x="155" y="-1099.14" font-family="Times,serif" font-size="9.00" fill="#e6eef7">HeytingLean.Noneism.Cat.Lawvere</text>
</g>
<!-- HeytingLean.Noneism.Cat.Monad -->
<g id="node39" class="node">
<title>HeytingLean.Noneism.Cat.Monad</title>
<path fill="#0f1721" stroke="#8e24aa" d="M229.5,-1173.34C229.5,-1173.34 80.5,-1173.34 80.5,-1173.34 74.5,-1173.34 68.5,-1167.34 68.5,-1161.34 68.5,-1161.34 68.5,-1149.34 68.5,-1149.34 68.5,-1143.34 74.5,-1137.34 80.5,-1137.34 80.5,-1137.34 229.5,-1137.34 229.5,-1137.34 235.5,-1137.34 241.5,-1143.34 241.5,-1149.34 241.5,-1149.34 241.5,-1161.34 241.5,-1161.34 241.5,-1167.34 235.5,-1173.34 229.5,-1173.34"/>
<text text-anchor="middle" x="155" y="-1153.14" font-family="Times,serif" font-size="9.00" fill="#e6eef7">HeytingLean.Noneism.Cat.Monad</text>
</g>
<!-- HeytingLean.Noneism.Cat.Presheaf -->
<g id="node40" class="node">
<title>HeytingLean.Noneism.Cat.Presheaf</title>
<path fill="#0f1721" stroke="#8e24aa" d="M889.5,-768.34C889.5,-768.34 732.5,-768.34 732.5,-768.34 726.5,-768.34 720.5,-762.34 720.5,-756.34 720.5,-756.34 720.5,-744.34 720.5,-744.34 720.5,-738.34 726.5,-732.34 732.5,-732.34 732.5,-732.34 889.5,-732.34 889.5,-732.34 895.5,-732.34 901.5,-738.34 901.5,-744.34 901.5,-744.34 901.5,-756.34 901.5,-756.34 901.5,-762.34 895.5,-768.34 889.5,-768.34"/>
<text text-anchor="middle" x="811" y="-748.14" font-family="Times,serif" font-size="9.00" fill="#e6eef7">HeytingLean.Noneism.Cat.Presheaf</text>
</g>
<!-- HeytingLean.Noneism.Cat.Yoneda -->
<g id="node41" class="node">
<title>HeytingLean.Noneism.Cat.Yoneda</title>
<path fill="#0f1721" stroke="#8e24aa" d="M570.5,-822.34C570.5,-822.34 420.5,-822.34 420.5,-822.34 414.5,-822.34 408.5,-816.34 408.5,-810.34 408.5,-810.34 408.5,-798.34 408.5,-798.34 408.5,-792.34 414.5,-786.34 420.5,-786.34 420.5,-786.34 570.5,-786.34 570.5,-786.34 576.5,-786.34 582.5,-792.34 582.5,-798.34 582.5,-798.34 582.5,-810.34 582.5,-810.34 582.5,-816.34 576.5,-822.34 570.5,-822.34"/>
<text text-anchor="middle" x="495.5" y="-802.14" font-family="Times,serif" font-size="9.00" fill="#e6eef7">HeytingLean.Noneism.Cat.Yoneda</text>
</g>
<!-- HeytingLean.Noneism.Cat.Yoneda&#45;&gt;HeytingLean.Noneism.Cat.Presheaf -->
<g id="edge31" class="edge">
<title>HeytingLean.Noneism.Cat.Yoneda&#45;&gt;HeytingLean.Noneism.Cat.Presheaf</title>
<path fill="none" stroke="#90a4ae" d="M582.58,-789.51C622.1,-782.7 669.2,-774.59 710.26,-767.52"/>
<polygon fill="#90a4ae" stroke="#90a4ae" points="711.02,-770.94 720.28,-765.79 709.84,-764.04 711.02,-770.94"/>
</g>
<!-- HeytingLean.Noneism.Core.FixedPoints -->
<g id="node42" class="node">
<title>HeytingLean.Noneism.Core.FixedPoints</title>
<path fill="#0f1721" stroke="#8e24aa" d="M584,-1227.34C584,-1227.34 407,-1227.34 407,-1227.34 401,-1227.34 395,-1221.34 395,-1215.34 395,-1215.34 395,-1203.34 395,-1203.34 395,-1197.34 401,-1191.34 407,-1191.34 407,-1191.34 584,-1191.34 584,-1191.34 590,-1191.34 596,-1197.34 596,-1203.34 596,-1203.34 596,-1215.34 596,-1215.34 596,-1221.34 590,-1227.34 584,-1227.34"/>
<text text-anchor="middle" x="495.5" y="-1207.14" font-family="Times,serif" font-size="9.00" fill="#e6eef7">HeytingLean.Noneism.Core.FixedPoints</text>
</g>
<!-- HeytingLean.Noneism.Core.HeytingCore -->
<g id="node43" class="node">
<title>HeytingLean.Noneism.Core.HeytingCore</title>
<path fill="#0f1721" stroke="#8e24aa" d="M246,-1227.34C246,-1227.34 64,-1227.34 64,-1227.34 58,-1227.34 52,-1221.34 52,-1215.34 52,-1215.34 52,-1203.34 52,-1203.34 52,-1197.34 58,-1191.34 64,-1191.34 64,-1191.34 246,-1191.34 246,-1191.34 252,-1191.34 258,-1197.34 258,-1203.34 258,-1203.34 258,-1215.34 258,-1215.34 258,-1221.34 252,-1227.34 246,-1227.34"/>
<text text-anchor="middle" x="155" y="-1207.14" font-family="Times,serif" font-size="9.00" fill="#e6eef7">HeytingLean.Noneism.Core.HeytingCore</text>
</g>
<!-- HeytingLean.Noneism.Core.HeytingCore&#45;&gt;HeytingLean.Noneism.Core.FixedPoints -->
<g id="edge32" class="edge">
<title>HeytingLean.Noneism.Core.HeytingCore&#45;&gt;HeytingLean.Noneism.Core.FixedPoints</title>
<path fill="none" stroke="#90a4ae" d="M258.02,-1209.34C297.95,-1209.34 343.84,-1209.34 384.51,-1209.34"/>
<polygon fill="#90a4ae" stroke="#90a4ae" points="384.73,-1212.84 394.73,-1209.34 384.73,-1205.84 384.73,-1212.84"/>
</g>
<!-- HeytingLean.Noneism.Core.Nucleus -->
<g id="node44" class="node">
<title>HeytingLean.Noneism.Core.Nucleus</title>
<path fill="#0f1721" stroke="#8e24aa" d="M891.5,-660.34C891.5,-660.34 730.5,-660.34 730.5,-660.34 724.5,-660.34 718.5,-654.34 718.5,-648.34 718.5,-648.34 718.5,-636.34 718.5,-636.34 718.5,-630.34 724.5,-624.34 730.5,-624.34 730.5,-624.34 891.5,-624.34 891.5,-624.34 897.5,-624.34 903.5,-630.34 903.5,-636.34 903.5,-636.34 903.5,-648.34 903.5,-648.34 903.5,-654.34 897.5,-660.34 891.5,-660.34"/>
<text text-anchor="middle" x="811" y="-640.14" font-family="Times,serif" font-size="9.00" fill="#e6eef7">HeytingLean.Noneism.Core.Nucleus</text>
</g>
<!-- HeytingLean.Noneism.Eigen.Dynamics -->
<g id="node51" class="node">
<title>HeytingLean.Noneism.Eigen.Dynamics</title>
<path fill="#0f1721" stroke="#8e24aa" d="M1195.5,-795.34C1195.5,-795.34 1022.5,-795.34 1022.5,-795.34 1016.5,-795.34 1010.5,-789.34 1010.5,-783.34 1010.5,-783.34 1010.5,-771.34 1010.5,-771.34 1010.5,-765.34 1016.5,-759.34 1022.5,-759.34 1022.5,-759.34 1195.5,-759.34 1195.5,-759.34 1201.5,-759.34 1207.5,-765.34 1207.5,-771.34 1207.5,-771.34 1207.5,-783.34 1207.5,-783.34 1207.5,-789.34 1201.5,-795.34 1195.5,-795.34"/>
<text text-anchor="middle" x="1109" y="-775.14" font-family="Times,serif" font-size="9.00" fill="#e6eef7">HeytingLean.Noneism.Eigen.Dynamics</text>
</g>
<!-- HeytingLean.Noneism.Core.Nucleus&#45;&gt;HeytingLean.Noneism.Eigen.Dynamics -->
<g id="edge33" class="edge">
<title>HeytingLean.Noneism.Core.Nucleus&#45;&gt;HeytingLean.Noneism.Eigen.Dynamics</title>
<path fill="none" stroke="#90a4ae" d="M851.61,-660.4C905.18,-684.84 1000.7,-728.4 1058.81,-754.9"/>
<polygon fill="#90a4ae" stroke="#90a4ae" points="1057.6,-758.2 1068.15,-759.16 1060.5,-751.83 1057.6,-758.2"/>
</g>
<!-- HeytingLean.Noneism.Crossing.Adjunction -->
<g id="node45" class="node">
<title>HeytingLean.Noneism.Crossing.Adjunction</title>
<path fill="#0f1721" stroke="#8e24aa" d="M251.5,-795.34C251.5,-795.34 58.5,-795.34 58.5,-795.34 52.5,-795.34 46.5,-789.34 46.5,-783.34 46.5,-783.34 46.5,-771.34 46.5,-771.34 46.5,-765.34 52.5,-759.34 58.5,-759.34 58.5,-759.34 251.5,-759.34 251.5,-759.34 257.5,-759.34 263.5,-765.34 263.5,-771.34 263.5,-771.34 263.5,-783.34 263.5,-783.34 263.5,-789.34 257.5,-795.34 251.5,-795.34"/>
<text text-anchor="middle" x="155" y="-775.14" font-family="Times,serif" font-size="9.00" fill="#e6eef7">HeytingLean.Noneism.Crossing.Adjunction</text>
</g>
<!-- HeytingLean.Noneism.Crossing.Adjunction&#45;&gt;HeytingLean.Noneism.Cat.Yoneda -->
<g id="edge34" class="edge">
<title>HeytingLean.Noneism.Crossing.Adjunction&#45;&gt;HeytingLean.Noneism.Cat.Yoneda</title>
<path fill="none" stroke="#90a4ae" d="M263.57,-785.92C306.76,-789.36 356.16,-793.3 398.15,-796.65"/>
<polygon fill="#90a4ae" stroke="#90a4ae" points="398.14,-800.16 408.38,-797.47 398.69,-793.18 398.14,-800.16"/>
</g>
<!-- HeytingLean.Noneism.Crossing.Irreversibility -->
<g id="node46" class="node">
<title>HeytingLean.Noneism.Crossing.Irreversibility</title>
<path fill="#0f1721" stroke="#8e24aa" d="M258,-849.34C258,-849.34 52,-849.34 52,-849.34 46,-849.34 40,-843.34 40,-837.34 40,-837.34 40,-825.34 40,-825.34 40,-819.34 46,-813.34 52,-813.34 52,-813.34 258,-813.34 258,-813.34 264,-813.34 270,-819.34 270,-825.34 270,-825.34 270,-837.34 270,-837.34 270,-843.34 264,-849.34 258,-849.34"/>
<text text-anchor="middle" x="155" y="-829.14" font-family="Times,serif" font-size="9.00" fill="#e6eef7">HeytingLean.Noneism.Crossing.Irreversibility</text>
</g>
<!-- HeytingLean.Noneism.Crossing.Irreversibility&#45;&gt;HeytingLean.Noneism.Cat.Yoneda -->
<g id="edge35" class="edge">
<title>HeytingLean.Noneism.Crossing.Irreversibility&#45;&gt;HeytingLean.Noneism.Cat.Yoneda</title>
<path fill="none" stroke="#90a4ae" d="M270.13,-822.23C311.8,-818.91 358.47,-815.19 398.41,-812"/>
<polygon fill="#90a4ae" stroke="#90a4ae" points="398.72,-815.49 408.41,-811.2 398.17,-808.51 398.72,-815.49"/>
</g>
<!-- HeytingLean.Noneism.Crossing.OntologicalBoundary -->
<g id="node47" class="node">
<title>HeytingLean.Noneism.Crossing.OntologicalBoundary</title>
<path fill="#0f1721" stroke="#8e24aa" d="M1229,-849.34C1229,-849.34 989,-849.34 989,-849.34 983,-849.34 977,-843.34 977,-837.34 977,-837.34 977,-825.34 977,-825.34 977,-819.34 983,-813.34 989,-813.34 989,-813.34 1229,-813.34 1229,-813.34 1235,-813.34 1241,-819.34 1241,-825.34 1241,-825.34 1241,-837.34 1241,-837.34 1241,-843.34 1235,-849.34 1229,-849.34"/>
<text text-anchor="middle" x="1109" y="-829.14" font-family="Times,serif" font-size="9.00" fill="#e6eef7">HeytingLean.Noneism.Crossing.OntologicalBoundary</text>
</g>
<!-- HeytingLean.Noneism.Crossing.OntologicalBoundary&#45;&gt;HeytingLean.Noneism.Eigen.Basic -->
<g id="edge36" class="edge">
<title>HeytingLean.Noneism.Crossing.OntologicalBoundary&#45;&gt;HeytingLean.Noneism.Eigen.Basic</title>
<path fill="none" stroke="#90a4ae" d="M1241.3,-829.55C1262.94,-829.25 1285.04,-828.95 1305.67,-828.67"/>
<polygon fill="#90a4ae" stroke="#90a4ae" points="1305.73,-832.17 1315.68,-828.53 1305.63,-825.17 1305.73,-832.17"/>
</g>
<!-- HeytingLean.Noneism.Crossing.Persistence -->
<g id="node48" class="node">
<title>HeytingLean.Noneism.Crossing.Persistence</title>
<path fill="#0f1721" stroke="#8e24aa" d="M593,-660.34C593,-660.34 398,-660.34 398,-660.34 392,-660.34 386,-654.34 386,-648.34 386,-648.34 386,-636.34 386,-636.34 386,-630.34 392,-624.34 398,-624.34 398,-624.34 593,-624.34 593,-624.34 599,-624.34 605,-630.34 605,-636.34 605,-636.34 605,-648.34 605,-648.34 605,-654.34 599,-660.34 593,-660.34"/>
<text text-anchor="middle" x="495.5" y="-640.14" font-family="Times,serif" font-size="9.00" fill="#e6eef7">HeytingLean.Noneism.Crossing.Persistence</text>
</g>
<!-- HeytingLean.Noneism.Crossing.Persistence&#45;&gt;HeytingLean.Noneism.Core.Nucleus -->
<g id="edge37" class="edge">
<title>HeytingLean.Noneism.Crossing.Persistence&#45;&gt;HeytingLean.Noneism.Core.Nucleus</title>
<path fill="none" stroke="#90a4ae" d="M605.27,-642.34C638.68,-642.34 675.32,-642.34 708.25,-642.34"/>
<polygon fill="#90a4ae" stroke="#90a4ae" points="708.34,-645.84 718.34,-642.34 708.34,-638.84 708.34,-645.84"/>
</g>
<!-- HeytingLean.Noneism.Eigen.Dynamics&#45;&gt;HeytingLean.Noneism.Eigen.Basic -->
<g id="edge38" class="edge">
<title>HeytingLean.Noneism.Eigen.Dynamics&#45;&gt;HeytingLean.Noneism.Eigen.Basic</title>
<path fill="none" stroke="#90a4ae" d="M1207.73,-793.99C1239.18,-799.34 1274.02,-805.28 1305.49,-810.64"/>
<polygon fill="#90a4ae" stroke="#90a4ae" points="1305.13,-814.13 1315.58,-812.36 1306.31,-807.23 1305.13,-814.13"/>
</g>
<!-- HeytingLean.Noneism.Eigen.Grounded -->
<g id="node52" class="node">
<title>HeytingLean.Noneism.Eigen.Grounded</title>
<path fill="#0f1721" stroke="#8e24aa" d="M898.5,-822.34C898.5,-822.34 723.5,-822.34 723.5,-822.34 717.5,-822.34 711.5,-816.34 711.5,-810.34 711.5,-810.34 711.5,-798.34 711.5,-798.34 711.5,-792.34 717.5,-786.34 723.5,-786.34 723.5,-786.34 898.5,-786.34 898.5,-786.34 904.5,-786.34 910.5,-792.34 910.5,-798.34 910.5,-798.34 910.5,-810.34 910.5,-810.34 910.5,-816.34 904.5,-822.34 898.5,-822.34"/>
<text text-anchor="middle" x="811" y="-802.14" font-family="Times,serif" font-size="9.00" fill="#e6eef7">HeytingLean.Noneism.Eigen.Grounded</text>
</g>
<!-- HeytingLean.Noneism.Eigen.Grounded&#45;&gt;HeytingLean.Noneism.Eigen.Dynamics -->
<g id="edge39" class="edge">
<title>HeytingLean.Noneism.Eigen.Grounded&#45;&gt;HeytingLean.Noneism.Eigen.Dynamics</title>
<path fill="none" stroke="#90a4ae" d="M910.56,-795.35C939.3,-792.73 970.84,-789.85 1000.12,-787.18"/>
<polygon fill="#90a4ae" stroke="#90a4ae" points="1000.73,-790.64 1010.37,-786.24 1000.09,-783.67 1000.73,-790.64"/>
</g>
<!-- HeytingLean.Noneism.Tests.Compliance -->
<g id="node53" class="node">
<title>HeytingLean.Noneism.Tests.Compliance</title>
<path fill="#0f1721" stroke="#8e24aa" d="M244.5,-1281.34C244.5,-1281.34 65.5,-1281.34 65.5,-1281.34 59.5,-1281.34 53.5,-1275.34 53.5,-1269.34 53.5,-1269.34 53.5,-1257.34 53.5,-1257.34 53.5,-1251.34 59.5,-1245.34 65.5,-1245.34 65.5,-1245.34 244.5,-1245.34 244.5,-1245.34 250.5,-1245.34 256.5,-1251.34 256.5,-1257.34 256.5,-1257.34 256.5,-1269.34 256.5,-1269.34 256.5,-1275.34 250.5,-1281.34 244.5,-1281.34"/>
<text text-anchor="middle" x="155" y="-1261.14" font-family="Times,serif" font-size="9.00" fill="#e6eef7">HeytingLean.Noneism.Tests.Compliance</text>
</g>
<!-- HeytingLean.Noneism.Zeros.Hierarchy -->
<g id="node54" class="node">
<title>HeytingLean.Noneism.Zeros.Hierarchy</title>
<path fill="#0f1721" stroke="#8e24aa" d="M241.5,-714.34C241.5,-714.34 68.5,-714.34 68.5,-714.34 62.5,-714.34 56.5,-708.34 56.5,-702.34 56.5,-702.34 56.5,-690.34 56.5,-690.34 56.5,-684.34 62.5,-678.34 68.5,-678.34 68.5,-678.34 241.5,-678.34 241.5,-678.34 247.5,-678.34 253.5,-684.34 253.5,-690.34 253.5,-690.34 253.5,-702.34 253.5,-702.34 253.5,-708.34 247.5,-714.34 241.5,-714.34"/>
<text text-anchor="middle" x="155" y="-694.14" font-family="Times,serif" font-size="9.00" fill="#e6eef7">HeytingLean.Noneism.Zeros.Hierarchy</text>
</g>
<!-- HeytingLean.Noneism.Zeros.Maximal -->
<g id="node55" class="node">
<title>HeytingLean.Noneism.Zeros.Maximal</title>
<path fill="#0f1721" stroke="#8e24aa" d="M578.5,-768.34C578.5,-768.34 412.5,-768.34 412.5,-768.34 406.5,-768.34 400.5,-762.34 400.5,-756.34 400.5,-756.34 400.5,-744.34 400.5,-744.34 400.5,-738.34 406.5,-732.34 412.5,-732.34 412.5,-732.34 578.5,-732.34 578.5,-732.34 584.5,-732.34 590.5,-738.34 590.5,-744.34 590.5,-744.34 590.5,-756.34 590.5,-756.34 590.5,-762.34 584.5,-768.34 578.5,-768.34"/>
<text text-anchor="middle" x="495.5" y="-748.14" font-family="Times,serif" font-size="9.00" fill="#e6eef7">HeytingLean.Noneism.Zeros.Maximal</text>
</g>
<!-- HeytingLean.Noneism.Zeros.Hierarchy&#45;&gt;HeytingLean.Noneism.Zeros.Maximal -->
<g id="edge40" class="edge">
<title>HeytingLean.Noneism.Zeros.Hierarchy&#45;&gt;HeytingLean.Noneism.Zeros.Maximal</title>
<path fill="none" stroke="#90a4ae" d="M253.91,-711.96C296.66,-718.78 346.84,-726.78 390.28,-733.71"/>
<polygon fill="#90a4ae" stroke="#90a4ae" points="389.88,-737.19 400.31,-735.31 390.98,-730.28 389.88,-737.19"/>
</g>
<!-- HeytingLean.Noneism.Zeros.Minimal -->
<g id="node56" class="node">
<title>HeytingLean.Noneism.Zeros.Minimal</title>
<path fill="#0f1721" stroke="#8e24aa" d="M577.5,-714.34C577.5,-714.34 413.5,-714.34 413.5,-714.34 407.5,-714.34 401.5,-708.34 401.5,-702.34 401.5,-702.34 401.5,-690.34 401.5,-690.34 401.5,-684.34 407.5,-678.34 413.5,-678.34 413.5,-678.34 577.5,-678.34 577.5,-678.34 583.5,-678.34 589.5,-684.34 589.5,-690.34 589.5,-690.34 589.5,-702.34 589.5,-702.34 589.5,-708.34 583.5,-714.34 577.5,-714.34"/>
<text text-anchor="middle" x="495.5" y="-694.14" font-family="Times,serif" font-size="9.00" fill="#e6eef7">HeytingLean.Noneism.Zeros.Minimal</text>
</g>
<!-- HeytingLean.Noneism.Zeros.Hierarchy&#45;&gt;HeytingLean.Noneism.Zeros.Minimal -->
<g id="edge41" class="edge">
<title>HeytingLean.Noneism.Zeros.Hierarchy&#45;&gt;HeytingLean.Noneism.Zeros.Minimal</title>
<path fill="none" stroke="#90a4ae" d="M253.91,-696.34C297.02,-696.34 347.69,-696.34 391.39,-696.34"/>
<polygon fill="#90a4ae" stroke="#90a4ae" points="391.46,-699.84 401.46,-696.34 391.46,-692.84 391.46,-699.84"/>
</g>
<!-- HeytingLean.Noneism.Zeros.Recursive -->
<g id="node57" class="node">
<title>HeytingLean.Noneism.Zeros.Recursive</title>
<path fill="#0f1721" stroke="#8e24aa" d="M582,-606.34C582,-606.34 409,-606.34 409,-606.34 403,-606.34 397,-600.34 397,-594.34 397,-594.34 397,-582.34 397,-582.34 397,-576.34 403,-570.34 409,-570.34 409,-570.34 582,-570.34 582,-570.34 588,-570.34 594,-576.34 594,-582.34 594,-582.34 594,-594.34 594,-594.34 594,-600.34 588,-606.34 582,-606.34"/>
<text text-anchor="middle" x="495.5" y="-586.14" font-family="Times,serif" font-size="9.00" fill="#e6eef7">HeytingLean.Noneism.Zeros.Recursive</text>
</g>
<!-- HeytingLean.Noneism.Zeros.Hierarchy&#45;&gt;HeytingLean.Noneism.Zeros.Recursive -->
<g id="edge42" class="edge">
<title>HeytingLean.Noneism.Zeros.Hierarchy&#45;&gt;HeytingLean.Noneism.Zeros.Recursive</title>
<path fill="none" stroke="#90a4ae" d="M253.73,-691.36C273.48,-687.11 293.29,-680.24 310,-669.34 334.16,-653.57 321.89,-631.18 346,-615.34 358.28,-607.27 372.3,-601.44 386.71,-597.26"/>
<polygon fill="#90a4ae" stroke="#90a4ae" points="387.96,-600.55 396.74,-594.62 386.18,-593.78 387.96,-600.55"/>
</g>
<!-- HeytingLean.Noneism.Zeros.Maximal&#45;&gt;HeytingLean.Noneism.Cat.Presheaf -->
<g id="edge43" class="edge">
<title>HeytingLean.Noneism.Zeros.Maximal&#45;&gt;HeytingLean.Noneism.Cat.Presheaf</title>
<path fill="none" stroke="#90a4ae" d="M590.56,-750.34C628.31,-750.34 671.86,-750.34 710.17,-750.34"/>
<polygon fill="#90a4ae" stroke="#90a4ae" points="710.31,-753.84 720.31,-750.34 710.31,-746.84 710.31,-753.84"/>
</g>
<!-- HeytingLean.Noneism.Zeros.Recursive&#45;&gt;HeytingLean.Noneism.Core.Nucleus -->
<g id="edge44" class="edge">
<title>HeytingLean.Noneism.Zeros.Recursive&#45;&gt;HeytingLean.Noneism.Core.Nucleus</title>
<path fill="none" stroke="#90a4ae" d="M594.4,-605.2C630.61,-611.44 671.72,-618.52 708.27,-624.81"/>
<polygon fill="#90a4ae" stroke="#90a4ae" points="708,-628.32 718.45,-626.57 709.18,-621.42 708,-628.32"/>
</g>
</g>
</svg>
