<?xml version="1.0" encoding="UTF-8" standalone="no"?>
<!DOCTYPE svg PUBLIC "-//W3C//DTD SVG 1.1//EN"
 "http://www.w3.org/Graphics/SVG/1.1/DTD/svg11.dtd">
<!-- Generated by graphviz version 2.43.0 (0)
 -->
<!-- Title: G Pages: 1 -->
<svg width="1658pt" height="738pt"
 viewBox="0.00 0.00 1658.00 738.00" xmlns="http://www.w3.org/2000/svg" xmlns:xlink="http://www.w3.org/1999/xlink">
<g id="graph0" class="graph" transform="scale(1 1) rotate(0) translate(4 734)">
<title>G</title>
<text text-anchor="middle" x="825" y="-718" font-family="Times,serif" font-size="10.00">Noneism extension imports</text>
<!-- HeytingLean.Noneism.Bridge.BetaConstruction -->
<g id="node1" class="node">
<title>HeytingLean.Noneism.Bridge.BetaConstruction</title>
<path fill="#0f1721" stroke="#8e24aa" d="M784,-336C784,-336 570,-336 570,-336 564,-336 558,-330 558,-324 558,-324 558,-312 558,-312 558,-306 564,-300 570,-300 570,-300 784,-300 784,-300 790,-300 796,-306 796,-312 796,-312 796,-324 796,-324 796,-330 790,-336 784,-336"/>
<text text-anchor="middle" x="677" y="-315.8" font-family="Times,serif" font-size="9.00" fill="#e6eef7">HeytingLean.Noneism.Bridge.BetaConstruction</text>
</g>
<!-- HeytingLean.Noneism.Bridge.BetaEigen -->
<g id="node2" class="node">
<title>HeytingLean.Noneism.Bridge.BetaEigen</title>
<path fill="#0f1721" stroke="#8e24aa" d="M1054.5,-335C1054.5,-335 873.5,-335 873.5,-335 867.5,-335 861.5,-329 861.5,-323 861.5,-323 861.5,-311 861.5,-311 861.5,-305 867.5,-299 873.5,-299 873.5,-299 1054.5,-299 1054.5,-299 1060.5,-299 1066.5,-305 1066.5,-311 1066.5,-311 1066.5,-323 1066.5,-323 1066.5,-329 1060.5,-335 1054.5,-335"/>
<text text-anchor="middle" x="964" y="-314.8" font-family="Times,serif" font-size="9.00" fill="#e6eef7">HeytingLean.Noneism.Bridge.BetaEigen</text>
</g>
<!-- HeytingLean.Noneism.Bridge.BetaConstruction&#45;&gt;HeytingLean.Noneism.Bridge.BetaEigen -->
<g id="edge1" class="edge">
<title>HeytingLean.Noneism.Bridge.BetaConstruction&#45;&gt;HeytingLean.Noneism.Bridge.BetaEigen</title>
<path fill="none" stroke="#90a4ae" d="M796.39,-317.58C814.5,-317.52 833.15,-317.46 851.11,-317.39"/>
<polygon fill="#90a4ae" stroke="#90a4ae" points="851.32,-320.89 861.3,-317.36 851.29,-313.89 851.32,-320.89"/>
</g>
<!-- HeytingLean.Noneism.Bridge.SelectorDynamics -->
<g id="node6" class="node">
<title>HeytingLean.Noneism.Bridge.SelectorDynamics</title>
<path fill="#0f1721" stroke="#8e24aa" d="M1367.5,-330C1367.5,-330 1151.5,-330 1151.5,-330 1145.5,-330 1139.5,-324 1139.5,-318 1139.5,-318 1139.5,-306 1139.5,-306 1139.5,-300 1145.5,-294 1151.5,-294 1151.5,-294 1367.5,-294 1367.5,-294 1373.5,-294 1379.5,-300 1379.5,-306 1379.5,-306 1379.5,-318 1379.5,-318 1379.5,-324 1373.5,-330 1367.5,-330"/>
<text text-anchor="middle" x="1259.5" y="-309.8" font-family="Times,serif" font-size="9.00" fill="#e6eef7">HeytingLean.Noneism.Bridge.SelectorDynamics</text>
</g>
<!-- HeytingLean.Noneism.Bridge.BetaEigen&#45;&gt;HeytingLean.Noneism.Bridge.SelectorDynamics -->
<g id="edge2" class="edge">
<title>HeytingLean.Noneism.Bridge.BetaEigen&#45;&gt;HeytingLean.Noneism.Bridge.SelectorDynamics</title>
<path fill="none" stroke="#90a4ae" d="M1066.83,-315.27C1086.96,-314.92 1108.34,-314.56 1129.24,-314.2"/>
<polygon fill="#90a4ae" stroke="#90a4ae" points="1129.52,-317.7 1139.46,-314.03 1129.4,-310.7 1129.52,-317.7"/>
</g>
<!-- HeytingLean.Noneism.Eigen.Attribute -->
<g id="node22" class="node">
<title>HeytingLean.Noneism.Eigen.Attribute</title>
<path fill="#0f1721" stroke="#8e24aa" d="M1344.5,-384C1344.5,-384 1174.5,-384 1174.5,-384 1168.5,-384 1162.5,-378 1162.5,-372 1162.5,-372 1162.5,-360 1162.5,-360 1162.5,-354 1168.5,-348 1174.5,-348 1174.5,-348 1344.5,-348 1344.5,-348 1350.5,-348 1356.5,-354 1356.5,-360 1356.5,-360 1356.5,-372 1356.5,-372 1356.5,-378 1350.5,-384 1344.5,-384"/>
<text text-anchor="middle" x="1259.5" y="-363.8" font-family="Times,serif" font-size="9.00" fill="#e6eef7">HeytingLean.Noneism.Eigen.Attribute</text>
</g>
<!-- HeytingLean.Noneism.Bridge.BetaEigen&#45;&gt;HeytingLean.Noneism.Eigen.Attribute -->
<g id="edge3" class="edge">
<title>HeytingLean.Noneism.Bridge.BetaEigen&#45;&gt;HeytingLean.Noneism.Eigen.Attribute</title>
<path fill="none" stroke="#90a4ae" d="M1066.83,-334C1094.4,-338.6 1124.32,-343.6 1152.14,-348.24"/>
<polygon fill="#90a4ae" stroke="#90a4ae" points="1151.84,-351.74 1162.28,-349.94 1152.99,-344.84 1151.84,-351.74"/>
</g>
<!-- HeytingLean.Noneism.Eigen.Basic -->
<g id="node23" class="node">
<title>HeytingLean.Noneism.Eigen.Basic</title>
<path fill="#0f1721" stroke="#8e24aa" d="M1336,-276C1336,-276 1183,-276 1183,-276 1177,-276 1171,-270 1171,-264 1171,-264 1171,-252 1171,-252 1171,-246 1177,-240 1183,-240 1183,-240 1336,-240 1336,-240 1342,-240 1348,-246 1348,-252 1348,-252 1348,-264 1348,-264 1348,-270 1342,-276 1336,-276"/>
<text text-anchor="middle" x="1259.5" y="-255.8" font-family="Times,serif" font-size="9.00" fill="#e6eef7">HeytingLean.Noneism.Eigen.Basic</text>
</g>
<!-- HeytingLean.Noneism.Bridge.BetaEigen&#45;&gt;HeytingLean.Noneism.Eigen.Basic -->
<g id="edge4" class="edge">
<title>HeytingLean.Noneism.Bridge.BetaEigen&#45;&gt;HeytingLean.Noneism.Eigen.Basic</title>
<path fill="none" stroke="#90a4ae" d="M1054.65,-298.98C1088.26,-292.22 1126.59,-284.52 1160.88,-277.62"/>
<polygon fill="#90a4ae" stroke="#90a4ae" points="1161.79,-281.01 1170.91,-275.61 1160.41,-274.15 1161.79,-281.01"/>
</g>
<!-- HeytingLean.Noneism.Bridge.EvaluationMap -->
<g id="node3" class="node">
<title>HeytingLean.Noneism.Bridge.EvaluationMap</title>
<path fill="#0f1721" stroke="#8e24aa" d="M1638,-384C1638,-384 1435,-384 1435,-384 1429,-384 1423,-378 1423,-372 1423,-372 1423,-360 1423,-360 1423,-354 1429,-348 1435,-348 1435,-348 1638,-348 1638,-348 1644,-348 1650,-354 1650,-360 1650,-360 1650,-372 1650,-372 1650,-378 1644,-384 1638,-384"/>
<text text-anchor="middle" x="1536.5" y="-363.8" font-family="Times,serif" font-size="9.00" fill="#e6eef7">HeytingLean.Noneism.Bridge.EvaluationMap</text>
</g>
<!-- HeytingLean.Noneism.Bridge.MRClosure -->
<g id="node4" class="node">
<title>HeytingLean.Noneism.Bridge.MRClosure</title>
<path fill="#0f1721" stroke="#8e24aa" d="M207,-333C207,-333 23,-333 23,-333 17,-333 11,-327 11,-321 11,-321 11,-309 11,-309 11,-303 17,-297 23,-297 23,-297 207,-297 207,-297 213,-297 219,-303 219,-309 219,-309 219,-321 219,-321 219,-327 213,-333 207,-333"/>
<text text-anchor="middle" x="115" y="-312.8" font-family="Times,serif" font-size="9.00" fill="#e6eef7">HeytingLean.Noneism.Bridge.MRClosure</text>
</g>
<!-- HeytingLean.Noneism.Bridge.NoncomputableAudit -->
<g id="node5" class="node">
<title>HeytingLean.Noneism.Bridge.NoncomputableAudit</title>
<path fill="#0f1721" stroke="#8e24aa" d="M510,-360C510,-360 278,-360 278,-360 272,-360 266,-354 266,-348 266,-348 266,-336 266,-336 266,-330 272,-324 278,-324 278,-324 510,-324 510,-324 516,-324 522,-330 522,-336 522,-336 522,-348 522,-348 522,-354 516,-360 510,-360"/>
<text text-anchor="middle" x="394" y="-339.8" font-family="Times,serif" font-size="9.00" fill="#e6eef7">HeytingLean.Noneism.Bridge.NoncomputableAudit</text>
</g>
<!-- HeytingLean.Noneism.Bridge.NoncomputableAudit&#45;&gt;HeytingLean.Noneism.Bridge.BetaConstruction -->
<g id="edge5" class="edge">
<title>HeytingLean.Noneism.Bridge.NoncomputableAudit&#45;&gt;HeytingLean.Noneism.Bridge.BetaConstruction</title>
<path fill="none" stroke="#90a4ae" d="M522.35,-331.12C530.71,-330.41 539.13,-329.69 547.5,-328.98"/>
<polygon fill="#90a4ae" stroke="#90a4ae" points="548,-332.44 557.67,-328.11 547.41,-325.47 548,-332.44"/>
</g>
<!-- HeytingLean.Noneism.Bridge.NoncomputableAudit&#45;&gt;HeytingLean.Noneism.Eigen.Attribute -->
<g id="edge6" class="edge">
<title>HeytingLean.Noneism.Bridge.NoncomputableAudit&#45;&gt;HeytingLean.Noneism.Eigen.Attribute</title>
<path fill="none" stroke="#90a4ae" d="M522.41,-345.54C693.07,-350.28 992.79,-358.61 1152.04,-363.04"/>
<polygon fill="#90a4ae" stroke="#90a4ae" points="1152.23,-366.55 1162.32,-363.33 1152.42,-359.55 1152.23,-366.55"/>
</g>
<!-- HeytingLean.Noneism.Bridge.SelectorDynamics&#45;&gt;HeytingLean.Noneism.Bridge.EvaluationMap -->
<g id="edge7" class="edge">
<title>HeytingLean.Noneism.Bridge.SelectorDynamics&#45;&gt;HeytingLean.Noneism.Bridge.EvaluationMap</title>
<path fill="none" stroke="#90a4ae" d="M1352.45,-330.06C1378.48,-335.17 1406.97,-340.76 1433.55,-345.98"/>
<polygon fill="#90a4ae" stroke="#90a4ae" points="1433.15,-349.47 1443.63,-347.96 1434.5,-342.6 1433.15,-349.47"/>
</g>
<!-- HeytingLean.Noneism.Bridge.SemanticClosureLink -->
<g id="node7" class="node">
<title>HeytingLean.Noneism.Bridge.SemanticClosureLink</title>
<path fill="#0f1721" stroke="#8e24aa" d="M1375,-438C1375,-438 1144,-438 1144,-438 1138,-438 1132,-432 1132,-426 1132,-426 1132,-414 1132,-414 1132,-408 1138,-402 1144,-402 1144,-402 1375,-402 1375,-402 1381,-402 1387,-408 1387,-414 1387,-414 1387,-426 1387,-426 1387,-432 1381,-438 1375,-438"/>
<text text-anchor="middle" x="1259.5" y="-417.8" font-family="Times,serif" font-size="9.00" fill="#e6eef7">HeytingLean.Noneism.Bridge.SemanticClosureLink</text>
</g>
<!-- HeytingLean.Noneism.Bridge.SemanticClosureLink&#45;&gt;HeytingLean.Noneism.Bridge.EvaluationMap -->
<g id="edge8" class="edge">
<title>HeytingLean.Noneism.Bridge.SemanticClosureLink&#45;&gt;HeytingLean.Noneism.Bridge.EvaluationMap</title>
<path fill="none" stroke="#90a4ae" d="M1352.45,-401.94C1378.48,-396.83 1406.97,-391.24 1433.55,-386.02"/>
<polygon fill="#90a4ae" stroke="#90a4ae" points="1434.5,-389.4 1443.63,-384.04 1433.15,-382.53 1434.5,-389.4"/>
</g>
<!-- HeytingLean.Noneism.Cat.Basic -->
<g id="node8" class="node">
<title>HeytingLean.Noneism.Cat.Basic</title>
<path fill="#0f1721" stroke="#8e24aa" d="M186,-387C186,-387 44,-387 44,-387 38,-387 32,-381 32,-375 32,-375 32,-363 32,-363 32,-357 38,-351 44,-351 44,-351 186,-351 186,-351 192,-351 198,-357 198,-363 198,-363 198,-375 198,-375 198,-381 192,-387 186,-387"/>
<text text-anchor="middle" x="115" y="-366.8" font-family="Times,serif" font-size="9.00" fill="#e6eef7">HeytingLean.Noneism.Cat.Basic</text>
</g>
<!-- HeytingLean.Noneism.Cat.Coalgebra -->
<g id="node9" class="node">
<title>HeytingLean.Noneism.Cat.Coalgebra</title>
<path fill="#0f1721" stroke="#8e24aa" d="M197,-441C197,-441 33,-441 33,-441 27,-441 21,-435 21,-429 21,-429 21,-417 21,-417 21,-411 27,-405 33,-405 33,-405 197,-405 197,-405 203,-405 209,-411 209,-417 209,-417 209,-429 209,-429 209,-435 203,-441 197,-441"/>
<text text-anchor="middle" x="115" y="-420.8" font-family="Times,serif" font-size="9.00" fill="#e6eef7">HeytingLean.Noneism.Cat.Coalgebra</text>
</g>
<!-- HeytingLean.Noneism.Cat.FixedPoint -->
<g id="node10" class="node">
<title>HeytingLean.Noneism.Cat.FixedPoint</title>
<path fill="#0f1721" stroke="#8e24aa" d="M198.5,-495C198.5,-495 31.5,-495 31.5,-495 25.5,-495 19.5,-489 19.5,-483 19.5,-483 19.5,-471 19.5,-471 19.5,-465 25.5,-459 31.5,-459 31.5,-459 198.5,-459 198.5,-459 204.5,-459 210.5,-465 210.5,-471 210.5,-471 210.5,-483 210.5,-483 210.5,-489 204.5,-495 198.5,-495"/>
<text text-anchor="middle" x="115" y="-474.8" font-family="Times,serif" font-size="9.00" fill="#e6eef7">HeytingLean.Noneism.Cat.FixedPoint</text>
</g>
<!-- HeytingLean.Noneism.Cat.Lawvere -->
<g id="node11" class="node">
<title>HeytingLean.Noneism.Cat.Lawvere</title>
<path fill="#0f1721" stroke="#8e24aa" d="M193,-549C193,-549 37,-549 37,-549 31,-549 25,-543 25,-537 25,-537 25,-525 25,-525 25,-519 31,-513 37,-513 37,-513 193,-513 193,-513 199,-513 205,-519 205,-525 205,-525 205,-537 205,-537 205,-543 199,-549 193,-549"/>
<text text-anchor="middle" x="115" y="-528.8" font-family="Times,serif" font-size="9.00" fill="#e6eef7">HeytingLean.Noneism.Cat.Lawvere</text>
</g>
<!-- HeytingLean.Noneism.Cat.Monad -->
<g id="node12" class="node">
<title>HeytingLean.Noneism.Cat.Monad</title>
<path fill="#0f1721" stroke="#8e24aa" d="M189.5,-603C189.5,-603 40.5,-603 40.5,-603 34.5,-603 28.5,-597 28.5,-591 28.5,-591 28.5,-579 28.5,-579 28.5,-573 34.5,-567 40.5,-567 40.5,-567 189.5,-567 189.5,-567 195.5,-567 201.5,-573 201.5,-579 201.5,-579 201.5,-591 201.5,-591 201.5,-597 195.5,-603 189.5,-603"/>
<text text-anchor="middle" x="115" y="-582.8" font-family="Times,serif" font-size="9.00" fill="#e6eef7">HeytingLean.Noneism.Cat.Monad</text>
</g>
<!-- HeytingLean.Noneism.Cat.Presheaf -->
<g id="node13" class="node">
<title>HeytingLean.Noneism.Cat.Presheaf</title>
<path fill="#0f1721" stroke="#8e24aa" d="M755.5,-198C755.5,-198 598.5,-198 598.5,-198 592.5,-198 586.5,-192 586.5,-186 586.5,-186 586.5,-174 586.5,-174 586.5,-168 592.5,-162 598.5,-162 598.5,-162 755.5,-162 755.5,-162 761.5,-162 767.5,-168 767.5,-174 767.5,-174 767.5,-186 767.5,-186 767.5,-192 761.5,-198 755.5,-198"/>
<text text-anchor="middle" x="677" y="-177.8" font-family="Times,serif" font-size="9.00" fill="#e6eef7">HeytingLean.Noneism.Cat.Presheaf</text>
</g>
<!-- HeytingLean.Noneism.Cat.Yoneda -->
<g id="node14" class="node">
<title>HeytingLean.Noneism.Cat.Yoneda</title>
<path fill="#0f1721" stroke="#8e24aa" d="M469,-252C469,-252 319,-252 319,-252 313,-252 307,-246 307,-240 307,-240 307,-228 307,-228 307,-222 313,-216 319,-216 319,-216 469,-216 469,-216 475,-216 481,-222 481,-228 481,-228 481,-240 481,-240 481,-246 475,-252 469,-252"/>
<text text-anchor="middle" x="394" y="-231.8" font-family="Times,serif" font-size="9.00" fill="#e6eef7">HeytingLean.Noneism.Cat.Yoneda</text>
</g>
<!-- HeytingLean.Noneism.Cat.Yoneda&#45;&gt;HeytingLean.Noneism.Cat.Presheaf -->
<g id="edge9" class="edge">
<title>HeytingLean.Noneism.Cat.Yoneda&#45;&gt;HeytingLean.Noneism.Cat.Presheaf</title>
<path fill="none" stroke="#90a4ae" d="M481.22,-217.43C511.21,-211.67 545.09,-205.16 576.1,-199.2"/>
<polygon fill="#90a4ae" stroke="#90a4ae" points="576.89,-202.61 586.05,-197.29 575.57,-195.74 576.89,-202.61"/>
</g>
<!-- HeytingLean.Noneism.Core.FixedPoints -->
<g id="node15" class="node">
<title>HeytingLean.Noneism.Core.FixedPoints</title>
<path fill="#0f1721" stroke="#8e24aa" d="M482.5,-657C482.5,-657 305.5,-657 305.5,-657 299.5,-657 293.5,-651 293.5,-645 293.5,-645 293.5,-633 293.5,-633 293.5,-627 299.5,-621 305.5,-621 305.5,-621 482.5,-621 482.5,-621 488.5,-621 494.5,-627 494.5,-633 494.5,-633 494.5,-645 494.5,-645 494.5,-651 488.5,-657 482.5,-657"/>
<text text-anchor="middle" x="394" y="-636.8" font-family="Times,serif" font-size="9.00" fill="#e6eef7">HeytingLean.Noneism.Core.FixedPoints</text>
</g>
<!-- HeytingLean.Noneism.Core.HeytingCore -->
<g id="node16" class="node">
<title>HeytingLean.Noneism.Core.HeytingCore</title>
<path fill="#0f1721" stroke="#8e24aa" d="M206,-657C206,-657 24,-657 24,-657 18,-657 12,-651 12,-645 12,-645 12,-633 12,-633 12,-627 18,-621 24,-621 24,-621 206,-621 206,-621 212,-621 218,-627 218,-633 218,-633 218,-645 218,-645 218,-651 212,-657 206,-657"/>
<text text-anchor="middle" x="115" y="-636.8" font-family="Times,serif" font-size="9.00" fill="#e6eef7">HeytingLean.Noneism.Core.HeytingCore</text>
</g>
<!-- HeytingLean.Noneism.Core.HeytingCore&#45;&gt;HeytingLean.Noneism.Core.FixedPoints -->
<g id="edge10" class="edge">
<title>HeytingLean.Noneism.Core.HeytingCore&#45;&gt;HeytingLean.Noneism.Core.FixedPoints</title>
<path fill="none" stroke="#90a4ae" d="M218.36,-639C239.51,-639 261.88,-639 283.28,-639"/>
<polygon fill="#90a4ae" stroke="#90a4ae" points="283.37,-642.5 293.37,-639 283.37,-635.5 283.37,-642.5"/>
</g>
<!-- HeytingLean.Noneism.Core.Nucleus -->
<g id="node17" class="node">
<title>HeytingLean.Noneism.Core.Nucleus</title>
<path fill="#0f1721" stroke="#8e24aa" d="M757.5,-90C757.5,-90 596.5,-90 596.5,-90 590.5,-90 584.5,-84 584.5,-78 584.5,-78 584.5,-66 584.5,-66 584.5,-60 590.5,-54 596.5,-54 596.5,-54 757.5,-54 757.5,-54 763.5,-54 769.5,-60 769.5,-66 769.5,-66 769.5,-78 769.5,-78 769.5,-84 763.5,-90 757.5,-90"/>
<text text-anchor="middle" x="677" y="-69.8" font-family="Times,serif" font-size="9.00" fill="#e6eef7">HeytingLean.Noneism.Core.Nucleus</text>
</g>
<!-- HeytingLean.Noneism.Eigen.Dynamics -->
<g id="node24" class="node">
<title>HeytingLean.Noneism.Eigen.Dynamics</title>
<path fill="#0f1721" stroke="#8e24aa" d="M1050.5,-223C1050.5,-223 877.5,-223 877.5,-223 871.5,-223 865.5,-217 865.5,-211 865.5,-211 865.5,-199 865.5,-199 865.5,-193 871.5,-187 877.5,-187 877.5,-187 1050.5,-187 1050.5,-187 1056.5,-187 1062.5,-193 1062.5,-199 1062.5,-199 1062.5,-211 1062.5,-211 1062.5,-217 1056.5,-223 1050.5,-223"/>
<text text-anchor="middle" x="964" y="-202.8" font-family="Times,serif" font-size="9.00" fill="#e6eef7">HeytingLean.Noneism.Eigen.Dynamics</text>
</g>
<!-- HeytingLean.Noneism.Core.Nucleus&#45;&gt;HeytingLean.Noneism.Eigen.Dynamics -->
<g id="edge11" class="edge">
<title>HeytingLean.Noneism.Core.Nucleus&#45;&gt;HeytingLean.Noneism.Eigen.Dynamics</title>
<path fill="none" stroke="#90a4ae" d="M716.73,-90.08C768.24,-114.11 859.25,-156.58 915.04,-182.62"/>
<polygon fill="#90a4ae" stroke="#90a4ae" points="913.81,-185.91 924.35,-186.96 916.77,-179.56 913.81,-185.91"/>
</g>
<!-- HeytingLean.Noneism.Crossing.Adjunction -->
<g id="node18" class="node">
<title>HeytingLean.Noneism.Crossing.Adjunction</title>
<path fill="#0f1721" stroke="#8e24aa" d="M211.5,-225C211.5,-225 18.5,-225 18.5,-225 12.5,-225 6.5,-219 6.5,-213 6.5,-213 6.5,-201 6.5,-201 6.5,-195 12.5,-189 18.5,-189 18.5,-189 211.5,-189 211.5,-189 217.5,-189 223.5,-195 223.5,-201 223.5,-201 223.5,-213 223.5,-213 223.5,-219 217.5,-225 211.5,-225"/>
<text text-anchor="middle" x="115" y="-204.8" font-family="Times,serif" font-size="9.00" fill="#e6eef7">HeytingLean.Noneism.Crossing.Adjunction</text>
</g>
<!-- HeytingLean.Noneism.Crossing.Adjunction&#45;&gt;HeytingLean.Noneism.Cat.Yoneda -->
<g id="edge12" class="edge">
<title>HeytingLean.Noneism.Crossing.Adjunction&#45;&gt;HeytingLean.Noneism.Cat.Yoneda</title>
<path fill="none" stroke="#90a4ae" d="M223.89,-217.52C247.95,-219.86 273.3,-222.33 296.85,-224.63"/>
<polygon fill="#90a4ae" stroke="#90a4ae" points="296.53,-228.11 306.82,-225.6 297.21,-221.15 296.53,-228.11"/>
</g>
<!-- HeytingLean.Noneism.Crossing.Irreversibility -->
<g id="node19" class="node">
<title>HeytingLean.Noneism.Crossing.Irreversibility</title>
<path fill="#0f1721" stroke="#8e24aa" d="M218,-279C218,-279 12,-279 12,-279 6,-279 0,-273 0,-267 0,-267 0,-255 0,-255 0,-249 6,-243 12,-243 12,-243 218,-243 218,-243 224,-243 230,-249 230,-255 230,-255 230,-267 230,-267 230,-273 224,-279 218,-279"/>
<text text-anchor="middle" x="115" y="-258.8" font-family="Times,serif" font-size="9.00" fill="#e6eef7">HeytingLean.Noneism.Crossing.Irreversibility</text>
</g>
<!-- HeytingLean.Noneism.Crossing.Irreversibility&#45;&gt;HeytingLean.Noneism.Cat.Yoneda -->
<g id="edge13" class="edge">
<title>HeytingLean.Noneism.Crossing.Irreversibility&#45;&gt;HeytingLean.Noneism.Cat.Yoneda</title>
<path fill="none" stroke="#90a4ae" d="M230.27,-249.86C252.39,-247.71 275.37,-245.47 296.85,-243.37"/>
<polygon fill="#90a4ae" stroke="#90a4ae" points="297.32,-246.84 306.93,-242.39 296.64,-239.88 297.32,-246.84"/>
</g>
<!-- HeytingLean.Noneism.Crossing.OntologicalBoundary -->
<g id="node20" class="node">
<title>HeytingLean.Noneism.Crossing.OntologicalBoundary</title>
<path fill="#0f1721" stroke="#8e24aa" d="M1084,-277C1084,-277 844,-277 844,-277 838,-277 832,-271 832,-265 832,-265 832,-253 832,-253 832,-247 838,-241 844,-241 844,-241 1084,-241 1084,-241 1090,-241 1096,-247 1096,-253 1096,-253 1096,-265 1096,-265 1096,-271 1090,-277 1084,-277"/>
<text text-anchor="middle" x="964" y="-256.8" font-family="Times,serif" font-size="9.00" fill="#e6eef7">HeytingLean.Noneism.Crossing.OntologicalBoundary</text>
</g>
<!-- HeytingLean.Noneism.Crossing.OntologicalBoundary&#45;&gt;HeytingLean.Noneism.Eigen.Basic -->
<g id="edge14" class="edge">
<title>HeytingLean.Noneism.Crossing.OntologicalBoundary&#45;&gt;HeytingLean.Noneism.Eigen.Basic</title>
<path fill="none" stroke="#90a4ae" d="M1096.3,-258.55C1117.94,-258.48 1140.04,-258.4 1160.67,-258.33"/>
<polygon fill="#90a4ae" stroke="#90a4ae" points="1160.69,-261.83 1170.68,-258.3 1160.67,-254.83 1160.69,-261.83"/>
</g>
<!-- HeytingLean.Noneism.Crossing.Persistence -->
<g id="node21" class="node">
<title>HeytingLean.Noneism.Crossing.Persistence</title>
<path fill="#0f1721" stroke="#8e24aa" d="M491.5,-90C491.5,-90 296.5,-90 296.5,-90 290.5,-90 284.5,-84 284.5,-78 284.5,-78 284.5,-66 284.5,-66 284.5,-60 290.5,-54 296.5,-54 296.5,-54 491.5,-54 491.5,-54 497.5,-54 503.5,-60 503.5,-66 503.5,-66 503.5,-78 503.5,-78 503.5,-84 497.5,-90 491.5,-90"/>
<text text-anchor="middle" x="394" y="-69.8" font-family="Times,serif" font-size="9.00" fill="#e6eef7">HeytingLean.Noneism.Crossing.Persistence</text>
</g>
<!-- HeytingLean.Noneism.Crossing.Persistence&#45;&gt;HeytingLean.Noneism.Core.Nucleus -->
<g id="edge15" class="edge">
<title>HeytingLean.Noneism.Crossing.Persistence&#45;&gt;HeytingLean.Noneism.Core.Nucleus</title>
<path fill="none" stroke="#90a4ae" d="M503.64,-72C526.78,-72 551.14,-72 574.02,-72"/>
<polygon fill="#90a4ae" stroke="#90a4ae" points="574.07,-75.5 584.07,-72 574.07,-68.5 574.07,-75.5"/>
</g>
<!-- HeytingLean.Noneism.Eigen.Dynamics&#45;&gt;HeytingLean.Noneism.Eigen.Basic -->
<g id="edge16" class="edge">
<title>HeytingLean.Noneism.Eigen.Dynamics&#45;&gt;HeytingLean.Noneism.Eigen.Basic</title>
<path fill="none" stroke="#90a4ae" d="M1062.73,-222.65C1094.18,-228.33 1129.02,-234.62 1160.49,-240.3"/>
<polygon fill="#90a4ae" stroke="#90a4ae" points="1160.12,-243.79 1170.58,-242.12 1161.36,-236.9 1160.12,-243.79"/>
</g>
<!-- HeytingLean.Noneism.Eigen.Grounded -->
<g id="node25" class="node">
<title>HeytingLean.Noneism.Eigen.Grounded</title>
<path fill="#0f1721" stroke="#8e24aa" d="M764.5,-252C764.5,-252 589.5,-252 589.5,-252 583.5,-252 577.5,-246 577.5,-240 577.5,-240 577.5,-228 577.5,-228 577.5,-222 583.5,-216 589.5,-216 589.5,-216 764.5,-216 764.5,-216 770.5,-216 776.5,-222 776.5,-228 776.5,-228 776.5,-240 776.5,-240 776.5,-246 770.5,-252 764.5,-252"/>
<text text-anchor="middle" x="677" y="-231.8" font-family="Times,serif" font-size="9.00" fill="#e6eef7">HeytingLean.Noneism.Eigen.Grounded</text>
</g>
<!-- HeytingLean.Noneism.Eigen.Grounded&#45;&gt;HeytingLean.Noneism.Eigen.Dynamics -->
<g id="edge17" class="edge">
<title>HeytingLean.Noneism.Eigen.Grounded&#45;&gt;HeytingLean.Noneism.Eigen.Dynamics</title>
<path fill="none" stroke="#90a4ae" d="M776.88,-223.94C802.14,-221.37 829.43,-218.59 855.12,-215.98"/>
<polygon fill="#90a4ae" stroke="#90a4ae" points="855.66,-219.44 865.26,-214.95 854.96,-212.48 855.66,-219.44"/>
</g>
<!-- HeytingLean.Noneism.Tests.Compliance -->
<g id="node26" class="node">
<title>HeytingLean.Noneism.Tests.Compliance</title>
<path fill="#0f1721" stroke="#8e24aa" d="M204.5,-711C204.5,-711 25.5,-711 25.5,-711 19.5,-711 13.5,-705 13.5,-699 13.5,-699 13.5,-687 13.5,-687 13.5,-681 19.5,-675 25.5,-675 25.5,-675 204.5,-675 204.5,-675 210.5,-675 216.5,-681 216.5,-687 216.5,-687 216.5,-699 216.5,-699 216.5,-705 210.5,-711 204.5,-711"/>
<text text-anchor="middle" x="115" y="-690.8" font-family="Times,serif" font-size="9.00" fill="#e6eef7">HeytingLean.Noneism.Tests.Compliance</text>
</g>
<!-- HeytingLean.Noneism.Zeros.Hierarchy -->
<g id="node27" class="node">
<title>HeytingLean.Noneism.Zeros.Hierarchy</title>
<path fill="#0f1721" stroke="#8e24aa" d="M201.5,-144C201.5,-144 28.5,-144 28.5,-144 22.5,-144 16.5,-138 16.5,-132 16.5,-132 16.5,-120 16.5,-120 16.5,-114 22.5,-108 28.5,-108 28.5,-108 201.5,-108 201.5,-108 207.5,-108 213.5,-114 213.5,-120 213.5,-120 213.5,-132 213.5,-132 213.5,-138 207.5,-144 201.5,-144"/>
<text text-anchor="middle" x="115" y="-123.8" font-family="Times,serif" font-size="9.00" fill="#e6eef7">HeytingLean.Noneism.Zeros.Hierarchy</text>
</g>
<!-- HeytingLean.Noneism.Zeros.Maximal -->
<g id="node28" class="node">
<title>HeytingLean.Noneism.Zeros.Maximal</title>
<path fill="#0f1721" stroke="#8e24aa" d="M477,-198C477,-198 311,-198 311,-198 305,-198 299,-192 299,-186 299,-186 299,-174 299,-174 299,-168 305,-162 311,-162 311,-162 477,-162 477,-162 483,-162 489,-168 489,-174 489,-174 489,-186 489,-186 489,-192 483,-198 477,-198"/>
<text text-anchor="middle" x="394" y="-177.8" font-family="Times,serif" font-size="9.00" fill="#e6eef7">HeytingLean.Noneism.Zeros.Maximal</text>
</g>
<!-- HeytingLean.Noneism.Zeros.Hierarchy&#45;&gt;HeytingLean.Noneism.Zeros.Maximal -->
<g id="edge18" class="edge">
<title>HeytingLean.Noneism.Zeros.Hierarchy&#45;&gt;HeytingLean.Noneism.Zeros.Maximal</title>
<path fill="none" stroke="#90a4ae" d="M208.62,-144.06C234.84,-149.17 263.53,-154.76 290.31,-159.98"/>
<polygon fill="#90a4ae" stroke="#90a4ae" points="289.98,-163.48 300.47,-161.96 291.32,-156.61 289.98,-163.48"/>
</g>
<!-- HeytingLean.Noneism.Zeros.Minimal -->
<g id="node29" class="node">
<title>HeytingLean.Noneism.Zeros.Minimal</title>
<path fill="#0f1721" stroke="#8e24aa" d="M476,-144C476,-144 312,-144 312,-144 306,-144 300,-138 300,-132 300,-132 300,-120 300,-120 300,-114 306,-108 312,-108 312,-108 476,-108 476,-108 482,-108 488,-114 488,-120 488,-120 488,-132 488,-132 488,-138 482,-144 476,-144"/>
<text text-anchor="middle" x="394" y="-123.8" font-family="Times,serif" font-size="9.00" fill="#e6eef7">HeytingLean.Noneism.Zeros.Minimal</text>
</g>
<!-- HeytingLean.Noneism.Zeros.Hierarchy&#45;&gt;HeytingLean.Noneism.Zeros.Minimal -->
<g id="edge19" class="edge">
<title>HeytingLean.Noneism.Zeros.Hierarchy&#45;&gt;HeytingLean.Noneism.Zeros.Minimal</title>
<path fill="none" stroke="#90a4ae" d="M213.66,-126C238.3,-126 264.84,-126 289.75,-126"/>
<polygon fill="#90a4ae" stroke="#90a4ae" points="289.94,-129.5 299.94,-126 289.94,-122.5 289.94,-129.5"/>
</g>
<!-- HeytingLean.Noneism.Zeros.Recursive -->
<g id="node30" class="node">
<title>HeytingLean.Noneism.Zeros.Recursive</title>
<path fill="#0f1721" stroke="#8e24aa" d="M480.5,-36C480.5,-36 307.5,-36 307.5,-36 301.5,-36 295.5,-30 295.5,-24 295.5,-24 295.5,-12 295.5,-12 295.5,-6 301.5,0 307.5,0 307.5,0 480.5,0 480.5,0 486.5,0 492.5,-6 492.5,-12 492.5,-12 492.5,-24 492.5,-24 492.5,-30 486.5,-36 480.5,-36"/>
<text text-anchor="middle" x="394" y="-15.8" font-family="Times,serif" font-size="9.00" fill="#e6eef7">HeytingLean.Noneism.Zeros.Recursive</text>
</g>
<!-- HeytingLean.Noneism.Zeros.Hierarchy&#45;&gt;HeytingLean.Noneism.Zeros.Recursive -->
<g id="edge20" class="edge">
<title>HeytingLean.Noneism.Zeros.Hierarchy&#45;&gt;HeytingLean.Noneism.Zeros.Recursive</title>
<path fill="none" stroke="#90a4ae" d="M143.62,-107.95C172.88,-89.59 221,-61.54 266,-45 272.33,-42.67 278.91,-40.52 285.6,-38.54"/>
<polygon fill="#90a4ae" stroke="#90a4ae" points="286.79,-41.84 295.46,-35.75 284.88,-35.1 286.79,-41.84"/>
</g>
<!-- HeytingLean.Noneism.Zeros.Maximal&#45;&gt;HeytingLean.Noneism.Cat.Presheaf -->
<g id="edge21" class="edge">
<title>HeytingLean.Noneism.Zeros.Maximal&#45;&gt;HeytingLean.Noneism.Cat.Presheaf</title>
<path fill="none" stroke="#90a4ae" d="M489.35,-180C517.18,-180 547.73,-180 575.91,-180"/>
<polygon fill="#90a4ae" stroke="#90a4ae" points="576.18,-183.5 586.18,-180 576.18,-176.5 576.18,-183.5"/>
</g>
<!-- HeytingLean.Noneism.Zeros.Recursive&#45;&gt;HeytingLean.Noneism.Core.Nucleus -->
<g id="edge22" class="edge">
<title>HeytingLean.Noneism.Zeros.Recursive&#45;&gt;HeytingLean.Noneism.Core.Nucleus</title>
<path fill="none" stroke="#90a4ae" d="M488.96,-36.06C516.24,-41.3 546.16,-47.05 573.92,-52.38"/>
<polygon fill="#90a4ae" stroke="#90a4ae" points="573.56,-55.88 584.04,-54.33 574.88,-49 573.56,-55.88"/>
</g>
</g>
</svg>
