<?xml version="1.0" encoding="UTF-8" standalone="no"?>
<!DOCTYPE svg PUBLIC "-//W3C//DTD SVG 1.1//EN"
 "http://www.w3.org/Graphics/SVG/1.1/DTD/svg11.dtd">
<!-- Generated by graphviz version 2.43.0 (0)
 -->
<!-- Title: G Pages: 1 -->
<svg width="3237pt" height="630pt"
 viewBox="0.00 0.00 3237.00 630.00" xmlns="http://www.w3.org/2000/svg" xmlns:xlink="http://www.w3.org/1999/xlink">
<g id="graph0" class="graph" transform="scale(1 1) rotate(0) translate(4 626)">
<title>G</title>
<text text-anchor="middle" x="1614.5" y="-610" font-family="Times,serif" font-size="10.00">HeytingLean.ClosingTheLoop.Semantics.FunctorialTime.futureKernel.idem</text>
<!-- n0 -->
<g id="node1" class="node">
<title>n0</title>
<path fill="#0f1721" stroke="#1c2a3a" d="M42,-538C42,-538 12,-538 12,-538 6,-538 0,-532 0,-526 0,-526 0,-514 0,-514 0,-508 6,-502 12,-502 12,-502 42,-502 42,-502 48,-502 54,-508 54,-514 54,-514 54,-526 54,-526 54,-532 48,-538 42,-538"/>
<text text-anchor="middle" x="27" y="-517.8" font-family="Times,serif" font-size="9.00" fill="#e6eef7">∀ T</text>
</g>
<!-- n1 -->
<g id="node2" class="node">
<title>n1</title>
<path fill="#112033" stroke="#1c2a3a" d="M354.5,-565C354.5,-565 324.5,-565 324.5,-565 318.5,-565 312.5,-559 312.5,-553 312.5,-553 312.5,-541 312.5,-541 312.5,-535 318.5,-529 324.5,-529 324.5,-529 354.5,-529 354.5,-529 360.5,-529 366.5,-535 366.5,-541 366.5,-541 366.5,-553 366.5,-553 366.5,-559 360.5,-565 354.5,-565"/>
<text text-anchor="middle" x="339.5" y="-544.8" font-family="Times,serif" font-size="9.00" fill="#e6eef7">Sort</text>
</g>
<!-- n0&#45;&gt;n1 -->
<g id="edge1" class="edge">
<title>n0&#45;&gt;n1</title>
<path fill="none" stroke="#90a4ae" d="M54.21,-522.28C109.63,-527.1 238.82,-538.33 302.17,-543.84"/>
<polygon fill="#90a4ae" stroke="#90a4ae" points="302.21,-547.36 312.47,-544.74 302.82,-540.38 302.21,-547.36"/>
<text text-anchor="middle" x="82" y="-527.6" font-family="Times,serif" font-size="8.00" fill="#90a4ae">ty</text>
</g>
<!-- n2 -->
<g id="node3" class="node">
<title>n2</title>
<path fill="#0f1721" stroke="#1c2a3a" d="M557,-511C557,-511 122,-511 122,-511 116,-511 110,-505 110,-499 110,-499 110,-487 110,-487 110,-481 116,-475 122,-475 122,-475 557,-475 557,-475 563,-475 569,-481 569,-487 569,-487 569,-499 569,-499 569,-505 563,-511 557,-511"/>
<text text-anchor="middle" x="339.5" y="-490.8" font-family="Times,serif" font-size="9.00" fill="#e6eef7">∀ inst._@.HeytingLean.ClosingTheLoop.Semantics.FunctorialTime.3977372547._hygCtx._hyg.3</text>
</g>
<!-- n0&#45;&gt;n2 -->
<g id="edge80" class="edge">
<title>n0&#45;&gt;n2</title>
<path fill="none" stroke="#90a4ae" d="M54.4,-513.28C60.17,-512.02 66.26,-510.83 72,-510 81.01,-508.7 90.21,-507.49 99.52,-506.38"/>
<polygon fill="#90a4ae" stroke="#90a4ae" points="100.12,-509.84 109.65,-505.21 99.31,-502.88 100.12,-509.84"/>
<text text-anchor="middle" x="82" y="-512.6" font-family="Times,serif" font-size="8.00" fill="#90a4ae">body</text>
</g>
<!-- n3 -->
<g id="node4" class="node">
<title>n3</title>
<path fill="#0f1721" stroke="#1c2a3a" d="M667,-538C667,-538 637,-538 637,-538 631,-538 625,-532 625,-526 625,-526 625,-514 625,-514 625,-508 631,-502 637,-502 637,-502 667,-502 667,-502 673,-502 679,-508 679,-514 679,-514 679,-526 679,-526 679,-532 673,-538 667,-538"/>
</g>
<!-- n2&#45;&gt;n3 -->
<g id="edge4" class="edge">
<title>n2&#45;&gt;n3</title>
<path fill="none" stroke="#90a4ae" d="M547.61,-511.01C573.27,-513.24 596.8,-515.29 614.91,-516.86"/>
<polygon fill="#90a4ae" stroke="#90a4ae" points="614.65,-520.35 624.92,-517.73 615.26,-513.38 614.65,-520.35"/>
<text text-anchor="middle" x="597" y="-518.6" font-family="Times,serif" font-size="8.00" fill="#90a4ae">ty</text>
</g>
<!-- n6 -->
<g id="node7" class="node">
<title>n6</title>
<path fill="#0f1721" stroke="#1c2a3a" d="M667,-484C667,-484 637,-484 637,-484 631,-484 625,-478 625,-472 625,-472 625,-460 625,-460 625,-454 631,-448 637,-448 637,-448 667,-448 667,-448 673,-448 679,-454 679,-460 679,-460 679,-472 679,-472 679,-478 673,-484 667,-484"/>
<text text-anchor="middle" x="652" y="-463.8" font-family="Times,serif" font-size="9.00" fill="#e6eef7">∀ X</text>
</g>
<!-- n2&#45;&gt;n6 -->
<g id="edge79" class="edge">
<title>n2&#45;&gt;n6</title>
<path fill="none" stroke="#90a4ae" d="M547.61,-474.99C573.27,-472.76 596.8,-470.71 614.91,-469.14"/>
<polygon fill="#90a4ae" stroke="#90a4ae" points="615.26,-472.62 624.92,-468.27 614.65,-465.65 615.26,-472.62"/>
<text text-anchor="middle" x="597" y="-473.6" font-family="Times,serif" font-size="8.00" fill="#90a4ae">body</text>
</g>
<!-- n4 -->
<g id="node5" class="node">
<title>n4</title>
<path fill="#0f1721" stroke="#1c2a3a" d="M857,-592C857,-592 747,-592 747,-592 741,-592 735,-586 735,-580 735,-580 735,-568 735,-568 735,-562 741,-556 747,-556 747,-556 857,-556 857,-556 863,-556 869,-562 869,-568 869,-568 869,-580 869,-580 869,-586 863,-592 857,-592"/>
<text text-anchor="middle" x="802" y="-571.8" font-family="Times,serif" font-size="9.00" fill="#e6eef7">CategoryTheory.Category</text>
</g>
<!-- n3&#45;&gt;n4 -->
<g id="edge2" class="edge">
<title>n3&#45;&gt;n4</title>
<path fill="none" stroke="#90a4ae" d="M679.12,-529.53C696.54,-535.89 720.17,-544.51 741.98,-552.47"/>
<polygon fill="#90a4ae" stroke="#90a4ae" points="740.92,-555.81 751.52,-555.95 743.32,-549.23 740.92,-555.81"/>
<text text-anchor="middle" x="707" y="-544.6" font-family="Times,serif" font-size="8.00" fill="#90a4ae">f</text>
</g>
<!-- n5 -->
<g id="node6" class="node">
<title>n5</title>
<path fill="#0f1721" stroke="#1c2a3a" d="M817,-538C817,-538 787,-538 787,-538 781,-538 775,-532 775,-526 775,-526 775,-514 775,-514 775,-508 781,-502 787,-502 787,-502 817,-502 817,-502 823,-502 829,-508 829,-514 829,-514 829,-526 829,-526 829,-532 823,-538 817,-538"/>
</g>
<!-- n3&#45;&gt;n5 -->
<g id="edge3" class="edge">
<title>n3&#45;&gt;n5</title>
<path fill="none" stroke="#90a4ae" d="M679.12,-520C702.85,-520 738.11,-520 764.6,-520"/>
<polygon fill="#90a4ae" stroke="#90a4ae" points="764.64,-523.5 774.64,-520 764.64,-516.5 764.64,-523.5"/>
<text text-anchor="middle" x="707" y="-522.6" font-family="Times,serif" font-size="8.00" fill="#90a4ae">a</text>
</g>
<!-- n7 -->
<g id="node8" class="node">
<title>n7</title>
<path fill="#0f1721" stroke="#1c2a3a" d="M817,-484C817,-484 787,-484 787,-484 781,-484 775,-478 775,-472 775,-472 775,-460 775,-460 775,-454 781,-448 787,-448 787,-448 817,-448 817,-448 823,-448 829,-454 829,-460 829,-460 829,-472 829,-472 829,-478 823,-484 817,-484"/>
</g>
<!-- n6&#45;&gt;n7 -->
<g id="edge13" class="edge">
<title>n6&#45;&gt;n7</title>
<path fill="none" stroke="#90a4ae" d="M679.12,-466C702.85,-466 738.11,-466 764.6,-466"/>
<polygon fill="#90a4ae" stroke="#90a4ae" points="764.64,-469.5 774.64,-466 764.64,-462.5 764.64,-469.5"/>
<text text-anchor="middle" x="707" y="-468.6" font-family="Times,serif" font-size="8.00" fill="#90a4ae">ty</text>
</g>
<!-- n16 -->
<g id="node17" class="node">
<title>n16</title>
<path fill="#0f1721" stroke="#1c2a3a" d="M817,-430C817,-430 787,-430 787,-430 781,-430 775,-424 775,-418 775,-418 775,-406 775,-406 775,-400 781,-394 787,-394 787,-394 817,-394 817,-394 823,-394 829,-400 829,-406 829,-406 829,-418 829,-418 829,-424 823,-430 817,-430"/>
<text text-anchor="middle" x="802" y="-409.8" font-family="Times,serif" font-size="9.00" fill="#e6eef7">∀ S</text>
</g>
<!-- n6&#45;&gt;n16 -->
<g id="edge78" class="edge">
<title>n6&#45;&gt;n16</title>
<path fill="none" stroke="#90a4ae" d="M679.12,-456.47C702.96,-447.77 738.42,-434.83 764.96,-425.15"/>
<polygon fill="#90a4ae" stroke="#90a4ae" points="766.45,-428.33 774.64,-421.62 764.05,-421.76 766.45,-428.33"/>
<text text-anchor="middle" x="707" y="-450.6" font-family="Times,serif" font-size="8.00" fill="#90a4ae">body</text>
</g>
<!-- n8 -->
<g id="node9" class="node">
<title>n8</title>
<path fill="#0f1721" stroke="#1c2a3a" d="M998.5,-538C998.5,-538 968.5,-538 968.5,-538 962.5,-538 956.5,-532 956.5,-526 956.5,-526 956.5,-514 956.5,-514 956.5,-508 962.5,-502 968.5,-502 968.5,-502 998.5,-502 998.5,-502 1004.5,-502 1010.5,-508 1010.5,-514 1010.5,-514 1010.5,-526 1010.5,-526 1010.5,-532 1004.5,-538 998.5,-538"/>
</g>
<!-- n7&#45;&gt;n8 -->
<g id="edge11" class="edge">
<title>n7&#45;&gt;n8</title>
<path fill="none" stroke="#90a4ae" d="M829.1,-473.85C860.08,-483.17 911.89,-498.76 946.62,-509.21"/>
<polygon fill="#90a4ae" stroke="#90a4ae" points="945.78,-512.61 956.37,-512.14 947.8,-505.91 945.78,-512.61"/>
<text text-anchor="middle" x="897" y="-498.6" font-family="Times,serif" font-size="8.00" fill="#90a4ae">f</text>
</g>
<!-- n15 -->
<g id="node16" class="node">
<title>n15</title>
<path fill="#0f1721" stroke="#1c2a3a" d="M1030,-484C1030,-484 937,-484 937,-484 931,-484 925,-478 925,-472 925,-472 925,-460 925,-460 925,-454 931,-448 937,-448 937,-448 1030,-448 1030,-448 1036,-448 1042,-454 1042,-460 1042,-460 1042,-472 1042,-472 1042,-478 1036,-484 1030,-484"/>
<text text-anchor="middle" x="983.5" y="-463.8" font-family="Times,serif" font-size="9.00" fill="#e6eef7">CategoryTheory.types</text>
</g>
<!-- n7&#45;&gt;n15 -->
<g id="edge12" class="edge">
<title>n7&#45;&gt;n15</title>
<path fill="none" stroke="#90a4ae" d="M829.1,-466C851.45,-466 884.66,-466 914.47,-466"/>
<polygon fill="#90a4ae" stroke="#90a4ae" points="914.85,-469.5 924.85,-466 914.85,-462.5 914.85,-469.5"/>
<text text-anchor="middle" x="897" y="-468.6" font-family="Times,serif" font-size="8.00" fill="#90a4ae">a</text>
</g>
<!-- n9 -->
<g id="node10" class="node">
<title>n9</title>
<path fill="#0f1721" stroke="#1c2a3a" d="M1140,-592C1140,-592 1110,-592 1110,-592 1104,-592 1098,-586 1098,-580 1098,-580 1098,-568 1098,-568 1098,-562 1104,-556 1110,-556 1110,-556 1140,-556 1140,-556 1146,-556 1152,-562 1152,-568 1152,-568 1152,-580 1152,-580 1152,-586 1146,-592 1140,-592"/>
</g>
<!-- n8&#45;&gt;n9 -->
<g id="edge9" class="edge">
<title>n8&#45;&gt;n9</title>
<path fill="none" stroke="#90a4ae" d="M1010.74,-530.16C1032.66,-538.64 1064.13,-550.82 1088.33,-560.19"/>
<polygon fill="#90a4ae" stroke="#90a4ae" points="1087.29,-563.54 1097.88,-563.89 1089.82,-557.01 1087.29,-563.54"/>
<text text-anchor="middle" x="1070" y="-558.6" font-family="Times,serif" font-size="8.00" fill="#90a4ae">f</text>
</g>
<!-- n14 -->
<g id="node15" class="node">
<title>n14</title>
<path fill="#112033" stroke="#1c2a3a" d="M1140,-538C1140,-538 1110,-538 1110,-538 1104,-538 1098,-532 1098,-526 1098,-526 1098,-514 1098,-514 1098,-508 1104,-502 1110,-502 1110,-502 1140,-502 1140,-502 1146,-502 1152,-508 1152,-514 1152,-514 1152,-526 1152,-526 1152,-532 1146,-538 1140,-538"/>
<text text-anchor="middle" x="1125" y="-517.8" font-family="Times,serif" font-size="9.00" fill="#e6eef7">Sort</text>
</g>
<!-- n8&#45;&gt;n14 -->
<g id="edge10" class="edge">
<title>n8&#45;&gt;n14</title>
<path fill="none" stroke="#90a4ae" d="M1010.74,-520C1032.46,-520 1063.57,-520 1087.68,-520"/>
<polygon fill="#90a4ae" stroke="#90a4ae" points="1087.88,-523.5 1097.88,-520 1087.88,-516.5 1087.88,-523.5"/>
<text text-anchor="middle" x="1070" y="-522.6" font-family="Times,serif" font-size="8.00" fill="#90a4ae">a</text>
</g>
<!-- n10 -->
<g id="node11" class="node">
<title>n10</title>
<path fill="#0f1721" stroke="#1c2a3a" d="M1235,-603C1235,-603 1205,-603 1205,-603 1199,-603 1193,-597 1193,-591 1193,-591 1193,-579 1193,-579 1193,-573 1199,-567 1205,-567 1205,-567 1235,-567 1235,-567 1241,-567 1247,-573 1247,-579 1247,-579 1247,-591 1247,-591 1247,-597 1241,-603 1235,-603"/>
</g>
<!-- n9&#45;&gt;n10 -->
<g id="edge7" class="edge">
<title>n9&#45;&gt;n10</title>
<path fill="none" stroke="#90a4ae" d="M1152.4,-577.12C1161.81,-578.24 1172.57,-579.51 1182.66,-580.7"/>
<polygon fill="#90a4ae" stroke="#90a4ae" points="1182.51,-584.21 1192.85,-581.91 1183.33,-577.26 1182.51,-584.21"/>
<text text-anchor="middle" x="1172.5" y="-581.6" font-family="Times,serif" font-size="8.00" fill="#90a4ae">f</text>
</g>
<!-- n13 -->
<g id="node14" class="node">
<title>n13</title>
<path fill="#0f1721" stroke="#1c2a3a" d="M1235,-549C1235,-549 1205,-549 1205,-549 1199,-549 1193,-543 1193,-537 1193,-537 1193,-525 1193,-525 1193,-519 1199,-513 1205,-513 1205,-513 1235,-513 1235,-513 1241,-513 1247,-519 1247,-525 1247,-525 1247,-537 1247,-537 1247,-543 1241,-549 1235,-549"/>
</g>
<!-- n9&#45;&gt;n13 -->
<g id="edge8" class="edge">
<title>n9&#45;&gt;n13</title>
<path fill="none" stroke="#90a4ae" d="M1152.4,-561.79C1162.1,-557.31 1173.25,-552.15 1183.62,-547.36"/>
<polygon fill="#90a4ae" stroke="#90a4ae" points="1185.25,-550.46 1192.85,-543.09 1182.31,-544.11 1185.25,-550.46"/>
<text text-anchor="middle" x="1172.5" y="-554.6" font-family="Times,serif" font-size="8.00" fill="#90a4ae">a</text>
</g>
<!-- n11 -->
<g id="node12" class="node">
<title>n11</title>
<path fill="#0f1721" stroke="#1c2a3a" d="M1405,-603C1405,-603 1300,-603 1300,-603 1294,-603 1288,-597 1288,-591 1288,-591 1288,-579 1288,-579 1288,-573 1294,-567 1300,-567 1300,-567 1405,-567 1405,-567 1411,-567 1417,-573 1417,-579 1417,-579 1417,-591 1417,-591 1417,-597 1411,-603 1405,-603"/>
<text text-anchor="middle" x="1352.5" y="-582.8" font-family="Times,serif" font-size="9.00" fill="#e6eef7">CategoryTheory.Functor</text>
</g>
<!-- n10&#45;&gt;n11 -->
<g id="edge5" class="edge">
<title>n10&#45;&gt;n11</title>
<path fill="none" stroke="#90a4ae" d="M1247.09,-585C1256.15,-585 1266.8,-585 1277.78,-585"/>
<polygon fill="#90a4ae" stroke="#90a4ae" points="1277.91,-588.5 1287.91,-585 1277.91,-581.5 1277.91,-588.5"/>
<text text-anchor="middle" x="1267.5" y="-587.6" font-family="Times,serif" font-size="8.00" fill="#90a4ae">f</text>
</g>
<!-- n12 -->
<g id="node13" class="node">
<title>n12</title>
<path fill="#0f1721" stroke="#1c2a3a" d="M1367.5,-549C1367.5,-549 1337.5,-549 1337.5,-549 1331.5,-549 1325.5,-543 1325.5,-537 1325.5,-537 1325.5,-525 1325.5,-525 1325.5,-519 1331.5,-513 1337.5,-513 1337.5,-513 1367.5,-513 1367.5,-513 1373.5,-513 1379.5,-519 1379.5,-525 1379.5,-525 1379.5,-537 1379.5,-537 1379.5,-543 1373.5,-549 1367.5,-549"/>
</g>
<!-- n10&#45;&gt;n12 -->
<g id="edge6" class="edge">
<title>n10&#45;&gt;n12</title>
<path fill="none" stroke="#90a4ae" d="M1247.09,-574.2C1266.92,-566 1294.4,-554.63 1316.19,-545.61"/>
<polygon fill="#90a4ae" stroke="#90a4ae" points="1317.55,-548.84 1325.45,-541.78 1314.87,-542.37 1317.55,-548.84"/>
<text text-anchor="middle" x="1267.5" y="-567.6" font-family="Times,serif" font-size="8.00" fill="#90a4ae">a</text>
</g>
<!-- n17 -->
<g id="node18" class="node">
<title>n17</title>
<path fill="#0f1721" stroke="#1c2a3a" d="M998.5,-430C998.5,-430 968.5,-430 968.5,-430 962.5,-430 956.5,-424 956.5,-418 956.5,-418 956.5,-406 956.5,-406 956.5,-400 962.5,-394 968.5,-394 968.5,-394 998.5,-394 998.5,-394 1004.5,-394 1010.5,-400 1010.5,-406 1010.5,-406 1010.5,-418 1010.5,-418 1010.5,-424 1004.5,-430 998.5,-430"/>
<text text-anchor="middle" x="983.5" y="-409.8" font-family="Times,serif" font-size="9.00" fill="#e6eef7">∀ t</text>
</g>
<!-- n16&#45;&gt;n17 -->
<g id="edge30" class="edge">
<title>n16&#45;&gt;n17</title>
<path fill="none" stroke="#90a4ae" d="M829.1,-412C859.94,-412 911.44,-412 946.17,-412"/>
<polygon fill="#90a4ae" stroke="#90a4ae" points="946.37,-415.5 956.37,-412 946.37,-408.5 946.37,-415.5"/>
<text text-anchor="middle" x="897" y="-414.6" font-family="Times,serif" font-size="8.00" fill="#90a4ae">ty</text>
</g>
<!-- n34 -->
<g id="node35" class="node">
<title>n34</title>
<path fill="#0f1721" stroke="#1c2a3a" d="M998.5,-294C998.5,-294 968.5,-294 968.5,-294 962.5,-294 956.5,-288 956.5,-282 956.5,-282 956.5,-270 956.5,-270 956.5,-264 962.5,-258 968.5,-258 968.5,-258 998.5,-258 998.5,-258 1004.5,-258 1010.5,-264 1010.5,-270 1010.5,-270 1010.5,-282 1010.5,-282 1010.5,-288 1004.5,-294 998.5,-294"/>
</g>
<!-- n16&#45;&gt;n34 -->
<g id="edge77" class="edge">
<title>n16&#45;&gt;n34</title>
<path fill="none" stroke="#90a4ae" d="M826.84,-393.94C858.62,-369.86 914.98,-327.15 950.46,-300.28"/>
<polygon fill="#90a4ae" stroke="#90a4ae" points="952.71,-302.96 958.57,-294.13 948.48,-297.38 952.71,-302.96"/>
<text text-anchor="middle" x="897" y="-350.6" font-family="Times,serif" font-size="8.00" fill="#90a4ae">body</text>
</g>
<!-- n18 -->
<g id="node19" class="node">
<title>n18</title>
<path fill="#0f1721" stroke="#1c2a3a" d="M1140,-484C1140,-484 1110,-484 1110,-484 1104,-484 1098,-478 1098,-472 1098,-472 1098,-460 1098,-460 1098,-454 1104,-448 1110,-448 1110,-448 1140,-448 1140,-448 1146,-448 1152,-454 1152,-460 1152,-460 1152,-472 1152,-472 1152,-478 1146,-484 1140,-484"/>
</g>
<!-- n17&#45;&gt;n18 -->
<g id="edge14" class="edge">
<title>n17&#45;&gt;n18</title>
<path fill="none" stroke="#90a4ae" d="M1010.74,-422.16C1032.66,-430.64 1064.13,-442.82 1088.33,-452.19"/>
<polygon fill="#90a4ae" stroke="#90a4ae" points="1087.29,-455.54 1097.88,-455.89 1089.82,-449.01 1087.29,-455.54"/>
<text text-anchor="middle" x="1070" y="-450.6" font-family="Times,serif" font-size="8.00" fill="#90a4ae">ty</text>
</g>
<!-- n19 -->
<g id="node20" class="node">
<title>n19</title>
<path fill="#0f1721" stroke="#1c2a3a" d="M1140,-430C1140,-430 1110,-430 1110,-430 1104,-430 1098,-424 1098,-418 1098,-418 1098,-406 1098,-406 1098,-400 1104,-394 1110,-394 1110,-394 1140,-394 1140,-394 1146,-394 1152,-400 1152,-406 1152,-406 1152,-418 1152,-418 1152,-424 1146,-430 1140,-430"/>
</g>
<!-- n17&#45;&gt;n19 -->
<g id="edge29" class="edge">
<title>n17&#45;&gt;n19</title>
<path fill="none" stroke="#90a4ae" d="M1010.74,-412C1032.46,-412 1063.57,-412 1087.68,-412"/>
<polygon fill="#90a4ae" stroke="#90a4ae" points="1087.88,-415.5 1097.88,-412 1087.88,-408.5 1087.88,-415.5"/>
<text text-anchor="middle" x="1070" y="-414.6" font-family="Times,serif" font-size="8.00" fill="#90a4ae">body</text>
</g>
<!-- n20 -->
<g id="node21" class="node">
<title>n20</title>
<path fill="#0f1721" stroke="#1c2a3a" d="M1235,-484C1235,-484 1205,-484 1205,-484 1199,-484 1193,-478 1193,-472 1193,-472 1193,-460 1193,-460 1193,-454 1199,-448 1205,-448 1205,-448 1235,-448 1235,-448 1241,-448 1247,-454 1247,-460 1247,-460 1247,-472 1247,-472 1247,-478 1241,-484 1235,-484"/>
<text text-anchor="middle" x="1220" y="-463.8" font-family="Times,serif" font-size="9.00" fill="#e6eef7">Set</text>
</g>
<!-- n19&#45;&gt;n20 -->
<g id="edge15" class="edge">
<title>n19&#45;&gt;n20</title>
<path fill="none" stroke="#90a4ae" d="M1152.4,-427.33C1162.2,-433.02 1173.48,-439.57 1183.94,-445.64"/>
<polygon fill="#90a4ae" stroke="#90a4ae" points="1182.45,-448.82 1192.85,-450.82 1185.96,-442.77 1182.45,-448.82"/>
<text text-anchor="middle" x="1172.5" y="-441.6" font-family="Times,serif" font-size="8.00" fill="#90a4ae">f</text>
</g>
<!-- n21 -->
<g id="node22" class="node">
<title>n21</title>
<path fill="#0f1721" stroke="#1c2a3a" d="M1235,-430C1235,-430 1205,-430 1205,-430 1199,-430 1193,-424 1193,-418 1193,-418 1193,-406 1193,-406 1193,-400 1199,-394 1205,-394 1205,-394 1235,-394 1235,-394 1241,-394 1247,-400 1247,-406 1247,-406 1247,-418 1247,-418 1247,-424 1241,-430 1235,-430"/>
</g>
<!-- n19&#45;&gt;n21 -->
<g id="edge28" class="edge">
<title>n19&#45;&gt;n21</title>
<path fill="none" stroke="#90a4ae" d="M1152.4,-412C1161.81,-412 1172.57,-412 1182.66,-412"/>
<polygon fill="#90a4ae" stroke="#90a4ae" points="1182.85,-415.5 1192.85,-412 1182.85,-408.5 1182.85,-415.5"/>
<text text-anchor="middle" x="1172.5" y="-414.6" font-family="Times,serif" font-size="8.00" fill="#90a4ae">a</text>
</g>
<!-- n22 -->
<g id="node23" class="node">
<title>n22</title>
<path fill="#0f1721" stroke="#1c2a3a" d="M1367.5,-484C1367.5,-484 1337.5,-484 1337.5,-484 1331.5,-484 1325.5,-478 1325.5,-472 1325.5,-472 1325.5,-460 1325.5,-460 1325.5,-454 1331.5,-448 1337.5,-448 1337.5,-448 1367.5,-448 1367.5,-448 1373.5,-448 1379.5,-454 1379.5,-460 1379.5,-460 1379.5,-472 1379.5,-472 1379.5,-478 1373.5,-484 1367.5,-484"/>
</g>
<!-- n21&#45;&gt;n22 -->
<g id="edge26" class="edge">
<title>n21&#45;&gt;n22</title>
<path fill="none" stroke="#90a4ae" d="M1247.09,-422.8C1266.92,-431 1294.4,-442.37 1316.19,-451.39"/>
<polygon fill="#90a4ae" stroke="#90a4ae" points="1314.87,-454.63 1325.45,-455.22 1317.55,-448.16 1314.87,-454.63"/>
<text text-anchor="middle" x="1267.5" y="-433.6" font-family="Times,serif" font-size="8.00" fill="#90a4ae">f</text>
</g>
<!-- n33 -->
<g id="node34" class="node">
<title>n33</title>
<path fill="#0f1721" stroke="#1c2a3a" d="M1367.5,-430C1367.5,-430 1337.5,-430 1337.5,-430 1331.5,-430 1325.5,-424 1325.5,-418 1325.5,-418 1325.5,-406 1325.5,-406 1325.5,-400 1331.5,-394 1337.5,-394 1337.5,-394 1367.5,-394 1367.5,-394 1373.5,-394 1379.5,-400 1379.5,-406 1379.5,-406 1379.5,-418 1379.5,-418 1379.5,-424 1373.5,-430 1367.5,-430"/>
</g>
<!-- n21&#45;&gt;n33 -->
<g id="edge27" class="edge">
<title>n21&#45;&gt;n33</title>
<path fill="none" stroke="#90a4ae" d="M1247.09,-412C1266.65,-412 1293.66,-412 1315.31,-412"/>
<polygon fill="#90a4ae" stroke="#90a4ae" points="1315.45,-415.5 1325.45,-412 1315.45,-408.5 1315.45,-415.5"/>
<text text-anchor="middle" x="1267.5" y="-414.6" font-family="Times,serif" font-size="8.00" fill="#90a4ae">a</text>
</g>
<!-- n23 -->
<g id="node24" class="node">
<title>n23</title>
<path fill="#0f1721" stroke="#1c2a3a" d="M1515,-522C1515,-522 1485,-522 1485,-522 1479,-522 1473,-516 1473,-510 1473,-510 1473,-498 1473,-498 1473,-492 1479,-486 1485,-486 1485,-486 1515,-486 1515,-486 1521,-486 1527,-492 1527,-498 1527,-498 1527,-510 1527,-510 1527,-516 1521,-522 1515,-522"/>
</g>
<!-- n22&#45;&gt;n23 -->
<g id="edge24" class="edge">
<title>n22&#45;&gt;n23</title>
<path fill="none" stroke="#90a4ae" d="M1379.51,-472.79C1402.75,-478.86 1437.02,-487.81 1462.9,-494.57"/>
<polygon fill="#90a4ae" stroke="#90a4ae" points="1462.16,-498 1472.72,-497.14 1463.93,-491.22 1462.16,-498"/>
<text text-anchor="middle" x="1445" y="-493.6" font-family="Times,serif" font-size="8.00" fill="#90a4ae">f</text>
</g>
<!-- n32 -->
<g id="node33" class="node">
<title>n32</title>
<path fill="#0f1721" stroke="#1c2a3a" d="M1515,-468C1515,-468 1485,-468 1485,-468 1479,-468 1473,-462 1473,-456 1473,-456 1473,-444 1473,-444 1473,-438 1479,-432 1485,-432 1485,-432 1515,-432 1515,-432 1521,-432 1527,-438 1527,-444 1527,-444 1527,-456 1527,-456 1527,-462 1521,-468 1515,-468"/>
</g>
<!-- n22&#45;&gt;n32 -->
<g id="edge25" class="edge">
<title>n22&#45;&gt;n32</title>
<path fill="none" stroke="#90a4ae" d="M1379.51,-463.14C1402.65,-460.6 1436.71,-456.85 1462.56,-454.01"/>
<polygon fill="#90a4ae" stroke="#90a4ae" points="1463.16,-457.46 1472.72,-452.89 1462.4,-450.5 1463.16,-457.46"/>
<text text-anchor="middle" x="1445" y="-458.6" font-family="Times,serif" font-size="8.00" fill="#90a4ae">a</text>
</g>
<!-- n24 -->
<g id="node25" class="node">
<title>n24</title>
<path fill="#0f1721" stroke="#1c2a3a" d="M1752.5,-522C1752.5,-522 1722.5,-522 1722.5,-522 1716.5,-522 1710.5,-516 1710.5,-510 1710.5,-510 1710.5,-498 1710.5,-498 1710.5,-492 1716.5,-486 1722.5,-486 1722.5,-486 1752.5,-486 1752.5,-486 1758.5,-486 1764.5,-492 1764.5,-498 1764.5,-498 1764.5,-510 1764.5,-510 1764.5,-516 1758.5,-522 1752.5,-522"/>
</g>
<!-- n23&#45;&gt;n24 -->
<g id="edge22" class="edge">
<title>n23&#45;&gt;n24</title>
<path fill="none" stroke="#90a4ae" d="M1527.1,-504C1569.19,-504 1652.15,-504 1700.05,-504"/>
<polygon fill="#90a4ae" stroke="#90a4ae" points="1700.28,-507.5 1710.28,-504 1700.28,-500.5 1700.28,-507.5"/>
<text text-anchor="middle" x="1547.5" y="-506.6" font-family="Times,serif" font-size="8.00" fill="#90a4ae">f</text>
</g>
<!-- n31 -->
<g id="node32" class="node">
<title>n31</title>
<path fill="#0f1721" stroke="#1c2a3a" d="M1784,-468C1784,-468 1691,-468 1691,-468 1685,-468 1679,-462 1679,-456 1679,-456 1679,-444 1679,-444 1679,-438 1685,-432 1691,-432 1691,-432 1784,-432 1784,-432 1790,-432 1796,-438 1796,-444 1796,-444 1796,-456 1796,-456 1796,-462 1790,-468 1784,-468"/>
<text text-anchor="middle" x="1737.5" y="-447.8" font-family="Times,serif" font-size="9.00" fill="#e6eef7">CategoryTheory.types</text>
</g>
<!-- n23&#45;&gt;n31 -->
<g id="edge23" class="edge">
<title>n23&#45;&gt;n31</title>
<path fill="none" stroke="#90a4ae" d="M1527.26,-491.83C1539.43,-486.6 1554.23,-480.83 1568,-477 1600.57,-467.95 1637.58,-461.61 1668.6,-457.35"/>
<polygon fill="#90a4ae" stroke="#90a4ae" points="1669.43,-460.77 1678.88,-455.99 1668.51,-453.83 1669.43,-460.77"/>
<text text-anchor="middle" x="1547.5" y="-486.6" font-family="Times,serif" font-size="8.00" fill="#90a4ae">a</text>
</g>
<!-- n25 -->
<g id="node26" class="node">
<title>n25</title>
<path fill="#0f1721" stroke="#1c2a3a" d="M2132.5,-538C2132.5,-538 2102.5,-538 2102.5,-538 2096.5,-538 2090.5,-532 2090.5,-526 2090.5,-526 2090.5,-514 2090.5,-514 2090.5,-508 2096.5,-502 2102.5,-502 2102.5,-502 2132.5,-502 2132.5,-502 2138.5,-502 2144.5,-508 2144.5,-514 2144.5,-514 2144.5,-526 2144.5,-526 2144.5,-532 2138.5,-538 2132.5,-538"/>
</g>
<!-- n24&#45;&gt;n25 -->
<g id="edge20" class="edge">
<title>n24&#45;&gt;n25</title>
<path fill="none" stroke="#90a4ae" d="M1764.78,-505.11C1830.98,-507.91 2004.7,-515.27 2080.39,-518.47"/>
<polygon fill="#90a4ae" stroke="#90a4ae" points="2080.25,-521.97 2090.39,-518.89 2080.55,-514.98 2080.25,-521.97"/>
<text text-anchor="middle" x="1927.5" y="-514.6" font-family="Times,serif" font-size="8.00" fill="#90a4ae">f</text>
</g>
<!-- n30 -->
<g id="node31" class="node">
<title>n30</title>
<path fill="#112033" stroke="#1c2a3a" d="M2132.5,-484C2132.5,-484 2102.5,-484 2102.5,-484 2096.5,-484 2090.5,-478 2090.5,-472 2090.5,-472 2090.5,-460 2090.5,-460 2090.5,-454 2096.5,-448 2102.5,-448 2102.5,-448 2132.5,-448 2132.5,-448 2138.5,-448 2144.5,-454 2144.5,-460 2144.5,-460 2144.5,-472 2144.5,-472 2144.5,-478 2138.5,-484 2132.5,-484"/>
<text text-anchor="middle" x="2117.5" y="-463.8" font-family="Times,serif" font-size="9.00" fill="#e6eef7">Sort</text>
</g>
<!-- n24&#45;&gt;n30 -->
<g id="edge21" class="edge">
<title>n24&#45;&gt;n30</title>
<path fill="none" stroke="#90a4ae" d="M1764.78,-501.36C1830.98,-494.7 2004.7,-477.24 2080.39,-469.63"/>
<polygon fill="#90a4ae" stroke="#90a4ae" points="2080.79,-473.11 2090.39,-468.62 2080.09,-466.14 2080.79,-473.11"/>
<text text-anchor="middle" x="1927.5" y="-487.6" font-family="Times,serif" font-size="8.00" fill="#90a4ae">a</text>
</g>
<!-- n26 -->
<g id="node27" class="node">
<title>n26</title>
<path fill="#0f1721" stroke="#1c2a3a" d="M2512.5,-561C2512.5,-561 2482.5,-561 2482.5,-561 2476.5,-561 2470.5,-555 2470.5,-549 2470.5,-549 2470.5,-537 2470.5,-537 2470.5,-531 2476.5,-525 2482.5,-525 2482.5,-525 2512.5,-525 2512.5,-525 2518.5,-525 2524.5,-531 2524.5,-537 2524.5,-537 2524.5,-549 2524.5,-549 2524.5,-555 2518.5,-561 2512.5,-561"/>
</g>
<!-- n25&#45;&gt;n26 -->
<g id="edge18" class="edge">
<title>n25&#45;&gt;n26</title>
<path fill="none" stroke="#90a4ae" d="M2144.78,-521.6C2210.98,-525.63 2384.7,-536.2 2460.39,-540.8"/>
<polygon fill="#90a4ae" stroke="#90a4ae" points="2460.2,-544.3 2470.39,-541.41 2460.62,-537.31 2460.2,-544.3"/>
<text text-anchor="middle" x="2307.5" y="-533.6" font-family="Times,serif" font-size="8.00" fill="#90a4ae">f</text>
</g>
<!-- n29 -->
<g id="node30" class="node">
<title>n29</title>
<path fill="#0f1721" stroke="#1c2a3a" d="M2512.5,-507C2512.5,-507 2482.5,-507 2482.5,-507 2476.5,-507 2470.5,-501 2470.5,-495 2470.5,-495 2470.5,-483 2470.5,-483 2470.5,-477 2476.5,-471 2482.5,-471 2482.5,-471 2512.5,-471 2512.5,-471 2518.5,-471 2524.5,-477 2524.5,-483 2524.5,-483 2524.5,-495 2524.5,-495 2524.5,-501 2518.5,-507 2512.5,-507"/>
</g>
<!-- n25&#45;&gt;n29 -->
<g id="edge19" class="edge">
<title>n25&#45;&gt;n29</title>
<path fill="none" stroke="#90a4ae" d="M2144.78,-517.84C2210.98,-512.42 2384.7,-498.17 2460.39,-491.96"/>
<polygon fill="#90a4ae" stroke="#90a4ae" points="2460.71,-495.45 2470.39,-491.14 2460.14,-488.47 2460.71,-495.45"/>
<text text-anchor="middle" x="2307.5" y="-506.6" font-family="Times,serif" font-size="8.00" fill="#90a4ae">a</text>
</g>
<!-- n27 -->
<g id="node28" class="node">
<title>n27</title>
<path fill="#0f1721" stroke="#1c2a3a" d="M2841,-567C2841,-567 2720,-567 2720,-567 2714,-567 2708,-561 2708,-555 2708,-555 2708,-543 2708,-543 2708,-537 2714,-531 2720,-531 2720,-531 2841,-531 2841,-531 2847,-531 2853,-537 2853,-543 2853,-543 2853,-555 2853,-555 2853,-561 2847,-567 2841,-567"/>
<text text-anchor="middle" x="2780.5" y="-546.8" font-family="Times,serif" font-size="9.00" fill="#e6eef7">CategoryTheory.Functor.obj</text>
</g>
<!-- n26&#45;&gt;n27 -->
<g id="edge16" class="edge">
<title>n26&#45;&gt;n27</title>
<path fill="none" stroke="#90a4ae" d="M2524.68,-543.56C2563.77,-544.39 2639.07,-546 2697.72,-547.25"/>
<polygon fill="#90a4ae" stroke="#90a4ae" points="2697.64,-550.75 2707.72,-547.47 2697.79,-543.75 2697.64,-550.75"/>
<text text-anchor="middle" x="2687.5" y="-549.6" font-family="Times,serif" font-size="8.00" fill="#90a4ae">f</text>
</g>
<!-- n28 -->
<g id="node29" class="node">
<title>n28</title>
<path fill="#0f1721" stroke="#1c2a3a" d="M2795.5,-513C2795.5,-513 2765.5,-513 2765.5,-513 2759.5,-513 2753.5,-507 2753.5,-501 2753.5,-501 2753.5,-489 2753.5,-489 2753.5,-483 2759.5,-477 2765.5,-477 2765.5,-477 2795.5,-477 2795.5,-477 2801.5,-477 2807.5,-483 2807.5,-489 2807.5,-489 2807.5,-501 2807.5,-501 2807.5,-507 2801.5,-513 2795.5,-513"/>
</g>
<!-- n26&#45;&gt;n28 -->
<g id="edge17" class="edge">
<title>n26&#45;&gt;n28</title>
<path fill="none" stroke="#90a4ae" d="M2524.51,-539.04C2557.65,-533.96 2616.65,-524.73 2667,-516 2692.52,-511.57 2721.22,-506.21 2743.24,-502.01"/>
<polygon fill="#90a4ae" stroke="#90a4ae" points="2744,-505.43 2753.17,-500.11 2742.69,-498.56 2744,-505.43"/>
<text text-anchor="middle" x="2687.5" y="-514.6" font-family="Times,serif" font-size="8.00" fill="#90a4ae">a</text>
</g>
<!-- n35 -->
<g id="node36" class="node">
<title>n35</title>
<path fill="#0f1721" stroke="#1c2a3a" d="M1140,-294C1140,-294 1110,-294 1110,-294 1104,-294 1098,-288 1098,-282 1098,-282 1098,-270 1098,-270 1098,-264 1104,-258 1110,-258 1110,-258 1140,-258 1140,-258 1146,-258 1152,-264 1152,-270 1152,-270 1152,-282 1152,-282 1152,-288 1146,-294 1140,-294"/>
</g>
<!-- n34&#45;&gt;n35 -->
<g id="edge67" class="edge">
<title>n34&#45;&gt;n35</title>
<path fill="none" stroke="#90a4ae" d="M1010.74,-276C1032.46,-276 1063.57,-276 1087.68,-276"/>
<polygon fill="#90a4ae" stroke="#90a4ae" points="1087.88,-279.5 1097.88,-276 1087.88,-272.5 1087.88,-279.5"/>
<text text-anchor="middle" x="1070" y="-278.6" font-family="Times,serif" font-size="8.00" fill="#90a4ae">f</text>
</g>
<!-- n72 -->
<g id="node73" class="node">
<title>n72</title>
<path fill="#0f1721" stroke="#1c2a3a" d="M1140,-90C1140,-90 1110,-90 1110,-90 1104,-90 1098,-84 1098,-78 1098,-78 1098,-66 1098,-66 1098,-60 1104,-54 1110,-54 1110,-54 1140,-54 1140,-54 1146,-54 1152,-60 1152,-66 1152,-66 1152,-78 1152,-78 1152,-84 1146,-90 1140,-90"/>
</g>
<!-- n34&#45;&gt;n72 -->
<g id="edge76" class="edge">
<title>n34&#45;&gt;n72</title>
<path fill="none" stroke="#90a4ae" d="M996.88,-257.9C1021.59,-221.75 1077.14,-140.52 1105.93,-98.42"/>
<polygon fill="#90a4ae" stroke="#90a4ae" points="1108.89,-100.29 1111.65,-90.06 1103.11,-96.34 1108.89,-100.29"/>
<text text-anchor="middle" x="1070" y="-164.6" font-family="Times,serif" font-size="8.00" fill="#90a4ae">a</text>
</g>
<!-- n36 -->
<g id="node37" class="node">
<title>n36</title>
<path fill="#0f1721" stroke="#1c2a3a" d="M1235,-322C1235,-322 1205,-322 1205,-322 1199,-322 1193,-316 1193,-310 1193,-310 1193,-298 1193,-298 1193,-292 1199,-286 1205,-286 1205,-286 1235,-286 1235,-286 1241,-286 1247,-292 1247,-298 1247,-298 1247,-310 1247,-310 1247,-316 1241,-322 1235,-322"/>
</g>
<!-- n35&#45;&gt;n36 -->
<g id="edge49" class="edge">
<title>n35&#45;&gt;n36</title>
<path fill="none" stroke="#90a4ae" d="M1152.4,-283.95C1161.91,-286.81 1172.8,-290.09 1182.98,-293.16"/>
<polygon fill="#90a4ae" stroke="#90a4ae" points="1182.27,-296.6 1192.85,-296.13 1184.29,-289.89 1182.27,-296.6"/>
<text text-anchor="middle" x="1172.5" y="-292.6" font-family="Times,serif" font-size="8.00" fill="#90a4ae">f</text>
</g>
<!-- n55 -->
<g id="node56" class="node">
<title>n55</title>
<path fill="#0f1721" stroke="#1c2a3a" d="M1235,-256C1235,-256 1205,-256 1205,-256 1199,-256 1193,-250 1193,-244 1193,-244 1193,-232 1193,-232 1193,-226 1199,-220 1205,-220 1205,-220 1235,-220 1235,-220 1241,-220 1247,-226 1247,-232 1247,-232 1247,-244 1247,-244 1247,-250 1241,-256 1235,-256"/>
</g>
<!-- n35&#45;&gt;n55 -->
<g id="edge66" class="edge">
<title>n35&#45;&gt;n55</title>
<path fill="none" stroke="#90a4ae" d="M1152.4,-265.21C1162.01,-261.29 1173.03,-256.79 1183.3,-252.59"/>
<polygon fill="#90a4ae" stroke="#90a4ae" points="1184.92,-255.71 1192.85,-248.68 1182.27,-249.23 1184.92,-255.71"/>
<text text-anchor="middle" x="1172.5" y="-259.6" font-family="Times,serif" font-size="8.00" fill="#90a4ae">a</text>
</g>
<!-- n37 -->
<g id="node38" class="node">
<title>n37</title>
<path fill="#0f1721" stroke="#1c2a3a" d="M1367.5,-376C1367.5,-376 1337.5,-376 1337.5,-376 1331.5,-376 1325.5,-370 1325.5,-364 1325.5,-364 1325.5,-352 1325.5,-352 1325.5,-346 1331.5,-340 1337.5,-340 1337.5,-340 1367.5,-340 1367.5,-340 1373.5,-340 1379.5,-346 1379.5,-352 1379.5,-352 1379.5,-364 1379.5,-364 1379.5,-370 1373.5,-376 1367.5,-376"/>
<text text-anchor="middle" x="1352.5" y="-355.8" font-family="Times,serif" font-size="9.00" fill="#e6eef7">Eq</text>
</g>
<!-- n36&#45;&gt;n37 -->
<g id="edge31" class="edge">
<title>n36&#45;&gt;n37</title>
<path fill="none" stroke="#90a4ae" d="M1247.09,-314.8C1266.92,-323 1294.4,-334.37 1316.19,-343.39"/>
<polygon fill="#90a4ae" stroke="#90a4ae" points="1314.87,-346.63 1325.45,-347.22 1317.55,-340.16 1314.87,-346.63"/>
<text text-anchor="middle" x="1267.5" y="-325.6" font-family="Times,serif" font-size="8.00" fill="#90a4ae">f</text>
</g>
<!-- n38 -->
<g id="node39" class="node">
<title>n38</title>
<path fill="#0f1721" stroke="#1c2a3a" d="M1367.5,-322C1367.5,-322 1337.5,-322 1337.5,-322 1331.5,-322 1325.5,-316 1325.5,-310 1325.5,-310 1325.5,-298 1325.5,-298 1325.5,-292 1331.5,-286 1337.5,-286 1337.5,-286 1367.5,-286 1367.5,-286 1373.5,-286 1379.5,-292 1379.5,-298 1379.5,-298 1379.5,-310 1379.5,-310 1379.5,-316 1373.5,-322 1367.5,-322"/>
<text text-anchor="middle" x="1352.5" y="-301.8" font-family="Times,serif" font-size="9.00" fill="#e6eef7">∀ t</text>
</g>
<!-- n36&#45;&gt;n38 -->
<g id="edge48" class="edge">
<title>n36&#45;&gt;n38</title>
<path fill="none" stroke="#90a4ae" d="M1247.09,-304C1266.65,-304 1293.66,-304 1315.31,-304"/>
<polygon fill="#90a4ae" stroke="#90a4ae" points="1315.45,-307.5 1325.45,-304 1315.45,-300.5 1315.45,-307.5"/>
<text text-anchor="middle" x="1267.5" y="-306.6" font-family="Times,serif" font-size="8.00" fill="#90a4ae">a</text>
</g>
<!-- n39 -->
<g id="node40" class="node">
<title>n39</title>
<path fill="#0f1721" stroke="#1c2a3a" d="M1515,-414C1515,-414 1485,-414 1485,-414 1479,-414 1473,-408 1473,-402 1473,-402 1473,-390 1473,-390 1473,-384 1479,-378 1485,-378 1485,-378 1515,-378 1515,-378 1521,-378 1527,-384 1527,-390 1527,-390 1527,-402 1527,-402 1527,-408 1521,-414 1515,-414"/>
</g>
<!-- n38&#45;&gt;n39 -->
<g id="edge32" class="edge">
<title>n38&#45;&gt;n39</title>
<path fill="none" stroke="#90a4ae" d="M1379.6,-313.27C1391.38,-317.91 1405.26,-324.02 1417,-331 1436.42,-342.54 1456.31,-358.2 1471.65,-371.26"/>
<polygon fill="#90a4ae" stroke="#90a4ae" points="1469.37,-373.92 1479.22,-377.81 1473.95,-368.62 1469.37,-373.92"/>
<text text-anchor="middle" x="1445" y="-359.6" font-family="Times,serif" font-size="8.00" fill="#90a4ae">ty</text>
</g>
<!-- n40 -->
<g id="node41" class="node">
<title>n40</title>
<path fill="#0f1721" stroke="#1c2a3a" d="M1515,-360C1515,-360 1485,-360 1485,-360 1479,-360 1473,-354 1473,-348 1473,-348 1473,-336 1473,-336 1473,-330 1479,-324 1485,-324 1485,-324 1515,-324 1515,-324 1521,-324 1527,-330 1527,-336 1527,-336 1527,-348 1527,-348 1527,-354 1521,-360 1515,-360"/>
</g>
<!-- n38&#45;&gt;n40 -->
<g id="edge47" class="edge">
<title>n38&#45;&gt;n40</title>
<path fill="none" stroke="#90a4ae" d="M1379.51,-310.79C1402.75,-316.86 1437.02,-325.81 1462.9,-332.57"/>
<polygon fill="#90a4ae" stroke="#90a4ae" points="1462.16,-336 1472.72,-335.14 1463.93,-329.22 1462.16,-336"/>
<text text-anchor="middle" x="1445" y="-331.6" font-family="Times,serif" font-size="8.00" fill="#90a4ae">body</text>
</g>
<!-- n41 -->
<g id="node42" class="node">
<title>n41</title>
<path fill="#0f1721" stroke="#1c2a3a" d="M1752.5,-414C1752.5,-414 1722.5,-414 1722.5,-414 1716.5,-414 1710.5,-408 1710.5,-402 1710.5,-402 1710.5,-390 1710.5,-390 1710.5,-384 1716.5,-378 1722.5,-378 1722.5,-378 1752.5,-378 1752.5,-378 1758.5,-378 1764.5,-384 1764.5,-390 1764.5,-390 1764.5,-402 1764.5,-402 1764.5,-408 1758.5,-414 1752.5,-414"/>
<text text-anchor="middle" x="1737.5" y="-393.8" font-family="Times,serif" font-size="9.00" fill="#e6eef7">Set</text>
</g>
<!-- n40&#45;&gt;n41 -->
<g id="edge33" class="edge">
<title>n40&#45;&gt;n41</title>
<path fill="none" stroke="#90a4ae" d="M1527.26,-354.17C1539.43,-359.4 1554.23,-365.17 1568,-369 1612.75,-381.43 1665.89,-388.76 1700.35,-392.58"/>
<polygon fill="#90a4ae" stroke="#90a4ae" points="1700.11,-396.07 1710.42,-393.65 1700.85,-389.11 1700.11,-396.07"/>
<text text-anchor="middle" x="1547.5" y="-364.6" font-family="Times,serif" font-size="8.00" fill="#90a4ae">f</text>
</g>
<!-- n42 -->
<g id="node43" class="node">
<title>n42</title>
<path fill="#0f1721" stroke="#1c2a3a" d="M1752.5,-360C1752.5,-360 1722.5,-360 1722.5,-360 1716.5,-360 1710.5,-354 1710.5,-348 1710.5,-348 1710.5,-336 1710.5,-336 1710.5,-330 1716.5,-324 1722.5,-324 1722.5,-324 1752.5,-324 1752.5,-324 1758.5,-324 1764.5,-330 1764.5,-336 1764.5,-336 1764.5,-348 1764.5,-348 1764.5,-354 1758.5,-360 1752.5,-360"/>
</g>
<!-- n40&#45;&gt;n42 -->
<g id="edge46" class="edge">
<title>n40&#45;&gt;n42</title>
<path fill="none" stroke="#90a4ae" d="M1527.1,-342C1569.19,-342 1652.15,-342 1700.05,-342"/>
<polygon fill="#90a4ae" stroke="#90a4ae" points="1700.28,-345.5 1710.28,-342 1700.28,-338.5 1700.28,-345.5"/>
<text text-anchor="middle" x="1547.5" y="-344.6" font-family="Times,serif" font-size="8.00" fill="#90a4ae">a</text>
</g>
<!-- n43 -->
<g id="node44" class="node">
<title>n43</title>
<path fill="#0f1721" stroke="#1c2a3a" d="M2132.5,-414C2132.5,-414 2102.5,-414 2102.5,-414 2096.5,-414 2090.5,-408 2090.5,-402 2090.5,-402 2090.5,-390 2090.5,-390 2090.5,-384 2096.5,-378 2102.5,-378 2102.5,-378 2132.5,-378 2132.5,-378 2138.5,-378 2144.5,-384 2144.5,-390 2144.5,-390 2144.5,-402 2144.5,-402 2144.5,-408 2138.5,-414 2132.5,-414"/>
</g>
<!-- n42&#45;&gt;n43 -->
<g id="edge44" class="edge">
<title>n42&#45;&gt;n43</title>
<path fill="none" stroke="#90a4ae" d="M1764.78,-345.75C1830.98,-355.21 2004.7,-380.03 2080.39,-390.84"/>
<polygon fill="#90a4ae" stroke="#90a4ae" points="2080,-394.32 2090.39,-392.27 2080.99,-387.39 2080,-394.32"/>
<text text-anchor="middle" x="1927.5" y="-371.6" font-family="Times,serif" font-size="8.00" fill="#90a4ae">f</text>
</g>
<!-- n54 -->
<g id="node55" class="node">
<title>n54</title>
<path fill="#0f1721" stroke="#1c2a3a" d="M2132.5,-360C2132.5,-360 2102.5,-360 2102.5,-360 2096.5,-360 2090.5,-354 2090.5,-348 2090.5,-348 2090.5,-336 2090.5,-336 2090.5,-330 2096.5,-324 2102.5,-324 2102.5,-324 2132.5,-324 2132.5,-324 2138.5,-324 2144.5,-330 2144.5,-336 2144.5,-336 2144.5,-348 2144.5,-348 2144.5,-354 2138.5,-360 2132.5,-360"/>
</g>
<!-- n42&#45;&gt;n54 -->
<g id="edge45" class="edge">
<title>n42&#45;&gt;n54</title>
<path fill="none" stroke="#90a4ae" d="M1764.78,-342C1830.98,-342 2004.7,-342 2080.39,-342"/>
<polygon fill="#90a4ae" stroke="#90a4ae" points="2080.39,-345.5 2090.39,-342 2080.39,-338.5 2080.39,-345.5"/>
<text text-anchor="middle" x="1927.5" y="-344.6" font-family="Times,serif" font-size="8.00" fill="#90a4ae">a</text>
</g>
<!-- n44 -->
<g id="node45" class="node">
<title>n44</title>
<path fill="#0f1721" stroke="#1c2a3a" d="M2512.5,-426C2512.5,-426 2482.5,-426 2482.5,-426 2476.5,-426 2470.5,-420 2470.5,-414 2470.5,-414 2470.5,-402 2470.5,-402 2470.5,-396 2476.5,-390 2482.5,-390 2482.5,-390 2512.5,-390 2512.5,-390 2518.5,-390 2524.5,-396 2524.5,-402 2524.5,-402 2524.5,-414 2524.5,-414 2524.5,-420 2518.5,-426 2512.5,-426"/>
</g>
<!-- n43&#45;&gt;n44 -->
<g id="edge42" class="edge">
<title>n43&#45;&gt;n44</title>
<path fill="none" stroke="#90a4ae" d="M2144.78,-396.83C2210.98,-398.94 2384.7,-404.45 2460.39,-406.85"/>
<polygon fill="#90a4ae" stroke="#90a4ae" points="2460.29,-410.35 2470.39,-407.17 2460.51,-403.36 2460.29,-410.35"/>
<text text-anchor="middle" x="2307.5" y="-404.6" font-family="Times,serif" font-size="8.00" fill="#90a4ae">f</text>
</g>
<!-- n53 -->
<g id="node54" class="node">
<title>n53</title>
<path fill="#0f1721" stroke="#1c2a3a" d="M2512.5,-372C2512.5,-372 2482.5,-372 2482.5,-372 2476.5,-372 2470.5,-366 2470.5,-360 2470.5,-360 2470.5,-348 2470.5,-348 2470.5,-342 2476.5,-336 2482.5,-336 2482.5,-336 2512.5,-336 2512.5,-336 2518.5,-336 2524.5,-342 2524.5,-348 2524.5,-348 2524.5,-360 2524.5,-360 2524.5,-366 2518.5,-372 2512.5,-372"/>
</g>
<!-- n43&#45;&gt;n53 -->
<g id="edge43" class="edge">
<title>n43&#45;&gt;n53</title>
<path fill="none" stroke="#90a4ae" d="M2144.78,-393.08C2210.98,-385.72 2384.7,-366.42 2460.39,-358.01"/>
<polygon fill="#90a4ae" stroke="#90a4ae" points="2460.84,-361.48 2470.39,-356.9 2460.07,-354.53 2460.84,-361.48"/>
<text text-anchor="middle" x="2307.5" y="-377.6" font-family="Times,serif" font-size="8.00" fill="#90a4ae">a</text>
</g>
<!-- n45 -->
<g id="node46" class="node">
<title>n45</title>
<path fill="#0f1721" stroke="#1c2a3a" d="M2795.5,-452C2795.5,-452 2765.5,-452 2765.5,-452 2759.5,-452 2753.5,-446 2753.5,-440 2753.5,-440 2753.5,-428 2753.5,-428 2753.5,-422 2759.5,-416 2765.5,-416 2765.5,-416 2795.5,-416 2795.5,-416 2801.5,-416 2807.5,-422 2807.5,-428 2807.5,-428 2807.5,-440 2807.5,-440 2807.5,-446 2801.5,-452 2795.5,-452"/>
</g>
<!-- n44&#45;&gt;n45 -->
<g id="edge40" class="edge">
<title>n44&#45;&gt;n45</title>
<path fill="none" stroke="#90a4ae" d="M2524.68,-410.42C2575.09,-415.09 2685.7,-425.32 2743.19,-430.64"/>
<polygon fill="#90a4ae" stroke="#90a4ae" points="2743,-434.14 2753.28,-431.57 2743.65,-427.17 2743,-434.14"/>
<text text-anchor="middle" x="2687.5" y="-427.6" font-family="Times,serif" font-size="8.00" fill="#90a4ae">f</text>
</g>
<!-- n52 -->
<g id="node53" class="node">
<title>n52</title>
<path fill="#0f1721" stroke="#1c2a3a" d="M2827,-398C2827,-398 2734,-398 2734,-398 2728,-398 2722,-392 2722,-386 2722,-386 2722,-374 2722,-374 2722,-368 2728,-362 2734,-362 2734,-362 2827,-362 2827,-362 2833,-362 2839,-368 2839,-374 2839,-374 2839,-386 2839,-386 2839,-392 2833,-398 2827,-398"/>
<text text-anchor="middle" x="2780.5" y="-377.8" font-family="Times,serif" font-size="9.00" fill="#e6eef7">CategoryTheory.types</text>
</g>
<!-- n44&#45;&gt;n52 -->
<g id="edge41" class="edge">
<title>n44&#45;&gt;n52</title>
<path fill="none" stroke="#90a4ae" d="M2524.68,-405.39C2566.93,-401.18 2651.46,-392.76 2711.57,-386.77"/>
<polygon fill="#90a4ae" stroke="#90a4ae" points="2712.14,-390.23 2721.74,-385.76 2711.44,-383.26 2712.14,-390.23"/>
<text text-anchor="middle" x="2687.5" y="-391.6" font-family="Times,serif" font-size="8.00" fill="#90a4ae">a</text>
</g>
<!-- n46 -->
<g id="node47" class="node">
<title>n46</title>
<path fill="#0f1721" stroke="#1c2a3a" d="M2936,-484C2936,-484 2906,-484 2906,-484 2900,-484 2894,-478 2894,-472 2894,-472 2894,-460 2894,-460 2894,-454 2900,-448 2906,-448 2906,-448 2936,-448 2936,-448 2942,-448 2948,-454 2948,-460 2948,-460 2948,-472 2948,-472 2948,-478 2942,-484 2936,-484"/>
</g>
<!-- n45&#45;&gt;n46 -->
<g id="edge38" class="edge">
<title>n45&#45;&gt;n46</title>
<path fill="none" stroke="#90a4ae" d="M2807.55,-440.02C2829.08,-444.99 2859.88,-452.11 2883.81,-457.64"/>
<polygon fill="#90a4ae" stroke="#90a4ae" points="2883.06,-461.06 2893.6,-459.9 2884.64,-454.24 2883.06,-461.06"/>
<text text-anchor="middle" x="2873.5" y="-457.6" font-family="Times,serif" font-size="8.00" fill="#90a4ae">f</text>
</g>
<!-- n51 -->
<g id="node52" class="node">
<title>n51</title>
<path fill="#112033" stroke="#1c2a3a" d="M2936,-430C2936,-430 2906,-430 2906,-430 2900,-430 2894,-424 2894,-418 2894,-418 2894,-406 2894,-406 2894,-400 2900,-394 2906,-394 2906,-394 2936,-394 2936,-394 2942,-394 2948,-400 2948,-406 2948,-406 2948,-418 2948,-418 2948,-424 2942,-430 2936,-430"/>
<text text-anchor="middle" x="2921" y="-409.8" font-family="Times,serif" font-size="9.00" fill="#e6eef7">Sort</text>
</g>
<!-- n45&#45;&gt;n51 -->
<g id="edge39" class="edge">
<title>n45&#45;&gt;n51</title>
<path fill="none" stroke="#90a4ae" d="M2807.55,-429.86C2828.98,-426.46 2859.61,-421.59 2883.49,-417.8"/>
<polygon fill="#90a4ae" stroke="#90a4ae" points="2884.27,-421.22 2893.6,-416.19 2883.17,-414.31 2884.27,-421.22"/>
<text text-anchor="middle" x="2873.5" y="-421.6" font-family="Times,serif" font-size="8.00" fill="#90a4ae">a</text>
</g>
<!-- n47 -->
<g id="node48" class="node">
<title>n47</title>
<path fill="#0f1721" stroke="#1c2a3a" d="M3031,-516C3031,-516 3001,-516 3001,-516 2995,-516 2989,-510 2989,-504 2989,-504 2989,-492 2989,-492 2989,-486 2995,-480 3001,-480 3001,-480 3031,-480 3031,-480 3037,-480 3043,-486 3043,-492 3043,-492 3043,-504 3043,-504 3043,-510 3037,-516 3031,-516"/>
</g>
<!-- n46&#45;&gt;n47 -->
<g id="edge36" class="edge">
<title>n46&#45;&gt;n47</title>
<path fill="none" stroke="#90a4ae" d="M2948.4,-475.08C2958.01,-478.39 2969.03,-482.18 2979.3,-485.72"/>
<polygon fill="#90a4ae" stroke="#90a4ae" points="2978.26,-489.06 2988.85,-489 2980.54,-482.44 2978.26,-489.06"/>
<text text-anchor="middle" x="2968.5" y="-484.6" font-family="Times,serif" font-size="8.00" fill="#90a4ae">f</text>
</g>
<!-- n50 -->
<g id="node51" class="node">
<title>n50</title>
<path fill="#0f1721" stroke="#1c2a3a" d="M3031,-462C3031,-462 3001,-462 3001,-462 2995,-462 2989,-456 2989,-450 2989,-450 2989,-438 2989,-438 2989,-432 2995,-426 3001,-426 3001,-426 3031,-426 3031,-426 3037,-426 3043,-432 3043,-438 3043,-438 3043,-450 3043,-450 3043,-456 3037,-462 3031,-462"/>
</g>
<!-- n46&#45;&gt;n50 -->
<g id="edge37" class="edge">
<title>n46&#45;&gt;n50</title>
<path fill="none" stroke="#90a4ae" d="M2948.4,-459.75C2957.91,-457.51 2968.8,-454.93 2978.98,-452.52"/>
<polygon fill="#90a4ae" stroke="#90a4ae" points="2979.93,-455.89 2988.85,-450.18 2978.32,-449.08 2979.93,-455.89"/>
<text text-anchor="middle" x="2968.5" y="-457.6" font-family="Times,serif" font-size="8.00" fill="#90a4ae">a</text>
</g>
<!-- n48 -->
<g id="node49" class="node">
<title>n48</title>
<path fill="#0f1721" stroke="#1c2a3a" d="M3217,-543C3217,-543 3096,-543 3096,-543 3090,-543 3084,-537 3084,-531 3084,-531 3084,-519 3084,-519 3084,-513 3090,-507 3096,-507 3096,-507 3217,-507 3217,-507 3223,-507 3229,-513 3229,-519 3229,-519 3229,-531 3229,-531 3229,-537 3223,-543 3217,-543"/>
<text text-anchor="middle" x="3156.5" y="-522.8" font-family="Times,serif" font-size="9.00" fill="#e6eef7">CategoryTheory.Functor.obj</text>
</g>
<!-- n47&#45;&gt;n48 -->
<g id="edge34" class="edge">
<title>n47&#45;&gt;n48</title>
<path fill="none" stroke="#90a4ae" d="M3043.05,-503.08C3052.14,-504.85 3062.89,-506.95 3074.07,-509.13"/>
<polygon fill="#90a4ae" stroke="#90a4ae" points="3073.49,-512.58 3083.98,-511.06 3074.83,-505.71 3073.49,-512.58"/>
<text text-anchor="middle" x="3063.5" y="-509.6" font-family="Times,serif" font-size="8.00" fill="#90a4ae">f</text>
</g>
<!-- n49 -->
<g id="node50" class="node">
<title>n49</title>
<path fill="#0f1721" stroke="#1c2a3a" d="M3171.5,-489C3171.5,-489 3141.5,-489 3141.5,-489 3135.5,-489 3129.5,-483 3129.5,-477 3129.5,-477 3129.5,-465 3129.5,-465 3129.5,-459 3135.5,-453 3141.5,-453 3141.5,-453 3171.5,-453 3171.5,-453 3177.5,-453 3183.5,-459 3183.5,-465 3183.5,-465 3183.5,-477 3183.5,-477 3183.5,-483 3177.5,-489 3171.5,-489"/>
</g>
<!-- n47&#45;&gt;n49 -->
<g id="edge35" class="edge">
<title>n47&#45;&gt;n49</title>
<path fill="none" stroke="#90a4ae" d="M3043.05,-492.92C3064.48,-488.74 3095.11,-482.77 3118.99,-478.12"/>
<polygon fill="#90a4ae" stroke="#90a4ae" points="3119.95,-481.5 3129.1,-476.15 3118.61,-474.63 3119.95,-481.5"/>
<text text-anchor="middle" x="3063.5" y="-491.6" font-family="Times,serif" font-size="8.00" fill="#90a4ae">a</text>
</g>
<!-- n56 -->
<g id="node57" class="node">
<title>n56</title>
<path fill="#0f1721" stroke="#1c2a3a" d="M1367.5,-256C1367.5,-256 1337.5,-256 1337.5,-256 1331.5,-256 1325.5,-250 1325.5,-244 1325.5,-244 1325.5,-232 1325.5,-232 1325.5,-226 1331.5,-220 1337.5,-220 1337.5,-220 1367.5,-220 1367.5,-220 1373.5,-220 1379.5,-226 1379.5,-232 1379.5,-232 1379.5,-244 1379.5,-244 1379.5,-250 1373.5,-256 1367.5,-256"/>
</g>
<!-- n55&#45;&gt;n56 -->
<g id="edge56" class="edge">
<title>n55&#45;&gt;n56</title>
<path fill="none" stroke="#90a4ae" d="M1247.09,-238C1266.65,-238 1293.66,-238 1315.31,-238"/>
<polygon fill="#90a4ae" stroke="#90a4ae" points="1315.45,-241.5 1325.45,-238 1315.45,-234.5 1315.45,-241.5"/>
<text text-anchor="middle" x="1267.5" y="-240.6" font-family="Times,serif" font-size="8.00" fill="#90a4ae">f</text>
</g>
<!-- n63 -->
<g id="node64" class="node">
<title>n63</title>
<path fill="#0f1721" stroke="#1c2a3a" d="M1367.5,-198C1367.5,-198 1337.5,-198 1337.5,-198 1331.5,-198 1325.5,-192 1325.5,-186 1325.5,-186 1325.5,-174 1325.5,-174 1325.5,-168 1331.5,-162 1337.5,-162 1337.5,-162 1367.5,-162 1367.5,-162 1373.5,-162 1379.5,-168 1379.5,-174 1379.5,-174 1379.5,-186 1379.5,-186 1379.5,-192 1373.5,-198 1367.5,-198"/>
</g>
<!-- n55&#45;&gt;n63 -->
<g id="edge65" class="edge">
<title>n55&#45;&gt;n63</title>
<path fill="none" stroke="#90a4ae" d="M1247.09,-226.4C1266.92,-217.59 1294.4,-205.38 1316.19,-195.69"/>
<polygon fill="#90a4ae" stroke="#90a4ae" points="1317.73,-198.84 1325.45,-191.58 1314.89,-192.44 1317.73,-198.84"/>
<text text-anchor="middle" x="1267.5" y="-219.6" font-family="Times,serif" font-size="8.00" fill="#90a4ae">a</text>
</g>
<!-- n57 -->
<g id="node58" class="node">
<title>n57</title>
<path fill="#0f1721" stroke="#1c2a3a" d="M1515,-306C1515,-306 1485,-306 1485,-306 1479,-306 1473,-300 1473,-294 1473,-294 1473,-282 1473,-282 1473,-276 1479,-270 1485,-270 1485,-270 1515,-270 1515,-270 1521,-270 1527,-276 1527,-282 1527,-282 1527,-294 1527,-294 1527,-300 1521,-306 1515,-306"/>
</g>
<!-- n56&#45;&gt;n57 -->
<g id="edge54" class="edge">
<title>n56&#45;&gt;n57</title>
<path fill="none" stroke="#90a4ae" d="M1379.51,-246.94C1402.85,-254.96 1437.32,-266.8 1463.24,-275.71"/>
<polygon fill="#90a4ae" stroke="#90a4ae" points="1462.13,-279.03 1472.72,-278.97 1464.4,-272.41 1462.13,-279.03"/>
<text text-anchor="middle" x="1445" y="-273.6" font-family="Times,serif" font-size="8.00" fill="#90a4ae">f</text>
</g>
<!-- n62 -->
<g id="node63" class="node">
<title>n62</title>
<path fill="#0f1721" stroke="#1c2a3a" d="M1515,-252C1515,-252 1485,-252 1485,-252 1479,-252 1473,-246 1473,-240 1473,-240 1473,-228 1473,-228 1473,-222 1479,-216 1485,-216 1485,-216 1515,-216 1515,-216 1521,-216 1527,-222 1527,-228 1527,-228 1527,-240 1527,-240 1527,-246 1521,-252 1515,-252"/>
</g>
<!-- n56&#45;&gt;n62 -->
<g id="edge55" class="edge">
<title>n56&#45;&gt;n62</title>
<path fill="none" stroke="#90a4ae" d="M1379.51,-237.28C1402.65,-236.65 1436.71,-235.71 1462.56,-235"/>
<polygon fill="#90a4ae" stroke="#90a4ae" points="1462.82,-238.5 1472.72,-234.72 1462.63,-231.5 1462.82,-238.5"/>
<text text-anchor="middle" x="1445" y="-237.6" font-family="Times,serif" font-size="8.00" fill="#90a4ae">a</text>
</g>
<!-- n58 -->
<g id="node59" class="node">
<title>n58</title>
<path fill="#0f1721" stroke="#1c2a3a" d="M1752.5,-306C1752.5,-306 1722.5,-306 1722.5,-306 1716.5,-306 1710.5,-300 1710.5,-294 1710.5,-294 1710.5,-282 1710.5,-282 1710.5,-276 1716.5,-270 1722.5,-270 1722.5,-270 1752.5,-270 1752.5,-270 1758.5,-270 1764.5,-276 1764.5,-282 1764.5,-282 1764.5,-294 1764.5,-294 1764.5,-300 1758.5,-306 1752.5,-306"/>
</g>
<!-- n57&#45;&gt;n58 -->
<g id="edge52" class="edge">
<title>n57&#45;&gt;n58</title>
<path fill="none" stroke="#90a4ae" d="M1527.1,-288C1569.19,-288 1652.15,-288 1700.05,-288"/>
<polygon fill="#90a4ae" stroke="#90a4ae" points="1700.28,-291.5 1710.28,-288 1700.28,-284.5 1700.28,-291.5"/>
<text text-anchor="middle" x="1547.5" y="-290.6" font-family="Times,serif" font-size="8.00" fill="#90a4ae">f</text>
</g>
<!-- n61 -->
<g id="node62" class="node">
<title>n61</title>
<path fill="#0f1721" stroke="#1c2a3a" d="M1752.5,-252C1752.5,-252 1722.5,-252 1722.5,-252 1716.5,-252 1710.5,-246 1710.5,-240 1710.5,-240 1710.5,-228 1710.5,-228 1710.5,-222 1716.5,-216 1722.5,-216 1722.5,-216 1752.5,-216 1752.5,-216 1758.5,-216 1764.5,-222 1764.5,-228 1764.5,-228 1764.5,-240 1764.5,-240 1764.5,-246 1758.5,-252 1752.5,-252"/>
</g>
<!-- n57&#45;&gt;n61 -->
<g id="edge53" class="edge">
<title>n57&#45;&gt;n61</title>
<path fill="none" stroke="#90a4ae" d="M1527.26,-275.83C1539.43,-270.6 1554.23,-264.83 1568,-261 1612.75,-248.57 1665.89,-241.24 1700.35,-237.42"/>
<polygon fill="#90a4ae" stroke="#90a4ae" points="1700.85,-240.89 1710.42,-236.35 1700.11,-233.93 1700.85,-240.89"/>
<text text-anchor="middle" x="1547.5" y="-270.6" font-family="Times,serif" font-size="8.00" fill="#90a4ae">a</text>
</g>
<!-- n59 -->
<g id="node60" class="node">
<title>n59</title>
<path fill="#0f1721" stroke="#1c2a3a" d="M2275,-306C2275,-306 1960,-306 1960,-306 1954,-306 1948,-300 1948,-294 1948,-294 1948,-282 1948,-282 1948,-276 1954,-270 1960,-270 1960,-270 2275,-270 2275,-270 2281,-270 2287,-276 2287,-282 2287,-282 2287,-294 2287,-294 2287,-300 2281,-306 2275,-306"/>
<text text-anchor="middle" x="2117.5" y="-285.8" font-family="Times,serif" font-size="9.00" fill="#e6eef7">HeytingLean.ClosingTheLoop.Semantics.FunctorialTime.futureKernel</text>
</g>
<!-- n58&#45;&gt;n59 -->
<g id="edge50" class="edge">
<title>n58&#45;&gt;n59</title>
<path fill="none" stroke="#90a4ae" d="M1764.78,-288C1801.17,-288 1870.04,-288 1937.27,-288"/>
<polygon fill="#90a4ae" stroke="#90a4ae" points="1937.6,-291.5 1947.6,-288 1937.6,-284.5 1937.6,-291.5"/>
<text text-anchor="middle" x="1927.5" y="-290.6" font-family="Times,serif" font-size="8.00" fill="#90a4ae">f</text>
</g>
<!-- n60 -->
<g id="node61" class="node">
<title>n60</title>
<path fill="#0f1721" stroke="#1c2a3a" d="M2132.5,-252C2132.5,-252 2102.5,-252 2102.5,-252 2096.5,-252 2090.5,-246 2090.5,-240 2090.5,-240 2090.5,-228 2090.5,-228 2090.5,-222 2096.5,-216 2102.5,-216 2102.5,-216 2132.5,-216 2132.5,-216 2138.5,-216 2144.5,-222 2144.5,-228 2144.5,-228 2144.5,-240 2144.5,-240 2144.5,-246 2138.5,-252 2132.5,-252"/>
</g>
<!-- n58&#45;&gt;n60 -->
<g id="edge51" class="edge">
<title>n58&#45;&gt;n60</title>
<path fill="none" stroke="#90a4ae" d="M1764.78,-284.25C1830.98,-274.79 2004.7,-249.97 2080.39,-239.16"/>
<polygon fill="#90a4ae" stroke="#90a4ae" points="2080.99,-242.61 2090.39,-237.73 2080,-235.68 2080.99,-242.61"/>
<text text-anchor="middle" x="1927.5" y="-263.6" font-family="Times,serif" font-size="8.00" fill="#90a4ae">a</text>
</g>
<!-- n64 -->
<g id="node65" class="node">
<title>n64</title>
<path fill="#0f1721" stroke="#1c2a3a" d="M1515,-198C1515,-198 1485,-198 1485,-198 1479,-198 1473,-192 1473,-186 1473,-186 1473,-174 1473,-174 1473,-168 1479,-162 1485,-162 1485,-162 1515,-162 1515,-162 1521,-162 1527,-168 1527,-174 1527,-174 1527,-186 1527,-186 1527,-192 1521,-198 1515,-198"/>
</g>
<!-- n63&#45;&gt;n64 -->
<g id="edge63" class="edge">
<title>n63&#45;&gt;n64</title>
<path fill="none" stroke="#90a4ae" d="M1379.51,-180C1402.65,-180 1436.71,-180 1462.56,-180"/>
<polygon fill="#90a4ae" stroke="#90a4ae" points="1462.72,-183.5 1472.72,-180 1462.72,-176.5 1462.72,-183.5"/>
<text text-anchor="middle" x="1445" y="-182.6" font-family="Times,serif" font-size="8.00" fill="#90a4ae">f</text>
</g>
<!-- n71 -->
<g id="node72" class="node">
<title>n71</title>
<path fill="#0f1721" stroke="#1c2a3a" d="M1515,-144C1515,-144 1485,-144 1485,-144 1479,-144 1473,-138 1473,-132 1473,-132 1473,-120 1473,-120 1473,-114 1479,-108 1485,-108 1485,-108 1515,-108 1515,-108 1521,-108 1527,-114 1527,-120 1527,-120 1527,-132 1527,-132 1527,-138 1521,-144 1515,-144"/>
</g>
<!-- n63&#45;&gt;n71 -->
<g id="edge64" class="edge">
<title>n63&#45;&gt;n71</title>
<path fill="none" stroke="#90a4ae" d="M1379.51,-170.35C1402.85,-161.68 1437.32,-148.89 1463.24,-139.27"/>
<polygon fill="#90a4ae" stroke="#90a4ae" points="1464.56,-142.51 1472.72,-135.75 1462.13,-135.95 1464.56,-142.51"/>
<text text-anchor="middle" x="1445" y="-151.6" font-family="Times,serif" font-size="8.00" fill="#90a4ae">a</text>
</g>
<!-- n65 -->
<g id="node66" class="node">
<title>n65</title>
<path fill="#0f1721" stroke="#1c2a3a" d="M1752.5,-198C1752.5,-198 1722.5,-198 1722.5,-198 1716.5,-198 1710.5,-192 1710.5,-186 1710.5,-186 1710.5,-174 1710.5,-174 1710.5,-168 1716.5,-162 1722.5,-162 1722.5,-162 1752.5,-162 1752.5,-162 1758.5,-162 1764.5,-168 1764.5,-174 1764.5,-174 1764.5,-186 1764.5,-186 1764.5,-192 1758.5,-198 1752.5,-198"/>
</g>
<!-- n64&#45;&gt;n65 -->
<g id="edge61" class="edge">
<title>n64&#45;&gt;n65</title>
<path fill="none" stroke="#90a4ae" d="M1527.1,-180C1569.19,-180 1652.15,-180 1700.05,-180"/>
<polygon fill="#90a4ae" stroke="#90a4ae" points="1700.28,-183.5 1710.28,-180 1700.28,-176.5 1700.28,-183.5"/>
<text text-anchor="middle" x="1547.5" y="-182.6" font-family="Times,serif" font-size="8.00" fill="#90a4ae">f</text>
</g>
<!-- n70 -->
<g id="node71" class="node">
<title>n70</title>
<path fill="#0f1721" stroke="#1c2a3a" d="M1752.5,-144C1752.5,-144 1722.5,-144 1722.5,-144 1716.5,-144 1710.5,-138 1710.5,-132 1710.5,-132 1710.5,-120 1710.5,-120 1710.5,-114 1716.5,-108 1722.5,-108 1722.5,-108 1752.5,-108 1752.5,-108 1758.5,-108 1764.5,-114 1764.5,-120 1764.5,-120 1764.5,-132 1764.5,-132 1764.5,-138 1758.5,-144 1752.5,-144"/>
</g>
<!-- n64&#45;&gt;n70 -->
<g id="edge62" class="edge">
<title>n64&#45;&gt;n70</title>
<path fill="none" stroke="#90a4ae" d="M1527.26,-167.83C1539.43,-162.6 1554.23,-156.83 1568,-153 1612.75,-140.57 1665.89,-133.24 1700.35,-129.42"/>
<polygon fill="#90a4ae" stroke="#90a4ae" points="1700.85,-132.89 1710.42,-128.35 1700.11,-125.93 1700.85,-132.89"/>
<text text-anchor="middle" x="1547.5" y="-163.6" font-family="Times,serif" font-size="8.00" fill="#90a4ae">a</text>
</g>
<!-- n66 -->
<g id="node67" class="node">
<title>n66</title>
<path fill="#0f1721" stroke="#1c2a3a" d="M2132.5,-198C2132.5,-198 2102.5,-198 2102.5,-198 2096.5,-198 2090.5,-192 2090.5,-186 2090.5,-186 2090.5,-174 2090.5,-174 2090.5,-168 2096.5,-162 2102.5,-162 2102.5,-162 2132.5,-162 2132.5,-162 2138.5,-162 2144.5,-168 2144.5,-174 2144.5,-174 2144.5,-186 2144.5,-186 2144.5,-192 2138.5,-198 2132.5,-198"/>
</g>
<!-- n65&#45;&gt;n66 -->
<g id="edge59" class="edge">
<title>n65&#45;&gt;n66</title>
<path fill="none" stroke="#90a4ae" d="M1764.78,-180C1830.98,-180 2004.7,-180 2080.39,-180"/>
<polygon fill="#90a4ae" stroke="#90a4ae" points="2080.39,-183.5 2090.39,-180 2080.39,-176.5 2080.39,-183.5"/>
<text text-anchor="middle" x="1927.5" y="-182.6" font-family="Times,serif" font-size="8.00" fill="#90a4ae">f</text>
</g>
<!-- n69 -->
<g id="node70" class="node">
<title>n69</title>
<path fill="#0f1721" stroke="#1c2a3a" d="M2132.5,-144C2132.5,-144 2102.5,-144 2102.5,-144 2096.5,-144 2090.5,-138 2090.5,-132 2090.5,-132 2090.5,-120 2090.5,-120 2090.5,-114 2096.5,-108 2102.5,-108 2102.5,-108 2132.5,-108 2132.5,-108 2138.5,-108 2144.5,-114 2144.5,-120 2144.5,-120 2144.5,-132 2144.5,-132 2144.5,-138 2138.5,-144 2132.5,-144"/>
</g>
<!-- n65&#45;&gt;n69 -->
<g id="edge60" class="edge">
<title>n65&#45;&gt;n69</title>
<path fill="none" stroke="#90a4ae" d="M1764.78,-176.25C1830.98,-166.79 2004.7,-141.97 2080.39,-131.16"/>
<polygon fill="#90a4ae" stroke="#90a4ae" points="2080.99,-134.61 2090.39,-129.73 2080,-127.68 2080.99,-134.61"/>
<text text-anchor="middle" x="1927.5" y="-155.6" font-family="Times,serif" font-size="8.00" fill="#90a4ae">a</text>
</g>
<!-- n67 -->
<g id="node68" class="node">
<title>n67</title>
<path fill="#0f1721" stroke="#1c2a3a" d="M2655,-225C2655,-225 2340,-225 2340,-225 2334,-225 2328,-219 2328,-213 2328,-213 2328,-201 2328,-201 2328,-195 2334,-189 2340,-189 2340,-189 2655,-189 2655,-189 2661,-189 2667,-195 2667,-201 2667,-201 2667,-213 2667,-213 2667,-219 2661,-225 2655,-225"/>
<text text-anchor="middle" x="2497.5" y="-204.8" font-family="Times,serif" font-size="9.00" fill="#e6eef7">HeytingLean.ClosingTheLoop.Semantics.FunctorialTime.futureKernel</text>
</g>
<!-- n66&#45;&gt;n67 -->
<g id="edge57" class="edge">
<title>n66&#45;&gt;n67</title>
<path fill="none" stroke="#90a4ae" d="M2144.78,-181.88C2181.17,-184.48 2250.04,-189.4 2317.27,-194.2"/>
<polygon fill="#90a4ae" stroke="#90a4ae" points="2317.38,-197.71 2327.6,-194.94 2317.88,-190.73 2317.38,-197.71"/>
<text text-anchor="middle" x="2307.5" y="-195.6" font-family="Times,serif" font-size="8.00" fill="#90a4ae">f</text>
</g>
<!-- n68 -->
<g id="node69" class="node">
<title>n68</title>
<path fill="#0f1721" stroke="#1c2a3a" d="M2512.5,-171C2512.5,-171 2482.5,-171 2482.5,-171 2476.5,-171 2470.5,-165 2470.5,-159 2470.5,-159 2470.5,-147 2470.5,-147 2470.5,-141 2476.5,-135 2482.5,-135 2482.5,-135 2512.5,-135 2512.5,-135 2518.5,-135 2524.5,-141 2524.5,-147 2524.5,-147 2524.5,-159 2524.5,-159 2524.5,-165 2518.5,-171 2512.5,-171"/>
</g>
<!-- n66&#45;&gt;n68 -->
<g id="edge58" class="edge">
<title>n66&#45;&gt;n68</title>
<path fill="none" stroke="#90a4ae" d="M2144.78,-178.12C2210.98,-173.39 2384.7,-160.99 2460.39,-155.58"/>
<polygon fill="#90a4ae" stroke="#90a4ae" points="2460.67,-159.07 2470.39,-154.86 2460.17,-152.09 2460.67,-159.07"/>
<text text-anchor="middle" x="2307.5" y="-169.6" font-family="Times,serif" font-size="8.00" fill="#90a4ae">a</text>
</g>
<!-- n73 -->
<g id="node74" class="node">
<title>n73</title>
<path fill="#0f1721" stroke="#1c2a3a" d="M1235,-90C1235,-90 1205,-90 1205,-90 1199,-90 1193,-84 1193,-78 1193,-78 1193,-66 1193,-66 1193,-60 1199,-54 1205,-54 1205,-54 1235,-54 1235,-54 1241,-54 1247,-60 1247,-66 1247,-66 1247,-78 1247,-78 1247,-84 1241,-90 1235,-90"/>
</g>
<!-- n72&#45;&gt;n73 -->
<g id="edge74" class="edge">
<title>n72&#45;&gt;n73</title>
<path fill="none" stroke="#90a4ae" d="M1152.4,-72C1161.81,-72 1172.57,-72 1182.66,-72"/>
<polygon fill="#90a4ae" stroke="#90a4ae" points="1182.85,-75.5 1192.85,-72 1182.85,-68.5 1182.85,-75.5"/>
<text text-anchor="middle" x="1172.5" y="-74.6" font-family="Times,serif" font-size="8.00" fill="#90a4ae">f</text>
</g>
<!-- n80 -->
<g id="node81" class="node">
<title>n80</title>
<path fill="#0f1721" stroke="#1c2a3a" d="M1235,-36C1235,-36 1205,-36 1205,-36 1199,-36 1193,-30 1193,-24 1193,-24 1193,-12 1193,-12 1193,-6 1199,0 1205,0 1205,0 1235,0 1235,0 1241,0 1247,-6 1247,-12 1247,-12 1247,-24 1247,-24 1247,-30 1241,-36 1235,-36"/>
</g>
<!-- n72&#45;&gt;n80 -->
<g id="edge75" class="edge">
<title>n72&#45;&gt;n80</title>
<path fill="none" stroke="#90a4ae" d="M1152.4,-56.67C1162.2,-50.98 1173.48,-44.43 1183.94,-38.36"/>
<polygon fill="#90a4ae" stroke="#90a4ae" points="1185.96,-41.23 1192.85,-33.18 1182.45,-35.18 1185.96,-41.23"/>
<text text-anchor="middle" x="1172.5" y="-47.6" font-family="Times,serif" font-size="8.00" fill="#90a4ae">a</text>
</g>
<!-- n74 -->
<g id="node75" class="node">
<title>n74</title>
<path fill="#0f1721" stroke="#1c2a3a" d="M1367.5,-90C1367.5,-90 1337.5,-90 1337.5,-90 1331.5,-90 1325.5,-84 1325.5,-78 1325.5,-78 1325.5,-66 1325.5,-66 1325.5,-60 1331.5,-54 1337.5,-54 1337.5,-54 1367.5,-54 1367.5,-54 1373.5,-54 1379.5,-60 1379.5,-66 1379.5,-66 1379.5,-78 1379.5,-78 1379.5,-84 1373.5,-90 1367.5,-90"/>
</g>
<!-- n73&#45;&gt;n74 -->
<g id="edge72" class="edge">
<title>n73&#45;&gt;n74</title>
<path fill="none" stroke="#90a4ae" d="M1247.09,-72C1266.65,-72 1293.66,-72 1315.31,-72"/>
<polygon fill="#90a4ae" stroke="#90a4ae" points="1315.45,-75.5 1325.45,-72 1315.45,-68.5 1315.45,-75.5"/>
<text text-anchor="middle" x="1267.5" y="-74.6" font-family="Times,serif" font-size="8.00" fill="#90a4ae">f</text>
</g>
<!-- n79 -->
<g id="node80" class="node">
<title>n79</title>
<path fill="#0f1721" stroke="#1c2a3a" d="M1367.5,-36C1367.5,-36 1337.5,-36 1337.5,-36 1331.5,-36 1325.5,-30 1325.5,-24 1325.5,-24 1325.5,-12 1325.5,-12 1325.5,-6 1331.5,0 1337.5,0 1337.5,0 1367.5,0 1367.5,0 1373.5,0 1379.5,-6 1379.5,-12 1379.5,-12 1379.5,-24 1379.5,-24 1379.5,-30 1373.5,-36 1367.5,-36"/>
</g>
<!-- n73&#45;&gt;n79 -->
<g id="edge73" class="edge">
<title>n73&#45;&gt;n79</title>
<path fill="none" stroke="#90a4ae" d="M1247.09,-61.2C1266.92,-53 1294.4,-41.63 1316.19,-32.61"/>
<polygon fill="#90a4ae" stroke="#90a4ae" points="1317.55,-35.84 1325.45,-28.78 1314.87,-29.37 1317.55,-35.84"/>
<text text-anchor="middle" x="1267.5" y="-55.6" font-family="Times,serif" font-size="8.00" fill="#90a4ae">a</text>
</g>
<!-- n75 -->
<g id="node76" class="node">
<title>n75</title>
<path fill="#0f1721" stroke="#1c2a3a" d="M1515,-90C1515,-90 1485,-90 1485,-90 1479,-90 1473,-84 1473,-78 1473,-78 1473,-66 1473,-66 1473,-60 1479,-54 1485,-54 1485,-54 1515,-54 1515,-54 1521,-54 1527,-60 1527,-66 1527,-66 1527,-78 1527,-78 1527,-84 1521,-90 1515,-90"/>
</g>
<!-- n74&#45;&gt;n75 -->
<g id="edge70" class="edge">
<title>n74&#45;&gt;n75</title>
<path fill="none" stroke="#90a4ae" d="M1379.51,-72C1402.65,-72 1436.71,-72 1462.56,-72"/>
<polygon fill="#90a4ae" stroke="#90a4ae" points="1462.72,-75.5 1472.72,-72 1462.72,-68.5 1462.72,-75.5"/>
<text text-anchor="middle" x="1445" y="-74.6" font-family="Times,serif" font-size="8.00" fill="#90a4ae">f</text>
</g>
<!-- n78 -->
<g id="node79" class="node">
<title>n78</title>
<path fill="#0f1721" stroke="#1c2a3a" d="M1515,-36C1515,-36 1485,-36 1485,-36 1479,-36 1473,-30 1473,-24 1473,-24 1473,-12 1473,-12 1473,-6 1479,0 1485,0 1485,0 1515,0 1515,0 1521,0 1527,-6 1527,-12 1527,-12 1527,-24 1527,-24 1527,-30 1521,-36 1515,-36"/>
</g>
<!-- n74&#45;&gt;n78 -->
<g id="edge71" class="edge">
<title>n74&#45;&gt;n78</title>
<path fill="none" stroke="#90a4ae" d="M1379.51,-62.35C1402.85,-53.68 1437.32,-40.89 1463.24,-31.27"/>
<polygon fill="#90a4ae" stroke="#90a4ae" points="1464.56,-34.51 1472.72,-27.75 1462.13,-27.95 1464.56,-34.51"/>
<text text-anchor="middle" x="1445" y="-43.6" font-family="Times,serif" font-size="8.00" fill="#90a4ae">a</text>
</g>
<!-- n76 -->
<g id="node77" class="node">
<title>n76</title>
<path fill="#0f1721" stroke="#1c2a3a" d="M1895,-90C1895,-90 1580,-90 1580,-90 1574,-90 1568,-84 1568,-78 1568,-78 1568,-66 1568,-66 1568,-60 1574,-54 1580,-54 1580,-54 1895,-54 1895,-54 1901,-54 1907,-60 1907,-66 1907,-66 1907,-78 1907,-78 1907,-84 1901,-90 1895,-90"/>
<text text-anchor="middle" x="1737.5" y="-69.8" font-family="Times,serif" font-size="9.00" fill="#e6eef7">HeytingLean.ClosingTheLoop.Semantics.FunctorialTime.futureKernel</text>
</g>
<!-- n75&#45;&gt;n76 -->
<g id="edge68" class="edge">
<title>n75&#45;&gt;n76</title>
<path fill="none" stroke="#90a4ae" d="M1527.1,-72C1535.72,-72 1546.04,-72 1557.43,-72"/>
<polygon fill="#90a4ae" stroke="#90a4ae" points="1557.7,-75.5 1567.7,-72 1557.7,-68.5 1557.7,-75.5"/>
<text text-anchor="middle" x="1547.5" y="-74.6" font-family="Times,serif" font-size="8.00" fill="#90a4ae">f</text>
</g>
<!-- n77 -->
<g id="node78" class="node">
<title>n77</title>
<path fill="#0f1721" stroke="#1c2a3a" d="M1752.5,-36C1752.5,-36 1722.5,-36 1722.5,-36 1716.5,-36 1710.5,-30 1710.5,-24 1710.5,-24 1710.5,-12 1710.5,-12 1710.5,-6 1716.5,0 1722.5,0 1722.5,0 1752.5,0 1752.5,0 1758.5,0 1764.5,-6 1764.5,-12 1764.5,-12 1764.5,-24 1764.5,-24 1764.5,-30 1758.5,-36 1752.5,-36"/>
</g>
<!-- n75&#45;&gt;n77 -->
<g id="edge69" class="edge">
<title>n75&#45;&gt;n77</title>
<path fill="none" stroke="#90a4ae" d="M1527.26,-59.83C1539.43,-54.6 1554.23,-48.83 1568,-45 1612.75,-32.57 1665.89,-25.24 1700.35,-21.42"/>
<polygon fill="#90a4ae" stroke="#90a4ae" points="1700.85,-24.89 1710.42,-20.35 1700.11,-17.93 1700.85,-24.89"/>
<text text-anchor="middle" x="1547.5" y="-55.6" font-family="Times,serif" font-size="8.00" fill="#90a4ae">a</text>
</g>
</g>
</svg>
