<?xml version="1.0" encoding="UTF-8" standalone="no"?>
<!DOCTYPE svg PUBLIC "-//W3C//DTD SVG 1.1//EN"
 "http://www.w3.org/Graphics/SVG/1.1/DTD/svg11.dtd">
<!-- Generated by graphviz version 2.43.0 (0)
 -->
<!-- Title: G Pages: 1 -->
<svg width="2412pt" height="471pt"
 viewBox="0.00 0.00 2412.00 471.00" xmlns="http://www.w3.org/2000/svg" xmlns:xlink="http://www.w3.org/1999/xlink">
<g id="graph0" class="graph" transform="scale(1 1) rotate(0) translate(4 467)">
<title>G</title>
<text text-anchor="middle" x="1202" y="-451" font-family="Times,serif" font-size="10.00">HeytingLean.ClosingTheLoop.MR.closeSelector.idem</text>
<!-- n0 -->
<g id="node1" class="node">
<title>n0</title>
<path fill="#0f1721" stroke="#1c2a3a" d="M42,-390C42,-390 12,-390 12,-390 6,-390 0,-384 0,-378 0,-378 0,-366 0,-366 0,-360 6,-354 12,-354 12,-354 42,-354 42,-354 48,-354 54,-360 54,-366 54,-366 54,-378 54,-378 54,-384 48,-390 42,-390"/>
<text text-anchor="middle" x="27" y="-369.8" font-family="Times,serif" font-size="9.00" fill="#e6eef7">∀ S</text>
</g>
<!-- n1 -->
<g id="node2" class="node">
<title>n1</title>
<path fill="#0f1721" stroke="#1c2a3a" d="M322,-417C322,-417 122,-417 122,-417 116,-417 110,-411 110,-405 110,-405 110,-393 110,-393 110,-387 116,-381 122,-381 122,-381 322,-381 322,-381 328,-381 334,-387 334,-393 334,-393 334,-405 334,-405 334,-411 328,-417 322,-417"/>
<text text-anchor="middle" x="222" y="-396.8" font-family="Times,serif" font-size="9.00" fill="#e6eef7">HeytingLean.ClosingTheLoop.MR.MRSystem</text>
</g>
<!-- n0&#45;&gt;n1 -->
<g id="edge1" class="edge">
<title>n0&#45;&gt;n1</title>
<path fill="none" stroke="#90a4ae" d="M54.03,-375.64C66.5,-377.39 82.43,-379.61 99.47,-382"/>
<polygon fill="#90a4ae" stroke="#90a4ae" points="99.23,-385.5 109.62,-383.42 100.2,-378.57 99.23,-385.5"/>
<text text-anchor="middle" x="82" y="-382.6" font-family="Times,serif" font-size="8.00" fill="#90a4ae">ty</text>
</g>
<!-- n2 -->
<g id="node3" class="node">
<title>n2</title>
<path fill="#0f1721" stroke="#1c2a3a" d="M237,-363C237,-363 207,-363 207,-363 201,-363 195,-357 195,-351 195,-351 195,-339 195,-339 195,-333 201,-327 207,-327 207,-327 237,-327 237,-327 243,-327 249,-333 249,-339 249,-339 249,-351 249,-351 249,-357 243,-363 237,-363"/>
<text text-anchor="middle" x="222" y="-342.8" font-family="Times,serif" font-size="9.00" fill="#e6eef7">∀ b</text>
</g>
<!-- n0&#45;&gt;n2 -->
<g id="edge48" class="edge">
<title>n0&#45;&gt;n2</title>
<path fill="none" stroke="#90a4ae" d="M54.04,-367.75C59.94,-366.82 66.18,-365.85 72,-365 110.46,-359.36 154.6,-353.51 184.8,-349.61"/>
<polygon fill="#90a4ae" stroke="#90a4ae" points="185.39,-353.06 194.86,-348.31 184.5,-346.12 185.39,-353.06"/>
<text text-anchor="middle" x="82" y="-367.6" font-family="Times,serif" font-size="8.00" fill="#90a4ae">body</text>
</g>
<!-- n3 -->
<g id="node4" class="node">
<title>n3</title>
<path fill="#0f1721" stroke="#1c2a3a" d="M432,-390C432,-390 402,-390 402,-390 396,-390 390,-384 390,-378 390,-378 390,-366 390,-366 390,-360 396,-354 402,-354 402,-354 432,-354 432,-354 438,-354 444,-360 444,-366 444,-366 444,-378 444,-378 444,-384 438,-390 432,-390"/>
</g>
<!-- n2&#45;&gt;n3 -->
<g id="edge4" class="edge">
<title>n2&#45;&gt;n3</title>
<path fill="none" stroke="#90a4ae" d="M249.03,-348.64C282.7,-353.35 341.54,-361.58 379.62,-366.91"/>
<polygon fill="#90a4ae" stroke="#90a4ae" points="379.38,-370.41 389.77,-368.33 380.35,-363.48 379.38,-370.41"/>
<text text-anchor="middle" x="362" y="-367.6" font-family="Times,serif" font-size="8.00" fill="#90a4ae">ty</text>
</g>
<!-- n6 -->
<g id="node7" class="node">
<title>n6</title>
<path fill="#0f1721" stroke="#1c2a3a" d="M432,-336C432,-336 402,-336 402,-336 396,-336 390,-330 390,-324 390,-324 390,-312 390,-312 390,-306 396,-300 402,-300 402,-300 432,-300 432,-300 438,-300 444,-306 444,-312 444,-312 444,-324 444,-324 444,-330 438,-336 432,-336"/>
<text text-anchor="middle" x="417" y="-315.8" font-family="Times,serif" font-size="9.00" fill="#e6eef7">∀ RI</text>
</g>
<!-- n2&#45;&gt;n6 -->
<g id="edge47" class="edge">
<title>n2&#45;&gt;n6</title>
<path fill="none" stroke="#90a4ae" d="M249.03,-341.36C282.7,-336.65 341.54,-328.42 379.62,-323.09"/>
<polygon fill="#90a4ae" stroke="#90a4ae" points="380.35,-326.52 389.77,-321.67 379.38,-319.59 380.35,-326.52"/>
<text text-anchor="middle" x="362" y="-328.6" font-family="Times,serif" font-size="8.00" fill="#90a4ae">body</text>
</g>
<!-- n4 -->
<g id="node5" class="node">
<title>n4</title>
<path fill="#0f1721" stroke="#1c2a3a" d="M721,-444C721,-444 512,-444 512,-444 506,-444 500,-438 500,-432 500,-432 500,-420 500,-420 500,-414 506,-408 512,-408 512,-408 721,-408 721,-408 727,-408 733,-414 733,-420 733,-420 733,-432 733,-432 733,-438 727,-444 721,-444"/>
<text text-anchor="middle" x="616.5" y="-423.8" font-family="Times,serif" font-size="9.00" fill="#e6eef7">HeytingLean.ClosingTheLoop.MR.MRSystem.B</text>
</g>
<!-- n3&#45;&gt;n4 -->
<g id="edge2" class="edge">
<title>n3&#45;&gt;n4</title>
<path fill="none" stroke="#90a4ae" d="M444.04,-381.23C460.07,-386.74 481.1,-393.69 500,-399 507.91,-401.22 516.16,-403.41 524.45,-405.51"/>
<polygon fill="#90a4ae" stroke="#90a4ae" points="523.63,-408.92 534.18,-407.94 525.33,-402.12 523.63,-408.92"/>
<text text-anchor="middle" x="472" y="-395.6" font-family="Times,serif" font-size="8.00" fill="#90a4ae">f</text>
</g>
<!-- n5 -->
<g id="node6" class="node">
<title>n5</title>
<path fill="#0f1721" stroke="#1c2a3a" d="M631.5,-390C631.5,-390 601.5,-390 601.5,-390 595.5,-390 589.5,-384 589.5,-378 589.5,-378 589.5,-366 589.5,-366 589.5,-360 595.5,-354 601.5,-354 601.5,-354 631.5,-354 631.5,-354 637.5,-354 643.5,-360 643.5,-366 643.5,-366 643.5,-378 643.5,-378 643.5,-384 637.5,-390 631.5,-390"/>
</g>
<!-- n3&#45;&gt;n5 -->
<g id="edge3" class="edge">
<title>n3&#45;&gt;n5</title>
<path fill="none" stroke="#90a4ae" d="M444.23,-372C478.85,-372 539.99,-372 579.08,-372"/>
<polygon fill="#90a4ae" stroke="#90a4ae" points="579.48,-375.5 589.48,-372 579.48,-368.5 579.48,-375.5"/>
<text text-anchor="middle" x="472" y="-374.6" font-family="Times,serif" font-size="8.00" fill="#90a4ae">a</text>
</g>
<!-- n7 -->
<g id="node8" class="node">
<title>n7</title>
<path fill="#0f1721" stroke="#1c2a3a" d="M631.5,-336C631.5,-336 601.5,-336 601.5,-336 595.5,-336 589.5,-330 589.5,-324 589.5,-324 589.5,-312 589.5,-312 589.5,-306 595.5,-300 601.5,-300 601.5,-300 631.5,-300 631.5,-300 637.5,-300 643.5,-306 643.5,-312 643.5,-312 643.5,-324 643.5,-324 643.5,-330 637.5,-336 631.5,-336"/>
</g>
<!-- n6&#45;&gt;n7 -->
<g id="edge9" class="edge">
<title>n6&#45;&gt;n7</title>
<path fill="none" stroke="#90a4ae" d="M444.23,-318C478.85,-318 539.99,-318 579.08,-318"/>
<polygon fill="#90a4ae" stroke="#90a4ae" points="579.48,-321.5 589.48,-318 579.48,-314.5 579.48,-321.5"/>
<text text-anchor="middle" x="472" y="-320.6" font-family="Times,serif" font-size="8.00" fill="#90a4ae">ty</text>
</g>
<!-- n12 -->
<g id="node13" class="node">
<title>n12</title>
<path fill="#0f1721" stroke="#1c2a3a" d="M631.5,-282C631.5,-282 601.5,-282 601.5,-282 595.5,-282 589.5,-276 589.5,-270 589.5,-270 589.5,-258 589.5,-258 589.5,-252 595.5,-246 601.5,-246 601.5,-246 631.5,-246 631.5,-246 637.5,-246 643.5,-252 643.5,-258 643.5,-258 643.5,-270 643.5,-270 643.5,-276 637.5,-282 631.5,-282"/>
<text text-anchor="middle" x="616.5" y="-261.8" font-family="Times,serif" font-size="9.00" fill="#e6eef7">∀ Φ</text>
</g>
<!-- n6&#45;&gt;n12 -->
<g id="edge46" class="edge">
<title>n6&#45;&gt;n12</title>
<path fill="none" stroke="#90a4ae" d="M444.04,-308.77C460.07,-303.26 481.1,-296.31 500,-291 526.3,-283.61 556.37,-276.63 579.23,-271.62"/>
<polygon fill="#90a4ae" stroke="#90a4ae" points="580.15,-275 589.18,-269.46 578.67,-268.16 580.15,-275"/>
<text text-anchor="middle" x="472" y="-304.6" font-family="Times,serif" font-size="8.00" fill="#90a4ae">body</text>
</g>
<!-- n8 -->
<g id="node9" class="node">
<title>n8</title>
<path fill="#0f1721" stroke="#1c2a3a" d="M831,-390C831,-390 801,-390 801,-390 795,-390 789,-384 789,-378 789,-378 789,-366 789,-366 789,-360 795,-354 801,-354 801,-354 831,-354 831,-354 837,-354 843,-360 843,-366 843,-366 843,-378 843,-378 843,-384 837,-390 831,-390"/>
</g>
<!-- n7&#45;&gt;n8 -->
<g id="edge7" class="edge">
<title>n7&#45;&gt;n8</title>
<path fill="none" stroke="#90a4ae" d="M643.82,-323.46C667.34,-328.5 702.67,-336.48 733,-345 748.36,-349.31 765.12,-354.71 779.46,-359.54"/>
<polygon fill="#90a4ae" stroke="#90a4ae" points="778.37,-362.86 788.96,-362.77 780.62,-356.24 778.37,-362.86"/>
<text text-anchor="middle" x="761" y="-358.6" font-family="Times,serif" font-size="8.00" fill="#90a4ae">f</text>
</g>
<!-- n11 -->
<g id="node12" class="node">
<title>n11</title>
<path fill="#0f1721" stroke="#1c2a3a" d="M831,-336C831,-336 801,-336 801,-336 795,-336 789,-330 789,-324 789,-324 789,-312 789,-312 789,-306 795,-300 801,-300 801,-300 831,-300 831,-300 837,-300 843,-306 843,-312 843,-312 843,-324 843,-324 843,-330 837,-336 831,-336"/>
</g>
<!-- n7&#45;&gt;n11 -->
<g id="edge8" class="edge">
<title>n7&#45;&gt;n11</title>
<path fill="none" stroke="#90a4ae" d="M643.73,-318C678.35,-318 739.49,-318 778.58,-318"/>
<polygon fill="#90a4ae" stroke="#90a4ae" points="778.98,-321.5 788.98,-318 778.98,-314.5 778.98,-321.5"/>
<text text-anchor="middle" x="761" y="-320.6" font-family="Times,serif" font-size="8.00" fill="#90a4ae">a</text>
</g>
<!-- n9 -->
<g id="node10" class="node">
<title>n9</title>
<path fill="#0f1721" stroke="#1c2a3a" d="M1117,-444C1117,-444 896,-444 896,-444 890,-444 884,-438 884,-432 884,-432 884,-420 884,-420 884,-414 890,-408 896,-408 896,-408 1117,-408 1117,-408 1123,-408 1129,-414 1129,-420 1129,-420 1129,-432 1129,-432 1129,-438 1123,-444 1117,-444"/>
<text text-anchor="middle" x="1006.5" y="-423.8" font-family="Times,serif" font-size="9.00" fill="#e6eef7">HeytingLean.ClosingTheLoop.MR.RightInverseAt</text>
</g>
<!-- n8&#45;&gt;n9 -->
<g id="edge5" class="edge">
<title>n8&#45;&gt;n9</title>
<path fill="none" stroke="#90a4ae" d="M843.05,-383.66C855.31,-388.84 870.23,-394.73 884,-399 891.33,-401.27 898.96,-403.44 906.67,-405.47"/>
<polygon fill="#90a4ae" stroke="#90a4ae" points="905.91,-408.89 916.47,-407.99 907.65,-402.11 905.91,-408.89"/>
<text text-anchor="middle" x="863.5" y="-394.6" font-family="Times,serif" font-size="8.00" fill="#90a4ae">f</text>
</g>
<!-- n10 -->
<g id="node11" class="node">
<title>n10</title>
<path fill="#0f1721" stroke="#1c2a3a" d="M1021.5,-390C1021.5,-390 991.5,-390 991.5,-390 985.5,-390 979.5,-384 979.5,-378 979.5,-378 979.5,-366 979.5,-366 979.5,-360 985.5,-354 991.5,-354 991.5,-354 1021.5,-354 1021.5,-354 1027.5,-354 1033.5,-360 1033.5,-366 1033.5,-366 1033.5,-378 1033.5,-378 1033.5,-384 1027.5,-390 1021.5,-390"/>
</g>
<!-- n8&#45;&gt;n10 -->
<g id="edge6" class="edge">
<title>n8&#45;&gt;n10</title>
<path fill="none" stroke="#90a4ae" d="M843.21,-372C875.9,-372 931.96,-372 968.88,-372"/>
<polygon fill="#90a4ae" stroke="#90a4ae" points="969.21,-375.5 979.21,-372 969.21,-368.5 969.21,-375.5"/>
<text text-anchor="middle" x="863.5" y="-374.6" font-family="Times,serif" font-size="8.00" fill="#90a4ae">a</text>
</g>
<!-- n13 -->
<g id="node14" class="node">
<title>n13</title>
<path fill="#0f1721" stroke="#1c2a3a" d="M831,-282C831,-282 801,-282 801,-282 795,-282 789,-276 789,-270 789,-270 789,-258 789,-258 789,-252 795,-246 801,-246 801,-246 831,-246 831,-246 837,-246 843,-252 843,-258 843,-258 843,-270 843,-270 843,-276 837,-282 831,-282"/>
</g>
<!-- n12&#45;&gt;n13 -->
<g id="edge12" class="edge">
<title>n12&#45;&gt;n13</title>
<path fill="none" stroke="#90a4ae" d="M643.73,-264C678.35,-264 739.49,-264 778.58,-264"/>
<polygon fill="#90a4ae" stroke="#90a4ae" points="778.98,-267.5 788.98,-264 778.98,-260.5 778.98,-267.5"/>
<text text-anchor="middle" x="761" y="-266.6" font-family="Times,serif" font-size="8.00" fill="#90a4ae">ty</text>
</g>
<!-- n16 -->
<g id="node17" class="node">
<title>n16</title>
<path fill="#0f1721" stroke="#1c2a3a" d="M831,-228C831,-228 801,-228 801,-228 795,-228 789,-222 789,-216 789,-216 789,-204 789,-204 789,-198 795,-192 801,-192 801,-192 831,-192 831,-192 837,-192 843,-198 843,-204 843,-204 843,-216 843,-216 843,-222 837,-228 831,-228"/>
</g>
<!-- n12&#45;&gt;n16 -->
<g id="edge45" class="edge">
<title>n12&#45;&gt;n16</title>
<path fill="none" stroke="#90a4ae" d="M643.73,-256.83C678.5,-247.32 740.01,-230.5 779.08,-219.82"/>
<polygon fill="#90a4ae" stroke="#90a4ae" points="780.26,-223.13 788.98,-217.11 778.41,-216.38 780.26,-223.13"/>
<text text-anchor="middle" x="761" y="-229.6" font-family="Times,serif" font-size="8.00" fill="#90a4ae">body</text>
</g>
<!-- n14 -->
<g id="node15" class="node">
<title>n14</title>
<path fill="#0f1721" stroke="#1c2a3a" d="M1101,-336C1101,-336 912,-336 912,-336 906,-336 900,-330 900,-324 900,-324 900,-312 900,-312 900,-306 906,-300 912,-300 912,-300 1101,-300 1101,-300 1107,-300 1113,-306 1113,-312 1113,-312 1113,-324 1113,-324 1113,-330 1107,-336 1101,-336"/>
<text text-anchor="middle" x="1006.5" y="-315.8" font-family="Times,serif" font-size="9.00" fill="#e6eef7">HeytingLean.ClosingTheLoop.MR.Selector</text>
</g>
<!-- n13&#45;&gt;n14 -->
<g id="edge10" class="edge">
<title>n13&#45;&gt;n14</title>
<path fill="none" stroke="#90a4ae" d="M843.05,-275.66C855.31,-280.84 870.23,-286.73 884,-291 891.33,-293.27 898.96,-295.44 906.67,-297.47"/>
<polygon fill="#90a4ae" stroke="#90a4ae" points="905.91,-300.89 916.47,-299.99 907.65,-294.11 905.91,-300.89"/>
<text text-anchor="middle" x="863.5" y="-286.6" font-family="Times,serif" font-size="8.00" fill="#90a4ae">f</text>
</g>
<!-- n15 -->
<g id="node16" class="node">
<title>n15</title>
<path fill="#0f1721" stroke="#1c2a3a" d="M1021.5,-282C1021.5,-282 991.5,-282 991.5,-282 985.5,-282 979.5,-276 979.5,-270 979.5,-270 979.5,-258 979.5,-258 979.5,-252 985.5,-246 991.5,-246 991.5,-246 1021.5,-246 1021.5,-246 1027.5,-246 1033.5,-252 1033.5,-258 1033.5,-258 1033.5,-270 1033.5,-270 1033.5,-276 1027.5,-282 1021.5,-282"/>
</g>
<!-- n13&#45;&gt;n15 -->
<g id="edge11" class="edge">
<title>n13&#45;&gt;n15</title>
<path fill="none" stroke="#90a4ae" d="M843.21,-264C875.9,-264 931.96,-264 968.88,-264"/>
<polygon fill="#90a4ae" stroke="#90a4ae" points="969.21,-267.5 979.21,-264 969.21,-260.5 969.21,-267.5"/>
<text text-anchor="middle" x="863.5" y="-266.6" font-family="Times,serif" font-size="8.00" fill="#90a4ae">a</text>
</g>
<!-- n17 -->
<g id="node18" class="node">
<title>n17</title>
<path fill="#0f1721" stroke="#1c2a3a" d="M1021.5,-228C1021.5,-228 991.5,-228 991.5,-228 985.5,-228 979.5,-222 979.5,-216 979.5,-216 979.5,-204 979.5,-204 979.5,-198 985.5,-192 991.5,-192 991.5,-192 1021.5,-192 1021.5,-192 1027.5,-192 1033.5,-198 1033.5,-204 1033.5,-204 1033.5,-216 1033.5,-216 1033.5,-222 1027.5,-228 1021.5,-228"/>
</g>
<!-- n16&#45;&gt;n17 -->
<g id="edge35" class="edge">
<title>n16&#45;&gt;n17</title>
<path fill="none" stroke="#90a4ae" d="M843.21,-210C875.9,-210 931.96,-210 968.88,-210"/>
<polygon fill="#90a4ae" stroke="#90a4ae" points="969.21,-213.5 979.21,-210 969.21,-206.5 969.21,-213.5"/>
<text text-anchor="middle" x="863.5" y="-212.6" font-family="Times,serif" font-size="8.00" fill="#90a4ae">f</text>
</g>
<!-- n40 -->
<g id="node41" class="node">
<title>n40</title>
<path fill="#0f1721" stroke="#1c2a3a" d="M1021.5,-90C1021.5,-90 991.5,-90 991.5,-90 985.5,-90 979.5,-84 979.5,-78 979.5,-78 979.5,-66 979.5,-66 979.5,-60 985.5,-54 991.5,-54 991.5,-54 1021.5,-54 1021.5,-54 1027.5,-54 1033.5,-60 1033.5,-66 1033.5,-66 1033.5,-78 1033.5,-78 1033.5,-84 1027.5,-90 1021.5,-90"/>
</g>
<!-- n16&#45;&gt;n40 -->
<g id="edge44" class="edge">
<title>n16&#45;&gt;n40</title>
<path fill="none" stroke="#90a4ae" d="M841.64,-191.96C875.09,-167.47 934.95,-123.65 972.32,-96.29"/>
<polygon fill="#90a4ae" stroke="#90a4ae" points="974.85,-98.78 980.85,-90.05 970.71,-93.13 974.85,-98.78"/>
<text text-anchor="middle" x="863.5" y="-178.6" font-family="Times,serif" font-size="8.00" fill="#90a4ae">a</text>
</g>
<!-- n18 -->
<g id="node19" class="node">
<title>n18</title>
<path fill="#0f1721" stroke="#1c2a3a" d="M1212,-360C1212,-360 1182,-360 1182,-360 1176,-360 1170,-354 1170,-348 1170,-348 1170,-336 1170,-336 1170,-330 1176,-324 1182,-324 1182,-324 1212,-324 1212,-324 1218,-324 1224,-330 1224,-336 1224,-336 1224,-348 1224,-348 1224,-354 1218,-360 1212,-360"/>
</g>
<!-- n17&#45;&gt;n18 -->
<g id="edge17" class="edge">
<title>n17&#45;&gt;n18</title>
<path fill="none" stroke="#90a4ae" d="M1033.5,-210.15C1059.79,-211.51 1100.5,-217.05 1129,-237 1156.25,-256.07 1174.94,-290.13 1185.52,-314.28"/>
<polygon fill="#90a4ae" stroke="#90a4ae" points="1182.34,-315.76 1189.43,-323.63 1188.8,-313.06 1182.34,-315.76"/>
<text text-anchor="middle" x="1149.5" y="-259.6" font-family="Times,serif" font-size="8.00" fill="#90a4ae">f</text>
</g>
<!-- n23 -->
<g id="node24" class="node">
<title>n23</title>
<path fill="#0f1721" stroke="#1c2a3a" d="M1212,-228C1212,-228 1182,-228 1182,-228 1176,-228 1170,-222 1170,-216 1170,-216 1170,-204 1170,-204 1170,-198 1176,-192 1182,-192 1182,-192 1212,-192 1212,-192 1218,-192 1224,-198 1224,-204 1224,-204 1224,-216 1224,-216 1224,-222 1218,-228 1212,-228"/>
</g>
<!-- n17&#45;&gt;n23 -->
<g id="edge34" class="edge">
<title>n17&#45;&gt;n23</title>
<path fill="none" stroke="#90a4ae" d="M1033.71,-210C1066.4,-210 1122.46,-210 1159.38,-210"/>
<polygon fill="#90a4ae" stroke="#90a4ae" points="1159.71,-213.5 1169.71,-210 1159.71,-206.5 1159.71,-213.5"/>
<text text-anchor="middle" x="1149.5" y="-212.6" font-family="Times,serif" font-size="8.00" fill="#90a4ae">a</text>
</g>
<!-- n19 -->
<g id="node20" class="node">
<title>n19</title>
<path fill="#0f1721" stroke="#1c2a3a" d="M1307,-414C1307,-414 1277,-414 1277,-414 1271,-414 1265,-408 1265,-402 1265,-402 1265,-390 1265,-390 1265,-384 1271,-378 1277,-378 1277,-378 1307,-378 1307,-378 1313,-378 1319,-384 1319,-390 1319,-390 1319,-402 1319,-402 1319,-408 1313,-414 1307,-414"/>
<text text-anchor="middle" x="1292" y="-393.8" font-family="Times,serif" font-size="9.00" fill="#e6eef7">Eq</text>
</g>
<!-- n18&#45;&gt;n19 -->
<g id="edge13" class="edge">
<title>n18&#45;&gt;n19</title>
<path fill="none" stroke="#90a4ae" d="M1224.4,-357.33C1234.2,-363.02 1245.48,-369.57 1255.94,-375.64"/>
<polygon fill="#90a4ae" stroke="#90a4ae" points="1254.45,-378.82 1264.85,-380.82 1257.96,-372.77 1254.45,-378.82"/>
<text text-anchor="middle" x="1244.5" y="-371.6" font-family="Times,serif" font-size="8.00" fill="#90a4ae">f</text>
</g>
<!-- n20 -->
<g id="node21" class="node">
<title>n20</title>
<path fill="#0f1721" stroke="#1c2a3a" d="M1307,-360C1307,-360 1277,-360 1277,-360 1271,-360 1265,-354 1265,-348 1265,-348 1265,-336 1265,-336 1265,-330 1271,-324 1277,-324 1277,-324 1307,-324 1307,-324 1313,-324 1319,-330 1319,-336 1319,-336 1319,-348 1319,-348 1319,-354 1313,-360 1307,-360"/>
</g>
<!-- n18&#45;&gt;n20 -->
<g id="edge16" class="edge">
<title>n18&#45;&gt;n20</title>
<path fill="none" stroke="#90a4ae" d="M1224.4,-342C1233.81,-342 1244.57,-342 1254.66,-342"/>
<polygon fill="#90a4ae" stroke="#90a4ae" points="1254.85,-345.5 1264.85,-342 1254.85,-338.5 1254.85,-345.5"/>
<text text-anchor="middle" x="1244.5" y="-344.6" font-family="Times,serif" font-size="8.00" fill="#90a4ae">a</text>
</g>
<!-- n21 -->
<g id="node22" class="node">
<title>n21</title>
<path fill="#0f1721" stroke="#1c2a3a" d="M1561,-414C1561,-414 1372,-414 1372,-414 1366,-414 1360,-408 1360,-402 1360,-402 1360,-390 1360,-390 1360,-384 1366,-378 1372,-378 1372,-378 1561,-378 1561,-378 1567,-378 1573,-384 1573,-390 1573,-390 1573,-402 1573,-402 1573,-408 1567,-414 1561,-414"/>
<text text-anchor="middle" x="1466.5" y="-393.8" font-family="Times,serif" font-size="9.00" fill="#e6eef7">HeytingLean.ClosingTheLoop.MR.Selector</text>
</g>
<!-- n20&#45;&gt;n21 -->
<g id="edge14" class="edge">
<title>n20&#45;&gt;n21</title>
<path fill="none" stroke="#90a4ae" d="M1319.11,-353.46C1331.38,-358.6 1346.3,-364.51 1360,-369 1366.46,-371.12 1373.18,-373.17 1379.97,-375.14"/>
<polygon fill="#90a4ae" stroke="#90a4ae" points="1379.36,-378.61 1389.94,-377.96 1381.27,-371.87 1379.36,-378.61"/>
<text text-anchor="middle" x="1339.5" y="-364.6" font-family="Times,serif" font-size="8.00" fill="#90a4ae">f</text>
</g>
<!-- n22 -->
<g id="node23" class="node">
<title>n22</title>
<path fill="#0f1721" stroke="#1c2a3a" d="M1481.5,-360C1481.5,-360 1451.5,-360 1451.5,-360 1445.5,-360 1439.5,-354 1439.5,-348 1439.5,-348 1439.5,-336 1439.5,-336 1439.5,-330 1445.5,-324 1451.5,-324 1451.5,-324 1481.5,-324 1481.5,-324 1487.5,-324 1493.5,-330 1493.5,-336 1493.5,-336 1493.5,-348 1493.5,-348 1493.5,-354 1487.5,-360 1481.5,-360"/>
</g>
<!-- n20&#45;&gt;n22 -->
<g id="edge15" class="edge">
<title>n20&#45;&gt;n22</title>
<path fill="none" stroke="#90a4ae" d="M1319.2,-342C1348.54,-342 1396.29,-342 1429.21,-342"/>
<polygon fill="#90a4ae" stroke="#90a4ae" points="1429.34,-345.5 1439.34,-342 1429.34,-338.5 1429.34,-345.5"/>
<text text-anchor="middle" x="1339.5" y="-344.6" font-family="Times,serif" font-size="8.00" fill="#90a4ae">a</text>
</g>
<!-- n24 -->
<g id="node25" class="node">
<title>n24</title>
<path fill="#0f1721" stroke="#1c2a3a" d="M1307,-252C1307,-252 1277,-252 1277,-252 1271,-252 1265,-246 1265,-240 1265,-240 1265,-228 1265,-228 1265,-222 1271,-216 1277,-216 1277,-216 1307,-216 1307,-216 1313,-216 1319,-222 1319,-228 1319,-228 1319,-240 1319,-240 1319,-246 1313,-252 1307,-252"/>
</g>
<!-- n23&#45;&gt;n24 -->
<g id="edge24" class="edge">
<title>n23&#45;&gt;n24</title>
<path fill="none" stroke="#90a4ae" d="M1224.4,-216.81C1233.91,-219.27 1244.8,-222.08 1254.98,-224.71"/>
<polygon fill="#90a4ae" stroke="#90a4ae" points="1254.3,-228.14 1264.85,-227.25 1256.05,-221.36 1254.3,-228.14"/>
<text text-anchor="middle" x="1244.5" y="-224.6" font-family="Times,serif" font-size="8.00" fill="#90a4ae">f</text>
</g>
<!-- n31 -->
<g id="node32" class="node">
<title>n31</title>
<path fill="#0f1721" stroke="#1c2a3a" d="M1307,-198C1307,-198 1277,-198 1277,-198 1271,-198 1265,-192 1265,-186 1265,-186 1265,-174 1265,-174 1265,-168 1271,-162 1277,-162 1277,-162 1307,-162 1307,-162 1313,-162 1319,-168 1319,-174 1319,-174 1319,-186 1319,-186 1319,-192 1313,-198 1307,-198"/>
</g>
<!-- n23&#45;&gt;n31 -->
<g id="edge33" class="edge">
<title>n23&#45;&gt;n31</title>
<path fill="none" stroke="#90a4ae" d="M1224.4,-201.48C1234.01,-198.39 1245.03,-194.83 1255.3,-191.52"/>
<polygon fill="#90a4ae" stroke="#90a4ae" points="1256.41,-194.84 1264.85,-188.43 1254.26,-188.17 1256.41,-194.84"/>
<text text-anchor="middle" x="1244.5" y="-197.6" font-family="Times,serif" font-size="8.00" fill="#90a4ae">a</text>
</g>
<!-- n25 -->
<g id="node26" class="node">
<title>n25</title>
<path fill="#0f1721" stroke="#1c2a3a" d="M1481.5,-306C1481.5,-306 1451.5,-306 1451.5,-306 1445.5,-306 1439.5,-300 1439.5,-294 1439.5,-294 1439.5,-282 1439.5,-282 1439.5,-276 1445.5,-270 1451.5,-270 1451.5,-270 1481.5,-270 1481.5,-270 1487.5,-270 1493.5,-276 1493.5,-282 1493.5,-282 1493.5,-294 1493.5,-294 1493.5,-300 1487.5,-306 1481.5,-306"/>
</g>
<!-- n24&#45;&gt;n25 -->
<g id="edge22" class="edge">
<title>n24&#45;&gt;n25</title>
<path fill="none" stroke="#90a4ae" d="M1319.11,-245.46C1331.38,-250.6 1346.3,-256.51 1360,-261 1382.75,-268.46 1408.8,-275.14 1429.32,-280"/>
<polygon fill="#90a4ae" stroke="#90a4ae" points="1428.68,-283.44 1439.21,-282.29 1430.26,-276.62 1428.68,-283.44"/>
<text text-anchor="middle" x="1339.5" y="-256.6" font-family="Times,serif" font-size="8.00" fill="#90a4ae">f</text>
</g>
<!-- n30 -->
<g id="node31" class="node">
<title>n30</title>
<path fill="#0f1721" stroke="#1c2a3a" d="M1481.5,-252C1481.5,-252 1451.5,-252 1451.5,-252 1445.5,-252 1439.5,-246 1439.5,-240 1439.5,-240 1439.5,-228 1439.5,-228 1439.5,-222 1445.5,-216 1451.5,-216 1451.5,-216 1481.5,-216 1481.5,-216 1487.5,-216 1493.5,-222 1493.5,-228 1493.5,-228 1493.5,-240 1493.5,-240 1493.5,-246 1487.5,-252 1481.5,-252"/>
</g>
<!-- n24&#45;&gt;n30 -->
<g id="edge23" class="edge">
<title>n24&#45;&gt;n30</title>
<path fill="none" stroke="#90a4ae" d="M1319.2,-234C1348.54,-234 1396.29,-234 1429.21,-234"/>
<polygon fill="#90a4ae" stroke="#90a4ae" points="1429.34,-237.5 1439.34,-234 1429.34,-230.5 1429.34,-237.5"/>
<text text-anchor="middle" x="1339.5" y="-236.6" font-family="Times,serif" font-size="8.00" fill="#90a4ae">a</text>
</g>
<!-- n26 -->
<g id="node27" class="node">
<title>n26</title>
<path fill="#0f1721" stroke="#1c2a3a" d="M1747,-341C1747,-341 1717,-341 1717,-341 1711,-341 1705,-335 1705,-329 1705,-329 1705,-317 1705,-317 1705,-311 1711,-305 1717,-305 1717,-305 1747,-305 1747,-305 1753,-305 1759,-311 1759,-317 1759,-317 1759,-329 1759,-329 1759,-335 1753,-341 1747,-341"/>
</g>
<!-- n25&#45;&gt;n26 -->
<g id="edge20" class="edge">
<title>n25&#45;&gt;n26</title>
<path fill="none" stroke="#90a4ae" d="M1493.73,-291.48C1541.08,-297.77 1640.91,-311.03 1694.75,-318.19"/>
<polygon fill="#90a4ae" stroke="#90a4ae" points="1694.5,-321.68 1704.88,-319.53 1695.43,-314.74 1694.5,-321.68"/>
<text text-anchor="middle" x="1593.5" y="-306.6" font-family="Times,serif" font-size="8.00" fill="#90a4ae">f</text>
</g>
<!-- n29 -->
<g id="node30" class="node">
<title>n29</title>
<path fill="#0f1721" stroke="#1c2a3a" d="M1747,-287C1747,-287 1717,-287 1717,-287 1711,-287 1705,-281 1705,-275 1705,-275 1705,-263 1705,-263 1705,-257 1711,-251 1717,-251 1717,-251 1747,-251 1747,-251 1753,-251 1759,-257 1759,-263 1759,-263 1759,-275 1759,-275 1759,-281 1753,-287 1747,-287"/>
</g>
<!-- n25&#45;&gt;n29 -->
<g id="edge21" class="edge">
<title>n25&#45;&gt;n29</title>
<path fill="none" stroke="#90a4ae" d="M1493.96,-284.73C1518.94,-281.77 1557.46,-277.48 1591,-275 1626.17,-272.4 1666.41,-270.82 1694.69,-269.94"/>
<polygon fill="#90a4ae" stroke="#90a4ae" points="1695.02,-273.43 1704.91,-269.63 1694.81,-266.43 1695.02,-273.43"/>
<text text-anchor="middle" x="1593.5" y="-277.6" font-family="Times,serif" font-size="8.00" fill="#90a4ae">a</text>
</g>
<!-- n27 -->
<g id="node28" class="node">
<title>n27</title>
<path fill="#0f1721" stroke="#1c2a3a" d="M2115,-350C2115,-350 1903,-350 1903,-350 1897,-350 1891,-344 1891,-338 1891,-338 1891,-326 1891,-326 1891,-320 1897,-314 1903,-314 1903,-314 2115,-314 2115,-314 2121,-314 2127,-320 2127,-326 2127,-326 2127,-338 2127,-338 2127,-344 2121,-350 2115,-350"/>
<text text-anchor="middle" x="2009" y="-329.8" font-family="Times,serif" font-size="9.00" fill="#e6eef7">HeytingLean.ClosingTheLoop.MR.closeSelector</text>
</g>
<!-- n26&#45;&gt;n27 -->
<g id="edge18" class="edge">
<title>n26&#45;&gt;n27</title>
<path fill="none" stroke="#90a4ae" d="M1759.37,-323.86C1787.74,-324.79 1834.95,-326.34 1880.66,-327.83"/>
<polygon fill="#90a4ae" stroke="#90a4ae" points="1880.59,-331.33 1890.69,-328.16 1880.81,-324.34 1880.59,-331.33"/>
<text text-anchor="middle" x="1870.5" y="-329.6" font-family="Times,serif" font-size="8.00" fill="#90a4ae">f</text>
</g>
<!-- n28 -->
<g id="node29" class="node">
<title>n28</title>
<path fill="#0f1721" stroke="#1c2a3a" d="M2024,-296C2024,-296 1994,-296 1994,-296 1988,-296 1982,-290 1982,-284 1982,-284 1982,-272 1982,-272 1982,-266 1988,-260 1994,-260 1994,-260 2024,-260 2024,-260 2030,-260 2036,-266 2036,-272 2036,-272 2036,-284 2036,-284 2036,-290 2030,-296 2024,-296"/>
</g>
<!-- n26&#45;&gt;n28 -->
<g id="edge19" class="edge">
<title>n26&#45;&gt;n28</title>
<path fill="none" stroke="#90a4ae" d="M1759.37,-318.69C1808.85,-310.59 1915.69,-293.1 1971.84,-283.92"/>
<polygon fill="#90a4ae" stroke="#90a4ae" points="1972.41,-287.37 1981.71,-282.3 1971.28,-280.46 1972.41,-287.37"/>
<text text-anchor="middle" x="1870.5" y="-302.6" font-family="Times,serif" font-size="8.00" fill="#90a4ae">a</text>
</g>
<!-- n32 -->
<g id="node33" class="node">
<title>n32</title>
<path fill="#0f1721" stroke="#1c2a3a" d="M1481.5,-198C1481.5,-198 1451.5,-198 1451.5,-198 1445.5,-198 1439.5,-192 1439.5,-186 1439.5,-186 1439.5,-174 1439.5,-174 1439.5,-168 1445.5,-162 1451.5,-162 1451.5,-162 1481.5,-162 1481.5,-162 1487.5,-162 1493.5,-168 1493.5,-174 1493.5,-174 1493.5,-186 1493.5,-186 1493.5,-192 1487.5,-198 1481.5,-198"/>
</g>
<!-- n31&#45;&gt;n32 -->
<g id="edge31" class="edge">
<title>n31&#45;&gt;n32</title>
<path fill="none" stroke="#90a4ae" d="M1319.2,-180C1348.54,-180 1396.29,-180 1429.21,-180"/>
<polygon fill="#90a4ae" stroke="#90a4ae" points="1429.34,-183.5 1439.34,-180 1429.34,-176.5 1429.34,-183.5"/>
<text text-anchor="middle" x="1339.5" y="-182.6" font-family="Times,serif" font-size="8.00" fill="#90a4ae">f</text>
</g>
<!-- n39 -->
<g id="node40" class="node">
<title>n39</title>
<path fill="#0f1721" stroke="#1c2a3a" d="M1481.5,-144C1481.5,-144 1451.5,-144 1451.5,-144 1445.5,-144 1439.5,-138 1439.5,-132 1439.5,-132 1439.5,-120 1439.5,-120 1439.5,-114 1445.5,-108 1451.5,-108 1451.5,-108 1481.5,-108 1481.5,-108 1487.5,-108 1493.5,-114 1493.5,-120 1493.5,-120 1493.5,-132 1493.5,-132 1493.5,-138 1487.5,-144 1481.5,-144"/>
</g>
<!-- n31&#45;&gt;n39 -->
<g id="edge32" class="edge">
<title>n31&#45;&gt;n39</title>
<path fill="none" stroke="#90a4ae" d="M1319.11,-168.54C1331.38,-163.4 1346.3,-157.49 1360,-153 1382.75,-145.54 1408.8,-138.86 1429.32,-134"/>
<polygon fill="#90a4ae" stroke="#90a4ae" points="1430.26,-137.38 1439.21,-131.71 1428.68,-130.56 1430.26,-137.38"/>
<text text-anchor="middle" x="1339.5" y="-164.6" font-family="Times,serif" font-size="8.00" fill="#90a4ae">a</text>
</g>
<!-- n33 -->
<g id="node34" class="node">
<title>n33</title>
<path fill="#0f1721" stroke="#1c2a3a" d="M1747,-217C1747,-217 1717,-217 1717,-217 1711,-217 1705,-211 1705,-205 1705,-205 1705,-193 1705,-193 1705,-187 1711,-181 1717,-181 1717,-181 1747,-181 1747,-181 1753,-181 1759,-187 1759,-193 1759,-193 1759,-205 1759,-205 1759,-211 1753,-217 1747,-217"/>
</g>
<!-- n32&#45;&gt;n33 -->
<g id="edge29" class="edge">
<title>n32&#45;&gt;n33</title>
<path fill="none" stroke="#90a4ae" d="M1493.73,-181.89C1541.08,-185.31 1640.91,-192.5 1694.75,-196.39"/>
<polygon fill="#90a4ae" stroke="#90a4ae" points="1694.65,-199.89 1704.88,-197.12 1695.15,-192.91 1694.65,-199.89"/>
<text text-anchor="middle" x="1593.5" y="-190.6" font-family="Times,serif" font-size="8.00" fill="#90a4ae">f</text>
</g>
<!-- n38 -->
<g id="node39" class="node">
<title>n38</title>
<path fill="#0f1721" stroke="#1c2a3a" d="M1747,-163C1747,-163 1717,-163 1717,-163 1711,-163 1705,-157 1705,-151 1705,-151 1705,-139 1705,-139 1705,-133 1711,-127 1717,-127 1717,-127 1747,-127 1747,-127 1753,-127 1759,-133 1759,-139 1759,-139 1759,-151 1759,-151 1759,-157 1753,-163 1747,-163"/>
</g>
<!-- n32&#45;&gt;n38 -->
<g id="edge30" class="edge">
<title>n32&#45;&gt;n38</title>
<path fill="none" stroke="#90a4ae" d="M1493.73,-176.52C1541.08,-170.23 1640.91,-156.97 1694.75,-149.81"/>
<polygon fill="#90a4ae" stroke="#90a4ae" points="1695.43,-153.26 1704.88,-148.47 1694.5,-146.32 1695.43,-153.26"/>
<text text-anchor="middle" x="1593.5" y="-166.6" font-family="Times,serif" font-size="8.00" fill="#90a4ae">a</text>
</g>
<!-- n34 -->
<g id="node35" class="node">
<title>n34</title>
<path fill="#0f1721" stroke="#1c2a3a" d="M2024,-235C2024,-235 1994,-235 1994,-235 1988,-235 1982,-229 1982,-223 1982,-223 1982,-211 1982,-211 1982,-205 1988,-199 1994,-199 1994,-199 2024,-199 2024,-199 2030,-199 2036,-205 2036,-211 2036,-211 2036,-223 2036,-223 2036,-229 2030,-235 2024,-235"/>
</g>
<!-- n33&#45;&gt;n34 -->
<g id="edge27" class="edge">
<title>n33&#45;&gt;n34</title>
<path fill="none" stroke="#90a4ae" d="M1759.37,-200.73C1808.75,-203.96 1915.25,-210.93 1971.49,-214.61"/>
<polygon fill="#90a4ae" stroke="#90a4ae" points="1971.5,-218.12 1981.71,-215.28 1971.96,-211.13 1971.5,-218.12"/>
<text text-anchor="middle" x="1870.5" y="-210.6" font-family="Times,serif" font-size="8.00" fill="#90a4ae">f</text>
</g>
<!-- n37 -->
<g id="node38" class="node">
<title>n37</title>
<path fill="#0f1721" stroke="#1c2a3a" d="M2024,-181C2024,-181 1994,-181 1994,-181 1988,-181 1982,-175 1982,-169 1982,-169 1982,-157 1982,-157 1982,-151 1988,-145 1994,-145 1994,-145 2024,-145 2024,-145 2030,-145 2036,-151 2036,-157 2036,-157 2036,-169 2036,-169 2036,-175 2030,-181 2024,-181"/>
</g>
<!-- n33&#45;&gt;n37 -->
<g id="edge28" class="edge">
<title>n33&#45;&gt;n37</title>
<path fill="none" stroke="#90a4ae" d="M1759.37,-195.55C1808.75,-189.08 1915.25,-175.14 1971.49,-167.78"/>
<polygon fill="#90a4ae" stroke="#90a4ae" points="1972.25,-171.21 1981.71,-166.44 1971.34,-164.27 1972.25,-171.21"/>
<text text-anchor="middle" x="1870.5" y="-183.6" font-family="Times,serif" font-size="8.00" fill="#90a4ae">a</text>
</g>
<!-- n35 -->
<g id="node36" class="node">
<title>n35</title>
<path fill="#0f1721" stroke="#1c2a3a" d="M2392,-262C2392,-262 2180,-262 2180,-262 2174,-262 2168,-256 2168,-250 2168,-250 2168,-238 2168,-238 2168,-232 2174,-226 2180,-226 2180,-226 2392,-226 2392,-226 2398,-226 2404,-232 2404,-238 2404,-238 2404,-250 2404,-250 2404,-256 2398,-262 2392,-262"/>
<text text-anchor="middle" x="2286" y="-241.8" font-family="Times,serif" font-size="9.00" fill="#e6eef7">HeytingLean.ClosingTheLoop.MR.closeSelector</text>
</g>
<!-- n34&#45;&gt;n35 -->
<g id="edge25" class="edge">
<title>n34&#45;&gt;n35</title>
<path fill="none" stroke="#90a4ae" d="M2036.37,-219.59C2064.74,-222.37 2111.95,-227.01 2157.66,-231.5"/>
<polygon fill="#90a4ae" stroke="#90a4ae" points="2157.4,-234.99 2167.69,-232.48 2158.08,-228.02 2157.4,-234.99"/>
<text text-anchor="middle" x="2147.5" y="-232.6" font-family="Times,serif" font-size="8.00" fill="#90a4ae">f</text>
</g>
<!-- n36 -->
<g id="node37" class="node">
<title>n36</title>
<path fill="#0f1721" stroke="#1c2a3a" d="M2301,-208C2301,-208 2271,-208 2271,-208 2265,-208 2259,-202 2259,-196 2259,-196 2259,-184 2259,-184 2259,-178 2265,-172 2271,-172 2271,-172 2301,-172 2301,-172 2307,-172 2313,-178 2313,-184 2313,-184 2313,-196 2313,-196 2313,-202 2307,-208 2301,-208"/>
</g>
<!-- n34&#45;&gt;n36 -->
<g id="edge26" class="edge">
<title>n34&#45;&gt;n36</title>
<path fill="none" stroke="#90a4ae" d="M2036.37,-214.41C2085.75,-209.56 2192.25,-199.11 2248.49,-193.58"/>
<polygon fill="#90a4ae" stroke="#90a4ae" points="2249.1,-197.04 2258.71,-192.58 2248.42,-190.07 2249.1,-197.04"/>
<text text-anchor="middle" x="2147.5" y="-205.6" font-family="Times,serif" font-size="8.00" fill="#90a4ae">a</text>
</g>
<!-- n41 -->
<g id="node42" class="node">
<title>n41</title>
<path fill="#0f1721" stroke="#1c2a3a" d="M1212,-90C1212,-90 1182,-90 1182,-90 1176,-90 1170,-84 1170,-78 1170,-78 1170,-66 1170,-66 1170,-60 1176,-54 1182,-54 1182,-54 1212,-54 1212,-54 1218,-54 1224,-60 1224,-66 1224,-66 1224,-78 1224,-78 1224,-84 1218,-90 1212,-90"/>
</g>
<!-- n40&#45;&gt;n41 -->
<g id="edge42" class="edge">
<title>n40&#45;&gt;n41</title>
<path fill="none" stroke="#90a4ae" d="M1033.71,-72C1066.4,-72 1122.46,-72 1159.38,-72"/>
<polygon fill="#90a4ae" stroke="#90a4ae" points="1159.71,-75.5 1169.71,-72 1159.71,-68.5 1159.71,-75.5"/>
<text text-anchor="middle" x="1149.5" y="-74.6" font-family="Times,serif" font-size="8.00" fill="#90a4ae">f</text>
</g>
<!-- n48 -->
<g id="node49" class="node">
<title>n48</title>
<path fill="#0f1721" stroke="#1c2a3a" d="M1212,-36C1212,-36 1182,-36 1182,-36 1176,-36 1170,-30 1170,-24 1170,-24 1170,-12 1170,-12 1170,-6 1176,0 1182,0 1182,0 1212,0 1212,0 1218,0 1224,-6 1224,-12 1224,-12 1224,-24 1224,-24 1224,-30 1218,-36 1212,-36"/>
</g>
<!-- n40&#45;&gt;n48 -->
<g id="edge43" class="edge">
<title>n40&#45;&gt;n48</title>
<path fill="none" stroke="#90a4ae" d="M1033.71,-64.49C1066.54,-55.09 1122.94,-38.93 1159.85,-28.36"/>
<polygon fill="#90a4ae" stroke="#90a4ae" points="1161.06,-31.65 1169.71,-25.53 1159.13,-24.92 1161.06,-31.65"/>
<text text-anchor="middle" x="1149.5" y="-34.6" font-family="Times,serif" font-size="8.00" fill="#90a4ae">a</text>
</g>
<!-- n42 -->
<g id="node43" class="node">
<title>n42</title>
<path fill="#0f1721" stroke="#1c2a3a" d="M1307,-90C1307,-90 1277,-90 1277,-90 1271,-90 1265,-84 1265,-78 1265,-78 1265,-66 1265,-66 1265,-60 1271,-54 1277,-54 1277,-54 1307,-54 1307,-54 1313,-54 1319,-60 1319,-66 1319,-66 1319,-78 1319,-78 1319,-84 1313,-90 1307,-90"/>
</g>
<!-- n41&#45;&gt;n42 -->
<g id="edge40" class="edge">
<title>n41&#45;&gt;n42</title>
<path fill="none" stroke="#90a4ae" d="M1224.4,-72C1233.81,-72 1244.57,-72 1254.66,-72"/>
<polygon fill="#90a4ae" stroke="#90a4ae" points="1254.85,-75.5 1264.85,-72 1254.85,-68.5 1254.85,-75.5"/>
<text text-anchor="middle" x="1244.5" y="-74.6" font-family="Times,serif" font-size="8.00" fill="#90a4ae">f</text>
</g>
<!-- n47 -->
<g id="node48" class="node">
<title>n47</title>
<path fill="#0f1721" stroke="#1c2a3a" d="M1307,-36C1307,-36 1277,-36 1277,-36 1271,-36 1265,-30 1265,-24 1265,-24 1265,-12 1265,-12 1265,-6 1271,0 1277,0 1277,0 1307,0 1307,0 1313,0 1319,-6 1319,-12 1319,-12 1319,-24 1319,-24 1319,-30 1313,-36 1307,-36"/>
</g>
<!-- n41&#45;&gt;n47 -->
<g id="edge41" class="edge">
<title>n41&#45;&gt;n47</title>
<path fill="none" stroke="#90a4ae" d="M1224.4,-56.67C1234.2,-50.98 1245.48,-44.43 1255.94,-38.36"/>
<polygon fill="#90a4ae" stroke="#90a4ae" points="1257.96,-41.23 1264.85,-33.18 1254.45,-35.18 1257.96,-41.23"/>
<text text-anchor="middle" x="1244.5" y="-47.6" font-family="Times,serif" font-size="8.00" fill="#90a4ae">a</text>
</g>
<!-- n43 -->
<g id="node44" class="node">
<title>n43</title>
<path fill="#0f1721" stroke="#1c2a3a" d="M1481.5,-90C1481.5,-90 1451.5,-90 1451.5,-90 1445.5,-90 1439.5,-84 1439.5,-78 1439.5,-78 1439.5,-66 1439.5,-66 1439.5,-60 1445.5,-54 1451.5,-54 1451.5,-54 1481.5,-54 1481.5,-54 1487.5,-54 1493.5,-60 1493.5,-66 1493.5,-66 1493.5,-78 1493.5,-78 1493.5,-84 1487.5,-90 1481.5,-90"/>
</g>
<!-- n42&#45;&gt;n43 -->
<g id="edge38" class="edge">
<title>n42&#45;&gt;n43</title>
<path fill="none" stroke="#90a4ae" d="M1319.2,-72C1348.54,-72 1396.29,-72 1429.21,-72"/>
<polygon fill="#90a4ae" stroke="#90a4ae" points="1429.34,-75.5 1439.34,-72 1429.34,-68.5 1429.34,-75.5"/>
<text text-anchor="middle" x="1339.5" y="-74.6" font-family="Times,serif" font-size="8.00" fill="#90a4ae">f</text>
</g>
<!-- n46 -->
<g id="node47" class="node">
<title>n46</title>
<path fill="#0f1721" stroke="#1c2a3a" d="M1481.5,-36C1481.5,-36 1451.5,-36 1451.5,-36 1445.5,-36 1439.5,-30 1439.5,-24 1439.5,-24 1439.5,-12 1439.5,-12 1439.5,-6 1445.5,0 1451.5,0 1451.5,0 1481.5,0 1481.5,0 1487.5,0 1493.5,-6 1493.5,-12 1493.5,-12 1493.5,-24 1493.5,-24 1493.5,-30 1487.5,-36 1481.5,-36"/>
</g>
<!-- n42&#45;&gt;n46 -->
<g id="edge39" class="edge">
<title>n42&#45;&gt;n46</title>
<path fill="none" stroke="#90a4ae" d="M1319.11,-60.54C1331.38,-55.4 1346.3,-49.49 1360,-45 1382.75,-37.54 1408.8,-30.86 1429.32,-26"/>
<polygon fill="#90a4ae" stroke="#90a4ae" points="1430.26,-29.38 1439.21,-23.71 1428.68,-22.56 1430.26,-29.38"/>
<text text-anchor="middle" x="1339.5" y="-56.6" font-family="Times,serif" font-size="8.00" fill="#90a4ae">a</text>
</g>
<!-- n44 -->
<g id="node45" class="node">
<title>n44</title>
<path fill="#0f1721" stroke="#1c2a3a" d="M1838,-101C1838,-101 1626,-101 1626,-101 1620,-101 1614,-95 1614,-89 1614,-89 1614,-77 1614,-77 1614,-71 1620,-65 1626,-65 1626,-65 1838,-65 1838,-65 1844,-65 1850,-71 1850,-77 1850,-77 1850,-89 1850,-89 1850,-95 1844,-101 1838,-101"/>
<text text-anchor="middle" x="1732" y="-80.8" font-family="Times,serif" font-size="9.00" fill="#e6eef7">HeytingLean.ClosingTheLoop.MR.closeSelector</text>
</g>
<!-- n43&#45;&gt;n44 -->
<g id="edge36" class="edge">
<title>n43&#45;&gt;n44</title>
<path fill="none" stroke="#90a4ae" d="M1493.73,-73.09C1519.94,-74.19 1562.23,-75.95 1603.9,-77.69"/>
<polygon fill="#90a4ae" stroke="#90a4ae" points="1603.77,-81.19 1613.91,-78.11 1604.06,-74.2 1603.77,-81.19"/>
<text text-anchor="middle" x="1593.5" y="-80.6" font-family="Times,serif" font-size="8.00" fill="#90a4ae">f</text>
</g>
<!-- n45 -->
<g id="node46" class="node">
<title>n45</title>
<path fill="#0f1721" stroke="#1c2a3a" d="M1747,-47C1747,-47 1717,-47 1717,-47 1711,-47 1705,-41 1705,-35 1705,-35 1705,-23 1705,-23 1705,-17 1711,-11 1717,-11 1717,-11 1747,-11 1747,-11 1753,-11 1759,-17 1759,-23 1759,-23 1759,-35 1759,-35 1759,-41 1753,-47 1747,-47"/>
</g>
<!-- n43&#45;&gt;n45 -->
<g id="edge37" class="edge">
<title>n43&#45;&gt;n45</title>
<path fill="none" stroke="#90a4ae" d="M1493.73,-67.72C1541.08,-59.99 1640.91,-43.7 1694.75,-34.92"/>
<polygon fill="#90a4ae" stroke="#90a4ae" points="1695.57,-38.33 1704.88,-33.26 1694.44,-31.42 1695.57,-38.33"/>
<text text-anchor="middle" x="1593.5" y="-54.6" font-family="Times,serif" font-size="8.00" fill="#90a4ae">a</text>
</g>
</g>
</svg>
