<?xml version="1.0" encoding="UTF-8" standalone="no"?>
<!DOCTYPE svg PUBLIC "-//W3C//DTD SVG 1.1//EN"
 "http://www.w3.org/Graphics/SVG/1.1/DTD/svg11.dtd">
<!-- Generated by graphviz version 2.43.0 (0)
 -->
<!-- Title: G Pages: 1 -->
<svg width="3375pt" height="657pt"
 viewBox="0.00 0.00 3375.00 657.00" xmlns="http://www.w3.org/2000/svg" xmlns:xlink="http://www.w3.org/1999/xlink">
<g id="graph0" class="graph" transform="scale(1 1) rotate(0) translate(4 653)">
<title>G</title>
<text text-anchor="middle" x="1683.5" y="-637" font-family="Times,serif" font-size="10.00">HeytingLean.ClosingTheLoop.Cat.curryNatIso</text>
<!-- n0 -->
<g id="node1" class="node">
<title>n0</title>
<path fill="#0f1721" stroke="#1c2a3a" d="M42,-416C42,-416 12,-416 12,-416 6,-416 0,-410 0,-404 0,-404 0,-392 0,-392 0,-386 6,-380 12,-380 12,-380 42,-380 42,-380 48,-380 54,-386 54,-392 54,-392 54,-404 54,-404 54,-410 48,-416 42,-416"/>
<text text-anchor="middle" x="27" y="-395.8" font-family="Times,serif" font-size="9.00" fill="#e6eef7">∀ C</text>
</g>
<!-- n1 -->
<g id="node2" class="node">
<title>n1</title>
<path fill="#112033" stroke="#1c2a3a" d="M336.5,-443C336.5,-443 306.5,-443 306.5,-443 300.5,-443 294.5,-437 294.5,-431 294.5,-431 294.5,-419 294.5,-419 294.5,-413 300.5,-407 306.5,-407 306.5,-407 336.5,-407 336.5,-407 342.5,-407 348.5,-413 348.5,-419 348.5,-419 348.5,-431 348.5,-431 348.5,-437 342.5,-443 336.5,-443"/>
<text text-anchor="middle" x="321.5" y="-422.8" font-family="Times,serif" font-size="9.00" fill="#e6eef7">Sort</text>
</g>
<!-- n0&#45;&gt;n1 -->
<g id="edge1" class="edge">
<title>n0&#45;&gt;n1</title>
<path fill="none" stroke="#90a4ae" d="M54.21,-400.42C106.6,-405.26 224.3,-416.12 284.12,-421.64"/>
<polygon fill="#90a4ae" stroke="#90a4ae" points="283.96,-425.14 294.24,-422.58 284.6,-418.17 283.96,-425.14"/>
<text text-anchor="middle" x="82" y="-405.6" font-family="Times,serif" font-size="8.00" fill="#90a4ae">ty</text>
</g>
<!-- n2 -->
<g id="node3" class="node">
<title>n2</title>
<path fill="#0f1721" stroke="#1c2a3a" d="M521,-389C521,-389 122,-389 122,-389 116,-389 110,-383 110,-377 110,-377 110,-365 110,-365 110,-359 116,-353 122,-353 122,-353 521,-353 521,-353 527,-353 533,-359 533,-365 533,-365 533,-377 533,-377 533,-383 527,-389 521,-389"/>
<text text-anchor="middle" x="321.5" y="-368.8" font-family="Times,serif" font-size="9.00" fill="#e6eef7">∀ inst._@.HeytingLean.ClosingTheLoop.Cat.YonedaViewNat.616500543._hygCtx._hyg.3</text>
</g>
<!-- n0&#45;&gt;n2 -->
<g id="edge84" class="edge">
<title>n0&#45;&gt;n2</title>
<path fill="none" stroke="#90a4ae" d="M54.43,-392.02C60.2,-390.87 66.28,-389.79 72,-389 81.05,-387.75 90.29,-386.59 99.64,-385.5"/>
<polygon fill="#90a4ae" stroke="#90a4ae" points="100.28,-388.95 109.82,-384.35 99.49,-382 100.28,-388.95"/>
<text text-anchor="middle" x="82" y="-391.6" font-family="Times,serif" font-size="8.00" fill="#90a4ae">body</text>
</g>
<!-- n3 -->
<g id="node4" class="node">
<title>n3</title>
<path fill="#0f1721" stroke="#1c2a3a" d="M815.5,-416C815.5,-416 785.5,-416 785.5,-416 779.5,-416 773.5,-410 773.5,-404 773.5,-404 773.5,-392 773.5,-392 773.5,-386 779.5,-380 785.5,-380 785.5,-380 815.5,-380 815.5,-380 821.5,-380 827.5,-386 827.5,-392 827.5,-392 827.5,-404 827.5,-404 827.5,-410 821.5,-416 815.5,-416"/>
</g>
<!-- n2&#45;&gt;n3 -->
<g id="edge4" class="edge">
<title>n2&#45;&gt;n3</title>
<path fill="none" stroke="#90a4ae" d="M533.11,-382.92C620.77,-387.88 713.52,-393.13 763.13,-395.94"/>
<polygon fill="#90a4ae" stroke="#90a4ae" points="763.15,-399.45 773.33,-396.52 763.54,-392.46 763.15,-399.45"/>
<text text-anchor="middle" x="561" y="-386.6" font-family="Times,serif" font-size="8.00" fill="#90a4ae">ty</text>
</g>
<!-- n6 -->
<g id="node7" class="node">
<title>n6</title>
<path fill="#0f1721" stroke="#1c2a3a" d="M1000,-362C1000,-362 601,-362 601,-362 595,-362 589,-356 589,-350 589,-350 589,-338 589,-338 589,-332 595,-326 601,-326 601,-326 1000,-326 1000,-326 1006,-326 1012,-332 1012,-338 1012,-338 1012,-350 1012,-350 1012,-356 1006,-362 1000,-362"/>
<text text-anchor="middle" x="800.5" y="-341.8" font-family="Times,serif" font-size="9.00" fill="#e6eef7">∀ inst._@.HeytingLean.ClosingTheLoop.Cat.YonedaViewNat.616500543._hygCtx._hyg.6</text>
</g>
<!-- n2&#45;&gt;n6 -->
<g id="edge83" class="edge">
<title>n2&#45;&gt;n6</title>
<path fill="none" stroke="#90a4ae" d="M533.11,-359.08C548.11,-358.23 563.27,-357.37 578.33,-356.52"/>
<polygon fill="#90a4ae" stroke="#90a4ae" points="578.95,-359.99 588.74,-355.93 578.56,-353 578.95,-359.99"/>
<text text-anchor="middle" x="561" y="-359.6" font-family="Times,serif" font-size="8.00" fill="#90a4ae">body</text>
</g>
<!-- n4 -->
<g id="node5" class="node">
<title>n4</title>
<path fill="#0f1721" stroke="#1c2a3a" d="M1190,-470C1190,-470 1080,-470 1080,-470 1074,-470 1068,-464 1068,-458 1068,-458 1068,-446 1068,-446 1068,-440 1074,-434 1080,-434 1080,-434 1190,-434 1190,-434 1196,-434 1202,-440 1202,-446 1202,-446 1202,-458 1202,-458 1202,-464 1196,-470 1190,-470"/>
<text text-anchor="middle" x="1135" y="-449.8" font-family="Times,serif" font-size="9.00" fill="#e6eef7">CategoryTheory.Category</text>
</g>
<!-- n3&#45;&gt;n4 -->
<g id="edge2" class="edge">
<title>n3&#45;&gt;n4</title>
<path fill="none" stroke="#90a4ae" d="M827.59,-402.24C876.57,-410.19 983.99,-427.64 1057.68,-439.61"/>
<polygon fill="#90a4ae" stroke="#90a4ae" points="1057.42,-443.11 1067.85,-441.26 1058.54,-436.2 1057.42,-443.11"/>
<text text-anchor="middle" x="1040" y="-439.6" font-family="Times,serif" font-size="8.00" fill="#90a4ae">f</text>
</g>
<!-- n5 -->
<g id="node6" class="node">
<title>n5</title>
<path fill="#0f1721" stroke="#1c2a3a" d="M1150,-416C1150,-416 1120,-416 1120,-416 1114,-416 1108,-410 1108,-404 1108,-404 1108,-392 1108,-392 1108,-386 1114,-380 1120,-380 1120,-380 1150,-380 1150,-380 1156,-380 1162,-386 1162,-392 1162,-392 1162,-404 1162,-404 1162,-410 1156,-416 1150,-416"/>
</g>
<!-- n3&#45;&gt;n5 -->
<g id="edge3" class="edge">
<title>n3&#45;&gt;n5</title>
<path fill="none" stroke="#90a4ae" d="M827.59,-398C886.44,-398 1029.66,-398 1097.38,-398"/>
<polygon fill="#90a4ae" stroke="#90a4ae" points="1097.57,-401.5 1107.57,-398 1097.57,-394.5 1097.57,-401.5"/>
<text text-anchor="middle" x="1040" y="-400.6" font-family="Times,serif" font-size="8.00" fill="#90a4ae">a</text>
</g>
<!-- n7 -->
<g id="node8" class="node">
<title>n7</title>
<path fill="#0f1721" stroke="#1c2a3a" d="M1150,-362C1150,-362 1120,-362 1120,-362 1114,-362 1108,-356 1108,-350 1108,-350 1108,-338 1108,-338 1108,-332 1114,-326 1120,-326 1120,-326 1150,-326 1150,-326 1156,-326 1162,-332 1162,-338 1162,-338 1162,-350 1162,-350 1162,-356 1156,-362 1150,-362"/>
</g>
<!-- n6&#45;&gt;n7 -->
<g id="edge9" class="edge">
<title>n6&#45;&gt;n7</title>
<path fill="none" stroke="#90a4ae" d="M1012.08,-344C1044.86,-344 1075.16,-344 1097.36,-344"/>
<polygon fill="#90a4ae" stroke="#90a4ae" points="1097.58,-347.5 1107.58,-344 1097.58,-340.5 1097.58,-347.5"/>
<text text-anchor="middle" x="1040" y="-346.6" font-family="Times,serif" font-size="8.00" fill="#90a4ae">ty</text>
</g>
<!-- n12 -->
<g id="node13" class="node">
<title>n12</title>
<path fill="#0f1721" stroke="#1c2a3a" d="M1150,-308C1150,-308 1120,-308 1120,-308 1114,-308 1108,-302 1108,-296 1108,-296 1108,-284 1108,-284 1108,-278 1114,-272 1120,-272 1120,-272 1150,-272 1150,-272 1156,-272 1162,-278 1162,-284 1162,-284 1162,-296 1162,-296 1162,-302 1156,-308 1150,-308"/>
<text text-anchor="middle" x="1135" y="-287.8" font-family="Times,serif" font-size="9.00" fill="#e6eef7">∀ B</text>
</g>
<!-- n6&#45;&gt;n12 -->
<g id="edge82" class="edge">
<title>n6&#45;&gt;n12</title>
<path fill="none" stroke="#90a4ae" d="M912.68,-325.94C977,-315.5 1053.71,-303.04 1097.85,-295.87"/>
<polygon fill="#90a4ae" stroke="#90a4ae" points="1098.5,-299.31 1107.81,-294.25 1097.38,-292.4 1098.5,-299.31"/>
<text text-anchor="middle" x="1040" y="-307.6" font-family="Times,serif" font-size="8.00" fill="#90a4ae">body</text>
</g>
<!-- n8 -->
<g id="node9" class="node">
<title>n8</title>
<path fill="#0f1721" stroke="#1c2a3a" d="M1300,-416C1300,-416 1270,-416 1270,-416 1264,-416 1258,-410 1258,-404 1258,-404 1258,-392 1258,-392 1258,-386 1264,-380 1270,-380 1270,-380 1300,-380 1300,-380 1306,-380 1312,-386 1312,-392 1312,-392 1312,-404 1312,-404 1312,-410 1306,-416 1300,-416"/>
</g>
<!-- n7&#45;&gt;n8 -->
<g id="edge7" class="edge">
<title>n7&#45;&gt;n8</title>
<path fill="none" stroke="#90a4ae" d="M1162.12,-353.53C1185.96,-362.23 1221.42,-375.17 1247.96,-384.85"/>
<polygon fill="#90a4ae" stroke="#90a4ae" points="1247.05,-388.24 1257.64,-388.38 1249.45,-381.67 1247.05,-388.24"/>
<text text-anchor="middle" x="1230" y="-382.6" font-family="Times,serif" font-size="8.00" fill="#90a4ae">f</text>
</g>
<!-- n11 -->
<g id="node12" class="node">
<title>n11</title>
<path fill="#0f1721" stroke="#1c2a3a" d="M1300,-362C1300,-362 1270,-362 1270,-362 1264,-362 1258,-356 1258,-350 1258,-350 1258,-338 1258,-338 1258,-332 1264,-326 1270,-326 1270,-326 1300,-326 1300,-326 1306,-326 1312,-332 1312,-338 1312,-338 1312,-350 1312,-350 1312,-356 1306,-362 1300,-362"/>
</g>
<!-- n7&#45;&gt;n11 -->
<g id="edge8" class="edge">
<title>n7&#45;&gt;n11</title>
<path fill="none" stroke="#90a4ae" d="M1162.12,-344C1185.85,-344 1221.11,-344 1247.6,-344"/>
<polygon fill="#90a4ae" stroke="#90a4ae" points="1247.64,-347.5 1257.64,-344 1247.64,-340.5 1247.64,-347.5"/>
<text text-anchor="middle" x="1230" y="-346.6" font-family="Times,serif" font-size="8.00" fill="#90a4ae">a</text>
</g>
<!-- n9 -->
<g id="node10" class="node">
<title>n9</title>
<path fill="#0f1721" stroke="#1c2a3a" d="M1681,-416C1681,-416 1484,-416 1484,-416 1478,-416 1472,-410 1472,-404 1472,-404 1472,-392 1472,-392 1472,-386 1478,-380 1484,-380 1484,-380 1681,-380 1681,-380 1687,-380 1693,-386 1693,-392 1693,-392 1693,-404 1693,-404 1693,-410 1687,-416 1681,-416"/>
<text text-anchor="middle" x="1582.5" y="-395.8" font-family="Times,serif" font-size="9.00" fill="#e6eef7">CategoryTheory.CartesianMonoidalCategory</text>
</g>
<!-- n8&#45;&gt;n9 -->
<g id="edge5" class="edge">
<title>n8&#45;&gt;n9</title>
<path fill="none" stroke="#90a4ae" d="M1312.22,-398C1345.87,-398 1406.48,-398 1461.69,-398"/>
<polygon fill="#90a4ae" stroke="#90a4ae" points="1461.93,-401.5 1471.93,-398 1461.93,-394.5 1461.93,-401.5"/>
<text text-anchor="middle" x="1340" y="-400.6" font-family="Times,serif" font-size="8.00" fill="#90a4ae">f</text>
</g>
<!-- n10 -->
<g id="node11" class="node">
<title>n10</title>
<path fill="#0f1721" stroke="#1c2a3a" d="M1597.5,-362C1597.5,-362 1567.5,-362 1567.5,-362 1561.5,-362 1555.5,-356 1555.5,-350 1555.5,-350 1555.5,-338 1555.5,-338 1555.5,-332 1561.5,-326 1567.5,-326 1567.5,-326 1597.5,-326 1597.5,-326 1603.5,-326 1609.5,-332 1609.5,-338 1609.5,-338 1609.5,-350 1609.5,-350 1609.5,-356 1603.5,-362 1597.5,-362"/>
</g>
<!-- n8&#45;&gt;n10 -->
<g id="edge6" class="edge">
<title>n8&#45;&gt;n10</title>
<path fill="none" stroke="#90a4ae" d="M1312.23,-387.93C1328.14,-382.18 1348.99,-375.29 1368,-371 1429.32,-357.16 1502.25,-349.85 1545.05,-346.47"/>
<polygon fill="#90a4ae" stroke="#90a4ae" points="1545.55,-349.94 1555.26,-345.69 1545.02,-342.96 1545.55,-349.94"/>
<text text-anchor="middle" x="1340" y="-383.6" font-family="Times,serif" font-size="8.00" fill="#90a4ae">a</text>
</g>
<!-- n13 -->
<g id="node14" class="node">
<title>n13</title>
<path fill="#0f1721" stroke="#1c2a3a" d="M1300,-308C1300,-308 1270,-308 1270,-308 1264,-308 1258,-302 1258,-296 1258,-296 1258,-284 1258,-284 1258,-278 1264,-272 1270,-272 1270,-272 1300,-272 1300,-272 1306,-272 1312,-278 1312,-284 1312,-284 1312,-296 1312,-296 1312,-302 1306,-308 1300,-308"/>
</g>
<!-- n12&#45;&gt;n13 -->
<g id="edge10" class="edge">
<title>n12&#45;&gt;n13</title>
<path fill="none" stroke="#90a4ae" d="M1162.12,-290C1185.85,-290 1221.11,-290 1247.6,-290"/>
<polygon fill="#90a4ae" stroke="#90a4ae" points="1247.64,-293.5 1257.64,-290 1247.64,-286.5 1247.64,-293.5"/>
<text text-anchor="middle" x="1230" y="-292.6" font-family="Times,serif" font-size="8.00" fill="#90a4ae">ty</text>
</g>
<!-- n14 -->
<g id="node15" class="node">
<title>n14</title>
<path fill="#0f1721" stroke="#1c2a3a" d="M1300,-254C1300,-254 1270,-254 1270,-254 1264,-254 1258,-248 1258,-242 1258,-242 1258,-230 1258,-230 1258,-224 1264,-218 1270,-218 1270,-218 1300,-218 1300,-218 1306,-218 1312,-224 1312,-230 1312,-230 1312,-242 1312,-242 1312,-248 1306,-254 1300,-254"/>
<text text-anchor="middle" x="1285" y="-233.8" font-family="Times,serif" font-size="9.00" fill="#e6eef7">∀ H</text>
</g>
<!-- n12&#45;&gt;n14 -->
<g id="edge81" class="edge">
<title>n12&#45;&gt;n14</title>
<path fill="none" stroke="#90a4ae" d="M1162.12,-280.47C1185.96,-271.77 1221.42,-258.83 1247.96,-249.15"/>
<polygon fill="#90a4ae" stroke="#90a4ae" points="1249.45,-252.33 1257.64,-245.62 1247.05,-245.76 1249.45,-252.33"/>
<text text-anchor="middle" x="1230" y="-260.6" font-family="Times,serif" font-size="8.00" fill="#90a4ae">body</text>
</g>
<!-- n15 -->
<g id="node16" class="node">
<title>n15</title>
<path fill="#0f1721" stroke="#1c2a3a" d="M1597.5,-297C1597.5,-297 1567.5,-297 1567.5,-297 1561.5,-297 1555.5,-291 1555.5,-285 1555.5,-285 1555.5,-273 1555.5,-273 1555.5,-267 1561.5,-261 1567.5,-261 1567.5,-261 1597.5,-261 1597.5,-261 1603.5,-261 1609.5,-267 1609.5,-273 1609.5,-273 1609.5,-285 1609.5,-285 1609.5,-291 1603.5,-297 1597.5,-297"/>
</g>
<!-- n14&#45;&gt;n15 -->
<g id="edge11" class="edge">
<title>n14&#45;&gt;n15</title>
<path fill="none" stroke="#90a4ae" d="M1312.42,-243.12C1318.18,-244.53 1324.28,-245.91 1330,-247 1405.94,-261.44 1496.04,-271.13 1545.14,-275.79"/>
<polygon fill="#90a4ae" stroke="#90a4ae" points="1544.98,-279.29 1555.27,-276.73 1545.63,-272.32 1544.98,-279.29"/>
<text text-anchor="middle" x="1340" y="-251.6" font-family="Times,serif" font-size="8.00" fill="#90a4ae">ty</text>
</g>
<!-- n16 -->
<g id="node17" class="node">
<title>n16</title>
<path fill="#0f1721" stroke="#1c2a3a" d="M1785,-243C1785,-243 1380,-243 1380,-243 1374,-243 1368,-237 1368,-231 1368,-231 1368,-219 1368,-219 1368,-213 1374,-207 1380,-207 1380,-207 1785,-207 1785,-207 1791,-207 1797,-213 1797,-219 1797,-219 1797,-231 1797,-231 1797,-237 1791,-243 1785,-243"/>
<text text-anchor="middle" x="1582.5" y="-222.8" font-family="Times,serif" font-size="9.00" fill="#e6eef7">∀ inst._@.HeytingLean.ClosingTheLoop.Cat.YonedaViewNat.616500543._hygCtx._hyg.16</text>
</g>
<!-- n14&#45;&gt;n16 -->
<g id="edge80" class="edge">
<title>n14&#45;&gt;n16</title>
<path fill="none" stroke="#90a4ae" d="M1312.22,-235.02C1324.38,-234.57 1340.06,-233.99 1357.73,-233.33"/>
<polygon fill="#90a4ae" stroke="#90a4ae" points="1357.88,-236.83 1367.74,-232.96 1357.62,-229.83 1357.88,-236.83"/>
<text text-anchor="middle" x="1340" y="-236.6" font-family="Times,serif" font-size="8.00" fill="#90a4ae">body</text>
</g>
<!-- n17 -->
<g id="node18" class="node">
<title>n17</title>
<path fill="#0f1721" stroke="#1c2a3a" d="M1895,-297C1895,-297 1865,-297 1865,-297 1859,-297 1853,-291 1853,-285 1853,-285 1853,-273 1853,-273 1853,-267 1859,-261 1865,-261 1865,-261 1895,-261 1895,-261 1901,-261 1907,-267 1907,-273 1907,-273 1907,-285 1907,-285 1907,-291 1901,-297 1895,-297"/>
</g>
<!-- n16&#45;&gt;n17 -->
<g id="edge20" class="edge">
<title>n16&#45;&gt;n17</title>
<path fill="none" stroke="#90a4ae" d="M1750.71,-243.01C1766.43,-245.64 1782.06,-248.63 1797,-252 1812.44,-255.48 1829.1,-260.69 1843.34,-265.6"/>
<polygon fill="#90a4ae" stroke="#90a4ae" points="1842.18,-268.9 1852.77,-268.93 1844.51,-262.3 1842.18,-268.9"/>
<text text-anchor="middle" x="1825" y="-264.6" font-family="Times,serif" font-size="8.00" fill="#90a4ae">ty</text>
</g>
<!-- n26 -->
<g id="node27" class="node">
<title>n26</title>
<path fill="#0f1721" stroke="#1c2a3a" d="M1895,-216C1895,-216 1865,-216 1865,-216 1859,-216 1853,-210 1853,-204 1853,-204 1853,-192 1853,-192 1853,-186 1859,-180 1865,-180 1865,-180 1895,-180 1895,-180 1901,-180 1907,-186 1907,-192 1907,-192 1907,-204 1907,-204 1907,-210 1901,-216 1895,-216"/>
</g>
<!-- n16&#45;&gt;n26 -->
<g id="edge79" class="edge">
<title>n16&#45;&gt;n26</title>
<path fill="none" stroke="#90a4ae" d="M1780.6,-206.99C1804.05,-204.85 1825.63,-202.88 1842.56,-201.33"/>
<polygon fill="#90a4ae" stroke="#90a4ae" points="1843.35,-204.77 1852.99,-200.38 1842.71,-197.8 1843.35,-204.77"/>
<text text-anchor="middle" x="1825" y="-205.6" font-family="Times,serif" font-size="8.00" fill="#90a4ae">body</text>
</g>
<!-- n18 -->
<g id="node19" class="node">
<title>n18</title>
<path fill="#0f1721" stroke="#1c2a3a" d="M1990,-357C1990,-357 1960,-357 1960,-357 1954,-357 1948,-351 1948,-345 1948,-345 1948,-333 1948,-333 1948,-327 1954,-321 1960,-321 1960,-321 1990,-321 1990,-321 1996,-321 2002,-327 2002,-333 2002,-333 2002,-345 2002,-345 2002,-351 1996,-357 1990,-357"/>
</g>
<!-- n17&#45;&gt;n18 -->
<g id="edge18" class="edge">
<title>n17&#45;&gt;n18</title>
<path fill="none" stroke="#90a4ae" d="M1907.4,-296.03C1917.3,-302.42 1928.71,-309.78 1939.25,-316.58"/>
<polygon fill="#90a4ae" stroke="#90a4ae" points="1937.55,-319.65 1947.85,-322.13 1941.35,-313.77 1937.55,-319.65"/>
<text text-anchor="middle" x="1927.5" y="-311.6" font-family="Times,serif" font-size="8.00" fill="#90a4ae">f</text>
</g>
<!-- n25 -->
<g id="node26" class="node">
<title>n25</title>
<path fill="#0f1721" stroke="#1c2a3a" d="M1990,-297C1990,-297 1960,-297 1960,-297 1954,-297 1948,-291 1948,-285 1948,-285 1948,-273 1948,-273 1948,-267 1954,-261 1960,-261 1960,-261 1990,-261 1990,-261 1996,-261 2002,-267 2002,-273 2002,-273 2002,-285 2002,-285 2002,-291 1996,-297 1990,-297"/>
</g>
<!-- n17&#45;&gt;n25 -->
<g id="edge19" class="edge">
<title>n17&#45;&gt;n25</title>
<path fill="none" stroke="#90a4ae" d="M1907.4,-279C1916.81,-279 1927.57,-279 1937.66,-279"/>
<polygon fill="#90a4ae" stroke="#90a4ae" points="1937.85,-282.5 1947.85,-279 1937.85,-275.5 1937.85,-282.5"/>
<text text-anchor="middle" x="1927.5" y="-281.6" font-family="Times,serif" font-size="8.00" fill="#90a4ae">a</text>
</g>
<!-- n19 -->
<g id="node20" class="node">
<title>n19</title>
<path fill="#0f1721" stroke="#1c2a3a" d="M2085,-414C2085,-414 2055,-414 2055,-414 2049,-414 2043,-408 2043,-402 2043,-402 2043,-390 2043,-390 2043,-384 2049,-378 2055,-378 2055,-378 2085,-378 2085,-378 2091,-378 2097,-384 2097,-390 2097,-390 2097,-402 2097,-402 2097,-408 2091,-414 2085,-414"/>
</g>
<!-- n18&#45;&gt;n19 -->
<g id="edge16" class="edge">
<title>n18&#45;&gt;n19</title>
<path fill="none" stroke="#90a4ae" d="M2002.4,-355.18C2012.3,-361.25 2023.71,-368.24 2034.25,-374.7"/>
<polygon fill="#90a4ae" stroke="#90a4ae" points="2032.5,-377.73 2042.85,-379.98 2036.16,-371.77 2032.5,-377.73"/>
<text text-anchor="middle" x="2022.5" y="-369.6" font-family="Times,serif" font-size="8.00" fill="#90a4ae">f</text>
</g>
<!-- n24 -->
<g id="node25" class="node">
<title>n24</title>
<path fill="#0f1721" stroke="#1c2a3a" d="M2085,-357C2085,-357 2055,-357 2055,-357 2049,-357 2043,-351 2043,-345 2043,-345 2043,-333 2043,-333 2043,-327 2049,-321 2055,-321 2055,-321 2085,-321 2085,-321 2091,-321 2097,-327 2097,-333 2097,-333 2097,-345 2097,-345 2097,-351 2091,-357 2085,-357"/>
</g>
<!-- n18&#45;&gt;n24 -->
<g id="edge17" class="edge">
<title>n18&#45;&gt;n24</title>
<path fill="none" stroke="#90a4ae" d="M2002.4,-339C2011.81,-339 2022.57,-339 2032.66,-339"/>
<polygon fill="#90a4ae" stroke="#90a4ae" points="2032.85,-342.5 2042.85,-339 2032.85,-335.5 2032.85,-342.5"/>
<text text-anchor="middle" x="2022.5" y="-341.6" font-family="Times,serif" font-size="8.00" fill="#90a4ae">a</text>
</g>
<!-- n20 -->
<g id="node21" class="node">
<title>n20</title>
<path fill="#0f1721" stroke="#1c2a3a" d="M2180,-468C2180,-468 2150,-468 2150,-468 2144,-468 2138,-462 2138,-456 2138,-456 2138,-444 2138,-444 2138,-438 2144,-432 2150,-432 2150,-432 2180,-432 2180,-432 2186,-432 2192,-438 2192,-444 2192,-444 2192,-456 2192,-456 2192,-462 2186,-468 2180,-468"/>
</g>
<!-- n19&#45;&gt;n20 -->
<g id="edge14" class="edge">
<title>n19&#45;&gt;n20</title>
<path fill="none" stroke="#90a4ae" d="M2097.4,-411.33C2107.2,-417.02 2118.48,-423.57 2128.94,-429.64"/>
<polygon fill="#90a4ae" stroke="#90a4ae" points="2127.45,-432.82 2137.85,-434.82 2130.96,-426.77 2127.45,-432.82"/>
<text text-anchor="middle" x="2117.5" y="-425.6" font-family="Times,serif" font-size="8.00" fill="#90a4ae">f</text>
</g>
<!-- n23 -->
<g id="node24" class="node">
<title>n23</title>
<path fill="#0f1721" stroke="#1c2a3a" d="M2180,-414C2180,-414 2150,-414 2150,-414 2144,-414 2138,-408 2138,-402 2138,-402 2138,-390 2138,-390 2138,-384 2144,-378 2150,-378 2150,-378 2180,-378 2180,-378 2186,-378 2192,-384 2192,-390 2192,-390 2192,-402 2192,-402 2192,-408 2186,-414 2180,-414"/>
</g>
<!-- n19&#45;&gt;n23 -->
<g id="edge15" class="edge">
<title>n19&#45;&gt;n23</title>
<path fill="none" stroke="#90a4ae" d="M2097.4,-396C2106.81,-396 2117.57,-396 2127.66,-396"/>
<polygon fill="#90a4ae" stroke="#90a4ae" points="2127.85,-399.5 2137.85,-396 2127.85,-392.5 2127.85,-399.5"/>
<text text-anchor="middle" x="2117.5" y="-398.6" font-family="Times,serif" font-size="8.00" fill="#90a4ae">a</text>
</g>
<!-- n21 -->
<g id="node22" class="node">
<title>n21</title>
<path fill="#0f1721" stroke="#1c2a3a" d="M2380,-522C2380,-522 2245,-522 2245,-522 2239,-522 2233,-516 2233,-510 2233,-510 2233,-498 2233,-498 2233,-492 2239,-486 2245,-486 2245,-486 2380,-486 2380,-486 2386,-486 2392,-492 2392,-498 2392,-498 2392,-510 2392,-510 2392,-516 2386,-522 2380,-522"/>
<text text-anchor="middle" x="2312.5" y="-501.8" font-family="Times,serif" font-size="9.00" fill="#e6eef7">CategoryTheory.Exponentiable</text>
</g>
<!-- n20&#45;&gt;n21 -->
<g id="edge12" class="edge">
<title>n20&#45;&gt;n21</title>
<path fill="none" stroke="#90a4ae" d="M2192.29,-460.96C2204.6,-466 2219.49,-471.96 2233,-477 2237.85,-478.81 2242.89,-480.65 2247.97,-482.46"/>
<polygon fill="#90a4ae" stroke="#90a4ae" points="2247.14,-485.88 2257.74,-485.92 2249.48,-479.29 2247.14,-485.88"/>
<text text-anchor="middle" x="2212.5" y="-471.6" font-family="Times,serif" font-size="8.00" fill="#90a4ae">f</text>
</g>
<!-- n22 -->
<g id="node23" class="node">
<title>n22</title>
<path fill="#0f1721" stroke="#1c2a3a" d="M2327.5,-468C2327.5,-468 2297.5,-468 2297.5,-468 2291.5,-468 2285.5,-462 2285.5,-456 2285.5,-456 2285.5,-444 2285.5,-444 2285.5,-438 2291.5,-432 2297.5,-432 2297.5,-432 2327.5,-432 2327.5,-432 2333.5,-432 2339.5,-438 2339.5,-444 2339.5,-444 2339.5,-456 2339.5,-456 2339.5,-462 2333.5,-468 2327.5,-468"/>
</g>
<!-- n20&#45;&gt;n22 -->
<g id="edge13" class="edge">
<title>n20&#45;&gt;n22</title>
<path fill="none" stroke="#90a4ae" d="M2192.01,-450C2215.15,-450 2249.21,-450 2275.06,-450"/>
<polygon fill="#90a4ae" stroke="#90a4ae" points="2275.22,-453.5 2285.22,-450 2275.22,-446.5 2275.22,-453.5"/>
<text text-anchor="middle" x="2212.5" y="-452.6" font-family="Times,serif" font-size="8.00" fill="#90a4ae">a</text>
</g>
<!-- n27 -->
<g id="node28" class="node">
<title>n27</title>
<path fill="#0f1721" stroke="#1c2a3a" d="M1990,-216C1990,-216 1960,-216 1960,-216 1954,-216 1948,-210 1948,-204 1948,-204 1948,-192 1948,-192 1948,-186 1954,-180 1960,-180 1960,-180 1990,-180 1990,-180 1996,-180 2002,-186 2002,-192 2002,-192 2002,-204 2002,-204 2002,-210 1996,-216 1990,-216"/>
</g>
<!-- n26&#45;&gt;n27 -->
<g id="edge65" class="edge">
<title>n26&#45;&gt;n27</title>
<path fill="none" stroke="#90a4ae" d="M1907.4,-198C1916.81,-198 1927.57,-198 1937.66,-198"/>
<polygon fill="#90a4ae" stroke="#90a4ae" points="1937.85,-201.5 1947.85,-198 1937.85,-194.5 1937.85,-201.5"/>
<text text-anchor="middle" x="1927.5" y="-200.6" font-family="Times,serif" font-size="8.00" fill="#90a4ae">f</text>
</g>
<!-- n72 -->
<g id="node73" class="node">
<title>n72</title>
<path fill="#0f1721" stroke="#1c2a3a" d="M1990,-90C1990,-90 1960,-90 1960,-90 1954,-90 1948,-84 1948,-78 1948,-78 1948,-66 1948,-66 1948,-60 1954,-54 1960,-54 1960,-54 1990,-54 1990,-54 1996,-54 2002,-60 2002,-66 2002,-66 2002,-78 2002,-78 2002,-84 1996,-90 1990,-90"/>
</g>
<!-- n26&#45;&gt;n72 -->
<g id="edge78" class="edge">
<title>n26&#45;&gt;n72</title>
<path fill="none" stroke="#90a4ae" d="M1894.32,-179.95C1910.14,-158.52 1936.64,-122.62 1954.7,-98.15"/>
<polygon fill="#90a4ae" stroke="#90a4ae" points="1957.58,-100.14 1960.7,-90.02 1951.95,-95.99 1957.58,-100.14"/>
<text text-anchor="middle" x="1927.5" y="-137.6" font-family="Times,serif" font-size="8.00" fill="#90a4ae">a</text>
</g>
<!-- n28 -->
<g id="node29" class="node">
<title>n28</title>
<path fill="#0f1721" stroke="#1c2a3a" d="M2085,-277C2085,-277 2055,-277 2055,-277 2049,-277 2043,-271 2043,-265 2043,-265 2043,-253 2043,-253 2043,-247 2049,-241 2055,-241 2055,-241 2085,-241 2085,-241 2091,-241 2097,-247 2097,-253 2097,-253 2097,-265 2097,-265 2097,-271 2091,-277 2085,-277"/>
</g>
<!-- n27&#45;&gt;n28 -->
<g id="edge53" class="edge">
<title>n27&#45;&gt;n28</title>
<path fill="none" stroke="#90a4ae" d="M2002.4,-215.32C2012.3,-221.81 2023.71,-229.29 2034.25,-236.21"/>
<polygon fill="#90a4ae" stroke="#90a4ae" points="2032.57,-239.29 2042.85,-241.85 2036.41,-233.44 2032.57,-239.29"/>
<text text-anchor="middle" x="2022.5" y="-230.6" font-family="Times,serif" font-size="8.00" fill="#90a4ae">f</text>
</g>
<!-- n61 -->
<g id="node62" class="node">
<title>n61</title>
<path fill="#0f1721" stroke="#1c2a3a" d="M2085,-198C2085,-198 2055,-198 2055,-198 2049,-198 2043,-192 2043,-186 2043,-186 2043,-174 2043,-174 2043,-168 2049,-162 2055,-162 2055,-162 2085,-162 2085,-162 2091,-162 2097,-168 2097,-174 2097,-174 2097,-186 2097,-186 2097,-192 2091,-198 2085,-198"/>
</g>
<!-- n27&#45;&gt;n61 -->
<g id="edge64" class="edge">
<title>n27&#45;&gt;n61</title>
<path fill="none" stroke="#90a4ae" d="M2002.4,-192.89C2011.91,-191.05 2022.8,-188.94 2032.98,-186.97"/>
<polygon fill="#90a4ae" stroke="#90a4ae" points="2033.7,-190.4 2042.85,-185.06 2032.37,-183.52 2033.7,-190.4"/>
<text text-anchor="middle" x="2022.5" y="-191.6" font-family="Times,serif" font-size="8.00" fill="#90a4ae">a</text>
</g>
<!-- n29 -->
<g id="node30" class="node">
<title>n29</title>
<path fill="#0f1721" stroke="#1c2a3a" d="M2180,-360C2180,-360 2150,-360 2150,-360 2144,-360 2138,-354 2138,-348 2138,-348 2138,-336 2138,-336 2138,-330 2144,-324 2150,-324 2150,-324 2180,-324 2180,-324 2186,-324 2192,-330 2192,-336 2192,-336 2192,-348 2192,-348 2192,-354 2186,-360 2180,-360"/>
</g>
<!-- n28&#45;&gt;n29 -->
<g id="edge37" class="edge">
<title>n28&#45;&gt;n29</title>
<path fill="none" stroke="#90a4ae" d="M2091.18,-277.01C2104.25,-288.68 2121.46,-304.03 2135.87,-316.89"/>
<polygon fill="#90a4ae" stroke="#90a4ae" points="2133.75,-319.69 2143.54,-323.74 2138.41,-314.47 2133.75,-319.69"/>
<text text-anchor="middle" x="2117.5" y="-302.6" font-family="Times,serif" font-size="8.00" fill="#90a4ae">f</text>
</g>
<!-- n46 -->
<g id="node47" class="node">
<title>n46</title>
<path fill="#0f1721" stroke="#1c2a3a" d="M2180,-277C2180,-277 2150,-277 2150,-277 2144,-277 2138,-271 2138,-265 2138,-265 2138,-253 2138,-253 2138,-247 2144,-241 2150,-241 2150,-241 2180,-241 2180,-241 2186,-241 2192,-247 2192,-253 2192,-253 2192,-265 2192,-265 2192,-271 2186,-277 2180,-277"/>
</g>
<!-- n28&#45;&gt;n46 -->
<g id="edge52" class="edge">
<title>n28&#45;&gt;n46</title>
<path fill="none" stroke="#90a4ae" d="M2097.4,-259C2106.81,-259 2117.57,-259 2127.66,-259"/>
<polygon fill="#90a4ae" stroke="#90a4ae" points="2127.85,-262.5 2137.85,-259 2127.85,-255.5 2127.85,-262.5"/>
<text text-anchor="middle" x="2117.5" y="-261.6" font-family="Times,serif" font-size="8.00" fill="#90a4ae">a</text>
</g>
<!-- n30 -->
<g id="node31" class="node">
<title>n30</title>
<path fill="#0f1721" stroke="#1c2a3a" d="M2353.5,-414C2353.5,-414 2271.5,-414 2271.5,-414 2265.5,-414 2259.5,-408 2259.5,-402 2259.5,-402 2259.5,-390 2259.5,-390 2259.5,-384 2265.5,-378 2271.5,-378 2271.5,-378 2353.5,-378 2353.5,-378 2359.5,-378 2365.5,-384 2365.5,-390 2365.5,-390 2365.5,-402 2365.5,-402 2365.5,-408 2359.5,-414 2353.5,-414"/>
<text text-anchor="middle" x="2312.5" y="-393.8" font-family="Times,serif" font-size="9.00" fill="#e6eef7">CategoryTheory.Iso</text>
</g>
<!-- n29&#45;&gt;n30 -->
<g id="edge21" class="edge">
<title>n29&#45;&gt;n30</title>
<path fill="none" stroke="#90a4ae" d="M2192.29,-352.96C2204.6,-358 2219.49,-363.96 2233,-369 2238.45,-371.03 2244.13,-373.1 2249.84,-375.13"/>
<polygon fill="#90a4ae" stroke="#90a4ae" points="2248.83,-378.49 2259.43,-378.51 2251.16,-371.89 2248.83,-378.49"/>
<text text-anchor="middle" x="2212.5" y="-363.6" font-family="Times,serif" font-size="8.00" fill="#90a4ae">f</text>
</g>
<!-- n31 -->
<g id="node32" class="node">
<title>n31</title>
<path fill="#0f1721" stroke="#1c2a3a" d="M2327.5,-360C2327.5,-360 2297.5,-360 2297.5,-360 2291.5,-360 2285.5,-354 2285.5,-348 2285.5,-348 2285.5,-336 2285.5,-336 2285.5,-330 2291.5,-324 2297.5,-324 2297.5,-324 2327.5,-324 2327.5,-324 2333.5,-324 2339.5,-330 2339.5,-336 2339.5,-336 2339.5,-348 2339.5,-348 2339.5,-354 2333.5,-360 2327.5,-360"/>
</g>
<!-- n29&#45;&gt;n31 -->
<g id="edge36" class="edge">
<title>n29&#45;&gt;n31</title>
<path fill="none" stroke="#90a4ae" d="M2192.01,-342C2215.15,-342 2249.21,-342 2275.06,-342"/>
<polygon fill="#90a4ae" stroke="#90a4ae" points="2275.22,-345.5 2285.22,-342 2275.22,-338.5 2275.22,-345.5"/>
<text text-anchor="middle" x="2212.5" y="-344.6" font-family="Times,serif" font-size="8.00" fill="#90a4ae">a</text>
</g>
<!-- n32 -->
<g id="node33" class="node">
<title>n32</title>
<path fill="#0f1721" stroke="#1c2a3a" d="M2506.5,-433C2506.5,-433 2476.5,-433 2476.5,-433 2470.5,-433 2464.5,-427 2464.5,-421 2464.5,-421 2464.5,-409 2464.5,-409 2464.5,-403 2470.5,-397 2476.5,-397 2476.5,-397 2506.5,-397 2506.5,-397 2512.5,-397 2518.5,-403 2518.5,-409 2518.5,-409 2518.5,-421 2518.5,-421 2518.5,-427 2512.5,-433 2506.5,-433"/>
</g>
<!-- n31&#45;&gt;n32 -->
<g id="edge34" class="edge">
<title>n31&#45;&gt;n32</title>
<path fill="none" stroke="#90a4ae" d="M2339.56,-350.2C2354.96,-355.23 2374.76,-362.03 2392,-369 2413.41,-377.65 2436.85,-388.54 2455.49,-397.55"/>
<polygon fill="#90a4ae" stroke="#90a4ae" points="2453.97,-400.7 2464.49,-401.94 2457.04,-394.41 2453.97,-400.7"/>
<text text-anchor="middle" x="2412.5" y="-380.6" font-family="Times,serif" font-size="8.00" fill="#90a4ae">f</text>
</g>
<!-- n45 -->
<g id="node46" class="node">
<title>n45</title>
<path fill="#0f1721" stroke="#1c2a3a" d="M2538,-360C2538,-360 2445,-360 2445,-360 2439,-360 2433,-354 2433,-348 2433,-348 2433,-336 2433,-336 2433,-330 2439,-324 2445,-324 2445,-324 2538,-324 2538,-324 2544,-324 2550,-330 2550,-336 2550,-336 2550,-348 2550,-348 2550,-354 2544,-360 2538,-360"/>
<text text-anchor="middle" x="2491.5" y="-339.8" font-family="Times,serif" font-size="9.00" fill="#e6eef7">CategoryTheory.types</text>
</g>
<!-- n31&#45;&gt;n45 -->
<g id="edge35" class="edge">
<title>n31&#45;&gt;n45</title>
<path fill="none" stroke="#90a4ae" d="M2339.62,-342C2361.47,-342 2393.64,-342 2422.67,-342"/>
<polygon fill="#90a4ae" stroke="#90a4ae" points="2422.78,-345.5 2432.78,-342 2422.78,-338.5 2422.78,-345.5"/>
<text text-anchor="middle" x="2412.5" y="-344.6" font-family="Times,serif" font-size="8.00" fill="#90a4ae">a</text>
</g>
<!-- n33 -->
<g id="node34" class="node">
<title>n33</title>
<path fill="#0f1721" stroke="#1c2a3a" d="M2633,-487C2633,-487 2603,-487 2603,-487 2597,-487 2591,-481 2591,-475 2591,-475 2591,-463 2591,-463 2591,-457 2597,-451 2603,-451 2603,-451 2633,-451 2633,-451 2639,-451 2645,-457 2645,-463 2645,-463 2645,-475 2645,-475 2645,-481 2639,-487 2633,-487"/>
</g>
<!-- n32&#45;&gt;n33 -->
<g id="edge32" class="edge">
<title>n32&#45;&gt;n33</title>
<path fill="none" stroke="#90a4ae" d="M2518.6,-426.32C2536.86,-434.24 2561.47,-444.92 2581.51,-453.61"/>
<polygon fill="#90a4ae" stroke="#90a4ae" points="2580.37,-456.93 2590.94,-457.69 2583.15,-450.5 2580.37,-456.93"/>
<text text-anchor="middle" x="2570.5" y="-450.6" font-family="Times,serif" font-size="8.00" fill="#90a4ae">f</text>
</g>
<!-- n44 -->
<g id="node45" class="node">
<title>n44</title>
<path fill="#112033" stroke="#1c2a3a" d="M2633,-433C2633,-433 2603,-433 2603,-433 2597,-433 2591,-427 2591,-421 2591,-421 2591,-409 2591,-409 2591,-403 2597,-397 2603,-397 2603,-397 2633,-397 2633,-397 2639,-397 2645,-403 2645,-409 2645,-409 2645,-421 2645,-421 2645,-427 2639,-433 2633,-433"/>
<text text-anchor="middle" x="2618" y="-412.8" font-family="Times,serif" font-size="9.00" fill="#e6eef7">Sort</text>
</g>
<!-- n32&#45;&gt;n44 -->
<g id="edge33" class="edge">
<title>n32&#45;&gt;n44</title>
<path fill="none" stroke="#90a4ae" d="M2518.6,-415C2536.61,-415 2560.8,-415 2580.69,-415"/>
<polygon fill="#90a4ae" stroke="#90a4ae" points="2580.94,-418.5 2590.94,-415 2580.94,-411.5 2580.94,-418.5"/>
<text text-anchor="middle" x="2570.5" y="-417.6" font-family="Times,serif" font-size="8.00" fill="#90a4ae">a</text>
</g>
<!-- n34 -->
<g id="node35" class="node">
<title>n34</title>
<path fill="#0f1721" stroke="#1c2a3a" d="M2825.5,-576C2825.5,-576 2795.5,-576 2795.5,-576 2789.5,-576 2783.5,-570 2783.5,-564 2783.5,-564 2783.5,-552 2783.5,-552 2783.5,-546 2789.5,-540 2795.5,-540 2795.5,-540 2825.5,-540 2825.5,-540 2831.5,-540 2837.5,-546 2837.5,-552 2837.5,-552 2837.5,-564 2837.5,-564 2837.5,-570 2831.5,-576 2825.5,-576"/>
</g>
<!-- n33&#45;&gt;n34 -->
<g id="edge26" class="edge">
<title>n33&#45;&gt;n34</title>
<path fill="none" stroke="#90a4ae" d="M2645.09,-481.19C2678.48,-496.79 2736.49,-523.89 2773.91,-541.37"/>
<polygon fill="#90a4ae" stroke="#90a4ae" points="2772.88,-544.75 2783.42,-545.82 2775.84,-538.41 2772.88,-544.75"/>
<text text-anchor="middle" x="2665.5" y="-492.6" font-family="Times,serif" font-size="8.00" fill="#90a4ae">f</text>
</g>
<!-- n39 -->
<g id="node40" class="node">
<title>n39</title>
<path fill="#0f1721" stroke="#1c2a3a" d="M2825.5,-487C2825.5,-487 2795.5,-487 2795.5,-487 2789.5,-487 2783.5,-481 2783.5,-475 2783.5,-475 2783.5,-463 2783.5,-463 2783.5,-457 2789.5,-451 2795.5,-451 2795.5,-451 2825.5,-451 2825.5,-451 2831.5,-451 2837.5,-457 2837.5,-463 2837.5,-463 2837.5,-475 2837.5,-475 2837.5,-481 2831.5,-487 2825.5,-487"/>
</g>
<!-- n33&#45;&gt;n39 -->
<g id="edge31" class="edge">
<title>n33&#45;&gt;n39</title>
<path fill="none" stroke="#90a4ae" d="M2645.09,-469C2678.2,-469 2735.5,-469 2772.95,-469"/>
<polygon fill="#90a4ae" stroke="#90a4ae" points="2773.42,-472.5 2783.42,-469 2773.42,-465.5 2773.42,-472.5"/>
<text text-anchor="middle" x="2665.5" y="-471.6" font-family="Times,serif" font-size="8.00" fill="#90a4ae">a</text>
</g>
<!-- n35 -->
<g id="node36" class="node">
<title>n35</title>
<path fill="#0f1721" stroke="#1c2a3a" d="M3116,-630C3116,-630 3011,-630 3011,-630 3005,-630 2999,-624 2999,-618 2999,-618 2999,-606 2999,-606 2999,-600 3005,-594 3011,-594 3011,-594 3116,-594 3116,-594 3122,-594 3128,-600 3128,-606 3128,-606 3128,-618 3128,-618 3128,-624 3122,-630 3116,-630"/>
<text text-anchor="middle" x="3063.5" y="-609.8" font-family="Times,serif" font-size="9.00" fill="#e6eef7">CategoryTheory.Functor</text>
</g>
<!-- n34&#45;&gt;n35 -->
<g id="edge22" class="edge">
<title>n34&#45;&gt;n35</title>
<path fill="none" stroke="#90a4ae" d="M2837.89,-563.68C2873.4,-571.32 2938,-585.22 2988.83,-596.15"/>
<polygon fill="#90a4ae" stroke="#90a4ae" points="2988.29,-599.61 2998.8,-598.3 2989.76,-592.77 2988.29,-599.61"/>
<text text-anchor="middle" x="2955.5" y="-591.6" font-family="Times,serif" font-size="8.00" fill="#90a4ae">f</text>
</g>
<!-- n36 -->
<g id="node37" class="node">
<title>n36</title>
<path fill="#0f1721" stroke="#1c2a3a" d="M3078.5,-576C3078.5,-576 3048.5,-576 3048.5,-576 3042.5,-576 3036.5,-570 3036.5,-564 3036.5,-564 3036.5,-552 3036.5,-552 3036.5,-546 3042.5,-540 3048.5,-540 3048.5,-540 3078.5,-540 3078.5,-540 3084.5,-540 3090.5,-546 3090.5,-552 3090.5,-552 3090.5,-564 3090.5,-564 3090.5,-570 3084.5,-576 3078.5,-576"/>
</g>
<!-- n34&#45;&gt;n36 -->
<g id="edge25" class="edge">
<title>n34&#45;&gt;n36</title>
<path fill="none" stroke="#90a4ae" d="M2837.89,-558C2883.01,-558 2975.06,-558 3026.21,-558"/>
<polygon fill="#90a4ae" stroke="#90a4ae" points="3026.47,-561.5 3036.47,-558 3026.47,-554.5 3026.47,-561.5"/>
<text text-anchor="middle" x="2955.5" y="-560.6" font-family="Times,serif" font-size="8.00" fill="#90a4ae">a</text>
</g>
<!-- n37 -->
<g id="node38" class="node">
<title>n37</title>
<path fill="#0f1721" stroke="#1c2a3a" d="M3296.5,-630C3296.5,-630 3262.5,-630 3262.5,-630 3256.5,-630 3250.5,-624 3250.5,-618 3250.5,-618 3250.5,-606 3250.5,-606 3250.5,-600 3256.5,-594 3262.5,-594 3262.5,-594 3296.5,-594 3296.5,-594 3302.5,-594 3308.5,-600 3308.5,-606 3308.5,-606 3308.5,-618 3308.5,-618 3308.5,-624 3302.5,-630 3296.5,-630"/>
<text text-anchor="middle" x="3279.5" y="-609.8" font-family="Times,serif" font-size="9.00" fill="#e6eef7">Opposite</text>
</g>
<!-- n36&#45;&gt;n37 -->
<g id="edge23" class="edge">
<title>n36&#45;&gt;n37</title>
<path fill="none" stroke="#90a4ae" d="M3090.74,-564.62C3128.25,-574.09 3197.41,-591.54 3240.51,-602.41"/>
<polygon fill="#90a4ae" stroke="#90a4ae" points="3239.79,-605.84 3250.34,-604.9 3241.5,-599.05 3239.79,-605.84"/>
<text text-anchor="middle" x="3171.5" y="-587.6" font-family="Times,serif" font-size="8.00" fill="#90a4ae">f</text>
</g>
<!-- n38 -->
<g id="node39" class="node">
<title>n38</title>
<path fill="#0f1721" stroke="#1c2a3a" d="M3294.5,-576C3294.5,-576 3264.5,-576 3264.5,-576 3258.5,-576 3252.5,-570 3252.5,-564 3252.5,-564 3252.5,-552 3252.5,-552 3252.5,-546 3258.5,-540 3264.5,-540 3264.5,-540 3294.5,-540 3294.5,-540 3300.5,-540 3306.5,-546 3306.5,-552 3306.5,-552 3306.5,-564 3306.5,-564 3306.5,-570 3300.5,-576 3294.5,-576"/>
</g>
<!-- n36&#45;&gt;n38 -->
<g id="edge24" class="edge">
<title>n36&#45;&gt;n38</title>
<path fill="none" stroke="#90a4ae" d="M3090.74,-558C3128.79,-558 3199.4,-558 3242.35,-558"/>
<polygon fill="#90a4ae" stroke="#90a4ae" points="3242.38,-561.5 3252.38,-558 3242.38,-554.5 3242.38,-561.5"/>
<text text-anchor="middle" x="3171.5" y="-560.6" font-family="Times,serif" font-size="8.00" fill="#90a4ae">a</text>
</g>
<!-- n40 -->
<g id="node41" class="node">
<title>n40</title>
<path fill="#0f1721" stroke="#1c2a3a" d="M3078.5,-522C3078.5,-522 3048.5,-522 3048.5,-522 3042.5,-522 3036.5,-516 3036.5,-510 3036.5,-510 3036.5,-498 3036.5,-498 3036.5,-492 3042.5,-486 3048.5,-486 3048.5,-486 3078.5,-486 3078.5,-486 3084.5,-486 3090.5,-492 3090.5,-498 3090.5,-498 3090.5,-510 3090.5,-510 3090.5,-516 3084.5,-522 3078.5,-522"/>
</g>
<!-- n39&#45;&gt;n40 -->
<g id="edge29" class="edge">
<title>n39&#45;&gt;n40</title>
<path fill="none" stroke="#90a4ae" d="M2837.89,-472.68C2883.1,-478.98 2975.45,-491.86 3026.53,-498.98"/>
<polygon fill="#90a4ae" stroke="#90a4ae" points="3026.08,-502.46 3036.47,-500.37 3027.05,-495.52 3026.08,-502.46"/>
<text text-anchor="middle" x="2955.5" y="-491.6" font-family="Times,serif" font-size="8.00" fill="#90a4ae">f</text>
</g>
<!-- n43 -->
<g id="node44" class="node">
<title>n43</title>
<path fill="#0f1721" stroke="#1c2a3a" d="M3078.5,-468C3078.5,-468 3048.5,-468 3048.5,-468 3042.5,-468 3036.5,-462 3036.5,-456 3036.5,-456 3036.5,-444 3036.5,-444 3036.5,-438 3042.5,-432 3048.5,-432 3048.5,-432 3078.5,-432 3078.5,-432 3084.5,-432 3090.5,-438 3090.5,-444 3090.5,-444 3090.5,-456 3090.5,-456 3090.5,-462 3084.5,-468 3078.5,-468"/>
</g>
<!-- n39&#45;&gt;n43 -->
<g id="edge30" class="edge">
<title>n39&#45;&gt;n43</title>
<path fill="none" stroke="#90a4ae" d="M2837.89,-467C2883.01,-463.59 2975.06,-456.62 3026.21,-452.75"/>
<polygon fill="#90a4ae" stroke="#90a4ae" points="3026.76,-456.22 3036.47,-451.97 3026.23,-449.24 3026.76,-456.22"/>
<text text-anchor="middle" x="2955.5" y="-460.6" font-family="Times,serif" font-size="8.00" fill="#90a4ae">a</text>
</g>
<!-- n41 -->
<g id="node42" class="node">
<title>n41</title>
<path fill="#0f1721" stroke="#1c2a3a" d="M3355,-522C3355,-522 3204,-522 3204,-522 3198,-522 3192,-516 3192,-510 3192,-510 3192,-498 3192,-498 3192,-492 3198,-486 3204,-486 3204,-486 3355,-486 3355,-486 3361,-486 3367,-492 3367,-498 3367,-498 3367,-510 3367,-510 3367,-516 3361,-522 3355,-522"/>
<text text-anchor="middle" x="3279.5" y="-501.8" font-family="Times,serif" font-size="9.00" fill="#e6eef7">CategoryTheory.Category.opposite</text>
</g>
<!-- n40&#45;&gt;n41 -->
<g id="edge27" class="edge">
<title>n40&#45;&gt;n41</title>
<path fill="none" stroke="#90a4ae" d="M3090.74,-504C3113.6,-504 3148.22,-504 3181.52,-504"/>
<polygon fill="#90a4ae" stroke="#90a4ae" points="3181.81,-507.5 3191.81,-504 3181.81,-500.5 3181.81,-507.5"/>
<text text-anchor="middle" x="3171.5" y="-506.6" font-family="Times,serif" font-size="8.00" fill="#90a4ae">f</text>
</g>
<!-- n42 -->
<g id="node43" class="node">
<title>n42</title>
<path fill="#0f1721" stroke="#1c2a3a" d="M3294.5,-468C3294.5,-468 3264.5,-468 3264.5,-468 3258.5,-468 3252.5,-462 3252.5,-456 3252.5,-456 3252.5,-444 3252.5,-444 3252.5,-438 3258.5,-432 3264.5,-432 3264.5,-432 3294.5,-432 3294.5,-432 3300.5,-432 3306.5,-438 3306.5,-444 3306.5,-444 3306.5,-456 3306.5,-456 3306.5,-462 3300.5,-468 3294.5,-468"/>
</g>
<!-- n40&#45;&gt;n42 -->
<g id="edge28" class="edge">
<title>n40&#45;&gt;n42</title>
<path fill="none" stroke="#90a4ae" d="M3090.74,-497.38C3128.87,-487.76 3199.7,-469.88 3242.63,-459.05"/>
<polygon fill="#90a4ae" stroke="#90a4ae" points="3243.54,-462.43 3252.38,-456.59 3241.83,-455.64 3243.54,-462.43"/>
<text text-anchor="middle" x="3171.5" y="-479.6" font-family="Times,serif" font-size="8.00" fill="#90a4ae">a</text>
</g>
<!-- n47 -->
<g id="node48" class="node">
<title>n47</title>
<path fill="#0f1721" stroke="#1c2a3a" d="M2327.5,-306C2327.5,-306 2297.5,-306 2297.5,-306 2291.5,-306 2285.5,-300 2285.5,-294 2285.5,-294 2285.5,-282 2285.5,-282 2285.5,-276 2291.5,-270 2297.5,-270 2297.5,-270 2327.5,-270 2327.5,-270 2333.5,-270 2339.5,-276 2339.5,-282 2339.5,-282 2339.5,-294 2339.5,-294 2339.5,-300 2333.5,-306 2327.5,-306"/>
</g>
<!-- n46&#45;&gt;n47 -->
<g id="edge50" class="edge">
<title>n46&#45;&gt;n47</title>
<path fill="none" stroke="#90a4ae" d="M2192.01,-264.18C2215.25,-268.82 2249.52,-275.65 2275.4,-280.81"/>
<polygon fill="#90a4ae" stroke="#90a4ae" points="2274.73,-284.24 2285.22,-282.76 2276.1,-277.38 2274.73,-284.24"/>
<text text-anchor="middle" x="2212.5" y="-270.6" font-family="Times,serif" font-size="8.00" fill="#90a4ae">f</text>
</g>
<!-- n60 -->
<g id="node61" class="node">
<title>n60</title>
<path fill="#0f1721" stroke="#1c2a3a" d="M2359,-252C2359,-252 2266,-252 2266,-252 2260,-252 2254,-246 2254,-240 2254,-240 2254,-228 2254,-228 2254,-222 2260,-216 2266,-216 2266,-216 2359,-216 2359,-216 2365,-216 2371,-222 2371,-228 2371,-228 2371,-240 2371,-240 2371,-246 2365,-252 2359,-252"/>
<text text-anchor="middle" x="2312.5" y="-231.8" font-family="Times,serif" font-size="9.00" fill="#e6eef7">CategoryTheory.types</text>
</g>
<!-- n46&#45;&gt;n60 -->
<g id="edge51" class="edge">
<title>n46&#45;&gt;n60</title>
<path fill="none" stroke="#90a4ae" d="M2192.25,-248.95C2198.02,-247.05 2204.16,-245.26 2210,-244 2220.91,-241.64 2232.6,-239.83 2244.02,-238.45"/>
<polygon fill="#90a4ae" stroke="#90a4ae" points="2244.42,-241.93 2253.97,-237.35 2243.65,-234.97 2244.42,-241.93"/>
<text text-anchor="middle" x="2212.5" y="-246.6" font-family="Times,serif" font-size="8.00" fill="#90a4ae">a</text>
</g>
<!-- n48 -->
<g id="node49" class="node">
<title>n48</title>
<path fill="#0f1721" stroke="#1c2a3a" d="M2506.5,-306C2506.5,-306 2476.5,-306 2476.5,-306 2470.5,-306 2464.5,-300 2464.5,-294 2464.5,-294 2464.5,-282 2464.5,-282 2464.5,-276 2470.5,-270 2476.5,-270 2476.5,-270 2506.5,-270 2506.5,-270 2512.5,-270 2518.5,-276 2518.5,-282 2518.5,-282 2518.5,-294 2518.5,-294 2518.5,-300 2512.5,-306 2506.5,-306"/>
</g>
<!-- n47&#45;&gt;n48 -->
<g id="edge48" class="edge">
<title>n47&#45;&gt;n48</title>
<path fill="none" stroke="#90a4ae" d="M2339.62,-288C2369.94,-288 2420.16,-288 2454.25,-288"/>
<polygon fill="#90a4ae" stroke="#90a4ae" points="2454.28,-291.5 2464.28,-288 2454.28,-284.5 2454.28,-291.5"/>
<text text-anchor="middle" x="2412.5" y="-290.6" font-family="Times,serif" font-size="8.00" fill="#90a4ae">f</text>
</g>
<!-- n59 -->
<g id="node60" class="node">
<title>n59</title>
<path fill="#112033" stroke="#1c2a3a" d="M2506.5,-252C2506.5,-252 2476.5,-252 2476.5,-252 2470.5,-252 2464.5,-246 2464.5,-240 2464.5,-240 2464.5,-228 2464.5,-228 2464.5,-222 2470.5,-216 2476.5,-216 2476.5,-216 2506.5,-216 2506.5,-216 2512.5,-216 2518.5,-222 2518.5,-228 2518.5,-228 2518.5,-240 2518.5,-240 2518.5,-246 2512.5,-252 2506.5,-252"/>
<text text-anchor="middle" x="2491.5" y="-231.8" font-family="Times,serif" font-size="9.00" fill="#e6eef7">Sort</text>
</g>
<!-- n47&#45;&gt;n59 -->
<g id="edge49" class="edge">
<title>n47&#45;&gt;n59</title>
<path fill="none" stroke="#90a4ae" d="M2339.62,-280.03C2370.08,-270.74 2420.59,-255.33 2454.69,-244.92"/>
<polygon fill="#90a4ae" stroke="#90a4ae" points="2455.73,-248.27 2464.28,-242 2453.69,-241.57 2455.73,-248.27"/>
<text text-anchor="middle" x="2412.5" y="-259.6" font-family="Times,serif" font-size="8.00" fill="#90a4ae">a</text>
</g>
<!-- n49 -->
<g id="node50" class="node">
<title>n49</title>
<path fill="#0f1721" stroke="#1c2a3a" d="M2633,-360C2633,-360 2603,-360 2603,-360 2597,-360 2591,-354 2591,-348 2591,-348 2591,-336 2591,-336 2591,-330 2597,-324 2603,-324 2603,-324 2633,-324 2633,-324 2639,-324 2645,-330 2645,-336 2645,-336 2645,-348 2645,-348 2645,-354 2639,-360 2633,-360"/>
</g>
<!-- n48&#45;&gt;n49 -->
<g id="edge42" class="edge">
<title>n48&#45;&gt;n49</title>
<path fill="none" stroke="#90a4ae" d="M2518.6,-299.32C2536.86,-307.24 2561.47,-317.92 2581.51,-326.61"/>
<polygon fill="#90a4ae" stroke="#90a4ae" points="2580.37,-329.93 2590.94,-330.69 2583.15,-323.5 2580.37,-329.93"/>
<text text-anchor="middle" x="2570.5" y="-323.6" font-family="Times,serif" font-size="8.00" fill="#90a4ae">f</text>
</g>
<!-- n54 -->
<g id="node55" class="node">
<title>n54</title>
<path fill="#0f1721" stroke="#1c2a3a" d="M2633,-306C2633,-306 2603,-306 2603,-306 2597,-306 2591,-300 2591,-294 2591,-294 2591,-282 2591,-282 2591,-276 2597,-270 2603,-270 2603,-270 2633,-270 2633,-270 2639,-270 2645,-276 2645,-282 2645,-282 2645,-294 2645,-294 2645,-300 2639,-306 2633,-306"/>
</g>
<!-- n48&#45;&gt;n54 -->
<g id="edge47" class="edge">
<title>n48&#45;&gt;n54</title>
<path fill="none" stroke="#90a4ae" d="M2518.6,-288C2536.61,-288 2560.8,-288 2580.69,-288"/>
<polygon fill="#90a4ae" stroke="#90a4ae" points="2580.94,-291.5 2590.94,-288 2580.94,-284.5 2580.94,-291.5"/>
<text text-anchor="middle" x="2570.5" y="-290.6" font-family="Times,serif" font-size="8.00" fill="#90a4ae">a</text>
</g>
<!-- n50 -->
<g id="node51" class="node">
<title>n50</title>
<path fill="#0f1721" stroke="#1c2a3a" d="M2884,-414C2884,-414 2737,-414 2737,-414 2731,-414 2725,-408 2725,-402 2725,-402 2725,-390 2725,-390 2725,-384 2731,-378 2737,-378 2737,-378 2884,-378 2884,-378 2890,-378 2896,-384 2896,-390 2896,-390 2896,-402 2896,-402 2896,-408 2890,-414 2884,-414"/>
<text text-anchor="middle" x="2810.5" y="-393.8" font-family="Times,serif" font-size="9.00" fill="#e6eef7">CategoryTheory.Functor.category</text>
</g>
<!-- n49&#45;&gt;n50 -->
<g id="edge38" class="edge">
<title>n49&#45;&gt;n50</title>
<path fill="none" stroke="#90a4ae" d="M2645.04,-353.68C2657.3,-358.87 2672.22,-364.75 2686,-369 2695.36,-371.89 2705.21,-374.59 2715.09,-377.08"/>
<polygon fill="#90a4ae" stroke="#90a4ae" points="2714.42,-380.52 2724.97,-379.5 2716.09,-373.72 2714.42,-380.52"/>
<text text-anchor="middle" x="2665.5" y="-364.6" font-family="Times,serif" font-size="8.00" fill="#90a4ae">f</text>
</g>
<!-- n51 -->
<g id="node52" class="node">
<title>n51</title>
<path fill="#0f1721" stroke="#1c2a3a" d="M2825.5,-360C2825.5,-360 2795.5,-360 2795.5,-360 2789.5,-360 2783.5,-354 2783.5,-348 2783.5,-348 2783.5,-336 2783.5,-336 2783.5,-330 2789.5,-324 2795.5,-324 2795.5,-324 2825.5,-324 2825.5,-324 2831.5,-324 2837.5,-330 2837.5,-336 2837.5,-336 2837.5,-348 2837.5,-348 2837.5,-354 2831.5,-360 2825.5,-360"/>
</g>
<!-- n49&#45;&gt;n51 -->
<g id="edge41" class="edge">
<title>n49&#45;&gt;n51</title>
<path fill="none" stroke="#90a4ae" d="M2645.09,-342C2678.2,-342 2735.5,-342 2772.95,-342"/>
<polygon fill="#90a4ae" stroke="#90a4ae" points="2773.42,-345.5 2783.42,-342 2773.42,-338.5 2773.42,-345.5"/>
<text text-anchor="middle" x="2665.5" y="-344.6" font-family="Times,serif" font-size="8.00" fill="#90a4ae">a</text>
</g>
<!-- n52 -->
<g id="node53" class="node">
<title>n52</title>
<path fill="#0f1721" stroke="#1c2a3a" d="M3080.5,-414C3080.5,-414 3046.5,-414 3046.5,-414 3040.5,-414 3034.5,-408 3034.5,-402 3034.5,-402 3034.5,-390 3034.5,-390 3034.5,-384 3040.5,-378 3046.5,-378 3046.5,-378 3080.5,-378 3080.5,-378 3086.5,-378 3092.5,-384 3092.5,-390 3092.5,-390 3092.5,-402 3092.5,-402 3092.5,-408 3086.5,-414 3080.5,-414"/>
<text text-anchor="middle" x="3063.5" y="-393.8" font-family="Times,serif" font-size="9.00" fill="#e6eef7">Opposite</text>
</g>
<!-- n51&#45;&gt;n52 -->
<g id="edge39" class="edge">
<title>n51&#45;&gt;n52</title>
<path fill="none" stroke="#90a4ae" d="M2837.89,-347.68C2882.4,-357.25 2972.58,-376.65 3024.1,-387.74"/>
<polygon fill="#90a4ae" stroke="#90a4ae" points="3023.66,-391.22 3034.17,-389.91 3025.13,-384.38 3023.66,-391.22"/>
<text text-anchor="middle" x="2955.5" y="-375.6" font-family="Times,serif" font-size="8.00" fill="#90a4ae">f</text>
</g>
<!-- n53 -->
<g id="node54" class="node">
<title>n53</title>
<path fill="#0f1721" stroke="#1c2a3a" d="M3078.5,-360C3078.5,-360 3048.5,-360 3048.5,-360 3042.5,-360 3036.5,-354 3036.5,-348 3036.5,-348 3036.5,-336 3036.5,-336 3036.5,-330 3042.5,-324 3048.5,-324 3048.5,-324 3078.5,-324 3078.5,-324 3084.5,-324 3090.5,-330 3090.5,-336 3090.5,-336 3090.5,-348 3090.5,-348 3090.5,-354 3084.5,-360 3078.5,-360"/>
</g>
<!-- n51&#45;&gt;n53 -->
<g id="edge40" class="edge">
<title>n51&#45;&gt;n53</title>
<path fill="none" stroke="#90a4ae" d="M2837.89,-342C2883.01,-342 2975.06,-342 3026.21,-342"/>
<polygon fill="#90a4ae" stroke="#90a4ae" points="3026.47,-345.5 3036.47,-342 3026.47,-338.5 3026.47,-345.5"/>
<text text-anchor="middle" x="2955.5" y="-344.6" font-family="Times,serif" font-size="8.00" fill="#90a4ae">a</text>
</g>
<!-- n55 -->
<g id="node56" class="node">
<title>n55</title>
<path fill="#0f1721" stroke="#1c2a3a" d="M2825.5,-306C2825.5,-306 2795.5,-306 2795.5,-306 2789.5,-306 2783.5,-300 2783.5,-294 2783.5,-294 2783.5,-282 2783.5,-282 2783.5,-276 2789.5,-270 2795.5,-270 2795.5,-270 2825.5,-270 2825.5,-270 2831.5,-270 2837.5,-276 2837.5,-282 2837.5,-282 2837.5,-294 2837.5,-294 2837.5,-300 2831.5,-306 2825.5,-306"/>
</g>
<!-- n54&#45;&gt;n55 -->
<g id="edge45" class="edge">
<title>n54&#45;&gt;n55</title>
<path fill="none" stroke="#90a4ae" d="M2645.09,-288C2678.2,-288 2735.5,-288 2772.95,-288"/>
<polygon fill="#90a4ae" stroke="#90a4ae" points="2773.42,-291.5 2783.42,-288 2773.42,-284.5 2773.42,-291.5"/>
<text text-anchor="middle" x="2665.5" y="-290.6" font-family="Times,serif" font-size="8.00" fill="#90a4ae">f</text>
</g>
<!-- n58 -->
<g id="node59" class="node">
<title>n58</title>
<path fill="#0f1721" stroke="#1c2a3a" d="M2825.5,-252C2825.5,-252 2795.5,-252 2795.5,-252 2789.5,-252 2783.5,-246 2783.5,-240 2783.5,-240 2783.5,-228 2783.5,-228 2783.5,-222 2789.5,-216 2795.5,-216 2795.5,-216 2825.5,-216 2825.5,-216 2831.5,-216 2837.5,-222 2837.5,-228 2837.5,-228 2837.5,-240 2837.5,-240 2837.5,-246 2831.5,-252 2825.5,-252"/>
</g>
<!-- n54&#45;&gt;n58 -->
<g id="edge46" class="edge">
<title>n54&#45;&gt;n58</title>
<path fill="none" stroke="#90a4ae" d="M2645.04,-276.32C2657.3,-271.13 2672.22,-265.25 2686,-261 2714.81,-252.11 2748.26,-244.99 2773.08,-240.3"/>
<polygon fill="#90a4ae" stroke="#90a4ae" points="2773.95,-243.69 2783.15,-238.43 2772.68,-236.81 2773.95,-243.69"/>
<text text-anchor="middle" x="2665.5" y="-270.6" font-family="Times,serif" font-size="8.00" fill="#90a4ae">a</text>
</g>
<!-- n56 -->
<g id="node57" class="node">
<title>n56</title>
<path fill="#0f1721" stroke="#1c2a3a" d="M3139,-306C3139,-306 2988,-306 2988,-306 2982,-306 2976,-300 2976,-294 2976,-294 2976,-282 2976,-282 2976,-276 2982,-270 2988,-270 2988,-270 3139,-270 3139,-270 3145,-270 3151,-276 3151,-282 3151,-282 3151,-294 3151,-294 3151,-300 3145,-306 3139,-306"/>
<text text-anchor="middle" x="3063.5" y="-285.8" font-family="Times,serif" font-size="9.00" fill="#e6eef7">CategoryTheory.Category.opposite</text>
</g>
<!-- n55&#45;&gt;n56 -->
<g id="edge43" class="edge">
<title>n55&#45;&gt;n56</title>
<path fill="none" stroke="#90a4ae" d="M2837.89,-288C2868.2,-288 2919.69,-288 2965.73,-288"/>
<polygon fill="#90a4ae" stroke="#90a4ae" points="2965.77,-291.5 2975.77,-288 2965.77,-284.5 2965.77,-291.5"/>
<text text-anchor="middle" x="2955.5" y="-290.6" font-family="Times,serif" font-size="8.00" fill="#90a4ae">f</text>
</g>
<!-- n57 -->
<g id="node58" class="node">
<title>n57</title>
<path fill="#0f1721" stroke="#1c2a3a" d="M3078.5,-252C3078.5,-252 3048.5,-252 3048.5,-252 3042.5,-252 3036.5,-246 3036.5,-240 3036.5,-240 3036.5,-228 3036.5,-228 3036.5,-222 3042.5,-216 3048.5,-216 3048.5,-216 3078.5,-216 3078.5,-216 3084.5,-216 3090.5,-222 3090.5,-228 3090.5,-228 3090.5,-240 3090.5,-240 3090.5,-246 3084.5,-252 3078.5,-252"/>
</g>
<!-- n55&#45;&gt;n57 -->
<g id="edge44" class="edge">
<title>n55&#45;&gt;n57</title>
<path fill="none" stroke="#90a4ae" d="M2837.89,-282.32C2883.1,-272.6 2975.45,-252.73 3026.53,-241.74"/>
<polygon fill="#90a4ae" stroke="#90a4ae" points="3027.43,-245.13 3036.47,-239.6 3025.95,-238.28 3027.43,-245.13"/>
<text text-anchor="middle" x="2955.5" y="-258.6" font-family="Times,serif" font-size="8.00" fill="#90a4ae">a</text>
</g>
<!-- n62 -->
<g id="node63" class="node">
<title>n62</title>
<path fill="#0f1721" stroke="#1c2a3a" d="M2180,-198C2180,-198 2150,-198 2150,-198 2144,-198 2138,-192 2138,-186 2138,-186 2138,-174 2138,-174 2138,-168 2144,-162 2150,-162 2150,-162 2180,-162 2180,-162 2186,-162 2192,-168 2192,-174 2192,-174 2192,-186 2192,-186 2192,-192 2186,-198 2180,-198"/>
</g>
<!-- n61&#45;&gt;n62 -->
<g id="edge62" class="edge">
<title>n61&#45;&gt;n62</title>
<path fill="none" stroke="#90a4ae" d="M2097.4,-180C2106.81,-180 2117.57,-180 2127.66,-180"/>
<polygon fill="#90a4ae" stroke="#90a4ae" points="2127.85,-183.5 2137.85,-180 2127.85,-176.5 2127.85,-183.5"/>
<text text-anchor="middle" x="2117.5" y="-182.6" font-family="Times,serif" font-size="8.00" fill="#90a4ae">f</text>
</g>
<!-- n71 -->
<g id="node72" class="node">
<title>n71</title>
<path fill="#0f1721" stroke="#1c2a3a" d="M2180,-144C2180,-144 2150,-144 2150,-144 2144,-144 2138,-138 2138,-132 2138,-132 2138,-120 2138,-120 2138,-114 2144,-108 2150,-108 2150,-108 2180,-108 2180,-108 2186,-108 2192,-114 2192,-120 2192,-120 2192,-132 2192,-132 2192,-138 2186,-144 2180,-144"/>
</g>
<!-- n61&#45;&gt;n71 -->
<g id="edge63" class="edge">
<title>n61&#45;&gt;n71</title>
<path fill="none" stroke="#90a4ae" d="M2097.4,-164.67C2107.2,-158.98 2118.48,-152.43 2128.94,-146.36"/>
<polygon fill="#90a4ae" stroke="#90a4ae" points="2130.96,-149.23 2137.85,-141.18 2127.45,-143.18 2130.96,-149.23"/>
<text text-anchor="middle" x="2117.5" y="-155.6" font-family="Times,serif" font-size="8.00" fill="#90a4ae">a</text>
</g>
<!-- n63 -->
<g id="node64" class="node">
<title>n63</title>
<path fill="#0f1721" stroke="#1c2a3a" d="M2327.5,-198C2327.5,-198 2297.5,-198 2297.5,-198 2291.5,-198 2285.5,-192 2285.5,-186 2285.5,-186 2285.5,-174 2285.5,-174 2285.5,-168 2291.5,-162 2297.5,-162 2297.5,-162 2327.5,-162 2327.5,-162 2333.5,-162 2339.5,-168 2339.5,-174 2339.5,-174 2339.5,-186 2339.5,-186 2339.5,-192 2333.5,-198 2327.5,-198"/>
</g>
<!-- n62&#45;&gt;n63 -->
<g id="edge60" class="edge">
<title>n62&#45;&gt;n63</title>
<path fill="none" stroke="#90a4ae" d="M2192.01,-180C2215.15,-180 2249.21,-180 2275.06,-180"/>
<polygon fill="#90a4ae" stroke="#90a4ae" points="2275.22,-183.5 2285.22,-180 2275.22,-176.5 2275.22,-183.5"/>
<text text-anchor="middle" x="2212.5" y="-182.6" font-family="Times,serif" font-size="8.00" fill="#90a4ae">f</text>
</g>
<!-- n70 -->
<g id="node71" class="node">
<title>n70</title>
<path fill="#0f1721" stroke="#1c2a3a" d="M2327.5,-144C2327.5,-144 2297.5,-144 2297.5,-144 2291.5,-144 2285.5,-138 2285.5,-132 2285.5,-132 2285.5,-120 2285.5,-120 2285.5,-114 2291.5,-108 2297.5,-108 2297.5,-108 2327.5,-108 2327.5,-108 2333.5,-108 2339.5,-114 2339.5,-120 2339.5,-120 2339.5,-132 2339.5,-132 2339.5,-138 2333.5,-144 2327.5,-144"/>
</g>
<!-- n62&#45;&gt;n70 -->
<g id="edge61" class="edge">
<title>n62&#45;&gt;n70</title>
<path fill="none" stroke="#90a4ae" d="M2192.29,-169.04C2204.6,-164 2219.49,-158.04 2233,-153 2246.77,-147.86 2262.03,-142.53 2275.41,-137.98"/>
<polygon fill="#90a4ae" stroke="#90a4ae" points="2276.86,-141.18 2285.21,-134.66 2274.62,-134.55 2276.86,-141.18"/>
<text text-anchor="middle" x="2212.5" y="-163.6" font-family="Times,serif" font-size="8.00" fill="#90a4ae">a</text>
</g>
<!-- n64 -->
<g id="node65" class="node">
<title>n64</title>
<path fill="#0f1721" stroke="#1c2a3a" d="M2506.5,-198C2506.5,-198 2476.5,-198 2476.5,-198 2470.5,-198 2464.5,-192 2464.5,-186 2464.5,-186 2464.5,-174 2464.5,-174 2464.5,-168 2470.5,-162 2476.5,-162 2476.5,-162 2506.5,-162 2506.5,-162 2512.5,-162 2518.5,-168 2518.5,-174 2518.5,-174 2518.5,-186 2518.5,-186 2518.5,-192 2512.5,-198 2506.5,-198"/>
</g>
<!-- n63&#45;&gt;n64 -->
<g id="edge58" class="edge">
<title>n63&#45;&gt;n64</title>
<path fill="none" stroke="#90a4ae" d="M2339.62,-180C2369.94,-180 2420.16,-180 2454.25,-180"/>
<polygon fill="#90a4ae" stroke="#90a4ae" points="2454.28,-183.5 2464.28,-180 2454.28,-176.5 2454.28,-183.5"/>
<text text-anchor="middle" x="2412.5" y="-182.6" font-family="Times,serif" font-size="8.00" fill="#90a4ae">f</text>
</g>
<!-- n69 -->
<g id="node70" class="node">
<title>n69</title>
<path fill="#0f1721" stroke="#1c2a3a" d="M2506.5,-144C2506.5,-144 2476.5,-144 2476.5,-144 2470.5,-144 2464.5,-138 2464.5,-132 2464.5,-132 2464.5,-120 2464.5,-120 2464.5,-114 2470.5,-108 2476.5,-108 2476.5,-108 2506.5,-108 2506.5,-108 2512.5,-108 2518.5,-114 2518.5,-120 2518.5,-120 2518.5,-132 2518.5,-132 2518.5,-138 2512.5,-144 2506.5,-144"/>
</g>
<!-- n63&#45;&gt;n69 -->
<g id="edge59" class="edge">
<title>n63&#45;&gt;n69</title>
<path fill="none" stroke="#90a4ae" d="M2339.62,-172.03C2370.08,-162.74 2420.59,-147.33 2454.69,-136.92"/>
<polygon fill="#90a4ae" stroke="#90a4ae" points="2455.73,-140.27 2464.28,-134 2453.69,-133.57 2455.73,-140.27"/>
<text text-anchor="middle" x="2412.5" y="-151.6" font-family="Times,serif" font-size="8.00" fill="#90a4ae">a</text>
</g>
<!-- n65 -->
<g id="node66" class="node">
<title>n65</title>
<path fill="#0f1721" stroke="#1c2a3a" d="M2633,-198C2633,-198 2603,-198 2603,-198 2597,-198 2591,-192 2591,-186 2591,-186 2591,-174 2591,-174 2591,-168 2597,-162 2603,-162 2603,-162 2633,-162 2633,-162 2639,-162 2645,-168 2645,-174 2645,-174 2645,-186 2645,-186 2645,-192 2639,-198 2633,-198"/>
</g>
<!-- n64&#45;&gt;n65 -->
<g id="edge56" class="edge">
<title>n64&#45;&gt;n65</title>
<path fill="none" stroke="#90a4ae" d="M2518.6,-180C2536.61,-180 2560.8,-180 2580.69,-180"/>
<polygon fill="#90a4ae" stroke="#90a4ae" points="2580.94,-183.5 2590.94,-180 2580.94,-176.5 2580.94,-183.5"/>
<text text-anchor="middle" x="2570.5" y="-182.6" font-family="Times,serif" font-size="8.00" fill="#90a4ae">f</text>
</g>
<!-- n68 -->
<g id="node69" class="node">
<title>n68</title>
<path fill="#0f1721" stroke="#1c2a3a" d="M2633,-144C2633,-144 2603,-144 2603,-144 2597,-144 2591,-138 2591,-132 2591,-132 2591,-120 2591,-120 2591,-114 2597,-108 2603,-108 2603,-108 2633,-108 2633,-108 2639,-108 2645,-114 2645,-120 2645,-120 2645,-132 2645,-132 2645,-138 2639,-144 2633,-144"/>
</g>
<!-- n64&#45;&gt;n68 -->
<g id="edge57" class="edge">
<title>n64&#45;&gt;n68</title>
<path fill="none" stroke="#90a4ae" d="M2518.6,-168.68C2536.86,-160.76 2561.47,-150.08 2581.51,-141.39"/>
<polygon fill="#90a4ae" stroke="#90a4ae" points="2583.15,-144.5 2590.94,-137.31 2580.37,-138.07 2583.15,-144.5"/>
<text text-anchor="middle" x="2570.5" y="-148.6" font-family="Times,serif" font-size="8.00" fill="#90a4ae">a</text>
</g>
<!-- n66 -->
<g id="node67" class="node">
<title>n66</title>
<path fill="#0f1721" stroke="#1c2a3a" d="M2920,-198C2920,-198 2701,-198 2701,-198 2695,-198 2689,-192 2689,-186 2689,-186 2689,-174 2689,-174 2689,-168 2695,-162 2701,-162 2701,-162 2920,-162 2920,-162 2926,-162 2932,-168 2932,-174 2932,-174 2932,-186 2932,-186 2932,-192 2926,-198 2920,-198"/>
<text text-anchor="middle" x="2810.5" y="-177.8" font-family="Times,serif" font-size="9.00" fill="#e6eef7">HeytingLean.ClosingTheLoop.Cat.homTensorLeft</text>
</g>
<!-- n65&#45;&gt;n66 -->
<g id="edge54" class="edge">
<title>n65&#45;&gt;n66</title>
<path fill="none" stroke="#90a4ae" d="M2645.09,-180C2654.58,-180 2666.05,-180 2678.48,-180"/>
<polygon fill="#90a4ae" stroke="#90a4ae" points="2678.62,-183.5 2688.62,-180 2678.62,-176.5 2678.62,-183.5"/>
<text text-anchor="middle" x="2665.5" y="-182.6" font-family="Times,serif" font-size="8.00" fill="#90a4ae">f</text>
</g>
<!-- n67 -->
<g id="node68" class="node">
<title>n67</title>
<path fill="#0f1721" stroke="#1c2a3a" d="M2825.5,-144C2825.5,-144 2795.5,-144 2795.5,-144 2789.5,-144 2783.5,-138 2783.5,-132 2783.5,-132 2783.5,-120 2783.5,-120 2783.5,-114 2789.5,-108 2795.5,-108 2795.5,-108 2825.5,-108 2825.5,-108 2831.5,-108 2837.5,-114 2837.5,-120 2837.5,-120 2837.5,-132 2837.5,-132 2837.5,-138 2831.5,-144 2825.5,-144"/>
</g>
<!-- n65&#45;&gt;n67 -->
<g id="edge55" class="edge">
<title>n65&#45;&gt;n67</title>
<path fill="none" stroke="#90a4ae" d="M2645.04,-168.32C2657.3,-163.13 2672.22,-157.25 2686,-153 2714.81,-144.11 2748.26,-136.99 2773.08,-132.3"/>
<polygon fill="#90a4ae" stroke="#90a4ae" points="2773.95,-135.69 2783.15,-130.43 2772.68,-128.81 2773.95,-135.69"/>
<text text-anchor="middle" x="2665.5" y="-162.6" font-family="Times,serif" font-size="8.00" fill="#90a4ae">a</text>
</g>
<!-- n73 -->
<g id="node74" class="node">
<title>n73</title>
<path fill="#0f1721" stroke="#1c2a3a" d="M2085,-90C2085,-90 2055,-90 2055,-90 2049,-90 2043,-84 2043,-78 2043,-78 2043,-66 2043,-66 2043,-60 2049,-54 2055,-54 2055,-54 2085,-54 2085,-54 2091,-54 2097,-60 2097,-66 2097,-66 2097,-78 2097,-78 2097,-84 2091,-90 2085,-90"/>
</g>
<!-- n72&#45;&gt;n73 -->
<g id="edge76" class="edge">
<title>n72&#45;&gt;n73</title>
<path fill="none" stroke="#90a4ae" d="M2002.4,-72C2011.81,-72 2022.57,-72 2032.66,-72"/>
<polygon fill="#90a4ae" stroke="#90a4ae" points="2032.85,-75.5 2042.85,-72 2032.85,-68.5 2032.85,-75.5"/>
<text text-anchor="middle" x="2022.5" y="-74.6" font-family="Times,serif" font-size="8.00" fill="#90a4ae">f</text>
</g>
<!-- n84 -->
<g id="node85" class="node">
<title>n84</title>
<path fill="#0f1721" stroke="#1c2a3a" d="M2085,-36C2085,-36 2055,-36 2055,-36 2049,-36 2043,-30 2043,-24 2043,-24 2043,-12 2043,-12 2043,-6 2049,0 2055,0 2055,0 2085,0 2085,0 2091,0 2097,-6 2097,-12 2097,-12 2097,-24 2097,-24 2097,-30 2091,-36 2085,-36"/>
</g>
<!-- n72&#45;&gt;n84 -->
<g id="edge77" class="edge">
<title>n72&#45;&gt;n84</title>
<path fill="none" stroke="#90a4ae" d="M2002.4,-56.67C2012.2,-50.98 2023.48,-44.43 2033.94,-38.36"/>
<polygon fill="#90a4ae" stroke="#90a4ae" points="2035.96,-41.23 2042.85,-33.18 2032.45,-35.18 2035.96,-41.23"/>
<text text-anchor="middle" x="2022.5" y="-47.6" font-family="Times,serif" font-size="8.00" fill="#90a4ae">a</text>
</g>
<!-- n74 -->
<g id="node75" class="node">
<title>n74</title>
<path fill="#0f1721" stroke="#1c2a3a" d="M2180,-90C2180,-90 2150,-90 2150,-90 2144,-90 2138,-84 2138,-78 2138,-78 2138,-66 2138,-66 2138,-60 2144,-54 2150,-54 2150,-54 2180,-54 2180,-54 2186,-54 2192,-60 2192,-66 2192,-66 2192,-78 2192,-78 2192,-84 2186,-90 2180,-90"/>
</g>
<!-- n73&#45;&gt;n74 -->
<g id="edge74" class="edge">
<title>n73&#45;&gt;n74</title>
<path fill="none" stroke="#90a4ae" d="M2097.4,-72C2106.81,-72 2117.57,-72 2127.66,-72"/>
<polygon fill="#90a4ae" stroke="#90a4ae" points="2127.85,-75.5 2137.85,-72 2127.85,-68.5 2127.85,-75.5"/>
<text text-anchor="middle" x="2117.5" y="-74.6" font-family="Times,serif" font-size="8.00" fill="#90a4ae">f</text>
</g>
<!-- n83 -->
<g id="node84" class="node">
<title>n83</title>
<path fill="#0f1721" stroke="#1c2a3a" d="M2180,-36C2180,-36 2150,-36 2150,-36 2144,-36 2138,-30 2138,-24 2138,-24 2138,-12 2138,-12 2138,-6 2144,0 2150,0 2150,0 2180,0 2180,0 2186,0 2192,-6 2192,-12 2192,-12 2192,-24 2192,-24 2192,-30 2186,-36 2180,-36"/>
</g>
<!-- n73&#45;&gt;n83 -->
<g id="edge75" class="edge">
<title>n73&#45;&gt;n83</title>
<path fill="none" stroke="#90a4ae" d="M2097.4,-56.67C2107.2,-50.98 2118.48,-44.43 2128.94,-38.36"/>
<polygon fill="#90a4ae" stroke="#90a4ae" points="2130.96,-41.23 2137.85,-33.18 2127.45,-35.18 2130.96,-41.23"/>
<text text-anchor="middle" x="2117.5" y="-47.6" font-family="Times,serif" font-size="8.00" fill="#90a4ae">a</text>
</g>
<!-- n75 -->
<g id="node76" class="node">
<title>n75</title>
<path fill="#0f1721" stroke="#1c2a3a" d="M2327.5,-90C2327.5,-90 2297.5,-90 2297.5,-90 2291.5,-90 2285.5,-84 2285.5,-78 2285.5,-78 2285.5,-66 2285.5,-66 2285.5,-60 2291.5,-54 2297.5,-54 2297.5,-54 2327.5,-54 2327.5,-54 2333.5,-54 2339.5,-60 2339.5,-66 2339.5,-66 2339.5,-78 2339.5,-78 2339.5,-84 2333.5,-90 2327.5,-90"/>
</g>
<!-- n74&#45;&gt;n75 -->
<g id="edge72" class="edge">
<title>n74&#45;&gt;n75</title>
<path fill="none" stroke="#90a4ae" d="M2192.01,-72C2215.15,-72 2249.21,-72 2275.06,-72"/>
<polygon fill="#90a4ae" stroke="#90a4ae" points="2275.22,-75.5 2285.22,-72 2275.22,-68.5 2275.22,-75.5"/>
<text text-anchor="middle" x="2212.5" y="-74.6" font-family="Times,serif" font-size="8.00" fill="#90a4ae">f</text>
</g>
<!-- n82 -->
<g id="node83" class="node">
<title>n82</title>
<path fill="#0f1721" stroke="#1c2a3a" d="M2327.5,-36C2327.5,-36 2297.5,-36 2297.5,-36 2291.5,-36 2285.5,-30 2285.5,-24 2285.5,-24 2285.5,-12 2285.5,-12 2285.5,-6 2291.5,0 2297.5,0 2297.5,0 2327.5,0 2327.5,0 2333.5,0 2339.5,-6 2339.5,-12 2339.5,-12 2339.5,-24 2339.5,-24 2339.5,-30 2333.5,-36 2327.5,-36"/>
</g>
<!-- n74&#45;&gt;n82 -->
<g id="edge73" class="edge">
<title>n74&#45;&gt;n82</title>
<path fill="none" stroke="#90a4ae" d="M2192.29,-61.04C2204.6,-56 2219.49,-50.04 2233,-45 2246.77,-39.86 2262.03,-34.53 2275.41,-29.98"/>
<polygon fill="#90a4ae" stroke="#90a4ae" points="2276.86,-33.18 2285.21,-26.66 2274.62,-26.55 2276.86,-33.18"/>
<text text-anchor="middle" x="2212.5" y="-55.6" font-family="Times,serif" font-size="8.00" fill="#90a4ae">a</text>
</g>
<!-- n76 -->
<g id="node77" class="node">
<title>n76</title>
<path fill="#0f1721" stroke="#1c2a3a" d="M2506.5,-90C2506.5,-90 2476.5,-90 2476.5,-90 2470.5,-90 2464.5,-84 2464.5,-78 2464.5,-78 2464.5,-66 2464.5,-66 2464.5,-60 2470.5,-54 2476.5,-54 2476.5,-54 2506.5,-54 2506.5,-54 2512.5,-54 2518.5,-60 2518.5,-66 2518.5,-66 2518.5,-78 2518.5,-78 2518.5,-84 2512.5,-90 2506.5,-90"/>
</g>
<!-- n75&#45;&gt;n76 -->
<g id="edge70" class="edge">
<title>n75&#45;&gt;n76</title>
<path fill="none" stroke="#90a4ae" d="M2339.62,-72C2369.94,-72 2420.16,-72 2454.25,-72"/>
<polygon fill="#90a4ae" stroke="#90a4ae" points="2454.28,-75.5 2464.28,-72 2454.28,-68.5 2454.28,-75.5"/>
<text text-anchor="middle" x="2412.5" y="-74.6" font-family="Times,serif" font-size="8.00" fill="#90a4ae">f</text>
</g>
<!-- n81 -->
<g id="node82" class="node">
<title>n81</title>
<path fill="#0f1721" stroke="#1c2a3a" d="M2506.5,-36C2506.5,-36 2476.5,-36 2476.5,-36 2470.5,-36 2464.5,-30 2464.5,-24 2464.5,-24 2464.5,-12 2464.5,-12 2464.5,-6 2470.5,0 2476.5,0 2476.5,0 2506.5,0 2506.5,0 2512.5,0 2518.5,-6 2518.5,-12 2518.5,-12 2518.5,-24 2518.5,-24 2518.5,-30 2512.5,-36 2506.5,-36"/>
</g>
<!-- n75&#45;&gt;n81 -->
<g id="edge71" class="edge">
<title>n75&#45;&gt;n81</title>
<path fill="none" stroke="#90a4ae" d="M2339.62,-64.03C2370.08,-54.74 2420.59,-39.33 2454.69,-28.92"/>
<polygon fill="#90a4ae" stroke="#90a4ae" points="2455.73,-32.27 2464.28,-26 2453.69,-25.57 2455.73,-32.27"/>
<text text-anchor="middle" x="2412.5" y="-43.6" font-family="Times,serif" font-size="8.00" fill="#90a4ae">a</text>
</g>
<!-- n77 -->
<g id="node78" class="node">
<title>n77</title>
<path fill="#0f1721" stroke="#1c2a3a" d="M2633,-90C2633,-90 2603,-90 2603,-90 2597,-90 2591,-84 2591,-78 2591,-78 2591,-66 2591,-66 2591,-60 2597,-54 2603,-54 2603,-54 2633,-54 2633,-54 2639,-54 2645,-60 2645,-66 2645,-66 2645,-78 2645,-78 2645,-84 2639,-90 2633,-90"/>
</g>
<!-- n76&#45;&gt;n77 -->
<g id="edge68" class="edge">
<title>n76&#45;&gt;n77</title>
<path fill="none" stroke="#90a4ae" d="M2518.6,-72C2536.61,-72 2560.8,-72 2580.69,-72"/>
<polygon fill="#90a4ae" stroke="#90a4ae" points="2580.94,-75.5 2590.94,-72 2580.94,-68.5 2580.94,-75.5"/>
<text text-anchor="middle" x="2570.5" y="-74.6" font-family="Times,serif" font-size="8.00" fill="#90a4ae">f</text>
</g>
<!-- n80 -->
<g id="node81" class="node">
<title>n80</title>
<path fill="#0f1721" stroke="#1c2a3a" d="M2633,-36C2633,-36 2603,-36 2603,-36 2597,-36 2591,-30 2591,-24 2591,-24 2591,-12 2591,-12 2591,-6 2597,0 2603,0 2603,0 2633,0 2633,0 2639,0 2645,-6 2645,-12 2645,-12 2645,-24 2645,-24 2645,-30 2639,-36 2633,-36"/>
</g>
<!-- n76&#45;&gt;n80 -->
<g id="edge69" class="edge">
<title>n76&#45;&gt;n80</title>
<path fill="none" stroke="#90a4ae" d="M2518.6,-60.68C2536.86,-52.76 2561.47,-42.08 2581.51,-33.39"/>
<polygon fill="#90a4ae" stroke="#90a4ae" points="2583.15,-36.5 2590.94,-29.31 2580.37,-30.07 2583.15,-36.5"/>
<text text-anchor="middle" x="2570.5" y="-40.6" font-family="Times,serif" font-size="8.00" fill="#90a4ae">a</text>
</g>
<!-- n78 -->
<g id="node79" class="node">
<title>n78</title>
<path fill="#0f1721" stroke="#1c2a3a" d="M2923,-90C2923,-90 2698,-90 2698,-90 2692,-90 2686,-84 2686,-78 2686,-78 2686,-66 2686,-66 2686,-60 2692,-54 2698,-54 2698,-54 2923,-54 2923,-54 2929,-54 2935,-60 2935,-66 2935,-66 2935,-78 2935,-78 2935,-84 2929,-90 2923,-90"/>
<text text-anchor="middle" x="2810.5" y="-69.8" font-family="Times,serif" font-size="9.00" fill="#e6eef7">HeytingLean.ClosingTheLoop.Cat.homSelectorObj</text>
</g>
<!-- n77&#45;&gt;n78 -->
<g id="edge66" class="edge">
<title>n77&#45;&gt;n78</title>
<path fill="none" stroke="#90a4ae" d="M2645.09,-72C2653.84,-72 2664.27,-72 2675.59,-72"/>
<polygon fill="#90a4ae" stroke="#90a4ae" points="2675.74,-75.5 2685.74,-72 2675.74,-68.5 2675.74,-75.5"/>
<text text-anchor="middle" x="2665.5" y="-74.6" font-family="Times,serif" font-size="8.00" fill="#90a4ae">f</text>
</g>
<!-- n79 -->
<g id="node80" class="node">
<title>n79</title>
<path fill="#0f1721" stroke="#1c2a3a" d="M2825.5,-36C2825.5,-36 2795.5,-36 2795.5,-36 2789.5,-36 2783.5,-30 2783.5,-24 2783.5,-24 2783.5,-12 2783.5,-12 2783.5,-6 2789.5,0 2795.5,0 2795.5,0 2825.5,0 2825.5,0 2831.5,0 2837.5,-6 2837.5,-12 2837.5,-12 2837.5,-24 2837.5,-24 2837.5,-30 2831.5,-36 2825.5,-36"/>
</g>
<!-- n77&#45;&gt;n79 -->
<g id="edge67" class="edge">
<title>n77&#45;&gt;n79</title>
<path fill="none" stroke="#90a4ae" d="M2645.04,-60.32C2657.3,-55.13 2672.22,-49.25 2686,-45 2714.81,-36.11 2748.26,-28.99 2773.08,-24.3"/>
<polygon fill="#90a4ae" stroke="#90a4ae" points="2773.95,-27.69 2783.15,-22.43 2772.68,-20.81 2773.95,-27.69"/>
<text text-anchor="middle" x="2665.5" y="-54.6" font-family="Times,serif" font-size="8.00" fill="#90a4ae">a</text>
</g>
</g>
</svg>
