<?xml version="1.0" encoding="UTF-8" standalone="no"?>
<!DOCTYPE svg PUBLIC "-//W3C//DTD SVG 1.1//EN"
 "http://www.w3.org/Graphics/SVG/1.1/DTD/svg11.dtd">
<!-- Generated by graphviz version 2.43.0 (0)
 -->
<!-- Title: G Pages: 1 -->
<svg width="3035pt" height="657pt"
 viewBox="0.00 0.00 3035.00 657.00" xmlns="http://www.w3.org/2000/svg" xmlns:xlink="http://www.w3.org/1999/xlink">
<g id="graph0" class="graph" transform="scale(1 1) rotate(0) translate(4 653)">
<title>G</title>
<text text-anchor="middle" x="1513.5" y="-637" font-family="Times,serif" font-size="10.00">HeytingLean.ClosingTheLoop.Semantics.Realizability.realizable_invariant_of_simulation</text>
<!-- n0 -->
<g id="node1" class="node">
<title>n0</title>
<path fill="#0f1721" stroke="#1c2a3a" d="M42,-487C42,-487 12,-487 12,-487 6,-487 0,-481 0,-475 0,-475 0,-463 0,-463 0,-457 6,-451 12,-451 12,-451 42,-451 42,-451 48,-451 54,-457 54,-463 54,-463 54,-475 54,-475 54,-481 48,-487 42,-487"/>
<text text-anchor="middle" x="27" y="-466.8" font-family="Times,serif" font-size="9.00" fill="#e6eef7">∀ S₁</text>
</g>
<!-- n1 -->
<g id="node2" class="node">
<title>n1</title>
<path fill="#0f1721" stroke="#1c2a3a" d="M366,-514C366,-514 122,-514 122,-514 116,-514 110,-508 110,-502 110,-502 110,-490 110,-490 110,-484 116,-478 122,-478 122,-478 366,-478 366,-478 372,-478 378,-484 378,-490 378,-490 378,-502 378,-502 378,-508 372,-514 366,-514"/>
<text text-anchor="middle" x="244" y="-493.8" font-family="Times,serif" font-size="9.00" fill="#e6eef7">HeytingLean.ClosingTheLoop.Semantics.ReachSystem</text>
</g>
<!-- n0&#45;&gt;n1 -->
<g id="edge1" class="edge">
<title>n0&#45;&gt;n1</title>
<path fill="none" stroke="#90a4ae" d="M54.36,-472.31C66.74,-473.86 82.54,-475.85 99.72,-478.01"/>
<polygon fill="#90a4ae" stroke="#90a4ae" points="99.61,-481.52 109.97,-479.29 100.49,-474.58 99.61,-481.52"/>
<text text-anchor="middle" x="82" y="-478.6" font-family="Times,serif" font-size="8.00" fill="#90a4ae">ty</text>
</g>
<!-- n2 -->
<g id="node3" class="node">
<title>n2</title>
<path fill="#0f1721" stroke="#1c2a3a" d="M259,-460C259,-460 229,-460 229,-460 223,-460 217,-454 217,-448 217,-448 217,-436 217,-436 217,-430 223,-424 229,-424 229,-424 259,-424 259,-424 265,-424 271,-430 271,-436 271,-436 271,-448 271,-448 271,-454 265,-460 259,-460"/>
<text text-anchor="middle" x="244" y="-439.8" font-family="Times,serif" font-size="9.00" fill="#e6eef7">∀ S₂</text>
</g>
<!-- n0&#45;&gt;n2 -->
<g id="edge46" class="edge">
<title>n0&#45;&gt;n2</title>
<path fill="none" stroke="#90a4ae" d="M54.01,-463.96C59.91,-462.91 66.16,-461.85 72,-461 118.34,-454.22 172.05,-448.62 206.73,-445.3"/>
<polygon fill="#90a4ae" stroke="#90a4ae" points="207.23,-448.76 216.85,-444.34 206.57,-441.8 207.23,-448.76"/>
<text text-anchor="middle" x="82" y="-463.6" font-family="Times,serif" font-size="8.00" fill="#90a4ae">body</text>
</g>
<!-- n3 -->
<g id="node4" class="node">
<title>n3</title>
<path fill="#0f1721" stroke="#1c2a3a" d="M690,-487C690,-487 446,-487 446,-487 440,-487 434,-481 434,-475 434,-475 434,-463 434,-463 434,-457 440,-451 446,-451 446,-451 690,-451 690,-451 696,-451 702,-457 702,-463 702,-463 702,-475 702,-475 702,-481 696,-487 690,-487"/>
<text text-anchor="middle" x="568" y="-466.8" font-family="Times,serif" font-size="9.00" fill="#e6eef7">HeytingLean.ClosingTheLoop.Semantics.ReachSystem</text>
</g>
<!-- n2&#45;&gt;n3 -->
<g id="edge2" class="edge">
<title>n2&#45;&gt;n3</title>
<path fill="none" stroke="#90a4ae" d="M271.08,-444.19C304.69,-447.01 365.73,-452.12 423.67,-456.98"/>
<polygon fill="#90a4ae" stroke="#90a4ae" points="423.43,-460.47 433.69,-457.82 424.02,-453.5 423.43,-460.47"/>
<text text-anchor="middle" x="406" y="-458.6" font-family="Times,serif" font-size="8.00" fill="#90a4ae">ty</text>
</g>
<!-- n4 -->
<g id="node5" class="node">
<title>n4</title>
<path fill="#0f1721" stroke="#1c2a3a" d="M583,-433C583,-433 553,-433 553,-433 547,-433 541,-427 541,-421 541,-421 541,-409 541,-409 541,-403 547,-397 553,-397 553,-397 583,-397 583,-397 589,-397 595,-403 595,-409 595,-409 595,-421 595,-421 595,-427 589,-433 583,-433"/>
<text text-anchor="middle" x="568" y="-412.8" font-family="Times,serif" font-size="9.00" fill="#e6eef7">∀ R</text>
</g>
<!-- n2&#45;&gt;n4 -->
<g id="edge45" class="edge">
<title>n2&#45;&gt;n4</title>
<path fill="none" stroke="#90a4ae" d="M271.08,-439.81C328.23,-435.02 464.67,-423.58 530.39,-418.07"/>
<polygon fill="#90a4ae" stroke="#90a4ae" points="531.01,-421.53 540.68,-417.21 530.42,-414.55 531.01,-421.53"/>
<text text-anchor="middle" x="406" y="-431.6" font-family="Times,serif" font-size="8.00" fill="#90a4ae">body</text>
</g>
<!-- n5 -->
<g id="node6" class="node">
<title>n5</title>
<path fill="#0f1721" stroke="#1c2a3a" d="M871,-487C871,-487 770,-487 770,-487 764,-487 758,-481 758,-475 758,-475 758,-463 758,-463 758,-457 764,-451 770,-451 770,-451 871,-451 871,-451 877,-451 883,-457 883,-463 883,-463 883,-475 883,-475 883,-481 877,-487 871,-487"/>
<text text-anchor="middle" x="820.5" y="-466.8" font-family="Times,serif" font-size="9.00" fill="#e6eef7">∀ a._@._internal._hyg.0</text>
</g>
<!-- n4&#45;&gt;n5 -->
<g id="edge11" class="edge">
<title>n4&#45;&gt;n5</title>
<path fill="none" stroke="#90a4ae" d="M595.04,-420.08C621.88,-425.37 664.92,-433.98 702,-442 716.94,-445.23 732.91,-448.82 748.11,-452.29"/>
<polygon fill="#90a4ae" stroke="#90a4ae" points="747.45,-455.73 757.97,-454.55 749.01,-448.9 747.45,-455.73"/>
<text text-anchor="middle" x="730" y="-451.6" font-family="Times,serif" font-size="8.00" fill="#90a4ae">ty</text>
</g>
<!-- n14 -->
<g id="node15" class="node">
<title>n14</title>
<path fill="#0f1721" stroke="#1c2a3a" d="M835.5,-379C835.5,-379 805.5,-379 805.5,-379 799.5,-379 793.5,-373 793.5,-367 793.5,-367 793.5,-355 793.5,-355 793.5,-349 799.5,-343 805.5,-343 805.5,-343 835.5,-343 835.5,-343 841.5,-343 847.5,-349 847.5,-355 847.5,-355 847.5,-367 847.5,-367 847.5,-373 841.5,-379 835.5,-379"/>
<text text-anchor="middle" x="820.5" y="-358.8" font-family="Times,serif" font-size="9.00" fill="#e6eef7">∀ hSim</text>
</g>
<!-- n4&#45;&gt;n14 -->
<g id="edge44" class="edge">
<title>n4&#45;&gt;n14</title>
<path fill="none" stroke="#90a4ae" d="M595.33,-409.32C640.34,-399.62 732.14,-379.83 783.2,-368.83"/>
<polygon fill="#90a4ae" stroke="#90a4ae" points="784.1,-372.21 793.14,-366.68 782.63,-365.37 784.1,-372.21"/>
<text text-anchor="middle" x="730" y="-383.6" font-family="Times,serif" font-size="8.00" fill="#90a4ae">body</text>
</g>
<!-- n6 -->
<g id="node7" class="node">
<title>n6</title>
<path fill="#0f1721" stroke="#1c2a3a" d="M1016.5,-576C1016.5,-576 986.5,-576 986.5,-576 980.5,-576 974.5,-570 974.5,-564 974.5,-564 974.5,-552 974.5,-552 974.5,-546 980.5,-540 986.5,-540 986.5,-540 1016.5,-540 1016.5,-540 1022.5,-540 1028.5,-546 1028.5,-552 1028.5,-552 1028.5,-564 1028.5,-564 1028.5,-570 1022.5,-576 1016.5,-576"/>
</g>
<!-- n5&#45;&gt;n6 -->
<g id="edge5" class="edge">
<title>n5&#45;&gt;n6</title>
<path fill="none" stroke="#90a4ae" d="M857.72,-487.01C889.11,-502.62 934.23,-525.05 965.31,-540.5"/>
<polygon fill="#90a4ae" stroke="#90a4ae" points="963.96,-543.74 974.47,-545.06 967.08,-537.47 963.96,-543.74"/>
<text text-anchor="middle" x="911" y="-518.6" font-family="Times,serif" font-size="8.00" fill="#90a4ae">ty</text>
</g>
<!-- n9 -->
<g id="node10" class="node">
<title>n9</title>
<path fill="#0f1721" stroke="#1c2a3a" d="M1052,-487C1052,-487 951,-487 951,-487 945,-487 939,-481 939,-475 939,-475 939,-463 939,-463 939,-457 945,-451 951,-451 951,-451 1052,-451 1052,-451 1058,-451 1064,-457 1064,-463 1064,-463 1064,-475 1064,-475 1064,-481 1058,-487 1052,-487"/>
<text text-anchor="middle" x="1001.5" y="-466.8" font-family="Times,serif" font-size="9.00" fill="#e6eef7">∀ a._@._internal._hyg.0</text>
</g>
<!-- n5&#45;&gt;n9 -->
<g id="edge10" class="edge">
<title>n5&#45;&gt;n9</title>
<path fill="none" stroke="#90a4ae" d="M883.1,-469C897.73,-469 913.46,-469 928.5,-469"/>
<polygon fill="#90a4ae" stroke="#90a4ae" points="928.78,-472.5 938.78,-469 928.78,-465.5 928.78,-472.5"/>
<text text-anchor="middle" x="911" y="-471.6" font-family="Times,serif" font-size="8.00" fill="#90a4ae">body</text>
</g>
<!-- n7 -->
<g id="node8" class="node">
<title>n7</title>
<path fill="#0f1721" stroke="#1c2a3a" d="M1403,-630C1403,-630 1132,-630 1132,-630 1126,-630 1120,-624 1120,-618 1120,-618 1120,-606 1120,-606 1120,-600 1126,-594 1132,-594 1132,-594 1403,-594 1403,-594 1409,-594 1415,-600 1415,-606 1415,-606 1415,-618 1415,-618 1415,-624 1409,-630 1403,-630"/>
<text text-anchor="middle" x="1267.5" y="-609.8" font-family="Times,serif" font-size="9.00" fill="#e6eef7">HeytingLean.ClosingTheLoop.Semantics.ReachSystem.State</text>
</g>
<!-- n6&#45;&gt;n7 -->
<g id="edge3" class="edge">
<title>n6&#45;&gt;n7</title>
<path fill="none" stroke="#90a4ae" d="M1028.56,-564.33C1052.33,-570.02 1088.44,-578.47 1120,-585 1131.48,-587.37 1143.48,-589.75 1155.46,-592.06"/>
<polygon fill="#90a4ae" stroke="#90a4ae" points="1155.03,-595.55 1165.51,-593.98 1156.35,-588.67 1155.03,-595.55"/>
<text text-anchor="middle" x="1092" y="-582.6" font-family="Times,serif" font-size="8.00" fill="#90a4ae">f</text>
</g>
<!-- n8 -->
<g id="node9" class="node">
<title>n8</title>
<path fill="#0f1721" stroke="#1c2a3a" d="M1282.5,-576C1282.5,-576 1252.5,-576 1252.5,-576 1246.5,-576 1240.5,-570 1240.5,-564 1240.5,-564 1240.5,-552 1240.5,-552 1240.5,-546 1246.5,-540 1252.5,-540 1252.5,-540 1282.5,-540 1282.5,-540 1288.5,-540 1294.5,-546 1294.5,-552 1294.5,-552 1294.5,-564 1294.5,-564 1294.5,-570 1288.5,-576 1282.5,-576"/>
</g>
<!-- n6&#45;&gt;n8 -->
<g id="edge4" class="edge">
<title>n6&#45;&gt;n8</title>
<path fill="none" stroke="#90a4ae" d="M1028.78,-558C1076.22,-558 1176.24,-558 1230.18,-558"/>
<polygon fill="#90a4ae" stroke="#90a4ae" points="1230.33,-561.5 1240.33,-558 1230.33,-554.5 1230.33,-561.5"/>
<text text-anchor="middle" x="1092" y="-560.6" font-family="Times,serif" font-size="8.00" fill="#90a4ae">a</text>
</g>
<!-- n10 -->
<g id="node11" class="node">
<title>n10</title>
<path fill="#0f1721" stroke="#1c2a3a" d="M1282.5,-522C1282.5,-522 1252.5,-522 1252.5,-522 1246.5,-522 1240.5,-516 1240.5,-510 1240.5,-510 1240.5,-498 1240.5,-498 1240.5,-492 1246.5,-486 1252.5,-486 1252.5,-486 1282.5,-486 1282.5,-486 1288.5,-486 1294.5,-492 1294.5,-498 1294.5,-498 1294.5,-510 1294.5,-510 1294.5,-516 1288.5,-522 1282.5,-522"/>
</g>
<!-- n9&#45;&gt;n10 -->
<g id="edge8" class="edge">
<title>n9&#45;&gt;n10</title>
<path fill="none" stroke="#90a4ae" d="M1064.06,-477.16C1115.72,-484.01 1187.73,-493.56 1230.49,-499.23"/>
<polygon fill="#90a4ae" stroke="#90a4ae" points="1230.07,-502.7 1240.44,-500.55 1230.99,-495.76 1230.07,-502.7"/>
<text text-anchor="middle" x="1092" y="-483.6" font-family="Times,serif" font-size="8.00" fill="#90a4ae">ty</text>
</g>
<!-- n13 -->
<g id="node14" class="node">
<title>n13</title>
<path fill="#112033" stroke="#1c2a3a" d="M1282.5,-468C1282.5,-468 1252.5,-468 1252.5,-468 1246.5,-468 1240.5,-462 1240.5,-456 1240.5,-456 1240.5,-444 1240.5,-444 1240.5,-438 1246.5,-432 1252.5,-432 1252.5,-432 1282.5,-432 1282.5,-432 1288.5,-432 1294.5,-438 1294.5,-444 1294.5,-444 1294.5,-456 1294.5,-456 1294.5,-462 1288.5,-468 1282.5,-468"/>
<text text-anchor="middle" x="1267.5" y="-447.8" font-family="Times,serif" font-size="9.00" fill="#e6eef7">Sort</text>
</g>
<!-- n9&#45;&gt;n13 -->
<g id="edge9" class="edge">
<title>n9&#45;&gt;n13</title>
<path fill="none" stroke="#90a4ae" d="M1064.12,-463.43C1070.16,-462.93 1076.2,-462.44 1082,-462 1133.27,-458.08 1192.62,-454.36 1229.86,-452.14"/>
<polygon fill="#90a4ae" stroke="#90a4ae" points="1230.44,-455.61 1240.21,-451.52 1230.02,-448.62 1230.44,-455.61"/>
<text text-anchor="middle" x="1092" y="-464.6" font-family="Times,serif" font-size="8.00" fill="#90a4ae">body</text>
</g>
<!-- n11 -->
<g id="node12" class="node">
<title>n11</title>
<path fill="#0f1721" stroke="#1c2a3a" d="M1754,-576C1754,-576 1483,-576 1483,-576 1477,-576 1471,-570 1471,-564 1471,-564 1471,-552 1471,-552 1471,-546 1477,-540 1483,-540 1483,-540 1754,-540 1754,-540 1760,-540 1766,-546 1766,-552 1766,-552 1766,-564 1766,-564 1766,-570 1760,-576 1754,-576"/>
<text text-anchor="middle" x="1618.5" y="-555.8" font-family="Times,serif" font-size="9.00" fill="#e6eef7">HeytingLean.ClosingTheLoop.Semantics.ReachSystem.State</text>
</g>
<!-- n10&#45;&gt;n11 -->
<g id="edge6" class="edge">
<title>n10&#45;&gt;n11</title>
<path fill="none" stroke="#90a4ae" d="M1294.73,-508.06C1336.14,-514.47 1419.31,-527.33 1490.85,-538.4"/>
<polygon fill="#90a4ae" stroke="#90a4ae" points="1490.44,-541.88 1500.86,-539.95 1491.51,-534.96 1490.44,-541.88"/>
<text text-anchor="middle" x="1443" y="-533.6" font-family="Times,serif" font-size="8.00" fill="#90a4ae">f</text>
</g>
<!-- n12 -->
<g id="node13" class="node">
<title>n12</title>
<path fill="#0f1721" stroke="#1c2a3a" d="M1633.5,-522C1633.5,-522 1603.5,-522 1603.5,-522 1597.5,-522 1591.5,-516 1591.5,-510 1591.5,-510 1591.5,-498 1591.5,-498 1591.5,-492 1597.5,-486 1603.5,-486 1603.5,-486 1633.5,-486 1633.5,-486 1639.5,-486 1645.5,-492 1645.5,-498 1645.5,-498 1645.5,-510 1645.5,-510 1645.5,-516 1639.5,-522 1633.5,-522"/>
</g>
<!-- n10&#45;&gt;n12 -->
<g id="edge7" class="edge">
<title>n10&#45;&gt;n12</title>
<path fill="none" stroke="#90a4ae" d="M1294.73,-504C1356.4,-504 1510.7,-504 1581.26,-504"/>
<polygon fill="#90a4ae" stroke="#90a4ae" points="1581.44,-507.5 1591.44,-504 1581.44,-500.5 1581.44,-507.5"/>
<text text-anchor="middle" x="1443" y="-506.6" font-family="Times,serif" font-size="8.00" fill="#90a4ae">a</text>
</g>
<!-- n15 -->
<g id="node16" class="node">
<title>n15</title>
<path fill="#0f1721" stroke="#1c2a3a" d="M1016.5,-379C1016.5,-379 986.5,-379 986.5,-379 980.5,-379 974.5,-373 974.5,-367 974.5,-367 974.5,-355 974.5,-355 974.5,-349 980.5,-343 986.5,-343 986.5,-343 1016.5,-343 1016.5,-343 1022.5,-343 1028.5,-349 1028.5,-355 1028.5,-355 1028.5,-367 1028.5,-367 1028.5,-373 1022.5,-379 1016.5,-379"/>
</g>
<!-- n14&#45;&gt;n15 -->
<g id="edge18" class="edge">
<title>n14&#45;&gt;n15</title>
<path fill="none" stroke="#90a4ae" d="M847.53,-361C878.28,-361 929.64,-361 964.27,-361"/>
<polygon fill="#90a4ae" stroke="#90a4ae" points="964.44,-364.5 974.44,-361 964.44,-357.5 964.44,-364.5"/>
<text text-anchor="middle" x="911" y="-363.6" font-family="Times,serif" font-size="8.00" fill="#90a4ae">ty</text>
</g>
<!-- n22 -->
<g id="node23" class="node">
<title>n22</title>
<path fill="#0f1721" stroke="#1c2a3a" d="M1016.5,-306C1016.5,-306 986.5,-306 986.5,-306 980.5,-306 974.5,-300 974.5,-294 974.5,-294 974.5,-282 974.5,-282 974.5,-276 980.5,-270 986.5,-270 986.5,-270 1016.5,-270 1016.5,-270 1022.5,-270 1028.5,-276 1028.5,-282 1028.5,-282 1028.5,-294 1028.5,-294 1028.5,-300 1022.5,-306 1016.5,-306"/>
<text text-anchor="middle" x="1001.5" y="-285.8" font-family="Times,serif" font-size="9.00" fill="#e6eef7">∀ Q</text>
</g>
<!-- n14&#45;&gt;n22 -->
<g id="edge43" class="edge">
<title>n14&#45;&gt;n22</title>
<path fill="none" stroke="#90a4ae" d="M847.53,-350.39C878.55,-337.73 930.53,-316.54 965.16,-302.41"/>
<polygon fill="#90a4ae" stroke="#90a4ae" points="966.5,-305.64 974.44,-298.63 963.86,-299.16 966.5,-305.64"/>
<text text-anchor="middle" x="911" y="-328.6" font-family="Times,serif" font-size="8.00" fill="#90a4ae">body</text>
</g>
<!-- n16 -->
<g id="node17" class="node">
<title>n16</title>
<path fill="#0f1721" stroke="#1c2a3a" d="M1282.5,-414C1282.5,-414 1252.5,-414 1252.5,-414 1246.5,-414 1240.5,-408 1240.5,-402 1240.5,-402 1240.5,-390 1240.5,-390 1240.5,-384 1246.5,-378 1252.5,-378 1252.5,-378 1282.5,-378 1282.5,-378 1288.5,-378 1294.5,-384 1294.5,-390 1294.5,-390 1294.5,-402 1294.5,-402 1294.5,-408 1288.5,-414 1282.5,-414"/>
</g>
<!-- n15&#45;&gt;n16 -->
<g id="edge16" class="edge">
<title>n15&#45;&gt;n16</title>
<path fill="none" stroke="#90a4ae" d="M1028.78,-364.48C1076.22,-370.77 1176.24,-384.03 1230.18,-391.19"/>
<polygon fill="#90a4ae" stroke="#90a4ae" points="1229.95,-394.69 1240.33,-392.53 1230.87,-387.75 1229.95,-394.69"/>
<text text-anchor="middle" x="1092" y="-375.6" font-family="Times,serif" font-size="8.00" fill="#90a4ae">f</text>
</g>
<!-- n21 -->
<g id="node22" class="node">
<title>n21</title>
<path fill="#0f1721" stroke="#1c2a3a" d="M1282.5,-360C1282.5,-360 1252.5,-360 1252.5,-360 1246.5,-360 1240.5,-354 1240.5,-348 1240.5,-348 1240.5,-336 1240.5,-336 1240.5,-330 1246.5,-324 1252.5,-324 1252.5,-324 1282.5,-324 1282.5,-324 1288.5,-324 1294.5,-330 1294.5,-336 1294.5,-336 1294.5,-348 1294.5,-348 1294.5,-354 1288.5,-360 1282.5,-360"/>
</g>
<!-- n15&#45;&gt;n21 -->
<g id="edge17" class="edge">
<title>n15&#45;&gt;n21</title>
<path fill="none" stroke="#90a4ae" d="M1028.63,-358.55C1044.13,-357.13 1064.18,-355.36 1082,-354 1133.27,-350.08 1192.62,-346.36 1229.86,-344.14"/>
<polygon fill="#90a4ae" stroke="#90a4ae" points="1230.44,-347.61 1240.21,-343.52 1230.02,-340.62 1230.44,-347.61"/>
<text text-anchor="middle" x="1092" y="-356.6" font-family="Times,serif" font-size="8.00" fill="#90a4ae">a</text>
</g>
<!-- n17 -->
<g id="node18" class="node">
<title>n17</title>
<path fill="#0f1721" stroke="#1c2a3a" d="M1633.5,-468C1633.5,-468 1603.5,-468 1603.5,-468 1597.5,-468 1591.5,-462 1591.5,-456 1591.5,-456 1591.5,-444 1591.5,-444 1591.5,-438 1597.5,-432 1603.5,-432 1603.5,-432 1633.5,-432 1633.5,-432 1639.5,-432 1645.5,-438 1645.5,-444 1645.5,-444 1645.5,-456 1645.5,-456 1645.5,-462 1639.5,-468 1633.5,-468"/>
</g>
<!-- n16&#45;&gt;n17 -->
<g id="edge14" class="edge">
<title>n16&#45;&gt;n17</title>
<path fill="none" stroke="#90a4ae" d="M1294.73,-400.06C1356.4,-409.6 1510.7,-433.47 1581.26,-444.39"/>
<polygon fill="#90a4ae" stroke="#90a4ae" points="1581.02,-447.9 1591.44,-445.97 1582.09,-440.98 1581.02,-447.9"/>
<text text-anchor="middle" x="1443" y="-425.6" font-family="Times,serif" font-size="8.00" fill="#90a4ae">f</text>
</g>
<!-- n20 -->
<g id="node21" class="node">
<title>n20</title>
<path fill="#0f1721" stroke="#1c2a3a" d="M1633.5,-414C1633.5,-414 1603.5,-414 1603.5,-414 1597.5,-414 1591.5,-408 1591.5,-402 1591.5,-402 1591.5,-390 1591.5,-390 1591.5,-384 1597.5,-378 1603.5,-378 1603.5,-378 1633.5,-378 1633.5,-378 1639.5,-378 1645.5,-384 1645.5,-390 1645.5,-390 1645.5,-402 1645.5,-402 1645.5,-408 1639.5,-414 1633.5,-414"/>
</g>
<!-- n16&#45;&gt;n20 -->
<g id="edge15" class="edge">
<title>n16&#45;&gt;n20</title>
<path fill="none" stroke="#90a4ae" d="M1294.73,-396C1356.4,-396 1510.7,-396 1581.26,-396"/>
<polygon fill="#90a4ae" stroke="#90a4ae" points="1581.44,-399.5 1591.44,-396 1581.44,-392.5 1581.44,-399.5"/>
<text text-anchor="middle" x="1443" y="-398.6" font-family="Times,serif" font-size="8.00" fill="#90a4ae">a</text>
</g>
<!-- n18 -->
<g id="node19" class="node">
<title>n18</title>
<path fill="#0f1721" stroke="#1c2a3a" d="M2109,-495C2109,-495 1819,-495 1819,-495 1813,-495 1807,-489 1807,-483 1807,-483 1807,-471 1807,-471 1807,-465 1813,-459 1819,-459 1819,-459 2109,-459 2109,-459 2115,-459 2121,-465 2121,-471 2121,-471 2121,-483 2121,-483 2121,-489 2115,-495 2109,-495"/>
<text text-anchor="middle" x="1964" y="-474.8" font-family="Times,serif" font-size="9.00" fill="#e6eef7">HeytingLean.ClosingTheLoop.Semantics.Realizability.Simulation</text>
</g>
<!-- n17&#45;&gt;n18 -->
<g id="edge12" class="edge">
<title>n17&#45;&gt;n18</title>
<path fill="none" stroke="#90a4ae" d="M1645.6,-452.05C1678.53,-454.64 1737.97,-459.31 1796.58,-463.92"/>
<polygon fill="#90a4ae" stroke="#90a4ae" points="1796.5,-467.42 1806.74,-464.72 1797.04,-460.44 1796.5,-467.42"/>
<text text-anchor="middle" x="1786.5" y="-465.6" font-family="Times,serif" font-size="8.00" fill="#90a4ae">f</text>
</g>
<!-- n19 -->
<g id="node20" class="node">
<title>n19</title>
<path fill="#0f1721" stroke="#1c2a3a" d="M1979,-441C1979,-441 1949,-441 1949,-441 1943,-441 1937,-435 1937,-429 1937,-429 1937,-417 1937,-417 1937,-411 1943,-405 1949,-405 1949,-405 1979,-405 1979,-405 1985,-405 1991,-411 1991,-417 1991,-417 1991,-429 1991,-429 1991,-435 1985,-441 1979,-441"/>
</g>
<!-- n17&#45;&gt;n19 -->
<g id="edge13" class="edge">
<title>n17&#45;&gt;n19</title>
<path fill="none" stroke="#90a4ae" d="M1645.6,-447.95C1706.36,-443.17 1857.36,-431.3 1926.9,-425.84"/>
<polygon fill="#90a4ae" stroke="#90a4ae" points="1927.24,-429.32 1936.94,-425.05 1926.7,-422.34 1927.24,-429.32"/>
<text text-anchor="middle" x="1786.5" y="-438.6" font-family="Times,serif" font-size="8.00" fill="#90a4ae">a</text>
</g>
<!-- n23 -->
<g id="node24" class="node">
<title>n23</title>
<path fill="#0f1721" stroke="#1c2a3a" d="M1282.5,-306C1282.5,-306 1252.5,-306 1252.5,-306 1246.5,-306 1240.5,-300 1240.5,-294 1240.5,-294 1240.5,-282 1240.5,-282 1240.5,-276 1246.5,-270 1252.5,-270 1252.5,-270 1282.5,-270 1282.5,-270 1288.5,-270 1294.5,-276 1294.5,-282 1294.5,-282 1294.5,-294 1294.5,-294 1294.5,-300 1288.5,-306 1282.5,-306"/>
</g>
<!-- n22&#45;&gt;n23 -->
<g id="edge23" class="edge">
<title>n22&#45;&gt;n23</title>
<path fill="none" stroke="#90a4ae" d="M1028.78,-288C1076.22,-288 1176.24,-288 1230.18,-288"/>
<polygon fill="#90a4ae" stroke="#90a4ae" points="1230.33,-291.5 1240.33,-288 1230.33,-284.5 1230.33,-291.5"/>
<text text-anchor="middle" x="1092" y="-290.6" font-family="Times,serif" font-size="8.00" fill="#90a4ae">ty</text>
</g>
<!-- n28 -->
<g id="node29" class="node">
<title>n28</title>
<path fill="#0f1721" stroke="#1c2a3a" d="M1282.5,-217C1282.5,-217 1252.5,-217 1252.5,-217 1246.5,-217 1240.5,-211 1240.5,-205 1240.5,-205 1240.5,-193 1240.5,-193 1240.5,-187 1246.5,-181 1252.5,-181 1252.5,-181 1282.5,-181 1282.5,-181 1288.5,-181 1294.5,-187 1294.5,-193 1294.5,-193 1294.5,-205 1294.5,-205 1294.5,-211 1288.5,-217 1282.5,-217"/>
<text text-anchor="middle" x="1267.5" y="-196.8" font-family="Times,serif" font-size="9.00" fill="#e6eef7">∀ hInv</text>
</g>
<!-- n22&#45;&gt;n28 -->
<g id="edge42" class="edge">
<title>n22&#45;&gt;n28</title>
<path fill="none" stroke="#90a4ae" d="M1028.78,-279.14C1076.32,-263.11 1176.66,-229.29 1230.52,-211.13"/>
<polygon fill="#90a4ae" stroke="#90a4ae" points="1231.97,-214.33 1240.33,-207.82 1229.73,-207.7 1231.97,-214.33"/>
<text text-anchor="middle" x="1092" y="-261.6" font-family="Times,serif" font-size="8.00" fill="#90a4ae">body</text>
</g>
<!-- n24 -->
<g id="node25" class="node">
<title>n24</title>
<path fill="#0f1721" stroke="#1c2a3a" d="M1633.5,-360C1633.5,-360 1603.5,-360 1603.5,-360 1597.5,-360 1591.5,-354 1591.5,-348 1591.5,-348 1591.5,-336 1591.5,-336 1591.5,-330 1597.5,-324 1603.5,-324 1603.5,-324 1633.5,-324 1633.5,-324 1639.5,-324 1645.5,-330 1645.5,-336 1645.5,-336 1645.5,-348 1645.5,-348 1645.5,-354 1639.5,-360 1633.5,-360"/>
<text text-anchor="middle" x="1618.5" y="-339.8" font-family="Times,serif" font-size="9.00" fill="#e6eef7">Set</text>
</g>
<!-- n23&#45;&gt;n24 -->
<g id="edge19" class="edge">
<title>n23&#45;&gt;n24</title>
<path fill="none" stroke="#90a4ae" d="M1294.73,-292.06C1356.4,-301.6 1510.7,-325.47 1581.26,-336.39"/>
<polygon fill="#90a4ae" stroke="#90a4ae" points="1581.02,-339.9 1591.44,-337.97 1582.09,-332.98 1581.02,-339.9"/>
<text text-anchor="middle" x="1443" y="-317.6" font-family="Times,serif" font-size="8.00" fill="#90a4ae">f</text>
</g>
<!-- n25 -->
<g id="node26" class="node">
<title>n25</title>
<path fill="#0f1721" stroke="#1c2a3a" d="M1633.5,-306C1633.5,-306 1603.5,-306 1603.5,-306 1597.5,-306 1591.5,-300 1591.5,-294 1591.5,-294 1591.5,-282 1591.5,-282 1591.5,-276 1597.5,-270 1603.5,-270 1603.5,-270 1633.5,-270 1633.5,-270 1639.5,-270 1645.5,-276 1645.5,-282 1645.5,-282 1645.5,-294 1645.5,-294 1645.5,-300 1639.5,-306 1633.5,-306"/>
</g>
<!-- n23&#45;&gt;n25 -->
<g id="edge22" class="edge">
<title>n23&#45;&gt;n25</title>
<path fill="none" stroke="#90a4ae" d="M1294.73,-288C1356.4,-288 1510.7,-288 1581.26,-288"/>
<polygon fill="#90a4ae" stroke="#90a4ae" points="1581.44,-291.5 1591.44,-288 1581.44,-284.5 1581.44,-291.5"/>
<text text-anchor="middle" x="1443" y="-290.6" font-family="Times,serif" font-size="8.00" fill="#90a4ae">a</text>
</g>
<!-- n26 -->
<g id="node27" class="node">
<title>n26</title>
<path fill="#0f1721" stroke="#1c2a3a" d="M2099.5,-360C2099.5,-360 1828.5,-360 1828.5,-360 1822.5,-360 1816.5,-354 1816.5,-348 1816.5,-348 1816.5,-336 1816.5,-336 1816.5,-330 1822.5,-324 1828.5,-324 1828.5,-324 2099.5,-324 2099.5,-324 2105.5,-324 2111.5,-330 2111.5,-336 2111.5,-336 2111.5,-348 2111.5,-348 2111.5,-354 2105.5,-360 2099.5,-360"/>
<text text-anchor="middle" x="1964" y="-339.8" font-family="Times,serif" font-size="9.00" fill="#e6eef7">HeytingLean.ClosingTheLoop.Semantics.ReachSystem.State</text>
</g>
<!-- n25&#45;&gt;n26 -->
<g id="edge20" class="edge">
<title>n25&#45;&gt;n26</title>
<path fill="none" stroke="#90a4ae" d="M1645.6,-292.1C1686.41,-298.52 1767.94,-311.34 1838.15,-322.37"/>
<polygon fill="#90a4ae" stroke="#90a4ae" points="1838,-325.89 1848.42,-323.99 1839.09,-318.98 1838,-325.89"/>
<text text-anchor="middle" x="1786.5" y="-316.6" font-family="Times,serif" font-size="8.00" fill="#90a4ae">f</text>
</g>
<!-- n27 -->
<g id="node28" class="node">
<title>n27</title>
<path fill="#0f1721" stroke="#1c2a3a" d="M1979,-306C1979,-306 1949,-306 1949,-306 1943,-306 1937,-300 1937,-294 1937,-294 1937,-282 1937,-282 1937,-276 1943,-270 1949,-270 1949,-270 1979,-270 1979,-270 1985,-270 1991,-276 1991,-282 1991,-282 1991,-294 1991,-294 1991,-300 1985,-306 1979,-306"/>
</g>
<!-- n25&#45;&gt;n27 -->
<g id="edge21" class="edge">
<title>n25&#45;&gt;n27</title>
<path fill="none" stroke="#90a4ae" d="M1645.6,-288C1706.36,-288 1857.36,-288 1926.9,-288"/>
<polygon fill="#90a4ae" stroke="#90a4ae" points="1926.94,-291.5 1936.94,-288 1926.94,-284.5 1926.94,-291.5"/>
<text text-anchor="middle" x="1786.5" y="-290.6" font-family="Times,serif" font-size="8.00" fill="#90a4ae">a</text>
</g>
<!-- n29 -->
<g id="node30" class="node">
<title>n29</title>
<path fill="#0f1721" stroke="#1c2a3a" d="M1633.5,-217C1633.5,-217 1603.5,-217 1603.5,-217 1597.5,-217 1591.5,-211 1591.5,-205 1591.5,-205 1591.5,-193 1591.5,-193 1591.5,-187 1597.5,-181 1603.5,-181 1603.5,-181 1633.5,-181 1633.5,-181 1639.5,-181 1645.5,-187 1645.5,-193 1645.5,-193 1645.5,-205 1645.5,-205 1645.5,-211 1639.5,-217 1633.5,-217"/>
</g>
<!-- n28&#45;&gt;n29 -->
<g id="edge28" class="edge">
<title>n28&#45;&gt;n29</title>
<path fill="none" stroke="#90a4ae" d="M1294.73,-199C1356.4,-199 1510.7,-199 1581.26,-199"/>
<polygon fill="#90a4ae" stroke="#90a4ae" points="1581.44,-202.5 1591.44,-199 1581.44,-195.5 1581.44,-202.5"/>
<text text-anchor="middle" x="1443" y="-201.6" font-family="Times,serif" font-size="8.00" fill="#90a4ae">ty</text>
</g>
<!-- n34 -->
<g id="node35" class="node">
<title>n34</title>
<path fill="#0f1721" stroke="#1c2a3a" d="M1633.5,-144C1633.5,-144 1603.5,-144 1603.5,-144 1597.5,-144 1591.5,-138 1591.5,-132 1591.5,-132 1591.5,-120 1591.5,-120 1591.5,-114 1597.5,-108 1603.5,-108 1603.5,-108 1633.5,-108 1633.5,-108 1639.5,-108 1645.5,-114 1645.5,-120 1645.5,-120 1645.5,-132 1645.5,-132 1645.5,-138 1639.5,-144 1633.5,-144"/>
</g>
<!-- n28&#45;&gt;n34 -->
<g id="edge41" class="edge">
<title>n28&#45;&gt;n34</title>
<path fill="none" stroke="#90a4ae" d="M1294.73,-193.51C1356.4,-180.61 1510.7,-148.34 1581.26,-133.58"/>
<polygon fill="#90a4ae" stroke="#90a4ae" points="1582.37,-136.92 1591.44,-131.45 1580.94,-130.07 1582.37,-136.92"/>
<text text-anchor="middle" x="1443" y="-164.6" font-family="Times,serif" font-size="8.00" fill="#90a4ae">body</text>
</g>
<!-- n30 -->
<g id="node31" class="node">
<title>n30</title>
<path fill="#0f1721" stroke="#1c2a3a" d="M1979,-252C1979,-252 1949,-252 1949,-252 1943,-252 1937,-246 1937,-240 1937,-240 1937,-228 1937,-228 1937,-222 1943,-216 1949,-216 1949,-216 1979,-216 1979,-216 1985,-216 1991,-222 1991,-228 1991,-228 1991,-240 1991,-240 1991,-246 1985,-252 1979,-252"/>
</g>
<!-- n29&#45;&gt;n30 -->
<g id="edge26" class="edge">
<title>n29&#45;&gt;n30</title>
<path fill="none" stroke="#90a4ae" d="M1645.6,-201.66C1706.36,-207.85 1857.36,-223.24 1926.9,-230.32"/>
<polygon fill="#90a4ae" stroke="#90a4ae" points="1926.64,-233.81 1936.94,-231.34 1927.35,-226.85 1926.64,-233.81"/>
<text text-anchor="middle" x="1786.5" y="-217.6" font-family="Times,serif" font-size="8.00" fill="#90a4ae">f</text>
</g>
<!-- n33 -->
<g id="node34" class="node">
<title>n33</title>
<path fill="#0f1721" stroke="#1c2a3a" d="M1979,-198C1979,-198 1949,-198 1949,-198 1943,-198 1937,-192 1937,-186 1937,-186 1937,-174 1937,-174 1937,-168 1943,-162 1949,-162 1949,-162 1979,-162 1979,-162 1985,-162 1991,-168 1991,-174 1991,-174 1991,-186 1991,-186 1991,-192 1985,-198 1979,-198"/>
</g>
<!-- n29&#45;&gt;n33 -->
<g id="edge27" class="edge">
<title>n29&#45;&gt;n33</title>
<path fill="none" stroke="#90a4ae" d="M1645.6,-197.56C1706.36,-194.2 1857.36,-185.84 1926.9,-182"/>
<polygon fill="#90a4ae" stroke="#90a4ae" points="1927.15,-185.49 1936.94,-181.44 1926.76,-178.5 1927.15,-185.49"/>
<text text-anchor="middle" x="1786.5" y="-191.6" font-family="Times,serif" font-size="8.00" fill="#90a4ae">a</text>
</g>
<!-- n31 -->
<g id="node32" class="node">
<title>n31</title>
<path fill="#0f1721" stroke="#1c2a3a" d="M2472,-306C2472,-306 2174,-306 2174,-306 2168,-306 2162,-300 2162,-294 2162,-294 2162,-282 2162,-282 2162,-276 2168,-270 2174,-270 2174,-270 2472,-270 2472,-270 2478,-270 2484,-276 2484,-282 2484,-282 2484,-294 2484,-294 2484,-300 2478,-306 2472,-306"/>
<text text-anchor="middle" x="2323" y="-285.8" font-family="Times,serif" font-size="9.00" fill="#e6eef7">HeytingLean.ClosingTheLoop.Semantics.ReachSystem.IsInvariant</text>
</g>
<!-- n30&#45;&gt;n31 -->
<g id="edge24" class="edge">
<title>n30&#45;&gt;n31</title>
<path fill="none" stroke="#90a4ae" d="M1991.25,-237.97C2033.39,-244.34 2118.86,-257.27 2192.35,-268.39"/>
<polygon fill="#90a4ae" stroke="#90a4ae" points="2192.23,-271.91 2202.64,-269.95 2193.28,-264.99 2192.23,-271.91"/>
<text text-anchor="middle" x="2141.5" y="-263.6" font-family="Times,serif" font-size="8.00" fill="#90a4ae">f</text>
</g>
<!-- n32 -->
<g id="node33" class="node">
<title>n32</title>
<path fill="#0f1721" stroke="#1c2a3a" d="M2338,-252C2338,-252 2308,-252 2308,-252 2302,-252 2296,-246 2296,-240 2296,-240 2296,-228 2296,-228 2296,-222 2302,-216 2308,-216 2308,-216 2338,-216 2338,-216 2344,-216 2350,-222 2350,-228 2350,-228 2350,-240 2350,-240 2350,-246 2344,-252 2338,-252"/>
</g>
<!-- n30&#45;&gt;n32 -->
<g id="edge25" class="edge">
<title>n30&#45;&gt;n32</title>
<path fill="none" stroke="#90a4ae" d="M1991.25,-234C2054.05,-234 2213.07,-234 2285.3,-234"/>
<polygon fill="#90a4ae" stroke="#90a4ae" points="2285.71,-237.5 2295.71,-234 2285.71,-230.5 2285.71,-237.5"/>
<text text-anchor="middle" x="2141.5" y="-236.6" font-family="Times,serif" font-size="8.00" fill="#90a4ae">a</text>
</g>
<!-- n35 -->
<g id="node36" class="node">
<title>n35</title>
<path fill="#0f1721" stroke="#1c2a3a" d="M1979,-144C1979,-144 1949,-144 1949,-144 1943,-144 1937,-138 1937,-132 1937,-132 1937,-120 1937,-120 1937,-114 1943,-108 1949,-108 1949,-108 1979,-108 1979,-108 1985,-108 1991,-114 1991,-120 1991,-120 1991,-132 1991,-132 1991,-138 1985,-144 1979,-144"/>
</g>
<!-- n34&#45;&gt;n35 -->
<g id="edge31" class="edge">
<title>n34&#45;&gt;n35</title>
<path fill="none" stroke="#90a4ae" d="M1645.6,-126C1706.36,-126 1857.36,-126 1926.9,-126"/>
<polygon fill="#90a4ae" stroke="#90a4ae" points="1926.94,-129.5 1936.94,-126 1926.94,-122.5 1926.94,-129.5"/>
<text text-anchor="middle" x="1786.5" y="-128.6" font-family="Times,serif" font-size="8.00" fill="#90a4ae">f</text>
</g>
<!-- n38 -->
<g id="node39" class="node">
<title>n38</title>
<path fill="#0f1721" stroke="#1c2a3a" d="M1979,-90C1979,-90 1949,-90 1949,-90 1943,-90 1937,-84 1937,-78 1937,-78 1937,-66 1937,-66 1937,-60 1943,-54 1949,-54 1949,-54 1979,-54 1979,-54 1985,-54 1991,-60 1991,-66 1991,-66 1991,-78 1991,-78 1991,-84 1985,-90 1979,-90"/>
</g>
<!-- n34&#45;&gt;n38 -->
<g id="edge40" class="edge">
<title>n34&#45;&gt;n38</title>
<path fill="none" stroke="#90a4ae" d="M1645.6,-121.9C1706.36,-112.35 1857.36,-88.61 1926.9,-77.68"/>
<polygon fill="#90a4ae" stroke="#90a4ae" points="1927.6,-81.11 1936.94,-76.1 1926.52,-74.19 1927.6,-81.11"/>
<text text-anchor="middle" x="1786.5" y="-101.6" font-family="Times,serif" font-size="8.00" fill="#90a4ae">a</text>
</g>
<!-- n36 -->
<g id="node37" class="node">
<title>n36</title>
<path fill="#0f1721" stroke="#1c2a3a" d="M2472,-198C2472,-198 2174,-198 2174,-198 2168,-198 2162,-192 2162,-186 2162,-186 2162,-174 2162,-174 2162,-168 2168,-162 2174,-162 2174,-162 2472,-162 2472,-162 2478,-162 2484,-168 2484,-174 2484,-174 2484,-186 2484,-186 2484,-192 2478,-198 2472,-198"/>
<text text-anchor="middle" x="2323" y="-177.8" font-family="Times,serif" font-size="9.00" fill="#e6eef7">HeytingLean.ClosingTheLoop.Semantics.ReachSystem.IsInvariant</text>
</g>
<!-- n35&#45;&gt;n36 -->
<g id="edge29" class="edge">
<title>n35&#45;&gt;n36</title>
<path fill="none" stroke="#90a4ae" d="M1991.25,-129.97C2033.39,-136.34 2118.86,-149.27 2192.35,-160.39"/>
<polygon fill="#90a4ae" stroke="#90a4ae" points="2192.23,-163.91 2202.64,-161.95 2193.28,-156.99 2192.23,-163.91"/>
<text text-anchor="middle" x="2141.5" y="-155.6" font-family="Times,serif" font-size="8.00" fill="#90a4ae">f</text>
</g>
<!-- n37 -->
<g id="node38" class="node">
<title>n37</title>
<path fill="#0f1721" stroke="#1c2a3a" d="M2338,-144C2338,-144 2308,-144 2308,-144 2302,-144 2296,-138 2296,-132 2296,-132 2296,-120 2296,-120 2296,-114 2302,-108 2308,-108 2308,-108 2338,-108 2338,-108 2344,-108 2350,-114 2350,-120 2350,-120 2350,-132 2350,-132 2350,-138 2344,-144 2338,-144"/>
</g>
<!-- n35&#45;&gt;n37 -->
<g id="edge30" class="edge">
<title>n35&#45;&gt;n37</title>
<path fill="none" stroke="#90a4ae" d="M1991.25,-126C2054.05,-126 2213.07,-126 2285.3,-126"/>
<polygon fill="#90a4ae" stroke="#90a4ae" points="2285.71,-129.5 2295.71,-126 2285.71,-122.5 2285.71,-129.5"/>
<text text-anchor="middle" x="2141.5" y="-128.6" font-family="Times,serif" font-size="8.00" fill="#90a4ae">a</text>
</g>
<!-- n39 -->
<g id="node40" class="node">
<title>n39</title>
<path fill="#0f1721" stroke="#1c2a3a" d="M2338,-90C2338,-90 2308,-90 2308,-90 2302,-90 2296,-84 2296,-78 2296,-78 2296,-66 2296,-66 2296,-60 2302,-54 2308,-54 2308,-54 2338,-54 2338,-54 2344,-54 2350,-60 2350,-66 2350,-66 2350,-78 2350,-78 2350,-84 2344,-90 2338,-90"/>
</g>
<!-- n38&#45;&gt;n39 -->
<g id="edge38" class="edge">
<title>n38&#45;&gt;n39</title>
<path fill="none" stroke="#90a4ae" d="M1991.25,-72C2054.05,-72 2213.07,-72 2285.3,-72"/>
<polygon fill="#90a4ae" stroke="#90a4ae" points="2285.71,-75.5 2295.71,-72 2285.71,-68.5 2285.71,-75.5"/>
<text text-anchor="middle" x="2141.5" y="-74.6" font-family="Times,serif" font-size="8.00" fill="#90a4ae">f</text>
</g>
<!-- n46 -->
<g id="node47" class="node">
<title>n46</title>
<path fill="#0f1721" stroke="#1c2a3a" d="M2338,-36C2338,-36 2308,-36 2308,-36 2302,-36 2296,-30 2296,-24 2296,-24 2296,-12 2296,-12 2296,-6 2302,0 2308,0 2308,0 2338,0 2338,0 2344,0 2350,-6 2350,-12 2350,-12 2350,-24 2350,-24 2350,-30 2344,-36 2338,-36"/>
</g>
<!-- n38&#45;&gt;n46 -->
<g id="edge39" class="edge">
<title>n38&#45;&gt;n46</title>
<path fill="none" stroke="#90a4ae" d="M1991.25,-68.03C2054.18,-58.51 2213.72,-34.38 2285.74,-23.48"/>
<polygon fill="#90a4ae" stroke="#90a4ae" points="2286.35,-26.93 2295.71,-21.98 2285.3,-20.01 2286.35,-26.93"/>
<text text-anchor="middle" x="2141.5" y="-47.6" font-family="Times,serif" font-size="8.00" fill="#90a4ae">a</text>
</g>
<!-- n40 -->
<g id="node41" class="node">
<title>n40</title>
<path fill="#0f1721" stroke="#1c2a3a" d="M2567,-122C2567,-122 2537,-122 2537,-122 2531,-122 2525,-116 2525,-110 2525,-110 2525,-98 2525,-98 2525,-92 2531,-86 2537,-86 2537,-86 2567,-86 2567,-86 2573,-86 2579,-92 2579,-98 2579,-98 2579,-110 2579,-110 2579,-116 2573,-122 2567,-122"/>
</g>
<!-- n39&#45;&gt;n40 -->
<g id="edge36" class="edge">
<title>n39&#45;&gt;n40</title>
<path fill="none" stroke="#90a4ae" d="M2350.04,-75.67C2390.55,-81.38 2468.8,-92.41 2514.79,-98.9"/>
<polygon fill="#90a4ae" stroke="#90a4ae" points="2514.52,-102.39 2524.92,-100.32 2515.5,-95.46 2514.52,-102.39"/>
<text text-anchor="middle" x="2504.5" y="-99.6" font-family="Times,serif" font-size="8.00" fill="#90a4ae">f</text>
</g>
<!-- n45 -->
<g id="node46" class="node">
<title>n45</title>
<path fill="#0f1721" stroke="#1c2a3a" d="M2567,-68C2567,-68 2537,-68 2537,-68 2531,-68 2525,-62 2525,-56 2525,-56 2525,-44 2525,-44 2525,-38 2531,-32 2537,-32 2537,-32 2567,-32 2567,-32 2573,-32 2579,-38 2579,-44 2579,-44 2579,-56 2579,-56 2579,-62 2573,-68 2567,-68"/>
</g>
<!-- n39&#45;&gt;n45 -->
<g id="edge37" class="edge">
<title>n39&#45;&gt;n45</title>
<path fill="none" stroke="#90a4ae" d="M2350.04,-69.48C2390.55,-65.55 2468.8,-57.97 2514.79,-53.51"/>
<polygon fill="#90a4ae" stroke="#90a4ae" points="2515.3,-56.98 2524.92,-52.53 2514.62,-50.01 2515.3,-56.98"/>
<text text-anchor="middle" x="2504.5" y="-56.6" font-family="Times,serif" font-size="8.00" fill="#90a4ae">a</text>
</g>
<!-- n41 -->
<g id="node42" class="node">
<title>n41</title>
<path fill="#0f1721" stroke="#1c2a3a" d="M2662,-154C2662,-154 2632,-154 2632,-154 2626,-154 2620,-148 2620,-142 2620,-142 2620,-130 2620,-130 2620,-124 2626,-118 2632,-118 2632,-118 2662,-118 2662,-118 2668,-118 2674,-124 2674,-130 2674,-130 2674,-142 2674,-142 2674,-148 2668,-154 2662,-154"/>
</g>
<!-- n40&#45;&gt;n41 -->
<g id="edge34" class="edge">
<title>n40&#45;&gt;n41</title>
<path fill="none" stroke="#90a4ae" d="M2579.4,-113.08C2589.01,-116.39 2600.03,-120.18 2610.3,-123.72"/>
<polygon fill="#90a4ae" stroke="#90a4ae" points="2609.26,-127.06 2619.85,-127 2611.54,-120.44 2609.26,-127.06"/>
<text text-anchor="middle" x="2599.5" y="-122.6" font-family="Times,serif" font-size="8.00" fill="#90a4ae">f</text>
</g>
<!-- n44 -->
<g id="node45" class="node">
<title>n44</title>
<path fill="#0f1721" stroke="#1c2a3a" d="M2662,-100C2662,-100 2632,-100 2632,-100 2626,-100 2620,-94 2620,-88 2620,-88 2620,-76 2620,-76 2620,-70 2626,-64 2632,-64 2632,-64 2662,-64 2662,-64 2668,-64 2674,-70 2674,-76 2674,-76 2674,-88 2674,-88 2674,-94 2668,-100 2662,-100"/>
</g>
<!-- n40&#45;&gt;n44 -->
<g id="edge35" class="edge">
<title>n40&#45;&gt;n44</title>
<path fill="none" stroke="#90a4ae" d="M2579.4,-97.75C2588.91,-95.51 2599.8,-92.93 2609.98,-90.52"/>
<polygon fill="#90a4ae" stroke="#90a4ae" points="2610.93,-93.89 2619.85,-88.18 2609.32,-87.08 2610.93,-93.89"/>
<text text-anchor="middle" x="2599.5" y="-95.6" font-family="Times,serif" font-size="8.00" fill="#90a4ae">a</text>
</g>
<!-- n42 -->
<g id="node43" class="node">
<title>n42</title>
<path fill="#0f1721" stroke="#1c2a3a" d="M3015,-181C3015,-181 2727,-181 2727,-181 2721,-181 2715,-175 2715,-169 2715,-169 2715,-157 2715,-157 2715,-151 2721,-145 2727,-145 2727,-145 3015,-145 3015,-145 3021,-145 3027,-151 3027,-157 3027,-157 3027,-169 3027,-169 3027,-175 3021,-181 3015,-181"/>
<text text-anchor="middle" x="2871" y="-160.8" font-family="Times,serif" font-size="9.00" fill="#e6eef7">HeytingLean.ClosingTheLoop.Semantics.Realizability.Realizable</text>
</g>
<!-- n41&#45;&gt;n42 -->
<g id="edge32" class="edge">
<title>n41&#45;&gt;n42</title>
<path fill="none" stroke="#90a4ae" d="M2674.34,-139.2C2684.79,-140.47 2697.71,-142.05 2711.88,-143.77"/>
<polygon fill="#90a4ae" stroke="#90a4ae" points="2711.53,-147.25 2721.88,-144.99 2712.38,-140.3 2711.53,-147.25"/>
<text text-anchor="middle" x="2694.5" y="-143.6" font-family="Times,serif" font-size="8.00" fill="#90a4ae">f</text>
</g>
<!-- n43 -->
<g id="node44" class="node">
<title>n43</title>
<path fill="#0f1721" stroke="#1c2a3a" d="M2886,-127C2886,-127 2856,-127 2856,-127 2850,-127 2844,-121 2844,-115 2844,-115 2844,-103 2844,-103 2844,-97 2850,-91 2856,-91 2856,-91 2886,-91 2886,-91 2892,-91 2898,-97 2898,-103 2898,-103 2898,-115 2898,-115 2898,-121 2892,-127 2886,-127"/>
</g>
<!-- n41&#45;&gt;n43 -->
<g id="edge33" class="edge">
<title>n41&#45;&gt;n43</title>
<path fill="none" stroke="#90a4ae" d="M2674.01,-130.94C2679.91,-129.89 2686.16,-128.84 2692,-128 2740.99,-120.94 2797.93,-115.31 2833.95,-112.06"/>
<polygon fill="#90a4ae" stroke="#90a4ae" points="2834.33,-115.54 2843.98,-111.17 2833.71,-108.57 2834.33,-115.54"/>
<text text-anchor="middle" x="2694.5" y="-130.6" font-family="Times,serif" font-size="8.00" fill="#90a4ae">a</text>
</g>
</g>
</svg>
